<svg clip-rule="evenodd" fill-rule="evenodd" stroke-linejoin="round" stroke-miterlimit="2" viewBox="0 0 32 32" xmlns="http://www.w3.org/2000/svg"><g transform="translate(-96 -96)"><path d="m112 97c-8.279 0-15 6.721-15 15s6.721 15 15 15 15-6.721 15-15-6.721-15-15-15zm0 2c7.175 0 13 5.825 13 13s-5.825 13-13 13-13-5.825-13-13 5.825-13 13-13z" fill="#2b2d42"/><path d="m110.586 112-5.243 5.243c-.39.39-.39 1.024 0 1.414s1.024.39 1.414 0l5.243-5.243 5.243 5.243c.39.39 1.024.39 1.414 0s.39-1.024 0-1.414l-5.243-5.243 5.243-5.243c.39-.39.39-1.024 0-1.414s-1.024-.39-1.414 0l-5.243 5.243-5.243-5.243c-.39-.39-1.024-.39-1.414 0s-.39 1.024 0 1.414z" fill="#ee243a"/></g></svg>