<svg xmlns="http://www.w3.org/2000/svg" id="Layer_1" version="1.1" viewBox="0 0 500 500">
  <path fill="#7c7a2d" d="M56.12,380.76h378.5s-.02-.06-.02-.1c.95-.61,1.87-1.26,2.72-1.99,5.19-4.26,8.74-10.44,9.51-17.5.1-.95.16-1.95.16-2.94,0-2.47-.34-4.87-.97-7.14-.18-.65-.39-1.3-.61-1.95-1.78-4.87-4.95-9.06-9-12.1-1.22-.93-2.49-1.74-3.85-2.41-.34-.18-.67-.36-1.03-.51-3.35-1.56-7.1-2.41-11.05-2.41-1.28,0-2.55.1-3.79.28-3.93.55-7.56,1.97-10.75,4.05-1.58,1.03-3.04,2.25-4.36,3.59-.37-14.33-12.06-25.87-26.5-25.87-1.5,0-2.96.16-4.4.41-.53-4.18-1.72-8.15-3.53-11.78-4.91-9.97-14.13-17.44-25.26-19.93-1.74-.39-3.55-.65-5.37-.79-.91-.06-1.85-.1-2.78-.1-1.95,0-3.85.14-5.7.43-2.7.43-5.31,1.14-7.77,2.09-8.74,3.39-15.87,9.97-19.97,18.31-.32.63-.63,1.3-.91,1.97-2.05-.81-4.16-1.48-6.35-1.97-3.22-.75-6.59-1.16-10.06-1.16-1.74,0-3.49.1-5.17.3-10.74,1.24-20.34,6.28-27.37,13.79-2.76-4.24-6.69-7.64-11.35-9.73-3.3-1.5-6.99-2.33-10.85-2.33-.55,0-1.07.02-1.6.06-6,.34-11.5,2.72-15.77,6.43-.59.51-1.18,1.05-1.72,1.62-.18.18-.36.36-.53.55-.04.06-.1.1-.12.14-.91,1.01-1.72,2.07-2.47,3.2-.1.14-.2.3-.3.47-1.62,2.6-2.8,5.47-3.45,8.58-.04.16-.06.32-.08.49-.32,1.62-.49,3.3-.49,5.01,0,1.24.12,2.43.28,3.63-3.93-2.29-8.47-3.63-13.36-3.63-2.7,0-5.31.41-7.74,1.16-6.47,1.97-11.86,6.35-15.18,12.08-1.42-13.32-12.69-23.7-26.38-23.7-14.56,0-26.38,11.72-26.52,26.26-4.03-1.2-8.29-1.85-12.71-1.85-21.96,0-40.22,15.85-43.93,36.74-.04.08-.04.16-.04.26Z"/>
  <circle cx="365.53" cy="329.51" r="1.66" fill="#baae45"/>
  <circle cx="254.73" cy="328.52" r="1.66" fill="#baae45"/>
  <circle cx="414.22" cy="358" r="1.66" fill="#baae45"/>
  <circle cx="303.26" cy="319.24" r="1.66" fill="#baae45"/>
  <circle cx="218.44" cy="349.35" r="1.66" fill="#baae45"/>
  <circle cx="338.7" cy="293.74" r="1.66" fill="#baae45"/>
  <path fill="#baae45" d="M136.74,376.4s-2.86-12.35-10.44-22.11c-7.58-9.76-15.06-16.13-15.06-16.13,0,0,20.54,10.25,24.98,18.9l-9.7-23.36s17.34,23.25,17.61,22.38c.27-.87-3.47-28.45-3.47-28.45l10.56,25.67,3.98-28.71,6.35,28.22s7.23-26.42,12.04-30.03c0,0,1.91,28.06,1.46,30.82-.46,2.76,18.25-24.58,18.25-24.58,0,0-8.86,20.94-7.5,29.33l16.71-16.3-13.85,32.9-51.9,1.45Z"/>
  <g>
    <path fill="#baae45" d="M336,375.23s1.95-8.87,6.59-18.62c4.64-9.75,7.86-28.45,6.47-28.96s-4.17,10.45-8.71,17.63c-4.54,7.18-7.36,21.01-4.46,28.69"/>
    <path fill="#baae45" d="M333.46,372.26s0-14.35-.34-24.97c-.33-10.62-3.75-40.99-6.52-42-2.77-1.01-3.12,16.66-3.58,30.31-.46,13.65,6.53,40.03,6.53,40.03l3.91-3.38Z"/>
    <path fill="#baae45" d="M328.38,369.34s-5.02-13.93-14.3-23.13c-9.28-9.2-16.99-14.75-18.61-14.09-1.61.66,4.21,7.08,11.1,16.31,6.9,9.23,20.99,30.65,21.05,30.16.06-.49.75-9.25.75-9.25Z"/>
  </g>
  <path fill="#a55d3d" d="M206.69,365.93c-18.3-4.2-64.14-2.72-82.19,1.03-21.74,4.51-44.98.17-65.28,10.67-12.61,6.52-28.08,12.16-25.7,28.56,2.06,14.16,27.92,9.66,39.37,13.24,28.74,9,47.87,15.36,77.27,10.42,29.26-4.91,58.85,2.24,88.29,5.14,34.98,3.44,70.15.86,105.18-1.73,23.48-1.73,46.96-3.47,70.44-5.2,11.4-.84,24.38-2.69,31.01-14,7.5-12.77,29.06-13.37,19.04-23.27-10.02-9.89-71.1-26.03-83.79-28.83-74.44-16.39-77.04,26.15-173.64,3.96Z"/>
  <g>
    <ellipse cx="267.32" cy="399.36" fill="#914c30" rx="21.81" ry="5.88" transform="rotate(-26.47 267.288 399.324)"/>
    <g>
      <path fill="#2e2c41" d="M118.73,179.23s-14.76,11.91-14.76,46.53,4.39,63.85,4.39,63.85c0,0-10.46,27.61-10.68,41.84-.1,6.46-6.39,25.04-6.39,25.04l2.93,35.01s4.81-39.78,31.35-47.37c5.58-1.59,14.64-30.34,16.4-36.01,4.8-15.42,8.3-56.5,8.3-56.5l37.51,24.74c2.4,5.14,14.8,35.05,26.81,37.3,6.38,1.19,16.52-8.63,16.4-14.91-.25-12.42-13.85-36.57-18.3-45.14-4.46-8.57-36.47-51.87-36.47-51.87l-28.01-15.08-29.45-7.42Z"/>
      <path fill="none" stroke="#fff" stroke-linecap="round" stroke-linejoin="round" stroke-width=".38" d="M108.36,289.6s3.64-6.94,8.99-6.69"/>
      <g>
        <path fill="#2e2c41" d="M233.89,368.83s1.47,4.66,3.28,4.86c1.81.19,14.03-4.61,15.84-5.64,1.81-1.03,1.64-2.91,1.64-2.91,0,0,1.47-.36,4.95-.5,3.48-.14,7.05-.89,12.43-3.28,5.38-2.39,9.23-5.22,9.86-6.77s-2.12-6.6-5.12-6.3c-3,.29-2.16,2.57-2.16,2.57l-32.35,11.9-8.37,6.09Z"/>
        <path fill="#f7a54b" d="M227.3,350.9s11.51-1.99,15.92-7.7c0,0,9.47,4.3,13.9,5.06,4.42.76,10.94-1.12,14.46-1.19,3.51-.06,8.2,1.12,9.26,3.98,1.07,2.86-6.48,5.95-13.59,8.64-7.11,2.69-13.41,3.38-16.99,4.97-3.58,1.59-12.8,5.67-15.6,4.74-2.8-.93-4.04-6.01-5.13-10.16-1.09-4.14-2.21-8.35-2.21-8.35Z"/>
        <path fill="#f7a54b" d="M227.57,352.01l-20-42.43s15.61-10.4,21.6-11.86c2.35-.57,3.25,1.35,3.25,1.35,0,0,13.62,42.36,16.53,46.37,2.91,4.01-13.12,5.91-13.12,5.91l-8.26.66Z"/>
      </g>
      <path fill="#ffa67c" d="M226.54,115.15l-8.25,21.4-17.51-31s8.7-5.63,13.01-10.03c2.2,5.53,12.75,19.63,12.75,19.63Z"/>
      <path fill="#fbe9de" d="M208.95,99.38s-27.66-10.78-31.08-8.38c-3.43,2.4-41.85,61.26-49.39,70.17-7.54,8.91-11.07,18.55-11.07,18.55,0,0,2.06,5.83,15.08,7.2,13.02,1.37,44.9,15.77,44.9,15.77,0,0,9.98-20.07,22.32-32.41,12.34-12.34,34.33-36.53,35.02-39.27.69-2.74-9.01-15.03-9.01-15.03,0,0-3.33,13.32-11.21,7.83-7.88-5.48-5.55-24.43-5.55-24.43Z"/>
      <path fill="#ffa67c" d="M234.73,131.02s2.74,7.2-1.71,20.91c-4.46,13.71-18.16,54.84-18.51,55.87s-.64,59.83-.64,59.83l-11.49-.32s-5.63-46.99-7.34-60.01c-1.71-13.02,8.51-43.71,8.51-43.71l31.19-32.56Z"/>
      <path fill="#fbe9de" d="M234.73,131.02s3.26,8.69-1.54,24.1c-4.8,15.4-7.29,19.05-7.29,19.05,0,0-16.73-3.15-24.51-9.61-7.78-6.46,16.23-24.02,16.23-24.02l17.11-9.52Z"/>
      <path fill="#f26f55" d="M210.05,157.9s18.48-34.32,17.28-39.58l-1.92-1.56s-8.79,24-19.08,40.4l3.72.74Z"/>
      <path fill="#f26f55" d="M182.27,129.01s-25.06,21.36-40.3,23.33c-9.55,1.24-17.53,11.13-17.53,11.13,0,0-13.73,16.96-14.68,27.45-.95,10.5,12.81,41.16,17.9,66.93,5.09,25.77,5.41,34.68,11.45,37.86,6.04,3.18,49.05-28.35,57.64-49.67,0,0,4.61-15.62-3.97-24.84-8.59-9.23-10.71-11.29-10.71-13.83,0-2.55,2.86-3.59,2.54-6.14s-1.51-.24-.87-5.97c.64-5.73,23.46-30.67,26.33-37.35l-27.78-28.9Z"/>
      <path fill="#ffa67c" d="M199.29,275.33c.04.17.07.34.11.51.77,3.66,2.36,2.67,2.36,2.67.19,2.43,2.94,2.03,2.94,2.03.5,1.64,3.47,1.27,3.47,1.27,0,0,.48,1.56,1.75,1.74,1.02.15,1.86-.91,2.14-1.33.07-.1.1-.15.1-.15,0,0,.72-4.08.74-5.13.02-1.07.71-4.89.65-5.15-.05-.25-3.37-3.4-3.37-3.4l-6.71-8.01-.84,3.89s-1.65,1.87-2.12,4.76c-.32,1.98-1.75,2.99-1.21,6.3Z"/>
      <path fill="#2e2c41" d="M148.88,121.82s-2.15.83-3.48-8.94c-1.32-9.77,9.11,2.82,9.11,2.82l-5.63,6.13Z"/>
      <path fill="#ffa67c" d="M176.12,91.94s-50.38-5.14-59.98,5.14c-9.6,10.28,26.09,65.19,26.09,65.19l9.58-6.22-7.91-39.43s23.99.69,26.73-2.74c2.74-3.43,5.48-21.93,5.48-21.93Z"/>
      <g>
        <path fill="#2e2c41" d="M260.64,367.29l-11.91,5.82-5.12-10.48c-.87-1.79-.13-3.94,1.65-4.82l5.43-2.66c1.79-.87,3.94-.13,4.82,1.65l5.12,10.48Z"/>
        <path fill="#fbe9de" d="M278.69,392.55l-1.02.54-2.1,1.1-8.75-17.25c-.38-.77-.92-1.36-1.48-1.69-.13-.08-.23-.13-.33-.15-.46-.23-.9-.23-1.28-.05-.95.46-1.15,2.07-.41,3.61l8.32,17.6-1.38.72-2.1,1.1-8.85-17.48c-.38-.77-.92-1.33-1.48-1.69-.1-.08-.23-.13-.33-.15-.43-.2-.9-.23-1.28-.05-.95.49-1.15,2.07-.41,3.61l8.42,17.83-1.38.72-2.1,1.1-8.96-17.68c-.38-.77-.92-1.36-1.48-1.69-.1-.08-.23-.13-.33-.15-.43-.2-.9-.23-1.28-.05-.95.46-1.15,2.07-.41,3.61l8.5,18.01-.97.51-2.12,1.13-12.87-23.26c-1.74-3.17-1.48-6.73.56-7.73l1.59-.77,19.16-9.39c2.05-1,5.01.97,6.45,4.3l10.13,23.74Z"/>
        <path fill="#efccbb" d="M280.82,391.45l-2.12,1.1-1.02.54-8.75-17.27c-.38-.77-.92-1.36-1.48-1.69-.54-.36-1.13-.43-1.61-.2-.43.2-.69.64-.82,1.18-.13.69,0,1.59.41,2.43l8.32,17.63-2.1,1.1-1.38.72-8.85-17.48c-.38-.77-.92-1.36-1.48-1.69-.54-.36-1.13-.43-1.61-.2-.41.2-.69.61-.82,1.15-.13.69,0,1.59.41,2.46l8.42,17.83-2.1,1.1-1.38.72-8.96-17.71c-.38-.77-.92-1.33-1.48-1.69-.54-.33-1.13-.43-1.61-.2-.44.2-.69.64-.82,1.18-.13.69,0,1.59.41,2.43l8.52,18.04-2.12,1.1-.97.51-12.9-23.26c-1.59-2.89-1.51-6.09.05-7.37.15-.15.33-.26.51-.36l20.75-10.16c2.05-1,5.01,1,6.45,4.32l10.16,23.74Z"/>
        <polygon fill="#a55d3d" points="161.61 178.87 156.69 181.27 245.52 357.69 250.44 355.28 161.61 178.87"/>
        <path fill="#2e2c41" d="M158,161.07l-15.98,7.81c-1,.49-1.14,2.08-.28,3.23l3.59,4.78c3.4,4.53,8.57,6.36,12.53,4.42l.22-.11c3.96-1.94,5.7-7.14,4.21-12.61l-1.57-5.76c-.38-1.39-1.72-2.26-2.72-1.77ZM157.7,166.21l1.3,4.79c.79,2.9-.13,5.65-2.23,6.68l-.9.44c-2.1,1.03-4.84.06-6.64-2.34l-2.98-3.97c-.23-.3-.19-.73.07-.86l10.65-5.2c.27-.13.63.1.73.47Z"/>
        <path fill="#474759" d="M159.4,160.33l-15.98,7.81c-1,.49-1.14,2.08-.28,3.23l3.59,4.78c3.4,4.53,8.57,6.36,12.53,4.42l.22-.11c3.96-1.94,5.7-7.14,4.21-12.61l-1.57-5.76c-.38-1.39-1.72-2.26-2.72-1.77ZM159.1,165.46l1.3,4.79c.79,2.9-.13,5.65-2.23,6.68l-.9.44c-2.1,1.03-4.84.06-6.64-2.34l-2.98-3.97c-.23-.3-.19-.73.07-.86l10.65-5.2c.27-.13.63.1.73.47Z"/>
      </g>
      <g>
        <path fill="#2e2c41" d="M75.99,394.14s-2.09,4.42-.9,5.79c1.2,1.37,13.41,6.17,15.44,6.64,2.03.48,3.18-1.02,3.18-1.02,0,0,1.33.74,3.97,3,2.65,2.26,5.77,4.15,11.35,6.05,5.57,1.91,10.32,2.46,11.83,1.75,1.51-.71,2.94-6.27.54-8.1-2.4-1.83-3.33.41-3.33.41l-31.8-13.3-10.28-1.24Z"/>
        <path fill="#f7a54b" d="M83.36,376.51s9.79,6.38,16.9,5.19c0,0,4.02,9.6,6.74,13.16,2.73,3.56,8.78,6.62,11.4,8.97,2.62,2.34,5.24,6.4,4.08,9.22-1.16,2.82-8.8-.05-15.84-2.92-7.04-2.87-12.13-6.65-15.84-7.92-3.71-1.27-13.24-4.55-14.66-7.14-1.42-2.59,1.13-7.15,3.15-10.94,2.02-3.78,4.06-7.62,4.06-7.62Z"/>
        <path fill="#f7a54b" d="M82.81,377.51l14.21-44.7s21.68,6.14,27.06,9.14c2.11,1.18,1.46,3.2,1.46,3.2,0,0-22,37.17-22.59,42.09-.6,4.92-13.64-4.6-13.64-4.6l-6.5-5.14Z"/>
      </g>
      <g>
        <path fill="#ffa67c" d="M143.8,170.32c.45-1.6.3-3.32-2.21-8.56-1.51-3.16-1.46-5.23-1.6-6.78l9.87-6.23c1.22,1.96,4.59,4.72,6.61,6.92,2.53,2.77,6.26,5.51,6.18,8.53-.12,5.12-1.14,11.48-3.09,11.33-1.95-.17-1.95-6.15-1.95-6.15,0,0-.66,3.28-2.65,3.51-1.98.23-3.36-2.04-3.36-2.04-1.53,1.93-4.08.1-4.08.1-1.41,1.66-4.08.64-3.72-.64Z"/>
        <path fill="none" stroke="#2e2c41" stroke-linecap="round" stroke-linejoin="round" stroke-width=".6" d="M147.52,170.96s1.04-2.52.27-5.67"/>
        <path fill="none" stroke="#2e2c41" stroke-linecap="round" stroke-linejoin="round" stroke-width=".6" d="M151.6,170.85s1.44-3.22,1.01-6.3"/>
        <path fill="none" stroke="#2e2c41" stroke-linecap="round" stroke-linejoin="round" stroke-width=".6" d="M157.61,169.38s.64-2.99-.34-6.06"/>
      </g>
      <g>
        <path fill="#ffa67c" d="M201.76,278.51c.19,2.43,2.94,2.03,2.94,2.03h0c.49,1.6,3.3,1.29,3.46,1.27l.02.02c.04.11.53,1.54,1.74,1.72,1.02.15,1.86-.91,2.14-1.33-.02-.07.17-.36.17-.36,0-.05.29-.97-.33-1.69-.29-.34-.68-.53-1.16-.57-.27-.02-.6.11-.99.38.38-1.15.8-2.64.65-3.39-.1-.5-.39-.91-.84-1.19-.51-.32-1.17-.43-1.72-.29-.08.02-.18.06-.31.18-.12.1-.27.27-.45.51-.09-.7-.41-1.66-1.42-2.21-1.11-.61-1.85-.3-2.23-.01-.34-.59-.86-.92-1.48-.91-.36,0-.68.17-.97.42-.36.31-.68.75-.97,1.15-.28.39-.58.8-.79.89l.09.21h0c.04.17.07.34.11.51.77,3.66,2.36,2.67,2.36,2.67Z"/>
        <path fill="none" stroke="#2e2c41" stroke-linecap="round" stroke-linejoin="round" stroke-width=".6" d="M203.36,273.97c-.06.07-.09.11-.09.11l-1.51,4.42"/>
        <path fill="none" stroke="#2e2c41" stroke-linecap="round" stroke-linejoin="round" stroke-width=".6" d="M204.71,280.54s1.17-2.44,2.15-3.98"/>
        <path fill="none" stroke="#2e2c41" stroke-linecap="round" stroke-linejoin="round" stroke-width=".6" d="M206.86,276.56c-.98,1.54-2.15,3.98-2.15,3.98"/>
        <path fill="none" stroke="#2e2c41" stroke-linecap="round" stroke-linejoin="round" stroke-width=".6" d="M208.17,281.82s1.02-1.27,1.62-1.81"/>
      </g>
      <path fill="#ffa67c" d="M210.08,261.17s5.98,7.21,6.09,8.87c.1,1.66-.39,5.74-.37,7.45.02,1.71-1.54,4.23-1.35,5.8,0,0-2.62.25-3.07-3.41-.45-3.66-.31-6.4-.31-6.4,0,0-3.94-1.21-5.73-5.14-1.78-3.93-1.86-7.97-1.86-7.97l6.61.8Z"/>
      <path fill="#fbe9de" d="M146.4,90.02s5.6,15.04,2.48,31.8c0,0,23.19.11,25.34-3.48,2.15-3.59,3.65-27.34,3.65-27.34l-31.47-.98Z"/>
      <g>
        <path fill="#ffa67c" d="M249.65,105.46c-2.1,3.55-4.59,11.23-5.34,11.28-.73.05-1.61-2.2-1.99-2.08-.38.09-5.3,8.11-9.13,8.8-3.81.69-8.61-6.91-8.61-6.91,0,0-10.55-14.1-12.75-19.63.52-.52.97-1.04,1.35-1.51,3.45-4.49,4.42-13.91,10.93-19.58,6.5-5.68,15.85.76,26.16,9.01,10.29,8.25,1.47,17.08-.61,20.62Z"/>
        <path fill="none" stroke="#2e2c41" stroke-linecap="round" stroke-linejoin="round" stroke-width=".6" d="M225.04,117.47s-4.22-5.59-5.09-8.57"/>
        <path fill="#2e2c41" d="M212.21,95.99c-1.39,1.25,6.34,5.19,8.38,2.93,2.04-2.26,7.19-8.63,11.6-8.52,4.42.11,4.73,2.14,3.2,4.57-1.53,2.43-5.35,5.34-5.35,5.34l1.41,1.45s4.69-4.03,7.98-2.32c1.63.85,2.02-.2,2.98-1.04.96-.85,7.32-6.09,8.74-5.91s3.31,4.34,3.31,4.34c0,0,7.32-2.67,8.85-5.44,1.53-2.77-2.94-13.78-13.07-19.28-10.13-5.49-17.78-5.48-22.64-.56,0,0-6.4,2.76-9.18,9.16-2.78,6.4-1.59,11.09-6.23,15.28Z"/>
        <circle cx="258.23" cy="90.18" r="8.18" fill="#2e2c41"/>
        <circle cx="257.49" cy="79.5" r="8.18" fill="#2e2c41"/>
        <ellipse cx="246.3" cy="91.43" fill="#2e2c41" rx="7.05" ry="5.63" transform="rotate(-30.69 246.344 91.445)"/>
        <circle cx="249.07" cy="72.3" r="8.18" fill="#2e2c41"/>
        <circle cx="238.46" cy="71.54" r="8.18" fill="#2e2c41"/>
        <ellipse cx="226.65" cy="75.32" fill="#2e2c41" rx="8.18" ry="5.71" transform="rotate(-57.37 226.648 75.314)"/>
        <path fill="#2e2c41" d="M249.69,103.21s-.9-2.63-4.86-3.65l4.86,3.65Z"/>
        <ellipse cx="245.14" cy="104.65" fill="#2e2c41" rx="1.39" ry="1.14" transform="rotate(-58.04 245.146 104.646)"/>
        <path fill="#fff" d="M240.11,117.35s-5.03.93-3.64-4.58"/>
        <path fill="#ffa67c" d="M236.12,92.02s-2.37-5.26-5.05-3.71c-2.67,1.55-3.02,8.66-2.18,11.95l7.22-8.24Z"/>
        <path fill="#2e2c41" d="M234.08,92.84s-1.37-3.12-2.8-1.85c-1.43,1.27-.45,6-.45,6l3.25-4.15Z"/>
      </g>
    </g>
    <path fill="#f26f55" d="M182.27,129.01s7.05-9.43,11.04-16.46c3.99-7.02,11.81-15.16,17.4-14.37l-1.66,1.78s-3.41.84-6.76,5.69c-3.35,4.85-14.96,27.09-17.6,28.29s-2.42-4.93-2.42-4.93Z"/>
    <path fill="none" stroke="#2e2c41" stroke-linecap="round" stroke-linejoin="round" stroke-width=".6" d="M156.65,121.35l10.12-.52s9.5-.31,11.66-8.76"/>
    <path fill="none" stroke="#2e2c41" stroke-linecap="round" stroke-linejoin="round" stroke-width=".6" d="M181.74,196.74s-7.37-5.38-9.61-8.61"/>
    <path fill="none" stroke="#2e2c41" stroke-linecap="round" stroke-linejoin="round" stroke-width=".6" d="M181.72,205.07s-5.15-4.41-6.52-8.01"/>
  </g>
  <ellipse cx="308.56" cy="399.2" fill="#914c30" rx="9.94" ry="2.57"/>
  <ellipse cx="279.74" cy="418.08" fill="#914c30" rx="9.94" ry="2.57"/>
  <ellipse cx="214.16" cy="393.23" fill="#914c30" rx="9.94" ry="2.57"/>
  <path fill="#baae45" d="M388.22,391.12s-.39-.01-1.05-.03c-.66-.02-1.59-.05-2.68-.07-3.05-.08-7.33-.17-10.29-.17-5.09,0-7.9.07-7.49-1.65.41-1.72,5.84-.14,5.84-.14,0,0-3.64-3.44-1.72-5.29,1.9-1.83,6.41,3.43,6.53,3.57-.11-.23-5.21-11.41-3.78-11.89,1.42-.47,8.14,9.53,8.31,9.79-.05-.19-1.14-4.71,0-4.98.36-.08.74-.09,1.15.03.92.27,2.01,1.2,3.39,3.34.69,1.07,1.12,2.3,1.38,3.45.5,2.16.41,4.04.41,4.04Z"/>
  <path fill="#baae45" d="M339.24,419.57s-.39-.01-1.05-.03c-.66-.02-1.59-.05-2.68-.07-3.05-.08-7.33-.17-10.29-.17-5.09,0-7.9.07-7.49-1.65.41-1.72,5.84-.14,5.84-.14,0,0-3.64-3.44-1.72-5.29,1.9-1.83,6.41,3.43,6.53,3.57-.11-.23-5.21-11.41-3.78-11.89,1.42-.47,8.14,9.53,8.31,9.79-.05-.19-1.14-4.71,0-4.98.36-.08.74-.09,1.15.03.92.27,2.01,1.2,3.39,3.34.69,1.07,1.12,2.3,1.38,3.45.5,2.16.41,4.04.41,4.04Z"/>
</svg>
