<svg xmlns="http://www.w3.org/2000/svg" xmlns:xlink="http://www.w3.org/1999/xlink" viewBox="0 0 841.89 595.28"><defs><linearGradient id="c" x1="417.31" x2="368.85" y1="188.34" y2="58.42" gradientUnits="userSpaceOnUse"><stop offset="0"/><stop offset="1" stop-color="#fff"/></linearGradient><linearGradient id="z" x1="-24.67" x2="241.68" y1="75.49" y2="109.67" xlink:href="#c"/><linearGradient id="m" x1="270.02" x2="395.47" y1="123.38" y2="123.38" xlink:href="#c"/><linearGradient id="q" x1="455.19" x2="528.78" y1="109.43" y2="109.43" xlink:href="#c"/><linearGradient id="t" x1="397.84" x2="452.7" y1="93.95" y2="93.95" xlink:href="#c"/><linearGradient id="w" x1="651.29" x2="980.97" y1="32.09" y2="117.52" gradientTransform="matrix(-1 0 0 1 1493.8 0)" gradientUnits="userSpaceOnUse"><stop offset="0" stop-color="#fff"/><stop offset="1"/></linearGradient><linearGradient id="A" x1="420.94" x2="420.94" y1="292.35" y2="6.15" gradientUnits="userSpaceOnUse"><stop offset=".06" stop-color="#e6f5a7"/><stop offset=".43" stop-color="#b0d8bc"/><stop offset="1" stop-color="#72b5c2"/></linearGradient><linearGradient id="h" x1="95.1" x2="56.21" y1="524.91" y2="440.77" gradientTransform="matrix(.8 -.18 .22 .98 -87.89 25.29)" gradientUnits="userSpaceOnUse"><stop offset="0" stop-color="#fff"/><stop offset="1" stop-color="#231f20"/></linearGradient><linearGradient id="B" x1="167.43" x2="128.55" y1="544.78" y2="460.64" gradientTransform="matrix(.9 -.2 .22 .98 -90.55 25.65)" xlink:href="#h"/><linearGradient id="C" x1="209.2" x2="225.69" y1="418.08" y2="515.97" gradientTransform="matrix(.92 .02 .02 1 8.08 -1.94)" gradientUnits="userSpaceOnUse"><stop offset="0" stop-color="#231f20"/><stop offset=".17" stop-color="#565354"/><stop offset=".39" stop-color="#929090"/><stop offset=".59" stop-color="#c1c0c0"/><stop offset=".76" stop-color="#e3e2e2"/><stop offset=".91" stop-color="#f7f7f7"/><stop offset="1" stop-color="#fff"/></linearGradient><linearGradient id="D" x1="519.9" x2="506.87" y1="609.45" y2="546.76" xlink:href="#h"/><linearGradient id="E" x1="422.42" x2="385.57" y1="606.12" y2="517.34" xlink:href="#h"/><linearGradient id="n" x1="417.31" x2="368.85" y1="188.34" y2="58.42" gradientUnits="userSpaceOnUse"><stop offset="0" stop-color="#fff"/><stop offset="1" stop-color="#fff"/></linearGradient><linearGradient id="H" x1="270.02" x2="395.47" y1="123.38" y2="123.38" xlink:href="#n"/><linearGradient id="J" x1="455.19" x2="528.78" y1="109.43" y2="109.43" xlink:href="#n"/><linearGradient id="L" x1="397.84" x2="452.7" y1="93.95" y2="93.95" xlink:href="#n"/><linearGradient id="N" x1="651.29" x2="980.97" y1="32.09" y2="117.52" gradientTransform="matrix(-1 0 0 1 1493.8 0)" xlink:href="#n"/><linearGradient id="P" x1="-24.67" x2="241.68" y1="75.49" y2="109.67" xlink:href="#n"/><filter id="a" width="261.34" height="32766" x="270.02" y="-8490" color-interpolation-filters="sRGB" filterUnits="userSpaceOnUse"><feFlood flood-color="#fff" result="bg"/><feBlend in="SourceGraphic" in2="bg"/></filter><filter id="b" width="131.22" height="32766" x="50.63" y="-8490" color-interpolation-filters="sRGB" filterUnits="userSpaceOnUse"><feFlood flood-color="#fff" result="bg"/><feBlend in="SourceGraphic" in2="bg"/></filter><filter id="d" width="125.45" height="32766" x="270.02" y="-8490" color-interpolation-filters="sRGB" filterUnits="userSpaceOnUse"><feFlood flood-color="#fff" result="bg"/><feBlend in="SourceGraphic" in2="bg"/></filter><filter id="e" width="73.59" height="32766" x="455.19" y="-8490" color-interpolation-filters="sRGB" filterUnits="userSpaceOnUse"><feFlood flood-color="#fff" result="bg"/><feBlend in="SourceGraphic" in2="bg"/></filter><filter id="f" width="54.86" height="32766" x="397.84" y="-8490" color-interpolation-filters="sRGB" filterUnits="userSpaceOnUse"><feFlood flood-color="#fff" result="bg"/><feBlend in="SourceGraphic" in2="bg"/></filter><filter id="g" width="148.85" height="32766" x="613.87" y="-8490" color-interpolation-filters="sRGB" filterUnits="userSpaceOnUse"><feFlood flood-color="#fff" result="bg"/><feBlend in="SourceGraphic" in2="bg"/></filter><filter id="j" width="261.34" height="84.38" x="270.02" y="79.96" color-interpolation-filters="sRGB" filterUnits="userSpaceOnUse"><feFlood flood-color="#fff" result="bg"/><feBlend in="SourceGraphic" in2="bg"/></filter><filter id="l" width="125.45" height="77.43" x="270.02" y="84.66" color-interpolation-filters="sRGB" filterUnits="userSpaceOnUse"><feFlood flood-color="#fff" result="bg"/><feBlend in="SourceGraphic" in2="bg"/></filter><filter id="p" width="73.59" height="22.22" x="455.19" y="98.32" color-interpolation-filters="sRGB" filterUnits="userSpaceOnUse"><feFlood flood-color="#fff" result="bg"/><feBlend in="SourceGraphic" in2="bg"/></filter><filter id="s" width="54.86" height="28.15" x="397.84" y="79.88" color-interpolation-filters="sRGB" filterUnits="userSpaceOnUse"><feFlood flood-color="#fff" result="bg"/><feBlend in="SourceGraphic" in2="bg"/></filter><filter id="v" width="148.85" height="49.97" x="613.87" y="38.84" color-interpolation-filters="sRGB" filterUnits="userSpaceOnUse"><feFlood flood-color="#fff" result="bg"/><feBlend in="SourceGraphic" in2="bg"/></filter><filter id="y" width="131.22" height="37.49" x="50.63" y="70.62" color-interpolation-filters="sRGB" filterUnits="userSpaceOnUse"><feFlood flood-color="#fff" result="bg"/><feBlend in="SourceGraphic" in2="bg"/></filter><mask id="F" width="261.34" height="84.38" x="270.02" y="79.96" maskUnits="userSpaceOnUse"><g filter="url(#j)" mask="url(#i)"><path d="M497.68,160.4c6.38-.1,13-.23,18.79-2.81,12.68-5.62,18-22.44,13-35.38s-18.29-21.51-32-23.41-27.75,2-40.12,8.31C450.7,97.41,445.1,74.89,417.42,81c-17.56,3.88-14.62,26.58-19,24.92-2.68-1-7.61-27.24-31.83-19.67-13.37,4.18-9.95,20-7.45,25.23,3.83,8-9.72-6.81-25.05,1-15.73,8-9,17.86-15.23,19.66-8.23,2.39-16.23.1-23.46,6-6.44,5.22-2.77,14.07-18.28,16.17-7,.94-10.74,8-2,9.51,8.9,1.53,20-.48,29.13-.61l65-.93Z" style="mix-blend-mode:multiply" fill="url(#c)"/></g></mask><mask id="G" width="125.45" height="77.43" x="270.02" y="84.66" maskUnits="userSpaceOnUse"><g filter="url(#l)" mask="url(#k)"><path d="M278.11,156.27c15.52-2.1,11.85-11,18.28-16.17,7.23-5.87,15.23-3.58,23.46-6,6.21-1.8-.49-11.67,15.24-19.66,15.33-7.79,28.82,6.77,25.05-1-2.71-5.56-5.9-20.47,7.25-25,14.68-5.06,24.52,5.72,28.08,12.37-4.71-9.87-13-20.74-30-14.23-11.74,4.51-9.06,19.28-6.36,24.84,3.77,7.75-9.72-6.81-25.05,1-15.73,8-9,17.86-15.23,19.66-8.23,2.39-16.23.1-23.46,6-6.44,5.22-2.77,14.07-18.28,16.17-5.43.73-8.92,5.19-6.07,7.83C270.88,159.63,273.92,156.84,278.11,156.27Z" style="mix-blend-mode:multiply" fill="url(#m)"/></g></mask><mask id="I" width="73.59" height="22.22" x="455.19" y="98.32" maskUnits="userSpaceOnUse"><g filter="url(#p)" mask="url(#o)"><path d="M458.37,109.12c12.37-6.27,26.38-10.21,40.12-8.31,12.39,1.72,24.39,8.86,30.29,19.73-5.45-12-18.16-19.92-31.29-21.74-13.74-1.9-27.75,2-40.12,8.31a34.8,34.8,0,0,1-2.18-3.76A46.71,46.71,0,0,0,458.37,109.12Z" style="mix-blend-mode:multiply" fill="url(#q)"/></g></mask><mask id="K" width="54.86" height="28.15" x="397.84" y="79.88" maskUnits="userSpaceOnUse"><g filter="url(#s)" mask="url(#r)"><path d="M399.41,107.93c4.39,1.67.69-20,18.23-24,20.27-4.6,30.22,5.63,35.06,15.1-4.9-10-14.41-23.13-35.28-18.06-18.34,4.45-14.62,26.58-19,24.92a1.36,1.36,0,0,1-.57-.56C398.44,106.77,398.92,107.75,399.41,107.93Z" style="mix-blend-mode:multiply" fill="url(#t)"/></g></mask><mask id="M" width="148.85" height="49.97" x="613.87" y="38.84" maskUnits="userSpaceOnUse"><g filter="url(#v)" mask="url(#u)"><path d="M617,63.78c1.78-3.23,5.14-5.28,8.52-6.76a45.78,45.78,0,0,1,32.88-1.28,30,30,0,0,1,55.71,4.48,33.08,33.08,0,0,1,48.39,22.26,6.37,6.37,0,0,1,0,3.41c-1.1,3.16-5.48,3.2-8.78,2.67a535.94,535.94,0,0,0-114-6c-7.86.43-13.64.62-19.91-2C609.64,76.29,615.19,67,617,63.78Z" style="mix-blend-mode:multiply" fill="url(#w)"/></g></mask><mask id="O" width="131.22" height="37.49" x="50.63" y="70.62" maskUnits="userSpaceOnUse"><g filter="url(#y)" mask="url(#x)"><path d="M181.17,95c-8.12-15.82-29.23-23.47-45.6-16.51-2.95,1.25-5.88,2.94-9.09,2.92-4.72,0-8.5-3.71-12.5-6.23-9.85-6.2-22.89-5.66-33.53-.94S61.22,87.36,53.81,96.33c-2.11,2.55-4.23,6-2.6,8.93,1.48,2.6,5,2.88,8,2.85l107.37-1.19c3.6,0,7.34-.12,10.52-1.79s5.57-5.45,4.42-8.85Z" style="mix-blend-mode:multiply" fill="url(#z)"/></g></mask></defs><g data-name="Layer 1"><rect width="841.89" height="594.82" fill="url(#A)"/><path fill="#71be70" d="M796.57,232.5c-18.09,4-28.14,12.06-60.31,16.08s-98.5-39.2-119.6-37.19-68.3,31.09-86.39,29.08-43.44-6.39-59.52-11.42-55.12,28.58-86.27,39.63-52.19-7.71-64.33-13.06c-14.28-6.3-52.77-45-65.84-39s-44.72,43-68.84,49-54.45,2.38-73.38-26.13c-7.31-11-99.31,48-112.09,56.32V409.35l841.89-9V258.69C834,250.66,811.32,229.22,796.57,232.5Z"/><g style="mix-blend-mode:screen" opacity=".46"><path fill="#71be70" d="M752.49,253.77c32.16-4,42.21-12.07,60.3-16.09a15,15,0,0,1,2.78-.3c-6.65-3.8-13.4-6.13-19-4.88-18.09,4-28.14,12.06-60.31,16.08-6.43.81-14.24-.28-22.78-2.52C728.26,251.46,742.14,255.06,752.49,253.77Z"/><path fill="#71be70" d="M400.7,273.87c31.16-11.06,70.19-44.66,86.27-39.63s41.43,9.41,59.52,11.42,65.28-27.07,86.39-29.08a26.3,26.3,0,0,1,7.77.7c-10.1-3.91-18.55-6.41-24-5.89-21.11,2-68.3,31.09-86.39,29.08s-43.44-6.39-59.52-11.42-55.12,28.58-86.27,39.63a54.92,54.92,0,0,1-28.28,2.64C367.74,276.6,382.49,280.33,400.7,273.87Z"/><path fill="#71be70" d="M14.74,302s71.88-47,101.5-56.85c-1.43-1.76-2.82-3.63-4.15-5.62-7.31-11-99.31,48-112.09,56.32V409.35l11.87-.13Z"/><path fill="#71be70" d="M201.69,270.85c24.12-6,55.78-43,68.85-49a6.47,6.47,0,0,1,1.35-.44c-7.28-4.27-13.6-6.58-17.58-4.74-13.06,6-44.72,43-68.84,49a77.42,77.42,0,0,1-32.07,1.39C169.05,274.61,186.58,274.63,201.69,270.85Z"/></g><path fill="#659e47" d="M806.53,286.42c-12.81,3.43-7.88-8.66-16.36-13.59-16.55-9.6-30.73-2.07-39.21-7.45-4.23-2.68-8.71-6-13.67-5.36-4.19.57-8.07,4-12.16,2.93-3.67-1-5.55-5.18-9-6.85-7.22-3.55-13.79,5.49-20.79,9.44-6.45,3.65-14.38,2.87-21.73,2l-26-3.13c-8.16-1-17.24-1.72-23.79,3.25-5.62,4.27-9.43,12.61-16.48,12.21-7.32-.4-10.47-10.1-17.27-12.84-6.17-2.48-13,1.56-17.81,6.17s-9.27,10.23-15.72,11.87c-14.44,3.67-26.82-14.63-41.65-13.09-7.93.82-14,7.07-20.43,11.77s-15.9,7.84-21.94,2.66c-5.16-4.43-5.78-13.45-12.11-15.9-4.43-1.71-9.21.81-13.69,2.36-19.63,6.79-39.17-15-58.25,4.7-2.92,3-11.12-2.83-16.34.75-2.25,1.56-2.15,7.63-4.27,9.55-1.4,1.28-6.34,2.87-7.83,4.06-8,6.39-1.46,8.08-3,12.47l-8.82,9.86c31.21,4.6,58.11-3.54,75.47.16,47.33,10.08,96.14,10.69,144.52,9.63a2170.69,2170.69,0,0,0,273.62-23.38V297.8C830.15,292.42,818.52,283.2,806.53,286.42Z"/><path fill="#c4d879" d="M697.62,303.21c-59.3,4-135.07,22.67-242.23,6-97.51-15.14-181.48,4.51-294,5.52-97.16.87-149-2.38-161.34-3.28V594H841.89V301.17C830.71,300.94,752.57,299.49,697.62,303.21Z"/><g style="mix-blend-mode:screen" opacity=".32"><path fill="#b2d785" d="M176.92,330.33c112.57-1,196.48-30.71,294-15.57C578.07,331.4,679,312.06,738.27,308c36.21-2.46,73.15-5.22,96.43-7-23.24-.38-89-1.09-137.08,2.17-59.3,4-135.07,22.67-242.23,6-97.51-15.14-181.48,4.51-294,5.52-97.16.87-149-2.38-161.34-3.28v8.61C17,322.64,81.08,331.19,176.92,330.33Z"/><polygon fill="#b2d785" points="0 395.55 0 593.97 11.72 593.97 0 395.55"/></g><path fill="#fdef5e" d="M306.76,306s45.23,8,62.31,25.13,21.11,21.1,39.2,26.13,33.17,21.11,33.17,21.11L503.57,363s-33.41-16.14-53.08-20.85c-16.83-4-30.15,1-47.24-6S386.16,322,372.09,317,336.91,306,336.91,306Z" opacity=".5"/><path fill="#b2c639" d="M841.89,595.28V323.88c-8.36-1.4-77.08-12.47-132.68-9.12-59.3,3.57-158.6,54.15-257.16,50.09-51.35-2.12-97.45-25.3-132.91-25.3-59,0-85,9.85-156.79,10.42C66.26,350.73,13.42,337.37,0,333.44V595.28Z"/><path fill="#b2c639" d="M841.89,595.28V323.88c-8.36-1.4-77.08-12.47-132.68-9.12-59.3,3.57-158.6,54.15-257.16,50.09-51.35-2.12-97.45-25.3-132.91-25.3-59,0-85,9.85-156.79,10.42C66.26,350.73,13.42,337.37,0,333.44V595.28Z"/><path d="M709.21,314.76c-59.3,3.57-158.6,54.15-257.16,50.09-51.35-2.12-97.45-25.3-132.91-25.3-59,0-85,9.85-156.79,10.42C66.26,350.73,13.42,337.37,0,333.44V595.28H9.61V338.4s53.23,18.5,165.8,17.6c71.81-.57,97.8-10.42,156.8-10.42,35.46,0,81.55,23.18,132.9,25.3,98.57,4.06,197.87-46.52,257.17-50.09,43.64-2.63,95.34,3.62,119.61,7.11v-4C833.53,322.48,764.81,311.41,709.21,314.76Z" style="mix-blend-mode:screen" fill="#b2c639" opacity=".37"/><path fill="#bdbdbd" d="M661.77,327.63l-25,.45c.52-30.3-2.49-60.22-4.47-90.41A14.75,14.75,0,0,1,647,222.31h0A14.84,14.84,0,0,1,662.2,237.2C661.53,267.4,660,297.43,661.77,327.63Z"/><path d="M647,222.31h0a14.75,14.75,0,0,0-14.65,15.36c.07,1.34.11,2,.19,3.33l29.64-.44c0-1.35,0-2,.06-3.36A14.84,14.84,0,0,0,647,222.31Z" style="mix-blend-mode:screen" fill="#bdbdbd" opacity=".67"/><path d="M636.53,237.78c-.38-7.77,4.67-15.7,13.17-15.27a16.52,16.52,0,0,0-2.74-.2h0a14.75,14.75,0,0,0-14.65,15.36c2,30.19,5,60.11,4.47,90.41l3.86-.07C640.75,297.83,638.26,267.88,636.53,237.78Z" style="mix-blend-mode:screen" fill="#bdbdbd" opacity=".6"/><path d="M662,245.67l-29.2.39c0-.18,0-.26,0-.44l29.24-.39C662,245.4,662,245.49,662,245.67Z" style="mix-blend-mode:multiply" fill="#bdbdbd" opacity=".4"/><path d="M662,245.88l-29.17.39,0-.21,29.2-.39Z" style="mix-blend-mode:screen" fill="#bdbdbd" opacity=".4"/><path d="M661.89,250.7l-28.7.33c0-.18,0-.26,0-.44l28.74-.33C661.9,250.43,661.9,250.52,661.89,250.7Z" style="mix-blend-mode:multiply" fill="#bdbdbd" opacity=".4"/><path d="M661.89,250.91l-28.68.33,0-.21,28.7-.33Z" style="mix-blend-mode:screen" fill="#bdbdbd" opacity=".4"/><path d="M661.73,255.72l-28.15.27c0-.18,0-.26,0-.44l28.21-.27C661.74,255.46,661.74,255.54,661.73,255.72Z" style="mix-blend-mode:multiply" fill="#bdbdbd" opacity=".4"/><path d="M661.73,255.93l-28.14.27V256l28.15-.27Z" style="mix-blend-mode:screen" fill="#bdbdbd" opacity=".4"/><path d="M661.56,260.74c-11.68.1-15.9.11-27.59.21,0-.18,0-.26,0-.44,11.7-.09,15.94-.11,27.64-.21C661.57,260.48,661.57,260.57,661.56,260.74Z" style="mix-blend-mode:multiply" fill="#bdbdbd" opacity=".4"/><path d="M661.56,261l-27.57.2,0-.21c11.69-.1,15.91-.11,27.59-.21Z" style="mix-blend-mode:screen" fill="#bdbdbd" opacity=".4"/><path d="M661.39,265.77c-11.54.07-15.47.07-27,.14,0-.17,0-.26,0-.43,11.55-.08,15.5-.08,27.06-.15C661.4,265.51,661.4,265.59,661.39,265.77Z" style="mix-blend-mode:multiply" fill="#bdbdbd" opacity=".4"/><path d="M661.38,266c-11.53.07-15.45.07-27,.14l0-.21c11.54-.07,15.47-.07,27-.14Z" style="mix-blend-mode:screen" fill="#bdbdbd" opacity=".4"/><path d="M661.22,270.8c-11.4.05-15,0-26.43.08l0-.43c11.41-.05,15.08,0,26.49-.09C661.23,270.54,661.23,270.63,661.22,270.8Z" style="mix-blend-mode:multiply" fill="#bdbdbd" opacity=".4"/><path d="M661.21,271c-11.39,0-15,0-26.41.08v-.22c11.39,0,15,0,26.43-.08Z" style="mix-blend-mode:screen" fill="#bdbdbd" opacity=".4"/><path d="M660.92,280.89c-11.14,0-14.22,0-25.36,0,0-.17,0-.26,0-.44,11.15,0,14.26,0,25.4,0Z" style="mix-blend-mode:multiply" fill="#bdbdbd" opacity=".4"/><path d="M660.92,281.11c-11.14,0-14.21,0-25.34,0l0-.22c11.14,0,14.22,0,25.36,0Z" style="mix-blend-mode:screen" fill="#bdbdbd" opacity=".4"/><path d="M660.81,286c-11,0-13.86,0-24.9,0,0-.18,0-.27,0-.44,11,0,13.89,0,24.94,0Z" style="mix-blend-mode:multiply" fill="#bdbdbd" opacity=".4"/><path d="M660.8,286.18c-11,0-13.84-.05-24.87-.05l0-.21c11,0,13.86,0,24.9,0Z" style="mix-blend-mode:screen" fill="#bdbdbd" opacity=".4"/><path d="M660.73,291.05c-11,0-13.54-.06-24.5-.06,0-.18,0-.27,0-.45,11,0,13.56.06,24.52.06Z" style="mix-blend-mode:multiply" fill="#bdbdbd" opacity=".4"/><path d="M660.72,291.26c-11,0-13.52-.05-24.47-.06l0-.21c11,0,13.54.05,24.5.06Z" style="mix-blend-mode:screen" fill="#bdbdbd" opacity=".4"/><path d="M660.69,296.15c-10.92,0-13.26-.06-24.18-.06,0-.18,0-.27,0-.45,10.92,0,13.28.06,24.2.07Z" style="mix-blend-mode:multiply" fill="#bdbdbd" opacity=".4"/><path d="M660.69,296.37c-10.92,0-13.25-.06-24.17-.06v-.22c10.92,0,13.26.06,24.18.06Z" style="mix-blend-mode:screen" fill="#bdbdbd" opacity=".4"/><path d="M660.7,301.28c-10.92,0-13.05,0-24,0,0-.18,0-.27,0-.45,10.91,0,13.06,0,24,0Z" style="mix-blend-mode:multiply" fill="#bdbdbd" opacity=".4"/><path d="M660.7,301.5c-10.92,0-13-.05-24,0v-.22c10.92,0,13,.05,24,0Z" style="mix-blend-mode:screen" fill="#bdbdbd" opacity=".4"/><path d="M660.76,306.44c-11,0-12.9,0-23.86,0,0-.18,0-.27,0-.45,11,0,12.91,0,23.87,0Z" style="mix-blend-mode:multiply" fill="#bdbdbd" opacity=".4"/><path d="M660.77,306.66c-11,0-12.9,0-23.87,0v-.22c11,0,12.9,0,23.86,0Z" style="mix-blend-mode:screen" fill="#bdbdbd" opacity=".4"/><path d="M660.9,311.63c-11.07.05-12.84,0-23.91.07v-.47c11-.05,12.84,0,23.89-.06C660.89,311.36,660.89,311.45,660.9,311.63Z" style="mix-blend-mode:multiply" fill="#bdbdbd" opacity=".4"/><path d="M660.9,311.85c-11.07.06-12.83,0-23.9.07v-.22c11.07-.06,12.84,0,23.91-.07Z" style="mix-blend-mode:screen" fill="#bdbdbd" opacity=".4"/><path d="M661.1,316.85c-11.22.09-12.86.07-24.09.16,0-.19,0-.28,0-.47,11.2-.09,12.85-.06,24.06-.15C661.09,316.58,661.09,316.67,661.1,316.85Z" style="mix-blend-mode:multiply" fill="#bdbdbd" opacity=".4"/><path d="M661.11,317.07c-11.23.1-12.87.07-24.1.17V317c11.23-.09,12.87-.07,24.09-.16Z" style="mix-blend-mode:screen" fill="#bdbdbd" opacity=".4"/><path d="M661.38,322.11l-24.43.28c0-.19,0-.28,0-.47,11.42-.14,13-.13,24.39-.27C661.36,321.83,661.37,321.92,661.38,322.11Z" style="mix-blend-mode:multiply" fill="#bdbdbd" opacity=".4"/><path d="M661.4,322.33c-11.46.15-13,.15-24.46.29v-.23l24.43-.28Z" style="mix-blend-mode:screen" fill="#bdbdbd" opacity=".4"/><path d="M661.75,327.41l-25,.44c0-.2,0-.29,0-.48l24.9-.43C661.73,327.13,661.74,327.22,661.75,327.41Z" style="mix-blend-mode:multiply" fill="#bdbdbd" opacity=".4"/><path d="M661.77,327.63l-25,.45v-.23l25-.44Z" style="mix-blend-mode:screen" fill="#bdbdbd" opacity=".4"/><path d="M661.06,275.84c-11.26,0-14.62,0-25.88,0l0-.43c11.27,0,14.65,0,25.93,0Z" style="mix-blend-mode:multiply" fill="#bdbdbd" opacity=".4"/><path d="M661.06,276.06c-11.26,0-14.61,0-25.86,0,0-.08,0-.12,0-.21,11.26,0,14.62,0,25.88,0Z" style="mix-blend-mode:screen" fill="#bdbdbd" opacity=".4"/><path fill="#bdbdbd" d="M662.77,241.1l-30.87.46a.6.6,0,0,1-.6-.54h0a.53.53,0,0,1,.53-.56l31-.47a.54.54,0,0,1,.55.55h0A.57.57,0,0,1,662.77,241.1Z"/><path d="M663.29,240.3a.58.58,0,0,1-.51.32l-30.91.47a.61.61,0,0,1-.52-.31.47.47,0,0,0-.05.24.6.6,0,0,0,.6.54l30.87-.46a.57.57,0,0,0,.57-.56A.6.6,0,0,0,663.29,240.3Z" style="mix-blend-mode:multiply" fill="#bdbdbd" opacity=".63"/><path fill="#bdbdbd" d="M647,222.31a7.7,7.7,0,0,1,2.56,1,13.32,13.32,0,0,1,2.19,1.69,18.34,18.34,0,0,1,3.28,4.41,21.89,21.89,0,0,1,1.83,5.18,30.14,30.14,0,0,1,.73,5.45h-.4a30.6,30.6,0,0,0-.62-5.39,21.42,21.42,0,0,0-1.71-5.16,18,18,0,0,0-3.18-4.43,13.19,13.19,0,0,0-2.15-1.72A7.46,7.46,0,0,0,647,222.31Z"/><path fill="#bdbdbd" d="M636.48,240.39a35.63,35.63,0,0,1,.22-5.37A17.5,17.5,0,0,1,638,229.8a14.67,14.67,0,0,1,3.16-4.38,12.26,12.26,0,0,1,5.78-3.11,12.77,12.77,0,0,0-5.71,3.18,14.53,14.53,0,0,0-3,4.39,17.09,17.09,0,0,0-1.21,5.18,36.39,36.39,0,0,0-.12,5.32Z"/><path fill="#bdbdbd" d="M647.11,240.23c-.07-7.12-.1-10.69-.15-17.92.21,7.23.32,10.8.55,17.91Z"/><polygon fill="#f4d8bd" points="519.51 340.97 498.87 344.14 499.62 347.01 520.12 344.01 519.51 340.97"/><polygon fill="#c49870" points="499.74 346.65 499.07 344.11 498.87 344.14 499.62 347.01 520.12 344.01 520.06 343.68 499.74 346.65"/><polygon fill="#fff2e3" points="499.1 344.62 519.61 341.46 519.51 340.97 498.87 344.14 499.62 347.01 499.73 346.99 499.1 344.62"/><polygon fill="#f4d8bd" points="495.07 345.39 474.87 350.68 475.92 353.45 496 348.35 495.07 345.39"/><polygon fill="#c49870" points="476 353.09 475.07 350.63 474.87 350.68 475.92 353.45 496 348.35 495.9 348.03 476 353.09"/><polygon fill="#fff2e3" points="475.15 351.13 495.22 345.87 495.07 345.39 474.87 350.68 475.92 353.45 476.02 353.43 475.15 351.13"/><polygon fill="#f4d8bd" points="476.55 349.67 457.1 357.26 458.46 359.89 477.81 352.5 476.55 349.67"/><polygon fill="#c49870" points="458.5 359.52 457.29 357.19 457.1 357.26 458.46 359.89 477.81 352.5 477.68 352.2 458.5 359.52"/><polygon fill="#fff2e3" points="457.43 357.67 476.75 350.13 476.55 349.67 457.1 357.26 458.46 359.89 458.56 359.86 457.43 357.67"/><path fill="#c49870" d="M495.13,339.89l-1.95,6.5a.37.37,0,0,0,0,.25l3.55,6.94c0,.09.21.11.38.07l2.15-.59,2.15-.58c.17-.05.3-.16.29-.25l-.45-7.78a.32.32,0,0,0-.11-.24l-5-4.61A.64.64,0,0,0,495.13,339.89Z"/><path fill="#f4d8bd" d="M495.06,341.28l-1.6,5.67a.27.27,0,0,0,0,.23l3.28,6.41c0,.08.2.11.35.07l1.94-.53,1.93-.53c.15,0,.27-.14.26-.23l-.7-7.11a.33.33,0,0,0-.11-.21L496,341A.54.54,0,0,0,495.06,341.28Z"/><path fill="#fff2e3" d="M495.75,345.05l-1,2.72a.61.61,0,0,0,0,.46l2.14,4.61c.09.19.44.27.79.17l1.19-.32,1.18-.32c.35-.1.61-.34.58-.55l-.7-5a.59.59,0,0,0-.23-.4l-2.31-1.83A1.11,1.11,0,0,0,495.75,345.05Z"/><path fill="#c49870" d="M472.56,345.73l-1.72,6.3a.29.29,0,0,0,0,.24l3.58,6.59c0,.08.2.11.37.06l2.05-.61,2.05-.62c.16-.05.29-.16.28-.25l-.62-7.47a.3.3,0,0,0-.11-.22l-4.89-4.32A.62.62,0,0,0,472.56,345.73Z"/><path fill="#f4d8bd" d="M472.53,347.07l-1.42,5.49a.34.34,0,0,0,0,.22l3.31,6.09c0,.07.19.1.34.06l1.85-.56,1.84-.55c.15,0,.26-.14.25-.23l-.85-6.82a.3.3,0,0,0-.1-.2l-4.38-3.76A.53.53,0,0,0,472.53,347.07Z"/><path fill="#fff2e3" d="M473.28,350.68l-.87,2.64a.56.56,0,0,0,0,.44l2.17,4.38c.09.19.43.25.76.15l1.13-.34,1.13-.33c.33-.1.57-.34.54-.54l-.78-4.8a.66.66,0,0,0-.23-.38l-2.27-1.7A1.06,1.06,0,0,0,473.28,350.68Z"/><path fill="#c49870" d="M456.63,352.13l-1.15,5.79a.29.29,0,0,0,0,.22l3.66,5.72c.05.07.2.08.34,0l1.81-.68,1.82-.69c.14-.05.24-.16.23-.24l-1-6.71a.27.27,0,0,0-.11-.19l-4.7-3.58A.55.55,0,0,0,456.63,352.13Z"/><path fill="#f4d8bd" d="M456.69,353.34l-.93,5a.29.29,0,0,0,.05.2l3.38,5.28c0,.07.17.08.3,0l1.64-.61,1.63-.62c.13-.05.22-.15.2-.22l-1.2-6.11a.29.29,0,0,0-.11-.18l-4.2-3.1A.46.46,0,0,0,456.69,353.34Z"/><path fill="#fff2e3" d="M457.6,356.55,457,359a.54.54,0,0,0,.06.39l2.24,3.82c.09.16.4.19.69.08l1-.38,1-.37c.29-.11.49-.35.45-.53l-1-4.28a.53.53,0,0,0-.23-.32L459,356A1,1,0,0,0,457.6,356.55Z"/><polygon fill="#d44736" points="683.46 350.01 631.47 350.94 631.11 330.98 685.06 330.01 683.46 350.01"/><path fill="#f89801" d="M687.91,332c-19,0-38-1.07-57-1a.78.78,0,0,1-.82-.75l-.25-13.54a.8.8,0,0,1,.82-.79l44.48-.8a.82.82,0,0,1,.72.38c3.5,5.68,9,9.81,12.72,15.29A.79.79,0,0,1,687.91,332Z"/><path fill="#dd7f03" d="M687.91,332.05c-11.82,0-23.64-.26-35.46-.47-5.91-.12-11.81-.21-17.72-.21h-3.91a1.29,1.29,0,0,1-.75-.31,1.12,1.12,0,0,1-.37-.69,1.91,1.91,0,0,1,0-.3v-.27l0-1,0-2.08-.19-8.32,0-1v-.52a1.63,1.63,0,0,1,0-.36,1.09,1.09,0,0,1,.15-.39,1.31,1.31,0,0,1,.66-.54,1.64,1.64,0,0,1,.44-.09h.28l1.11,0,4.43-.11,8.87-.21,8.86-.19,8.86-.14,8.87-.06h3.37a1.27,1.27,0,0,1,.75.34,1.12,1.12,0,0,1,.23.29l.14.23a33.17,33.17,0,0,0,2.4,3.44c1.75,2.21,3.71,4.29,5.6,6.42,1,1.06,1.89,2.14,2.76,3.26.43.57.86,1.13,1.26,1.72.1.15.2.28.3.45a.8.8,0,0,1,0,.55A.89.89,0,0,1,687.91,332.05Zm0-.12a.75.75,0,0,0,.73-.56.67.67,0,0,0,0-.46c-.08-.13-.2-.28-.3-.42-.41-.58-.85-1.14-1.29-1.69-.89-1.1-1.85-2.15-2.82-3.19-2-2.07-4-4.06-5.89-6.24a32,32,0,0,1-2.6-3.41l-.15-.22c-.06-.08-.06-.09-.1-.12a.43.43,0,0,0-.24-.1l-1.05,0-2.22.08-8.86.26-8.86.18-8.86.13-8.87.11-4.43.05h-1.37l-.11,0a.4.4,0,0,0-.16.13.36.36,0,0,0,0,.09.63.63,0,0,0,0,.17v1.56l.11,8.33,0,2.08v1.51a.4.4,0,0,0,.12.23.43.43,0,0,0,.24.1h3.85c5.91.06,11.82.21,17.73.39C664.28,331.41,676.09,332,687.91,331.93Z"/><path fill="#d44736" d="M514,353.32c-.5-16.94-1.78-33.82-3.05-50.71,2.23-6.57,4.53-13.11,7-19.6q8.7-7.93,17.82-15.38,10.75,7.2,21.47,14.47,6.69,10.39,13.34,20.8.74,24.59,1.83,49.16Z"/><path d="M516.62,353.27l-1,0c-.55-18.22-2-36.39-3.33-54.57l.88-2.53C514.49,315.21,516,334.21,516.62,353.27Z" style="mix-blend-mode:multiply" fill="#d44736" opacity=".31"/><path d="M516.72,353.33h-.15c-.56-18.22-2-36.39-3.32-54.57,0-1,0-1.5,0-2.51C514.59,315.27,516.12,334.27,516.72,353.33Z" style="mix-blend-mode:screen" fill="#d44736" opacity=".31"/><path d="M520.27,353.21l-1,0c-.7-21.14-2.48-42.2-3.9-63.29l.9-2.48C517.65,309.37,519.53,331.25,520.27,353.21Z" style="mix-blend-mode:multiply" fill="#d44736" opacity=".31"/><path d="M520.42,353.21h-.15c-.71-21.25-2.5-42.43-3.9-63.65,0-1,0-1.49,0-2.49C517.78,309.11,519.67,331.12,520.42,353.21Z" style="mix-blend-mode:screen" fill="#d44736" opacity=".31"/><path d="M524.18,353.1H524c-.83-23.37-2.86-46.66-4.24-70,0-1.09,0-1.63,0-2.72C521.17,304.64,523.31,328.83,524.18,353.1Z" style="mix-blend-mode:screen" fill="#d44736" opacity=".31"/><path d="M527.47,341.46h-.14c-1.14-21.13-2.84-42.21-3.94-63.34,0-1,0-1.46,0-2.42C524.5,297.64,526.29,319.53,527.47,341.46Z" style="mix-blend-mode:screen" fill="#d44736" opacity=".31"/><path d="M531,337.68h-.15c-1.2-21.06-2.82-42.09-3.78-63.15,0-1,0-1.45.06-2.41C528.09,294,529.78,315.82,531,337.68Z" style="mix-blend-mode:screen" fill="#d44736" opacity=".31"/><path d="M534.57,334.43h-.15c-1.22-21-2.74-41.93-3.59-62.92,0-1,0-1.43.07-2.38C531.71,290.92,533.3,312.66,534.57,334.43Z" style="mix-blend-mode:screen" fill="#d44736" opacity=".31"/><path d="M538.09,330.83H538c-1.22-20.87-2.64-41.73-3.36-62.63,0-.94,0-1.42.08-2.36C535.35,287.53,536.83,309.17,538.09,330.83Z" style="mix-blend-mode:screen" fill="#d44736" opacity=".31"/><path d="M541.89,332.42h-.15c-1.16-20.83-2.51-41.65-3.25-62.51,0-1,0-1.42.09-2.37C539.28,289.19,540.68,310.79,541.89,332.42Z" style="mix-blend-mode:screen" fill="#d44736" opacity=".31"/><path d="M545.72,335h-.15c-1.1-20.8-2.38-41.58-3.14-62.39,0-1,0-1.43.07-2.38C543.25,291.79,544.57,313.36,545.72,335Z" style="mix-blend-mode:screen" fill="#d44736" opacity=".31"/><path d="M549.47,335.84h-.15c-1.05-20.74-2.24-41.46-3-62.21,0-.95,0-1.43.07-2.38C547.14,292.8,548.37,314.31,549.47,335.84Z" style="mix-blend-mode:screen" fill="#d44736" opacity=".31"/><path d="M553.54,339.1h-.14c-1-20.69-2.1-41.37-2.85-62.07,0-1,.05-1.43.08-2.38C551.36,296.15,552.51,317.62,553.54,339.1Z" style="mix-blend-mode:screen" fill="#d44736" opacity=".31"/><path d="M557.71,352.3h-.14c-1.11-25.06-2.43-50.12-3.27-75.19,0-1.16,0-1.74.07-2.89C555.19,300.26,556.56,326.28,557.71,352.3Z" style="mix-blend-mode:screen" fill="#d44736" opacity=".31"/><path d="M561.34,347.4h-.14c-1.06-23.52-2.14-47-2.86-70.59,0-1.08,0-1.62.07-2.7C559.12,298.55,560.25,323,561.34,347.4Z" style="mix-blend-mode:screen" fill="#d44736" opacity=".31"/><path d="M565.58,352.17h-.14c-1.12-25-2.16-50-2.85-75.06,0-1.15,0-1.73.07-2.87C563.35,300.22,564.42,326.2,565.58,352.17Z" style="mix-blend-mode:screen" fill="#d44736" opacity=".31"/><path d="M569.55,352.1h-.14q-1.68-37.39-2.63-74.81c0-1.15.05-1.72.08-2.87Q567.79,313.28,569.55,352.1Z" style="mix-blend-mode:screen" fill="#d44736" opacity=".31"/><path d="M524,353.1l-1,0c-.83-23.64-2.91-47.2-4.29-70.8l1-1C521.08,305.28,523.18,329.15,524,353.1Z" style="mix-blend-mode:multiply" fill="#d44736" opacity=".31"/><path d="M527.54,346.38l-1,0c-1.07-22.49-3-44.93-4.15-67.42l1-.9C524.56,300.86,526.46,323.59,527.54,346.38Z" style="mix-blend-mode:multiply" fill="#d44736" opacity=".31"/><path d="M531.12,342.91l-1,0c-1.16-22.41-3-44.77-4-67.18l1-.89C528.13,297.56,530,320.21,531.12,342.91Z" style="mix-blend-mode:multiply" fill="#d44736" opacity=".31"/><path d="M534.67,339.42l-1,0c-1.22-22.3-2.92-44.57-3.86-66.88l1-.81C531.73,294.33,533.44,316.86,534.67,339.42Z" style="mix-blend-mode:multiply" fill="#d44736" opacity=".31"/><path d="M538.2,335.83l-1,.11c-1.25-22.18-2.83-44.33-3.65-66.52l1.05-.87C535.36,291,537,313.41,538.2,335.83Z" style="mix-blend-mode:multiply" fill="#d44736" opacity=".31"/><path d="M541.74,332.42l-1,0c-1.2-21.22-2.6-42.42-3.33-63.66l1.09.75C539.21,290.51,540.57,311.46,541.74,332.42Z" style="mix-blend-mode:multiply" fill="#d44736" opacity=".31"/><path d="M545.36,330.65l-1,0c-1.09-19.71-2.28-39.4-3-59.13l1.09.72C543.14,291.74,544.3,311.19,545.36,330.65Z" style="mix-blend-mode:multiply" fill="#d44736" opacity=".31"/><path d="M549.2,333.21h-1c-1-19.66-2.16-39.32-2.88-59l1.1.77C547.12,294.41,548.2,313.81,549.2,333.21Z" style="mix-blend-mode:multiply" fill="#d44736" opacity=".31"/><path d="M553.24,336l-1,0c-1-19.62-2-39.23-2.75-58.86l1.1.76C551.28,297.25,552.29,316.6,553.24,336Z" style="mix-blend-mode:multiply" fill="#d44736" opacity=".31"/><path d="M557.58,352.37l-1,0c-1-23.79-2.31-47.57-3.19-71.37l1.11.9C555.32,305.41,556.54,328.89,557.58,352.37Z" style="mix-blend-mode:multiply" fill="#d44736" opacity=".31"/><path d="M561.44,352.31l-1,0c-1-22.37-2.07-44.73-2.86-67.11l1.13,2C559.46,308.93,560.47,330.62,561.44,352.31Z" style="mix-blend-mode:multiply" fill="#d44736" opacity=".31"/><path d="M565.4,352.17l-1,0c-.92-20.48-1.81-41-2.51-61.46l1.13,1.79C563.67,312.41,564.51,332.29,565.4,352.17Z" style="mix-blend-mode:multiply" fill="#d44736" opacity=".31"/><path d="M569.41,352.11h-1q-1.21-27.18-2.12-54.37c.45.7.67,1.06,1.11,1.76Q568.22,325.82,569.41,352.11Z" style="mix-blend-mode:multiply" fill="#d44736" opacity=".31"/><path fill="#9e2f17" d="M637.76,303.37c-22.42.32-44.83-.06-67.25-.47q.74,24.59,1.83,49.16,32.88-.54,65.76-1.11C637.17,335.07,637.23,319.26,637.76,303.37Z"/><path d="M575.63,352h-.14c-1.11-24.8-1.79-49.61-2.29-74.42l.1-2.86C573.81,300.5,574.48,326.26,575.63,352Z" style="mix-blend-mode:screen" fill="#d44736" opacity=".31"/><path d="M575.49,352h-1q-1.22-27-1.89-54.12l1.1,1.75Q574.36,325.84,575.49,352Z" style="mix-blend-mode:multiply" fill="#d44736" opacity=".31"/><path d="M580.11,351.93H580c-1.11-24.7-1.62-49.41-2-74.13,0-1.14.07-1.7.11-2.84C578.46,300.63,579,326.28,580.11,351.93Z" style="mix-blend-mode:screen" fill="#d44736" opacity=".31"/><path d="M580,351.93l-1,0c-.81-18-1.33-35.95-1.71-53.93l1.09,1.73C578.68,317.16,579.18,334.55,580,351.93Z" style="mix-blend-mode:multiply" fill="#d44736" opacity=".31"/><path d="M584.74,352.14h-.14c-1.12-24.61-1.46-49.22-1.78-73.85,0-1.13.07-1.7.11-2.84C583.27,301,583.58,326.59,584.74,352.14Z" style="mix-blend-mode:screen" fill="#d44736" opacity=".31"/><path d="M584.6,352.14l-1,0c-.82-17.91-1.26-35.83-1.55-53.76l1.08,1.73C583.38,317.48,583.81,334.81,584.6,352.14Z" style="mix-blend-mode:multiply" fill="#d44736" opacity=".31"/><path d="M589.4,351.78h-.14c-1.11-24.5-1.28-49-1.51-73.54,0-1.13.07-1.7.12-2.83C588.12,300.88,588.25,326.33,589.4,351.78Z" style="mix-blend-mode:screen" fill="#d44736" opacity=".31"/><path d="M589.26,351.78l-1,0c-.82-17.84-1.17-35.69-1.37-53.55l1.07,1.71C588.13,317.25,588.48,334.51,589.26,351.78Z" style="mix-blend-mode:multiply" fill="#d44736" opacity=".31"/><path d="M594.27,351.7h-.15c-1.1-24.41-1.11-48.82-1.25-73.25.06-1.12.08-1.68.13-2.81C593.18,301,593.11,326.35,594.27,351.7Z" style="mix-blend-mode:screen" fill="#d44736" opacity=".31"/><path d="M594.12,351.7l-1,0c-.81-17.78-1.08-35.56-1.19-53.36.42.68.64,1,1.06,1.71C593.07,317.29,593.34,334.49,594.12,351.7Z" style="mix-blend-mode:multiply" fill="#d44736" opacity=".31"/><path d="M599.15,351.62H599c-1.11-24.32-1-48.62-1-73,0-1.12.08-1.68.14-2.81C598.24,301.12,598,326.37,599.15,351.62Z" style="mix-blend-mode:screen" fill="#d44736" opacity=".31"/><path d="M599,351.62l-1,0c-.81-17.72-1-35.44-1-53.18l1,1.7C598,317.33,598.22,334.47,599,351.62Z" style="mix-blend-mode:multiply" fill="#d44736" opacity=".31"/><path d="M604,351.54h-.14c-1.12-24.23-.79-48.44-.76-72.69.06-1.12.09-1.68.14-2.8C603.3,301.23,602.87,326.38,604,351.54Z" style="mix-blend-mode:screen" fill="#d44736" opacity=".31"/><path d="M603.9,351.54l-1,0c-.81-17.67-.94-35.32-.86-53l1,1.68C603,317.36,603.1,334.44,603.9,351.54Z" style="mix-blend-mode:multiply" fill="#d44736" opacity=".31"/><path d="M609.22,350.75h-.15c-1.09-24.13-.58-48.23-.48-72.37l.15-2.79C608.7,300.66,608.07,325.69,609.22,350.75Z" style="mix-blend-mode:screen" fill="#d44736" opacity=".31"/><path d="M609.07,350.75l-1,0c-.81-17.59-.83-35.16-.67-52.77.42.67.63,1,1,1.67C608.25,316.72,608.29,333.72,609.07,350.75Z" style="mix-blend-mode:multiply" fill="#d44736" opacity=".31"/><path d="M614.27,348.9h-.15c-1-24-.3-48-.17-72l.15-2.79C614,299.05,613.2,324,614.27,348.9Z" style="mix-blend-mode:screen" fill="#d44736" opacity=".31"/><path d="M614.12,348.9l-1,0c-.74-17.5-.65-34.95-.4-52.46l1,1.66C613.46,315.06,613.39,332,614.12,348.9Z" style="mix-blend-mode:multiply" fill="#d44736" opacity=".31"/><path d="M619.26,350.22h-.15c-1.12-24-.29-47.91-.07-71.9.06-1.11.1-1.67.16-2.79C619.06,300.45,618.08,325.31,619.26,350.22Z" style="mix-blend-mode:screen" fill="#d44736" opacity=".31"/><path d="M619.11,350.22l-1,0c-.82-17.5-.7-34.94-.38-52.45l1,1.64C618.4,316.38,618.31,333.28,619.11,350.22Z" style="mix-blend-mode:multiply" fill="#d44736" opacity=".31"/><path d="M624.11,349H624c-1.08-23.9-.09-47.73.15-71.63.07-1.11.1-1.67.16-2.78C624.13,299.42,623,324.18,624.11,349Z" style="mix-blend-mode:screen" fill="#d44736" opacity=".31"/><path d="M624,349l-1,0c-.78-17.42-.57-34.79-.18-52.22l1,1.63C623.37,315.32,623.19,332.14,624,349Z" style="mix-blend-mode:multiply" fill="#d44736" opacity=".31"/><path d="M629.36,350.92h-.14c-1.16-22.26-.37-44.43.08-66.7.08-1,.12-1.53.19-2.55C629.09,304.79,628.14,327.81,629.36,350.92Z" style="mix-blend-mode:screen" fill="#d44736" opacity=".31"/><path d="M629.22,350.92l-1.05,0c-.86-16.28-.76-32.5-.35-48.8l1,1.5C628.39,319.43,628.37,335.15,629.22,350.92Z" style="mix-blend-mode:multiply" fill="#d44736" opacity=".31"/><path d="M634.32,350.84h-.15c-1.08-19.64-.58-39.19,0-58.84.09-1,.13-1.49.21-2.48C633.81,310,633.18,330.37,634.32,350.84Z" style="mix-blend-mode:screen" fill="#d44736" opacity=".31"/><path d="M634.17,350.84l-1,0c-.88-16-.78-32-.33-48,.4.59.6.88,1,1.46C633.37,319.88,633.32,335.31,634.17,350.84Z" style="mix-blend-mode:multiply" fill="#d44736" opacity=".31"/><path fill="#750502" d="M535.7,267.63q-9.12,7.46-17.82,15.38c-2.44,6.49-4.74,13-7,19.6l-2.81.06c2.27-6.82,4.62-13.61,7.12-20.34q9.94-9.07,20.4-17.55c25.87.87,51.71,2.56,77.58,3.41,7.11,5.39,14.26,10.74,21.49,16,2.32,6.36,4.58,12.73,6.84,19.11-23.15.43-46.29.07-69.44-.35q-7.89-10.56-15.81-21.09Q546,274.71,535.7,267.63Z"/><path fill="#ffe2c0" d="M530.35,306.49c4.52-.3,6.9-.34,11.54-.43a2.47,2.47,0,0,0,2.37-2.54c-.06-5.87-.13-11.75-.25-17.63a2.15,2.15,0,0,0-2.5-2.11c-4.55.68-6.19,1.09-10.93,1.6a2.77,2.77,0,0,0-2.51,2.62c.07,5.41-.1,10.83-.07,16.24A2.21,2.21,0,0,0,530.35,306.49Z"/><path fill="#932311" d="M530.72,304.76c4.31-.26,6.5-.33,10.9-.44a.94.94,0,0,0,.9-1c-.07-5.6-.14-11.21-.27-16.81a.8.8,0,0,0-.92-.81c-4.29.62-5.94,1-10.35,1.48a1,1,0,0,0-.93,1c0,6.31-.2,9.32-.22,15.7A.82.82,0,0,0,530.72,304.76Z"/><path fill="#ffe2c0" d="M552.86,352.6l-25.1.42a1.22,1.22,0,0,1-1-1.27c-.91-9.09-2.13-18.14-3.25-27.21-.06-.74.35-1.35.9-1.37,9.64-.82,19.24-2,28.89-2.68.55,0,1,.58,1.06,1.32,0,9.83-.42,19.63-.52,29.45C553.81,352,553.39,352.59,552.86,352.6Z"/><path fill="#e2493d" d="M551.81,352.62l-22.88.38c-.49,0-.92-.53-.95-1.2-.85-8.71-2-17.37-3.08-26-.06-.71.31-1.29.82-1.31,8.83-.8,17.62-1.88,26.45-2.61.5,0,.94.54,1,1.26,0,9.42-.4,18.83-.47,28.25C552.67,352.05,552.29,352.61,551.81,352.62Z"/><path fill="#890c0c" d="M535.62,264.78q-10.47,8.45-20.4,17.55c-2.5,6.73-4.85,13.52-7.12,20.34l2.81-.06c2.23-6.57,4.53-13.11,7-19.6q8.7-7.93,17.82-15.38,10.31,7.08,20.58,14.21,7.15,11.37,14.28,22.76l1.53-1.67q-7.05-11.12-14.15-22.2Q546.81,272.72,535.62,264.78Z"/><path fill="#720707" d="M641.53,303.28c-23.15.43-46.29.06-69.44-.36-.61.67-.92,1-1.53,1.68,23.27.38,46.53.72,69.8.29Z"/><path fill="#7f0808" d="M557.94,280.73c25.57,1.42,51.13,3,76.75,3.44,2.32,6.36,4.58,12.73,6.84,19.11-23.15.43-46.29.06-69.44-.36Q565,291.8,557.94,280.73Z"/><path fill="#ccdd45" d="M841.89,336.11c-12.88-2.05-72.47-9.42-226.08-1.56-199,10.18-386.62,130.24-386.62,130.24l-5.88,130.49H841.89Z"/><path fill="#ccdd45" d="M841.89,336.11c-1.67-.27-4.1-.62-7.43-1-9.63,2.24-34.53,9.63-59.75,30.18-39.1,31.86-63.51,97.23-63.51,97.23H664s17.79-42.53,57.09-83.57c27.5-28.72,53.29-41.4,69.86-47-15.66-.63-35.24-1-59.44-.92a193.21,193.21,0,0,0-43.1,23.07c-33.93,24-64.54,99.3-64.54,99.3H576.74s17.82-41.7,56.68-83.16c17.76-18.94,40.84-31.11,60.13-38.66q-17.46.41-37.39,1.16a182.51,182.51,0,0,0-39.91,21.78c-55.64,40.54-66,89.25-66,89.25l-47.07-3s19-54.6,67-85a252.08,252.08,0,0,1,40.23-20.9c-11.86.72-23.68,1.84-35.42,3.28-11.59,4.85-29.48,12.54-42.88,19.27-49.43,24.84-62.62,68.45-62.62,68.45L433,420.25s16.34-33.6,53.57-57.87a193.39,193.39,0,0,1,23.29-12.85C355,384.28,229.19,464.79,229.19,464.79l-5.88,130.49H841.89Z" opacity=".65"/><path fill="#ccdd45" d="M615.81,334.55c-199,10.18-386.62,130.24-386.62,130.24l-5.88,130.49h1.16l4.68-103.93S416.76,371.29,615.77,361.11c153.78-7.87,213.33-.48,226.12,1.56V336.11C829,334.06,769.42,326.69,615.81,334.55Z" opacity=".46"/><path fill="#479040" d="M593.73,436.56c17.79-1.87,35.64,1.65,53.34,4.2s36.17,4,53.14-1.63a12.42,12.42,0,0,0,5.46-3.06c1.41-1.57,2-4.09.75-5.81-1.37-1.93-4.36-2.17-5.72-4.12-2.77-4,4-8.82,3.1-13.6-.86-4.38-6.91-4.85-11.31-4.08s-10.3.9-11.81-3.3c-2.31-6.47,9.83-11.13,8.12-17.79-1.15-4.48-7.43-4.95-11.83-3.53s-9.31,3.74-13.37,1.52c-3.67-2-5.47-7.25-9.63-7.58-2.9-.23-5.32,2.17-8.14,2.86-7.06,1.74-14.17-7.35-20.71-4.19-5.4,2.6-4.82,11.08-9.52,14.78-5.73,4.51-16.14-.37-20.49,5.49-3.36,4.53.3,11.65-2.83,16.35-2.64,4-8.88,4.23-11.46,8.25-2.1,3.27-.76,7.87,2,10.58s6.64,4,10.37,5.1Z"/><path fill="#8dc63f" d="M582.83,423.33c2.58-4,8.29-1.37,10.93-5.34,3.12-4.7-.68-15.57,2.68-20.11,4.34-5.86,17.31.33,23-4.18,4.7-3.71,2.24-12.64,7.64-15.24,6.54-3.16,12.84,7.76,19.9,6,2.82-.69,6.05-4.92,9-4.69a5.72,5.72,0,0,1,3.2,1.4c-1.49-1.7-3-3.24-5.21-3.41-2.9-.23-5.32,2.17-8.14,2.86-7.06,1.74-14.17-7.35-20.71-4.19-5.4,2.6-4.82,11.08-9.52,14.78-5.73,4.51-16.14-.38-20.49,5.49-3.36,4.53.3,11.65-2.83,16.35-2.64,4-8.88,4.23-11.46,8.25-2.1,3.27-.76,7.86,2,10.58a12.52,12.52,0,0,0,1,.9C581.79,430.06,581,426.19,582.83,423.33Z"/><path fill="#8dc63f" d="M683,407.81c1.86,3.54,7.36,3.38,11.52,2.66,2.89-.51,6.49-.47,8.87.86-1.66-3.24-6.93-3.56-10.88-2.87C689.37,409,685.51,409.22,683,407.81Z"/><path fill="#8dc63f" d="M702.41,427.6a5,5,0,0,0,.3.55c.93,1.34,2.62,1.88,4,2.7a3.84,3.84,0,0,0-.33-.59C705.49,429,703.82,428.41,702.41,427.6Z"/><path fill="#8dc63f" d="M665.61,387.37c4.06,2.22,9-.09,13.37-1.52,3-1,6.84-1.05,9.36.39-1.85-3.41-7.38-3.69-11.37-2.4-4.41,1.43-9.31,3.74-13.37,1.52a7.81,7.81,0,0,1-1.28-.87A12.62,12.62,0,0,0,665.61,387.37Z"/><path fill="#479040" d="M706.65,430.68a2.91,2.91,0,0,0-.23-.42c-1.37-1.93-4.36-2.17-5.72-4.12-1.85-2.68.58-5.73,2.11-8.88a16.21,16.21,0,0,0-2.57.26c-3.7.69-8.65.81-9.91-3-.73-2.18.24-4.12,1.67-6-4.34.69-9.87.67-11.32-3.38-1.14-3.2,1.25-6,3.75-8.73-2.9,1-5.87,1.85-8.45.35-3.07-1.8-4.59-6.51-8.08-6.81-2.44-.21-4.47,1.95-6.83,2.57-5.93,1.56-11.9-6.6-17.4-3.77-4.52,2.34-4,10-8,13.28-4.82,4.05-13.56-.34-17.21,4.93-2.81,4.07.25,10.47-2.37,14.69-2.22,3.56-7.46,3.8-9.62,7.4a7.51,7.51,0,0,0,0,7c13.55.27,27.11,2.76,40.58,4.69,17.71,2.55,36.17,4.05,53.14-1.62a12.42,12.42,0,0,0,5.46-3.06,5.65,5.65,0,0,0,1.36-2.86A3.74,3.74,0,0,1,706.65,430.68Z" opacity=".28"/><path fill="#8dc63f" d="M606.21,413.57a6.94,6.94,0,0,1,9-9.24c.36.14.7-.22.72-.55.1-1.78.34-3.95,1.81-5.18,1.74-1.47,3.66-.39,5.61-.74a3.93,3.93,0,0,0,2.65-1.81c1.64-2.37,3.67-4,6.63-2.46.65.35,1.23-.64.58-1a5.65,5.65,0,0,0-7.55,1.71c-.85,1.23-.71,2.3-3,2.48-.45,0-1.44-.2-2-.21-4.22,0-5.65,3.49-5.85,7.19l.72-.56a8.07,8.07,0,0,0-10.39,10.65c.28.67,1.38.38,1.11-.3Z"/><path fill="#8dc63f" d="M644.34,400.53a4.61,4.61,0,0,1,5.67-4.86c1.2.32,2.43,2.36,3.72,2.23.73-.07,1.6-1.23,2.1-1.52,3.17-1.8,6.75.2,7.59,3.57a.13.13,0,0,0,.25-.06,5.35,5.35,0,0,0-7.31-4.05c-.53.22-.78.52-1.29.74l-.54.47a2.49,2.49,0,0,1-2.67-.74c-1.67-.84-3.17-1.5-5-.64a5,5,0,0,0-2.75,4.86c0,.17.27.17.26,0Z"/><path fill="#8dc63f" d="M630.47,412.8a6.84,6.84,0,0,0-7.69-2.53,6.61,6.61,0,0,0-3.45,3c-.66,1.16-.52,3.15-1.67,3.66-1.44.66-2.76.86-4.09,1.9a9.68,9.68,0,0,0-3,3.83c-1.09,2.56-.92,6.05,1.85,7.39.32.16.6-.32.28-.47-3.07-1.49-2.47-5.5-1-7.91a9.41,9.41,0,0,1,7-4.33.28.28,0,0,0,.27-.28,6.07,6.07,0,0,1,11-4c.21.28.69,0,.48-.28Z"/><path fill="#479040" d="M740.67,432.77c12.24-3.09,25.05-2.42,37.67-2.43s25.66-.8,36.94-6.47a8.64,8.64,0,0,0,3.5-2.68,3.42,3.42,0,0,0,0-4.13c-1.16-1.22-3.27-1.08-4.41-2.31-2.34-2.51,1.92-6.56.8-9.8-1-3-5.32-2.7-8.31-1.72s-7.1,1.67-8.57-1.12c-2.27-4.28,5.74-8.76,3.88-13.23-1.25-3-5.69-2.72-8.62-1.28s-6.12,3.55-9.18,2.41c-2.76-1-4.55-4.52-7.49-4.33-2,.13-3.49,2.05-5.39,2.81-4.76,1.93-10.63-3.71-14.89-.85-3.5,2.36-2.24,8.22-5.16,11.28-3.55,3.73-11.31,1.36-13.75,5.89-1.89,3.5,1.37,8.11-.33,11.7-1.45,3-5.78,3.85-7.18,6.91-1.14,2.5.26,5.57,2.48,7.19s5,2.12,7.75,2.52Z"/><path fill="#8dc63f" d="M731.74,424.62c1.4-3.06,5.64-1.78,7.09-4.82,1.71-3.6-2-10.81-.15-14.31,2.45-4.53,12.12-1.51,15.68-5.24,2.91-3.05.3-9.05,3.8-11.4,4.25-2.87,9.75,4.13,14.5,2.21,1.9-.77,3.73-4.05,5.78-4.18a4,4,0,0,1,2.38.66c-1.22-1-2.44-2-4-1.86-2,.13-3.49,2.05-5.39,2.81-4.76,1.93-10.63-3.71-14.89-.85-3.5,2.36-2.24,8.22-5.16,11.28-3.55,3.73-11.31,1.36-13.75,5.89-1.89,3.5,1.37,8.11-.33,11.7-1.45,3-5.78,3.85-7.18,6.91-1.14,2.5.26,5.57,2.48,7.19.26.19.53.36.81.53C731.68,429.43,730.74,426.81,731.74,424.62Z"/><path fill="#8dc63f" d="M800.11,403.73c1.65,2.29,5.47,1.63,8.31.7a10.26,10.26,0,0,1,6.27-.29c-1.48-2.09-5.19-1.79-7.88-.91C804.69,403.92,802,404.46,800.11,403.73Z"/><path fill="#8dc63f" d="M815.66,415.6a2.81,2.81,0,0,0,.27.36c.78.84,2,1,3.09,1.48a2.72,2.72,0,0,0-.29-.38C817.94,416.23,816.72,416,815.66,415.6Z"/><path fill="#8dc63f" d="M785.93,391.21c3.06,1.14,6.25-1,9.18-2.4,2-1,4.67-1.43,6.57-.68-1.63-2.19-5.52-1.83-8.18-.53-2.93,1.44-6.12,3.55-9.18,2.41a6,6,0,0,1-1-.49A9,9,0,0,0,785.93,391.21Z"/><path fill="#479040" d="M818.93,417.33a1.71,1.71,0,0,0-.2-.27c-1.16-1.22-3.27-1.08-4.41-2.31-1.56-1.68-.17-4.05.58-6.41a11.74,11.74,0,0,0-1.77.44c-2.51.85-6,1.44-7.22-1.07-.72-1.45-.24-2.9.57-4.37-3,.91-6.82,1.45-8.24-1.23-1.12-2.12.27-4.28,1.74-6.47-1.92,1-3.92,1.89-5.87,1.09-2.33-.94-3.86-4.08-6.33-3.94-1.72.1-2.92,1.81-4.51,2.48-4,1.69-9-3.42-12.52-.88-2.93,2.08-1.82,7.35-4.25,10.07-3,3.31-9.49,1.13-11.51,5.17-1.56,3.12,1.22,7.28-.18,10.49-1.2,2.72-4.83,3.4-6,6.14a5.31,5.31,0,0,0,.7,4.88c9.49-1.18,19.21-.79,28.81-.8,12.62,0,25.66-.8,36.94-6.47a8.64,8.64,0,0,0,3.5-2.68,4,4,0,0,0,.67-2.14A2.58,2.58,0,0,1,818.93,417.33Z" opacity=".28"/><path fill="#8dc63f" d="M747.06,415.42a4.89,4.89,0,0,1,5.3-7.32.41.41,0,0,0,.51-.39c-.12-1.59-.14-3.27,1.32-4.25,1.15-.76,2.46-.23,3.63-.83a3,3,0,0,0,1.15-1.06c1.06-1.32-1.15.18,1.09-2a3.45,3.45,0,0,1,3.49-.66c.5.16.71-.61.22-.78a4,4,0,0,0-5,1.92c-.16.3-.23.9-.47,1.14-.74.8-1.91.78-2.83,1-2.87.72-3.6,2.65-3.37,5.54l.51-.39a5.7,5.7,0,0,0-6.22,8.51c.25.45.95,0,.7-.41Z"/><path fill="#8dc63f" d="M772.4,402.52l.84-3.06,3.06-.81c.65.08,1.17.89,1.75,1a2.24,2.24,0,0,0,.68.1,4.1,4.1,0,0,0,.94-.86c2.07-1.71,4.86-1.29,6,1.33.05.11.21,0,.16-.09a3.9,3.9,0,0,0-3.35-2.58c-2-.13-3,2.07-4.88,1.53-1.45-.41-2.43-1.15-3.94-.2a3.55,3.55,0,0,0-1.43,3.69c0,.11.19.07.18-.05Z"/><path fill="#8dc63f" d="M763.92,412.47a4.85,4.85,0,0,0-5.6-1,4.75,4.75,0,0,0-2.14,2.49c-.42,1.14,0,2-1,2.78-2,1.41-3.79,2.47-4.22,5.18-.29,1.86.32,3.74,2.18,4.41.24.08.34-.3.1-.38-1.38-.5-2-2.37-1.91-3.65a5.49,5.49,0,0,1,.79-2.44,6.83,6.83,0,0,1,4.13-3.06.2.2,0,0,0,.14-.24,4.28,4.28,0,0,1,7.28-3.83c.18.17.46-.1.27-.28Z"/><path fill="#479040" d="M681.79,438.71c22.77,2.64,43.1,1.32,66,.07,3.76-.2,7.77-.55,10.73-2.87s4.08-7.35,1.21-9.8c-2.08-1.77-5.56-1.71-7-4.05-2.45-4,0-5.4,3.45-8.62,2.3-2.14-.19-13.43-7.06-12.43-8.28,1.22-4.54-9.64-11.39-11.39-2.65-.67-8.92,2.31-11,.49-3.64-3.23-2.92-9.84-7-12.55-3-2-10.25-.78-12.57,2-4.19,5-1.86,8.61-5,10.39s-5.69-1.51-11.49-.84c-3.68.43-8.41,5.17-9.37,8.75-2.42,9.08,3,11.19-1,16.38-2.44,3.18-4.85.49-9.44,1.68-8.58,2.21-7.23,11.42-4.55,15.1s7,5.68,11.19,7.53Z"/><path fill="#8dc63f" d="M681.36,399.88c1-3.58,5.69-8.32,9.37-8.75,5.8-.67,8.26,2.65,11.49.84s.84-5.36,5-10.39c2.32-2.79,9.55-4,12.57-2,4,2.71,3.32,9.32,7,12.56,2,1.81,8.31-1.17,11-.5,6.85,1.75,3.11,12.61,11.39,11.39,4.76-.69,7.42,4.52,7.83,8.5.49-3.88-2.2-11.33-7.83-10.51-8.28,1.22-4.54-9.64-11.39-11.39-2.65-.67-8.92,2.31-11,.49-3.64-3.23-2.92-9.84-7-12.55-3-2-10.25-.78-12.57,2-4.19,5-1.86,8.61-5,10.39s-5.69-1.51-11.49-.84c-3.68.43-8.41,5.17-9.37,8.75a17.38,17.38,0,0,0-.61,5.75A19.27,19.27,0,0,1,681.36,399.88Z"/><path fill="#8dc63f" d="M752.74,422.06a7.33,7.33,0,0,1-.83-1.83c-.34,1-.15,2.24.83,3.84,1.42,2.34,4.9,2.28,7,4.06a4.66,4.66,0,0,1,1.59,2.88,5.25,5.25,0,0,0-1.59-4.9C757.64,424.34,754.16,424.4,752.74,422.06Z"/><path fill="#8dc63f" d="M670.93,417.94c4.59-1.19,7,1.5,9.44-1.68a6.1,6.1,0,0,0,1.42-5.06,6.84,6.84,0,0,1-1.42,3.05c-2.44,3.18-4.85.49-9.44,1.68-5.42,1.39-6.87,5.58-6.54,9.41C664.68,422.15,666.45,419.09,670.93,417.94Z"/><path fill="#479040" d="M759.68,433.41c-1.56-2.56-.55-3.73,1.34-5.45a4.6,4.6,0,0,0-1.3-1.85c-2.08-1.77-5.56-1.71-7-4.05-1.67-2.74-1.06-4.26.58-6-1.81-2.17-1.41-6.73-5.2-7.7-2-.52-6.88,1.78-8.45.38-2.8-2.49-2.25-7.59-5.37-9.68-2.32-1.55-7.89-.6-9.68,1.56-3.23,3.87-1.43,6.63-3.87,8s-4.39-1.16-8.86-.64c-2.84.33-6.49,4-7.22,6.74-1.87,7,2.29,8.63-.77,12.62-1.88,2.46-3.74.38-7.28,1.29-6.16,1.59-5.67,7.88-3.9,11,18.51,1.23,35.89.14,55.06-.91,3.76-.2,7.77-.55,10.73-2.87a7.25,7.25,0,0,0,1.67-1.9A2.66,2.66,0,0,1,759.68,433.41Z" opacity=".28"/><path fill="#8dc63f" d="M692.37,405a6.31,6.31,0,0,1,11.13-3.62.56.56,0,0,0,.94-.54A8.91,8.91,0,0,1,715.58,390a.56.56,0,0,0,.29-1.08,10,10,0,0,0-12.52,12.22l.94-.55a7.44,7.44,0,0,0-13,4.41c-.07.72,1.06.72,1.12,0Z"/><path fill="#8dc63f" d="M683.29,425.58a4,4,0,0,1,5.61-5.08.88.88,0,0,0,1.27-1,5.59,5.59,0,0,1,1.22-5.12c1.36-1.59,2.74-1.57,4.58-2a3.58,3.58,0,0,0,2.22-1.31,23.87,23.87,0,0,1,1.3-2.11,3.17,3.17,0,0,1,4.17-.18c.87.67,2.11-.54,1.23-1.23a5,5,0,0,0-5-.84,4.53,4.53,0,0,0-2,1.49c-.33.43-.48,1-.82,1.41-1.34,1.67-1.66.91-2.89,1.26-4.06,1.13-6.76,4.82-5.68,9.12l1.28-1a5.73,5.73,0,0,0-8.16,7c.37,1,2,.59,1.67-.46Z"/><path fill="#8dc63f" d="M714.58,401c-.28-2.44,1.68-4.32,4.11-3.32.81.34,1.55,1.17,2.54.88.7-.2,1-.87,1.34-1.4,1.5-2.16,3.74-2.82,6-1.23,1,.7,1.91-.91.94-1.6a5.61,5.61,0,0,0-7.58.55c-1,1.1-.88,1.54-2.49,1.06-3.57-1.06-7.18.93-6.71,5.06.14,1.17,2,1.18,1.86,0Z"/><path fill="#d6c930" d="M841.89,412c-12.79,3.34-66.52,17-105.22,20-44.21,3.53-86.79-.29-131.54-3s-91.65,6.46-91.65,6.46l15.94,159.75H841.89Z"/><path d="M736.67,432.05c-44.21,3.53-86.79-.29-131.54-3s-91.65,6.46-91.65,6.46l15.94,159.75H531L515.49,439.56s46.91-9.17,91.65-6.47S710.56,446.55,754.77,443c36.76-2.93,73.19-21.34,87.12-26.29V412C829.1,415.36,775.37,429,736.67,432.05Z" style="mix-blend-mode:screen" fill="#d6c930"/><path fill="#b0b532" d="M841.89,595.28V548.81C829.94,544,737.72,507.12,666.41,479c-76.39-30.15-251.28-87.44-393-107.54C146,353.35,24.21,365.35,1,368l-1,.11V595.28Z"/><g style="mix-blend-mode:multiply" opacity=".5"><path fill="#b0b532" d="M344,383.78c-16-3.27-31.89-6.23-47.46-8.8-19,18.11-70,69.13-107,128.54-24.16,38.75-36.43,70.36-42.65,91.76H286.4c4.26-33.17,11.32-81.88,19.39-111.44C314.61,451.5,332.91,408.5,344,383.78Z"/><path fill="#b0b532" d="M841.89,548.81c-6.92-2.77-41.06-16.43-82.48-32.93,26.44,27.33,54.86,57.49,75.36,79.4h7.12Z"/><path fill="#b0b532" d="M464,412.84c-21.2-5.84-42.89-11.48-64.68-16.72.75,21.63,2.09,49.95,4.41,71.1,4.08,37.33,14.31,95.95,20.15,128.06H527.49C519,569.63,506.93,532,497.33,497.39,489.51,469.18,476.06,438,464,412.84Z"/><path fill="#b0b532" d="M626.36,464c-24.17-8.65-52.7-18.28-83.89-28.05,13.95,20,30.86,46.2,44.95,74.15,15.08,29.92,31.07,60.75,43.88,85.2h88.48C707.22,572.2,688.86,541.22,667,512.7,651.55,492.53,637.9,476.52,626.36,464Z"/><path fill="#b0b532" d="M215.17,365.06c-36.12-2.84-70.52-3.64-100.9-3.37a286.29,286.29,0,0,0-52.85,34.23C37.89,415.18,15.89,437.71,0,455.14V595.28H1.64C17,571.93,67.92,495.92,113.37,447.54,146.15,412.65,187.54,383,215.17,365.06Z"/></g><path fill="#ffe000" d="M666.41,479c-76.39-30.15-251.28-87.44-393-107.54C146,353.35,24.21,365.35,1,368l-1,.11v11.51l1.65-.18c23.8-2.6,148.52-14.6,279.08,3.48C425.91,403,605.06,460.26,683.31,490.41c55.75,21.48,123.94,48.05,158.58,61.57v-3.17C829.94,544,737.72,507.12,666.41,479Z" opacity=".53"/><path fill="#fdef5e" d="M269.39,477.13c-94.46-15.32-117.6-8.86-182.93-25.95C34.11,437.49,8.22,405.08,0,392.75v16.6c13.5,35.33,46.87,68.35,72.39,76,30.15,9,90.46,21.1,133.68,47.24,39.24,23.72,61.91,56.79,65.75,62.68h269c-3.85-3.45-19-16.4-47.24-33.54C460.36,541.64,363.54,492.39,269.39,477.13Z"/><path fill="#fca822" d="M269.39,477.13c-94.46-15.32-117.6-8.86-182.93-25.95C34.11,437.49,8.22,405.08,0,392.75v2.8c7.88,16.45,34.11,50,86.46,63.67,65.33,17.09,88.47,10.64,182.93,25.95,94.15,15.26,191,64.51,224.14,84.62A393.86,393.86,0,0,1,531,595.28h9.74c-3.85-3.45-19-16.4-47.24-33.54C460.36,541.64,363.54,492.39,269.39,477.13Z" opacity=".57"/><path fill="#7e5339" d="M503.08,502.44s-1.34,12.73-1.84,24.46-.51,21.28.5,23.45,8,7.88,11.39,5.87,8.54-20.44,9.21-27.64,2.35-26,1.68-26.64-1.51.17-1.68-1.17-3-2.51-3-2.51-.5,6.36-1.17,6.7S505.26,504.29,503.08,502.44Z"/><path fill="#ce924a" d="M508.77,498.93c-.5-.05-6.36.5-5.69,3.51s3.85,3.86,7.87,4.19a12,12,0,0,0,7.21-1.67c.67-.34.67-2.52.67-2.52S512.29,499.26,508.77,498.93Z"/><path d="M82.56,456.91c6.56,29.19,7.88,66.78-.5,68.67S58.77,492.93,52.2,463.73s-2.3-42,6.08-43.86S76,427.71,82.56,456.91Z" style="mix-blend-mode:multiply" fill="url(#h)" opacity=".25"/><path d="M157.93,460.07c6.57,29.19,7.06,67-2.35,69.09s-25.15-32.23-31.71-61.42-1.48-42.17,7.93-44.29S151.36,430.88,157.93,460.07Z" style="mix-blend-mode:multiply" fill="url(#B)" opacity=".25"/><path d="M232.37,457.46c6.56,29.19,7.11,67-2.22,69.06s-25-32.27-31.58-61.46-1.53-42.15,7.8-44.25S225.8,428.27,232.37,457.46Z" style="mix-blend-mode:multiply" fill="url(#C)" opacity=".25"/><path fill="#5f4b27" d="M214.35,315.15c1.34.67,8.54,115.08,7,116.09s-20.1,2-22.11.5S212.34,314.14,214.35,315.15Z"/><path fill="#ffe045" d="M219.37,431.24c1.33-.89-4.1-89.89-6.33-111.43.6-3.08,1.06-4.79,1.31-4.66,1.34.67,8.54,115.08,7,116.09-1,.67-9.58,1.33-15.79,1.26C211.5,432.43,218.47,431.84,219.37,431.24Z"/><path fill="#5f4b27" d="M214.35,315.15c.36.18,1.14,8.55,2.06,20.71-5,33.21-12.57,94.78-11.11,95.88.53.4,2.24.62,4.48.71-4.84.15-9.55,0-10.51-.71C197.26,430.23,212.34,314.14,214.35,315.15Z" opacity=".33"/><path fill="#479040" d="M214.85,372.44c26.13,0,44.32-44.77,43.22-61.31-1-15.08-26.64-159.82-43.22-159.82-18.12,0-41.71,143.73-43.72,161.83C169.74,325.63,180.68,372.44,214.85,372.44Z"/><path fill="#479040" d="M171.13,313.14c.45-4.09,2-14.58,4.35-28.36C177.73,304.83,191.59,344,224.9,344c12.54,0,23.46-9.08,31.8-21C252,343,236,372.44,214.85,372.44,180.68,372.44,169.74,325.63,171.13,313.14Z" opacity=".11"/><path fill="#d5fc32" d="M251.79,304.22c-1-7.56-4.95-29.27-10.35-54.22-.19-.88-4.41,4.6-4.6,3.71s3.63-8.15,3.43-9.06c-1.16-5.22-2.37-10.56-3.63-15.9-.23-1-3.45,2.83-3.69,1.84s2.56-6.58,2.35-7.46c-1.07-4.46-2.18-8.89-3.3-13.25-.18-.7-4.78,5.83-5,5.13s4.06-8.61,3.88-9.29c-.5-1.88-1-3.73-1.49-5.57-.68-2.47-4,.16-4.66-2.22-.35-1.26,1.91-7.55,1.55-8.77-.7-2.38-1.41-4.71-2.11-7-.34-1.06-7.39,7-7.73,5.93s6.15-10.82,5.87-11.68c-3.5-10.49-7-19-10.3-24a4.72,4.72,0,0,1,2.8-1.1c16.58,0,42.21,144.74,43.22,159.82,1.05,15.7-15.29,56.81-39.29,61C238.19,361.19,255.49,332.23,251.79,304.22Z" opacity=".58"/><path fill="#479040" d="M207.16,366.36c15.58,0,26.42-30.21,25.76-41.38-.17-2.89-1.52-12.84-3.6-25.61-.16-.95-3.63,1.93-3.79.95s3-5.53,2.89-6.39c-.61-3.61-1.27-7.38-2-11.23-.14-.74-5.82,5.17-6,4.43s5.32-7.92,5.2-8.55c-2.34-12.67-5.06-25.87-7.86-36.77-.27-1.05-2.47,1.1-2.74.09-.13-.5,1.66-4.17,1.53-4.66-.23-.85-2.93,1.07-3.16.26-.37-1.28,1.72-5.26,1.35-6.44-.23-.72-1.75,0-2-.72-2.44-7.27-3.54-13.23-5.68-13.23-6.36,0-13.84,33.55-19.16,63.68-.14.77,4.37,7.08,4.23,7.85-.07.43-4.79-4.7-4.86-4.27q-.65,3.75-1.25,7.37c-.08.48,4.18,7.48,4.1,7.95-.11.71-4.56-5.11-4.67-4.42-.87,5.32-1.63,10.3-2.27,14.68-.13.83,7.41,9.33,7.32,10.11-.38,3.5-8.55-1.39-8.68-.5-.75,5.33-.64,4.87-.83,6.78C180.27,334.77,186.78,366.36,207.16,366.36Z" opacity=".13"/><path fill="#5f4b27" d="M139.77,318.91c1.35.67,8.54,115.08,7,116.09s-20.1,2-22.11.5S137.76,317.9,139.77,318.91Z"/><path fill="#ffe045" d="M144.79,435c1.33-.89-4.1-89.89-6.33-111.43.6-3.08,1.06-4.79,1.31-4.66,1.35.67,8.54,115.08,7,116.09-1,.67-9.58,1.34-15.79,1.26C136.92,436.2,143.89,435.6,144.79,435Z"/><path fill="#5f4b27" d="M139.77,318.91c.36.18,1.14,8.55,2.06,20.71-5,33.21-12.57,94.79-11.11,95.88.54.4,2.24.62,4.49.72-4.85.15-9.56,0-10.52-.72C122.68,434,137.76,317.9,139.77,318.91Z" opacity=".33"/><path fill="#479040" d="M140.27,376.2c26.13,0,44.32-44.76,43.22-61.31-1-15.08-26.64-159.81-43.22-159.81-18.12,0-41.71,143.73-43.72,161.82C95.16,329.4,106.1,376.2,140.27,376.2Z"/><path fill="#479040" d="M96.55,316.9c.45-4.08,2-14.58,4.35-28.36,2.25,20,16.11,59.23,49.42,59.23,12.54,0,23.46-9.07,31.8-21-4.69,20-20.66,49.4-41.85,49.4C106.1,376.2,95.16,329.4,96.55,316.9Z" opacity=".11"/><path fill="#d5fc32" d="M177.21,308c-1-7.57-4.94-29.28-10.35-54.22-.19-.88-4.41,4.59-4.6,3.7s3.63-8.15,3.43-9.05c-1.16-5.23-2.37-10.56-3.63-15.9-.23-1-3.45,2.82-3.69,1.83s2.57-6.57,2.35-7.46c-1.07-4.45-2.18-8.89-3.3-13.25-.18-.7-4.78,5.83-5,5.14s4.06-8.61,3.88-9.3c-.5-1.87-1-3.73-1.49-5.56-.68-2.47-4,.15-4.65-2.23-.36-1.25,1.9-7.55,1.54-8.77-.7-2.38-1.41-4.7-2.11-6.95-.34-1.07-7.39,6.95-7.73,5.92-.28-.88,6.16-10.82,5.87-11.67-3.5-10.5-7-19-10.3-24.05a4.72,4.72,0,0,1,2.8-1.09c16.58,0,42.21,144.73,43.22,159.81,1,15.7-15.29,56.82-39.29,61C163.61,365,180.92,336,177.21,308Z" opacity=".58"/><path fill="#479040" d="M132.58,370.13c15.58,0,26.42-30.22,25.76-41.39-.17-2.89-1.52-12.84-3.6-25.6-.15-.95-3.63,1.92-3.79.94-.14-.83,3-5.52,2.89-6.38-.61-3.61-1.27-7.39-2-11.24-.13-.73-5.82,5.17-6,4.43s5.32-7.91,5.2-8.55c-2.34-12.67-5.06-25.86-7.86-36.77-.27-1-2.47,1.1-2.74.09-.13-.49,1.67-4.17,1.53-4.65-.23-.85-2.93,1.07-3.16.25-.37-1.28,1.72-5.26,1.35-6.43-.23-.73-1.75,0-2-.73-2.44-7.27-3.54-13.23-5.68-13.23-6.35,0-13.83,33.55-19.16,63.68-.14.77,4.37,7.09,4.24,7.85-.08.43-4.8-4.69-4.87-4.27q-.65,3.75-1.25,7.37c-.07.48,4.18,7.48,4.11,8-.12.7-4.57-5.12-4.68-4.43-.86,5.33-1.63,10.31-2.27,14.69-.12.82,7.41,9.32,7.32,10.11-.37,3.5-8.55-1.4-8.68-.51-.75,5.33-.64,4.88-.83,6.78C105.69,338.53,112.21,370.13,132.58,370.13Z" opacity=".13"/><path fill="#5f4b27" d="M64.26,316.63c1.34.67,8.54,115.08,7,116.09s-20.1,2-22.11.5S62.25,315.62,64.26,316.63Z"/><path fill="#ffe045" d="M69.28,432.72c1.33-.89-4.1-89.89-6.33-111.43.6-3.08,1.06-4.79,1.31-4.66,1.34.67,8.54,115.08,7,116.09-1,.67-9.58,1.34-15.79,1.26C61.41,433.92,68.38,433.32,69.28,432.72Z"/><path fill="#5f4b27" d="M64.26,316.63c.36.18,1.14,8.55,2.06,20.71-5,33.21-12.57,94.79-11.11,95.88.53.4,2.24.62,4.48.72-4.84.15-9.55,0-10.51-.72C47.17,431.71,62.25,315.62,64.26,316.63Z" opacity=".33"/><path fill="#479040" d="M64.76,373.92c26.13,0,44.32-44.76,43.22-61.31C107,297.53,81.34,152.8,64.76,152.8,46.64,152.8,23.05,296.53,21,314.62,19.65,327.12,30.59,373.92,64.76,373.92Z"/><path fill="#479040" d="M21,314.62c.45-4.08,2-14.57,4.35-28.36,2.25,20.05,16.11,59.23,49.42,59.23,12.54,0,23.46-9.07,31.8-21-4.69,20-20.66,49.4-41.85,49.4C30.59,373.92,19.65,327.12,21,314.62Z" opacity=".11"/><path fill="#d5fc32" d="M101.7,305.71c-1-7.57-5-29.27-10.35-54.22-.19-.88-4.41,4.59-4.6,3.7s3.63-8.15,3.43-9.05c-1.16-5.23-2.37-10.56-3.63-15.9-.23-1-3.45,2.82-3.69,1.84s2.56-6.58,2.35-7.47c-1.07-4.45-2.18-8.89-3.3-13.25-.18-.7-4.78,5.83-5,5.14s4.06-8.61,3.88-9.3c-.5-1.87-1-3.73-1.49-5.56-.68-2.47-4,.15-4.66-2.23-.35-1.25,1.91-7.55,1.55-8.77-.7-2.38-1.41-4.7-2.11-6.95-.34-1.07-7.39,6.95-7.73,5.92s6.15-10.82,5.87-11.67c-3.5-10.5-7-19-10.3-24.05a4.77,4.77,0,0,1,2.8-1.09C81.34,152.8,107,297.53,108,312.61c1,15.7-15.29,56.82-39.29,61C88.1,362.67,105.4,333.72,101.7,305.71Z" opacity=".58"/><path fill="#479040" d="M57.07,367.85c15.58,0,26.42-30.22,25.76-41.39-.17-2.89-1.52-12.84-3.6-25.6-.16-.95-3.63,1.92-3.79.94s3-5.52,2.89-6.38c-.61-3.61-1.27-7.39-2-11.24-.14-.73-5.82,5.17-6,4.43s5.32-7.91,5.2-8.55c-2.34-12.67-5.06-25.86-7.86-36.76-.27-1.06-2.47,1.09-2.74.08-.13-.49,1.66-4.17,1.53-4.65-.23-.85-2.93,1.07-3.16.26-.37-1.29,1.72-5.27,1.35-6.44-.23-.73-1.75,0-2-.73-2.44-7.27-3.54-13.23-5.68-13.23-6.36,0-13.84,33.55-19.16,63.68-.14.77,4.37,7.09,4.23,7.85-.07.43-4.79-4.69-4.86-4.26-.43,2.49-.85,4.95-1.25,7.36-.08.48,4.18,7.48,4.1,8-.11.7-4.56-5.12-4.67-4.43-.87,5.33-1.63,10.31-2.27,14.69-.13.82,7.41,9.32,7.32,10.11-.38,3.5-8.55-1.4-8.68-.51-.75,5.34-.64,4.88-.83,6.78C30.18,336.26,36.69,367.85,57.07,367.85Z" opacity=".13"/><path fill="#7e5339" d="M328,437.45s8,46.23,10.39,48.24,12.73,1.68,13.74-2.34-3.35-53.56-3.35-53.56S328.69,429.74,328,437.45Z"/><path fill="#7e5339" d="M348.8,429.79s-1.75,0-4.24.19c1,11.17,3.91,46.84,3.06,50.23-.71,2.86-6.19,3.85-10.13,3.45a5.74,5.74,0,0,0,.92,2c2.34,2,13,1.74,13.74-2.34C353,478.59,348.57,428.91,348.8,429.79Z" opacity=".24"/><path fill="#ce924a" d="M328.44,435.1c-.38.82-1.25,2,1.26,4s9,.25,11.31-.75a11.84,11.84,0,0,0,3.76-2.77l-3.26-3s4.27,2.26,5,1,4.11-3,.92-6.53S330.45,430.83,328.44,435.1Z"/><path fill="#fff148" d="M331.71,439.12c-2.51-2-1.64-3.2-1.26-4,1.53-3.25,9.92-8.25,15.23-8.9-4.86-.78-15.49,5.2-17.24,8.9-.38.82-1.25,2,1.26,4,1,.83,2.76,1,4.58.88A4.86,4.86,0,0,1,331.71,439.12Z"/><path fill="#fff148" d="M341.51,432.59a21.32,21.32,0,0,0,3.3,1.36,2.19,2.19,0,0,0,1.57-.19C345,433.37,341.51,432.59,341.51,432.59Z"/><path fill="#56321e" d="M346.05,441.46l-1.28-5.86-3.26-3a22.61,22.61,0,0,0,3.61,1.4,7.54,7.54,0,0,0,1.26-.16Z"/><g opacity=".49"><path fill="#56321e" d="M337.72,443.43c-1.15,4.81.77,8.69,1.93,13.31,1.47,5.9-.08,12,1.72,17.79.09.31.58.18.48-.13-1.58-5.11-.34-10.25-1.18-15.43-.86-5.33-3.8-9.81-2.47-15.41.08-.31-.41-.44-.48-.13Z" opacity=".5"/><path fill="#56321e" d="M340.39,441.8c1.3,4.5,1.15,9.17,2,13.75a75,75,0,0,1,1.53,15.31c0,.32.49.32.5,0a66,66,0,0,0-1.25-14c-.95-5-.84-10.22-2.27-15.15-.09-.31-.58-.18-.48.13Z" opacity=".5"/><path fill="#56321e" d="M331.13,442.87c2.17,3.16,1.8,6.79,2.53,10.37.65,3.15,1.59,6.17,2.1,9.35a133.18,133.18,0,0,0,5,20,.26.26,0,0,0,.5-.07,13.13,13.13,0,0,0-.31-5c-.07-.31-.56-.18-.48.13,1.9,8-1.66-3-2.05-4.46-1-3.86-1.6-7.73-2.28-11.65s-1.92-7.58-2.41-11.47c-.35-2.81-.46-5-2.12-7.43-.18-.27-.62,0-.44.25Z" opacity=".5"/><path fill="#56321e" d="M348.83,481.65c.77-5.52-1.07-10.71-1.44-16.2-.41-6.3,0-12.71,0-19a.26.26,0,0,0-.51,0c-.05,5.72-.27,11.47-.1,17.19.18,6,2.37,11.92,1.54,17.91-.05.31.44.45.48.13Z" opacity=".5"/></g><path d="M333.14,464.88s5.72-.88,6.41-1.64-4.1-15.91-4.1-15.91l-5.48.94Z" style="mix-blend-mode:multiply" fill="#7e5339" opacity=".31"/><path d="M340.59,460.05a1.62,1.62,0,0,0,.85,1.38c2.63,1.42,10.56,5.66,10.1,4.94-.3-.45-1.11-14.43-1.11-14.43l-10.27-4.16Z" style="mix-blend-mode:multiply" fill="#7e5339" opacity=".31"/><path fill="#7e5339" d="M412.79,466.59c0,.51,3,48.42,3.51,48.92s4.86,2,8.72,1.68,6.36-1.35,6.86-3.19.34-15.07.84-17.92-1.17-12.4-1.51-16.25.34-13.91.34-13.91Z"/><path d="M431.21,479.83c-.33-3.85.34-13.91.34-13.91l-4.6.17c-.16,2.79-1.78,10.06-.26,12.69,2.38,4.13,4.64,12.32-2.89,14.24-2.81.72-.5,16.54-1,18.39s1.55,4.39-2.31,4.73a14.61,14.61,0,0,1-3-.07,19,19,0,0,0,7.56,1.12c3.85-.34,6.36-1.35,6.86-3.19s.34-15.07.84-17.92S431.55,483.68,431.21,479.83Z" style="mix-blend-mode:multiply" fill="#7e5339" opacity=".25"/><path fill="#ce924a" d="M413.12,465.09c-1,1.87-.5,3.68,1.84,5.19s11.48,1.09,14-.59,3.28-3.3,2.43-4.35c-1.42-1.76-9.71-2.43-9.71-2.43l-.67,2.34-1.35-2.17S414.13,463.21,413.12,465.09Z"/><path fill="#fff148" d="M414.13,466.09c1-1.87,6-1.71,6-1.71l1.9,1.88.67-2.35s6.47.53,9,1.86a1.56,1.56,0,0,0-.25-.43c-1.42-1.76-9.71-2.43-9.71-2.43l-.67,2.34-1.35-2.17s-5.52.13-6.53,2c-.91,1.69-.57,3.33,1.24,4.75A3.26,3.26,0,0,1,414.13,466.09Z"/><g opacity=".56"><path fill="#56321e" d="M423.55,473.88c1.48,6,3.58,13.81,2.88,19.9a87.59,87.59,0,0,0-.37,15.28c0,.32.52.32.5,0-.18-3.19-.37-6.38-.24-9.56.12-2.78.92-5.55.85-8.32-.14-5.58-1.8-12-3.13-17.43-.08-.32-.56-.18-.49.13Z" opacity=".5"/><path fill="#56321e" d="M418.31,472.89c0,2.67.08,5.18,1.46,7.52,1.82,3.11,2.24.8.75,6.9-.76,3.13-.43-.26-1,2.91s.08,7.25.27,10.59q.38,6.65,1,13.27c0,.32.53.33.5,0-.75-8.15-3-18.64-.35-26.52.52-1.53,1.6-2.57,1.2-4.37-.22-.94-.79-1.31-1.22-2.08a15,15,0,0,1-2.12-8.22.25.25,0,0,0-.5,0Z" opacity=".5"/><path fill="#56321e" d="M415.93,478.3c.66,5.89,1.06,11.82,1.32,17.74.23,5.13-.92,10.56,1,15.43.11.3.6.17.48-.13-2-5.13-.78-11.61-1.07-17.09-.29-5.32-.63-10.65-1.23-15.95,0-.32-.54-.32-.5,0Z" opacity=".5"/><path fill="#56321e" d="M422.29,488.44c.58,6.72-1.05,13.49,1.45,20,.11.29.6.16.48-.14-2.47-6.41-.85-13.16-1.43-19.82,0-.32-.53-.32-.5,0Z" opacity=".5"/></g><path d="M414.71,497.5l-1.09-17.62a.72.72,0,0,1,.95-.73l5.67,1.94a.72.72,0,0,1,.49.69v17.34a.72.72,0,0,1-1,.67l-4.93-1.93" style="mix-blend-mode:multiply" fill="#7e5339" opacity=".15"/><path d="M524,501.94c-.67-.67-1.51.17-1.68-1.17-.12-1-1.62-1.84-2.46-2.26.26,3.34-5.76,20.4-7.56,26.74-2.73,9.62-.1,24.93-3.45,26.94-1.79,1.08-4.62-.05-7-1.66,1.27,2.29,8,7.65,11.29,5.69s8.54-20.44,9.21-27.64S524.69,502.61,524,501.94Z" style="mix-blend-mode:multiply" fill="#7e5339" opacity=".24"/><path fill="#fff148" d="M505.09,503.45c-.67-3,5.19-3.57,5.69-3.52,2.29.22,5.83,1.63,8,2.6a.51.51,0,0,0,0-.09s-6.54-3.18-10.06-3.51c-.5-.05-6.36.5-5.69,3.51.4,1.81,1.71,2.84,3.57,3.44A4,4,0,0,1,505.09,503.45Z"/><path fill="#56321e" d="M518.16,505s-.26,5.65-.76,9.92-1.25,9-1.63,14-.88,10.68-.88,10.68,1.88-13.82,2.76-19.48,1.18-12.18,1.18-12.18Z"/><path fill="#56321e" d="M522.34,500.77s-.79,5.82-1.17,10.09-1.26,12.57-1.26,12.57l2.43-14.58Z"/><g opacity=".63"><path fill="#56321e" d="M515.45,508.84c-.77,3.78-.21,8-1.6,11.59-.85,2.22-2.74,3.74-3.36,6.05-1,3.69-1.05,7.75-1.91,11.53a31.46,31.46,0,0,0-1,10.49c0,.32.54.32.51,0-.43-4.18.47-8.06,1.4-12.1.64-2.76.63-5.81,1.32-8.5.81-3.12,3.26-5.53,4-8.69.78-3.35.45-6.85,1.13-10.23.06-.32-.42-.46-.48-.14Z" opacity=".5"/><path fill="#56321e" d="M510.92,510.08a129.86,129.86,0,0,1-2.29,13.43,39.77,39.77,0,0,1-1.7,5.67c-1.53,3.76-.83.33-.66-1.78.2-2.55.41-5.11.62-7.66.18-2.28,1-5.44.62-7.67-.13-.73.16-1.87-.81-2.21-3-1.05-2.71,8.89-2.79,10.15-.63,9.52-.44,19.13-.59,28.67,0,.32.49.32.5,0,.15-9.83-.07-19.76.66-29.56.09-1.21.58-7.88,1-7.88,2.65,0,1.14,5.06,1,6.58q-.62,7.66-1.24,15.33a.25.25,0,0,0,.46.13c3.35-7.33,4.57-15.14,5.64-23.07.05-.31-.44-.45-.48-.13Z" opacity=".5"/><path fill="#56321e" d="M513,531.93a146.18,146.18,0,0,1-1.9,20.77c-.05.32.43.45.48.13a146.43,146.43,0,0,0,1.92-20.9.25.25,0,0,0-.5,0Z" opacity=".5"/></g><polygon points="502.2 511.8 509 514.38 506.16 529.64 501.14 529.33 502.2 511.8" style="mix-blend-mode:multiply" fill="#7e5339" opacity=".24"/><path fill="#7e5339" d="M333.48,447.59,258.86,462a1.45,1.45,0,0,0-.59,2.58l10.62,7.94a1.44,1.44,0,0,0,1.12.26l66.83-11.64a1.46,1.46,0,0,0,1.15-1.8l-2.84-10.7A1.44,1.44,0,0,0,333.48,447.59Z"/><path fill="#ce924a" d="M259.87,464l74.62-14.41a1.44,1.44,0,0,1,1,.16l-.3-1.12a1.44,1.44,0,0,0-1.67-1.05L258.86,462a1.45,1.45,0,0,0-.59,2.58l.52.39A1.4,1.4,0,0,1,259.87,464Z"/><path fill="#fff148" d="M258.86,463s75.37-15.56,74.62-15.42L258.86,462a1.45,1.45,0,0,0-1.07,1.94A1.4,1.4,0,0,1,258.86,463Z"/><path fill="#7e5339" d="M339.76,448.62l1.2,11.07a.78.78,0,0,0,.42.6l76.27,37.4a1.74,1.74,0,0,0,2.5-1.56l0-14a.75.75,0,0,0-.46-.7l-78.83-33.55A.76.76,0,0,0,339.76,448.62Z"/><path d="M420.1,482.09a.75.75,0,0,0-.46-.7l-1.67-.71a.72.72,0,0,1,.12.4l.05,15.61a.76.76,0,0,1-1.09.69l-75.72-37.14.05.05,76.49,37.51c2.08.26,2.28-1.26,2.28-1.83Z" style="mix-blend-mode:multiply" fill="#7e5339" opacity=".42"/><path fill="#ce924a" d="M340.81,449.85l77.29,32.89a7.34,7.34,0,0,0,2-.65.75.75,0,0,0-.46-.7l-78.83-33.55a.76.76,0,0,0-1.05.78l.15,1.46A.77.77,0,0,1,340.81,449.85Z"/><path fill="#fff148" d="M340.81,448.85l78.83,32.54-78.83-33.55a.76.76,0,0,0-1.05.78l.06.61A.76.76,0,0,1,340.81,448.85Z"/><path fill="#7e5339" d="M426.31,488,508,513.69a1.39,1.39,0,0,1,.94,1.67L506.37,526a1.41,1.41,0,0,1-1.79,1l-79.53-25a1.4,1.4,0,0,1-1-1.39l.43-11.29A1.41,1.41,0,0,1,426.31,488Z"/><path d="M508,513.69,426.31,488a1.4,1.4,0,0,0-1.79,1.08L506,514.69a1.41,1.41,0,0,1,.94,1.68l-2.58,10.56.21.07a1.41,1.41,0,0,0,1.79-1L509,515.36A1.39,1.39,0,0,0,508,513.69Z" style="mix-blend-mode:multiply" fill="#7e5339" opacity=".48"/><path fill="#7e5339" d="M513.62,522.4l-2.36,9.15a.71.71,0,0,0,.18.66l61.14,63.07h17.83l-75.63-73.21A.69.69,0,0,0,513.62,522.4Z"/><path fill="#ce924a" d="M513.62,522.4l-.14.51a.73.73,0,0,1,.3.16l73.15,72.21h3.48l-75.63-73.21A.69.69,0,0,0,513.62,522.4Z"/><path fill="#ce924a" d="M506.83,515.38c.44-.65,1.05-1.35,1.66-1.43a1.27,1.27,0,0,0-.47-.26L426.31,488a1.4,1.4,0,0,0-1.79,1.08L506,514.69A1.45,1.45,0,0,1,506.83,515.38Z"/><path fill="#56321e" d="M324,456.74c-9-1.9-16.51,3.34-25,5.3-10.8,2.5-22.48,2.65-33.49,3.75-.32,0-.33.53,0,.5,9.53-1,19.14-1.61,28.63-2.9,9.92-1.35,19.53-8.31,29.7-6.16.31.06.45-.42.13-.49Z" opacity=".5"/><path fill="#56321e" d="M271.6,469.17c2.36-1.41,5.83.29,8.41.13,3.19-.19,6.23-1.56,9.38-2,6.57-.92,12.06-.39,18.43-2.75s11.66-4.16,18.45-5c3.33-.38,6.42-1.43,7-5.1.05-.32-.43-.45-.48-.13-.9,5.67-12.83,5.14-17.5,6.76-5.1,1.77-9.94,4.28-15.32,5.08s-10.24.34-15.47,1.66a20.59,20.59,0,0,1-5.32.76c-1.92,0-3.21-.64-5-.7a3.65,3.65,0,0,0-2.83.82.25.25,0,0,0,.26.43Z" opacity=".5"/><path fill="#56321e" d="M290.76,461.05l37.56-7.66c.32-.07.18-.55-.13-.49l-37.57,7.67c-.31.06-.18.55.14.48Z" opacity=".5"/><path fill="#56321e" d="M343,454.86c5.13.39,7.63,5.65,12.93,5.88,7.71.35,14,5.51,20.11,10,5.19,3.78,8.82,4.61,15.08,5.59,7.38,1.16,15,3.83,20,9.69.21.24.56-.11.36-.36-4-4.69-9.5-7.23-15.34-8.79-3.77-1-7.71-.93-11.44-1.9s-6.7-3.48-9.83-5.71c-4.53-3.24-10.89-9-16.71-9.16-2.57-.06-4.45.38-6.82-1.09-1-.65-2-1.54-2.94-2.27a9.63,9.63,0,0,0-5.38-2.35c-.33,0-.33.47,0,.5Z" opacity=".5"/><path fill="#56321e" d="M354.53,464.27a56.72,56.72,0,0,1,23.89,12.83c.24.21.6-.14.36-.36a57.73,57.73,0,0,0-24.11-13,.26.26,0,0,0-.14.49Z" opacity=".5"/><path fill="#56321e" d="M388.76,480.33c8.68,1.72,14.84,9.33,23.8,10.12.32,0,.32-.48,0-.5-8.89-.78-15-8.39-23.66-10.1-.32-.07-.45.42-.14.48Z" opacity=".5"/><path fill="#56321e" d="M427.49,492.61c3.91,2.41,7.84,4.79,12.34,5.91,5.51,1.37,11.21,1.5,16.69,3.14,4.94,1.48,9.28,4.18,14.09,5.9,5.55,2,11.95.6,17,3.92.27.18.52-.25.25-.43-3.77-2.49-7.82-2.24-12.14-2.82-5.72-.77-10.48-4-15.81-6a64.12,64.12,0,0,0-13.51-3.18,45.18,45.18,0,0,1-18.64-6.91c-.28-.17-.53.27-.26.44Z" opacity=".5"/><path fill="#56321e" d="M429.93,497.38c3.86,2.6,7.74,5.11,12.44,5.71,3.56.45,7,.28,10.55,1.14a63.75,63.75,0,0,1,9.47,3.34c5.2,2.16,8.88,7.11,14.3,8.54,5.93,1.58,12.62-.79,17.23,4.52.21.24.57-.11.35-.36-2.56-2.95-6-3.72-9.82-4-4.26-.28-8-.18-11.72-2.69-2.43-1.64-4.29-3.67-6.91-5.05a52.75,52.75,0,0,0-15.52-5.4c-3.4-.55-6.94-.08-10.28-1-3.61-1-6.77-3.14-9.84-5.2-.27-.18-.52.25-.25.43Z" opacity=".5"/><path fill="#56321e" d="M483.51,513a9.9,9.9,0,0,0,6,2.1c5.65.33,9.92-.42,14.72,3.46.25.2.61-.15.36-.35a15.93,15.93,0,0,0-7.37-3.54c-4.59-.78-9.28,1.17-13.34-2-.25-.2-.61.16-.35.36Z" opacity=".5"/><path fill="#56321e" d="M514.84,528.24c5.09,3.91,6.44,10.15,10.32,15,3.56,4.4,9.32,5.84,14,8.71C551,559.2,557,572.14,567.62,580.74c.25.21.61-.15.36-.35-10.18-8.23-16-20.63-27.05-27.94-6.37-4.21-13.43-5.82-17.51-12.78-2.5-4.28-4.29-8.77-8.33-11.86-.25-.2-.5.23-.25.43Z" opacity=".5"/><path fill="#56321e" d="M537.56,554.15a49.19,49.19,0,0,1,11.9,11.75c2.35,3.3,4.15,6.46,7.39,9a38.57,38.57,0,0,1,9.35,10.18c2.28,3.53,6.39,5.48,8.28,9.22.15.29.58,0,.44-.25-2-4-6.29-6.07-8.7-9.91a28.66,28.66,0,0,0-7.82-8.72c-4.39-3.28-6.68-7.55-10-11.77a50,50,0,0,0-10.61-9.93c-.26-.18-.51.25-.25.44Z" opacity=".5"/><path d="M499.84,553.06s4,30.58,6.35,42.22h21.53c-2.11-9.2-14.14-44.69-14.14-44.69S501.18,544.93,499.84,553.06Z" style="mix-blend-mode:multiply" fill="url(#D)" opacity=".25"/><path d="M507.36,583.52,505.07,569l-65-35.12c-4.05-10-8.77-20.93-8.77-20.93s-12.4-4.45-13.74,2c0,0,1.22,7.39,2.71,15.54l-58.52-19.46c-4.2-12.57-9.57-27.59-9.57-27.59s-12.4-5.36-13.74,2.34c0,0,2.16,15.76,4.24,28.46l-66.56-42.94-7.2,1.31L345.06,527a12.68,12.68,0,0,0,.8,2.62c1.93,3.63,20.45,1,20.74-2.06a16.43,16.43,0,0,0-.77-3.61l56.45,17c1.07,5.2,2.07,9.39,2.7,10.37,1.93,3,20.45.79,20.74-1.72a8.81,8.81,0,0,0-.59-2.45Z" style="mix-blend-mode:multiply" fill="url(#E)" opacity=".2"/><path fill="#fca822" d="M272.74,527.06a9.63,9.63,0,0,1,12.06-3.63c8,3.14,10.05,6.15,2.35,8.5S271.4,533.93,272.74,527.06Z" opacity=".57"/><path fill="#fca822" d="M270.42,550.89a4.84,4.84,0,0,1,6-1.82c4,1.57,5,3.08,1.18,4.26S269.75,554.33,270.42,550.89Z" opacity=".57"/><path fill="#fca822" d="M302.25,542.35s-8.32,1-5.68,6.33,12,8.17,16,4.09S310,544.73,302.25,542.35Z"/><g mask="url(#F)" opacity=".71"><path fill="url(#n)" d="M497.68,160.4c6.38-.1,13-.23,18.79-2.81,12.68-5.62,18-22.44,13-35.38s-18.29-21.51-32-23.41-27.75,2-40.12,8.31C450.7,97.41,445.1,74.89,417.42,81c-17.56,3.88-14.62,26.58-19,24.92-2.68-1-7.61-27.24-31.83-19.67-13.37,4.18-9.95,20-7.45,25.23,3.83,8-9.72-6.81-25.05,1-15.73,8-9,17.86-15.23,19.66-8.23,2.39-16.23.1-23.46,6-6.44,5.22-2.77,14.07-18.28,16.17-7,.94-10.74,8-2,9.51,8.9,1.53,20-.48,29.13-.61l65-.93Z"/></g><g opacity=".71"><g mask="url(#G)"><path fill="url(#H)" d="M278.11,156.27c15.52-2.1,11.85-11,18.28-16.17,7.23-5.87,15.23-3.58,23.46-6,6.21-1.8-.49-11.67,15.24-19.66,15.33-7.79,28.82,6.77,25.05-1-2.71-5.56-5.9-20.47,7.25-25,14.68-5.06,24.52,5.72,28.08,12.37-4.71-9.87-13-20.74-30-14.23-11.74,4.51-9.06,19.28-6.36,24.84,3.77,7.75-9.72-6.81-25.05,1-15.73,8-9,17.86-15.23,19.66-8.23,2.39-16.23.1-23.46,6-6.44,5.22-2.77,14.07-18.28,16.17-5.43.73-8.92,5.19-6.07,7.83C270.88,159.63,273.92,156.84,278.11,156.27Z"/></g><g mask="url(#I)"><path fill="url(#J)" d="M458.37,109.12c12.37-6.27,26.38-10.21,40.12-8.31,12.39,1.72,24.39,8.86,30.29,19.73-5.45-12-18.16-19.92-31.29-21.74-13.74-1.9-27.75,2-40.12,8.31a34.8,34.8,0,0,1-2.18-3.76A46.71,46.71,0,0,0,458.37,109.12Z"/></g><g mask="url(#K)"><path fill="url(#L)" d="M399.41,107.93c4.39,1.67.69-20,18.23-24,20.27-4.6,30.22,5.63,35.06,15.1-4.9-10-14.41-23.13-35.28-18.06-18.34,4.45-14.62,26.58-19,24.92a1.36,1.36,0,0,1-.57-.56C398.44,106.77,398.92,107.75,399.41,107.93Z"/></g></g><path fill="#ecfaf5" d="M530.34,124.75c.23,10.65-5.17,21.5-14.87,25.8-5.84,2.59-12.42,2.72-18.8,2.81l-128.5,1.83-65,.93c-9.08.13-20.23,2.15-29.12.62a13,13,0,0,1-1.89-.48c-3.17,2.49-3.35,6.44,2.89,7.51,8.9,1.53,20-.48,29.13-.61l65-.93,128.51-1.83c6.38-.1,13-.23,18.79-2.81C528.34,152.33,533.78,137.27,530.34,124.75Z" opacity=".71"/><g mask="url(#M)" opacity=".71"><path fill="url(#N)" d="M617,63.78c1.78-3.23,5.14-5.28,8.52-6.76a45.78,45.78,0,0,1,32.88-1.28,30,30,0,0,1,55.71,4.48,33.08,33.08,0,0,1,48.39,22.26,6.37,6.37,0,0,1,0,3.41c-1.1,3.16-5.48,3.2-8.78,2.67a535.94,535.94,0,0,0-114-6c-7.86.43-13.64.62-19.91-2C609.64,76.29,615.19,67,617,63.78Z"/></g><g style="mix-blend-mode:screen" opacity=".71"><path fill="#ecfaf5" d="M656.36,57.75A45.78,45.78,0,0,0,623.48,59,23.54,23.54,0,0,0,618,62.22a19.31,19.31,0,0,1,7.45-5.2A45.74,45.74,0,0,1,657.6,55.5,24.63,24.63,0,0,0,656.36,57.75Z"/><path fill="#ecfaf5" d="M760.49,87.9a6.37,6.37,0,0,0,0-3.41,33.08,33.08,0,0,0-48.39-22.26,29.85,29.85,0,0,0-49-13.36,29.89,29.89,0,0,1,51,11.35,33.08,33.08,0,0,1,48.39,22.26,6.37,6.37,0,0,1,0,3.41,3.83,3.83,0,0,1-2.11,2.24C760.42,88.06,760.46,88,760.49,87.9Z"/></g><g style="mix-blend-mode:multiply" opacity=".71"><path fill="#ecfaf5" d="M660.89,51.56a30,30,0,0,1,1.9-2.35,28.19,28.19,0,0,0-1.41,2.51Z"/><path fill="#ecfaf5" d="M617,63.78a11.71,11.71,0,0,1,2.51-3.09c-2.09,3.82-6,11.94,3.4,15.85,6.26,2.61,12,2.42,19.91,2a536,536,0,0,1,114,6,13.63,13.63,0,0,0,6-.15,4.46,4.46,0,0,1-.21,1.5c-1.1,3.16-5.48,3.2-8.78,2.67a535.94,535.94,0,0,0-114-6c-7.86.43-13.64.62-19.91-2C609.64,76.29,615.19,67,617,63.78Z"/></g><g mask="url(#O)" opacity=".87"><path fill="url(#P)" d="M181.17,95c-8.12-15.82-29.23-23.47-45.6-16.51-2.95,1.25-5.88,2.94-9.09,2.92-4.72,0-8.5-3.71-12.5-6.23-9.85-6.2-22.89-5.66-33.53-.94S61.22,87.36,53.81,96.33c-2.11,2.55-4.23,6-2.6,8.93,1.48,2.6,5,2.88,8,2.85l107.37-1.19c3.6,0,7.34-.12,10.52-1.79s5.57-5.45,4.42-8.85Z"/></g><g style="mix-blend-mode:screen"><path fill="#ecfaf5" d="M111,76.2c4,2.52,7.77,6.18,12.5,6.22a13.67,13.67,0,0,0,5.36-1.27,10.86,10.86,0,0,1-2.35.27c-4.72,0-8.5-3.71-12.5-6.23-9.19-5.78-21.13-5.7-31.33-1.84C92.13,70.54,102.67,71,111,76.2Z"/><path fill="#ecfaf5" d="M181.56,96.28,181.17,95c-8-15.55-28.5-23.19-44.73-16.85,15.67-4.37,34.22,3.26,41.71,17.85l.39,1.27c1.15,3.4-1.23,7.19-4.41,8.86-.15.08-.31.13-.46.21a13.52,13.52,0,0,0,3.47-1.22C180.33,103.47,182.71,99.68,181.56,96.28Z"/></g><path fill="#ecfaf5" d="M181.39,98.36c-3.19,1.66-6.93,1.74-10.52,1.78L63.49,101.33c-3,0-6.56-.24-8-2.85a4.8,4.8,0,0,1-.39-3.64c-.42.5-.84,1-1.25,1.49-2.11,2.55-4.23,6-2.6,8.93,1.48,2.6,5,2.88,8,2.85l107.37-1.19c3.6,0,7.34-.12,10.52-1.79a8.52,8.52,0,0,0,4.71-7Z"/><path fill="#f4703f" d="M769.67,346.61,731.89,242.38a3,3,0,0,0-2.84-2h0a3,3,0,0,0-2.83,2.06L691.5,345.93a3,3,0,0,0,5.72,1.91l6.21-18.53,53.42-.39L764,348.66a3,3,0,0,0,2.84,2,3.1,3.1,0,0,0,1-.18A3,3,0,0,0,769.67,346.61Zm-40.5-94.05,15.12,41.71-28.48-1.88Zm8.35,47.31-6.12,3.86-7-4.73ZM713.59,299l12.23,8.22-19,12Zm-1.78,24.19,19.49-12.29,17.87,12Zm25.06-15.81,9.91-6.25L753,318.23Z"/><path fill="#e8562a" d="M769.58,346.64c-7.24-20.11-14.67-40.15-22.09-60.19l-11.1-30.08-2.76-7.52-1.38-3.76-.69-1.89a3.39,3.39,0,0,0-.81-1.51,2.4,2.4,0,0,0-3-.33,2.36,2.36,0,0,0-1,1.21l-.63,1.88-2.52,7.61-20.15,60.87-10.07,30.43-.63,1.91-.32,1a2.17,2.17,0,0,0-.11.66,2,2,0,0,0,1.51,1.92,2,2,0,0,0,2.22-1,2.75,2.75,0,0,0,.14-.3l.16-.48.32-.95.64-1.9L702.5,329h0a1,1,0,0,1,.93-.67c8.9,0,17.8,0,26.71.05l26.7.18h0a.36.36,0,0,1,.34.24q2.49,7.2,5,14.38l1.27,3.59c.48,1.17.64,2.54,1.69,3.22a2.88,2.88,0,0,0,3.4-.06A2.92,2.92,0,0,0,769.58,346.64Zm.19-.07a3.15,3.15,0,1,1-5.94,2.1l-.66-1.79-1.33-3.57q-2.62-7.14-5.34-14.27l.35.25-26.7.57c-8.9.2-17.81.29-26.71.44l.93-.67-5.06,15.21-.63,1.9-.32.95-.15.47a4.85,4.85,0,0,1-.27.62,4.07,4.07,0,0,1-4.56,2,4,4,0,0,1-3.06-3.95,4.33,4.33,0,0,1,.22-1.31l.32-.95.64-1.89,10.31-30.36,20.61-60.71,2.58-7.59.65-1.92a3.62,3.62,0,0,1,5.94-1.3,3.75,3.75,0,0,1,.7,1c.18.38.26.67.38,1l.68,1.89,1.35,3.77,2.7,7.55,10.76,30.2C755.3,306.35,762.44,326.5,769.77,346.57Z"/><path fill="#e8562a" d="M729.16,252.46c2.54,6.85,5.14,13.7,7.8,20.62s5.32,13.95,7.95,21a.66.66,0,0,1-.39.85.46.46,0,0,1-.26,0h0l-28.49-1.54a1,1,0,0,1-.94-1,1,1,0,0,1,.05-.25v0c1.11-3.41,2.25-6.83,3.45-10.22s2.45-6.74,3.68-10.07l3.68-9.82Zm0,.2c-1.11,3.52-2.16,7-3.18,10.4l-3,10.11c-1,3.3-2,6.61-3,9.84s-2.11,6.47-3.23,9.7l-.88-1.31,28.45,2.21-.67.89c-2.41-6.89-4.8-13.76-7.17-20.75S731.68,259.71,729.17,252.66Z"/><path fill="#e8562a" d="M737.62,299.84c-1,.64-1.89,1.33-2.88,2.07s-2,1.5-3.07,2.25a.49.49,0,0,1-.51,0l0,0-7.24-4.44a.85.85,0,0,1,.46-1.57h.08c1.16,0,2.36,0,3.58.11a31.18,31.18,0,0,1,3.56.45C733.85,299.1,735.92,299.56,737.62,299.84Zm-.19.05c-2.69,0-5,.17-7.1.28a23.6,23.6,0,0,1-3,0c-1-.06-2-.21-3-.32l.54-1.57,6.84,5h-.55c1-.55,2-1.07,3-1.62S736.34,300.54,737.43,299.89Z"/><path fill="#e8562a" d="M713.56,298.93l12.54,7.9a.5.5,0,0,1,.16.68.54.54,0,0,1-.15.15l0,0-9.38,6.19-9.37,6.22a1,1,0,0,1-1.37-.27,1,1,0,0,1-.12-.85v0l.85-2.64.92-2.62c.61-1.75,1.3-3.45,2-5.15C710.91,305.15,712.29,301.93,713.56,298.93Zm.06.19c-1,3.74-1.88,7.27-2.81,10.63-.47,1.68-.92,3.35-1.44,5l-.77,2.44-.84,2.41-1.48-1.16,9.65-5.77,9.63-5.8,0,.84C721.66,304.9,717.73,302,713.62,299.12Z"/><path fill="#e8562a" d="M711.72,323.25c3.17-2,6.33-4.14,9.53-6.29s6.46-4.35,9.76-6.49a.56.56,0,0,1,.57,0h0l18.06,11.74a.87.87,0,0,1,.26,1.2.89.89,0,0,1-.7.39h0c-3.18.08-6.4.17-9.63.18-1.62,0-3.23,0-4.83,0s-3.22-.06-4.8-.12l-9.32-.35C717.56,323.39,714.59,323.3,711.72,323.25Zm.19-.06c3.36-.1,6.61-.24,9.8-.39l9.36-.49c1.53-.08,3-.13,4.54-.18s3-.1,4.5-.1c3,0,6,0,9,.05l-.47,1.58L731,311.38h.58c-3.2,2-6.43,3.86-9.72,5.81S715.23,321.13,711.91,323.19Z"/><path fill="#e8562a" d="M736.77,307.41c3.17-2.1,6.39-4.39,9.76-6.66a.47.47,0,0,1,.65.13.36.36,0,0,1,0,.09l0,0c2.22,5.64,4.38,11.29,6.63,16.92a1,1,0,0,1-.52,1.23,1,1,0,0,1-.86-.08l0,0c-1.42-.9-2.86-1.82-4.25-2.8s-2.74-2-4.07-3C741.49,311.22,739,309.22,736.77,307.41Zm.2,0,8.75,5c1.36.8,2.7,1.59,4,2.42s2.54,1.71,3.8,2.62l-1.44,1.12c-1.87-5.76-3.83-11.49-5.74-17.24l.71.24C743.8,303.47,740.41,305.35,737,307.41Z"/><path fill="#efe3b1" d="M728.87,241.62a.27.27,0,0,0,.4-.35c-3.39-6.85-24.6-49.71-26.58-51.23-2.16-1.65-11,19.92-8.88,24.32C695.54,218,723,237.73,728.87,241.62Z"/><path d="M704.9,193.52c-3,5.34-5.27,10.88-4.67,13.19.95,3.63,18.88,23.09,28.14,32.75C724,230.7,710.43,203.31,704.9,193.52Z" style="mix-blend-mode:multiply" fill="#efe3b1"/><path fill="#efe3b1" d="M728.76,241.69a.27.27,0,0,0-.38.37c3.72,6.67,27.08,48.39,29.14,49.81,2.24,1.54,10-20.45,7.64-24.74C763.25,263.61,734.8,245.28,728.76,241.69Z"/><path d="M755.13,288.51c2.7-5.48,4.72-11.13,4-13.41-1.13-3.57-20-22.09-29.77-31.27C734.14,252.36,749.12,279,755.13,288.51Z" style="mix-blend-mode:multiply" fill="#efe3b1"/><path fill="#efe3b1" d="M728.6,240.64a.28.28,0,0,0,.5.19c4.54-6.15,32.89-44.65,33.33-47.11.48-2.68-22.74-.63-25.68,3.26C734.34,200.17,729.38,233.65,728.6,240.64Z"/><path d="M760.36,197.28c-6.1-.19-12.09.3-13.87,1.9-2.78,2.5-11.85,27.36-16.19,40C736.1,231.33,754.2,206.68,760.36,197.28Z" style="mix-blend-mode:multiply" fill="#efe3b1"/><path fill="#efe3b1" d="M728.5,240.57a.28.28,0,0,0-.51-.17c-4.22,6.37-30.58,46.27-30.89,48.75-.35,2.69,22.74-.53,25.48-4.57C724.83,281.27,728.08,247.59,728.5,240.57Z"/><path d="M699,285.48c6.1-.12,12-.91,13.75-2.6,2.65-2.64,10.45-27.93,14.13-40.79C721.49,250.24,704.67,275.78,699,285.48Z" style="mix-blend-mode:multiply" fill="#efe3b1"/><path fill="#efe3b1" d="M729.58,240a.28.28,0,0,0,.17.51c7.63-.45,55.36-3.25,57.54-4.49,2.36-1.34-14-17.89-18.92-17.66C764.37,218.54,735.45,236.13,729.58,240Z"/><path d="M783.22,236.71c-3.75-4.82-8-9.11-10.32-9.45-3.71-.54-28.62,8.37-41.13,13.13C741.53,239.82,772.06,238,783.22,236.71Z" style="mix-blend-mode:multiply" fill="#efe3b1"/><path fill="#efe3b1" d="M729.57,239.87a.27.27,0,0,0-.2-.49c-7.6.82-55.12,6.05-57.23,7.4-2.3,1.46,14.94,17.15,19.79,16.68C695.92,263.07,723.9,244,729.57,239.87Z"/><path d="M676.16,245.89c4,4.61,8.41,8.68,10.79,8.91,3.73.35,28.16-9.82,40.41-15.2C717.65,240.66,687.25,244.06,676.16,245.89Z" style="mix-blend-mode:multiply" fill="#efe3b1"/><path fill="#f4703f" d="M735.72,240.9a7.66,7.66,0,1,1-7.14-8.15A7.66,7.66,0,0,1,735.72,240.9Z"/><path d="M733.48,240.75a5.42,5.42,0,1,1-5.05-5.76A5.42,5.42,0,0,1,733.48,240.75Z" style="mix-blend-mode:multiply" fill="#f4703f"/><path fill="#f99f62" d="M732.47,239.76a4.41,4.41,0,1,1-4.89-3.88A4.41,4.41,0,0,1,732.47,239.76Z"/><ellipse cx="730.58" cy="349.67" fill="#ccdd45" rx="55.25" ry="6.8" style="mix-blend-mode:multiply" opacity=".3"/></g></svg>