<svg xmlns="http://www.w3.org/2000/svg" xmlns:xlink="http://www.w3.org/1999/xlink" version="1.1" id="Слой_1" x="0px" y="0px" width="5535.95703125" height="4934.9765625" viewBox="92.7303466796875 32.51146850585937 5535.956787109375 4934.976513671875" style="enable-background:new 0 0 5721.416 5000;" xml:space="preserve">
<g>
	<g>
		<path style="fill:#E5A911;" d="M3561.711,3029.023c45.494-17.812,96.807-22.91,145.962-23.1    c193.808-0.752,403.326,53.707,578.043,142.771c80.399,40.984,223.397,86.639,271.489,168.734    c10.129,17.291,5.285,243.274-9.555,245.43c-17.789,2.582-6.631,72.338-3.647,112.025    c-26.567-2.218-16.281,200.422-17.692,298.485c-315.79-142.244-647.096-245.993-985.117-308.997    C3626.269,3471.813,3575.49,3242.496,3561.711,3029.023z"/>
		<path style="fill:#F0BA42;" d="M5109.619,3123.229c14.63,4.621,30.354,9.687,39.531,21.99c11.219,15.04,9.084,35.847,6.192,54.392    c-18.446,118.319-46.603,235.173-59.003,354.279c-12.398,119.105-8.322,242.623,35.774,353.949    c-206.878-5.093-414.403,16.914-615.618,65.279c12.894-183.289,25.146-372.107-32.542-546.549    c-22.806-68.959-56.67-136.734-55.708-209.365c101.982-4.745,195.48-55.219,284.912-104.496    c56.566-31.168,126.701-93.291,191.538-73.502C4966.83,3058.172,5042.405,3126.025,5109.619,3123.229z"/>
		<path style="fill:#FED26B;" d="M3928.763,2822.274c30.317,3.073,65.008,2.499,120.753,5.962    c-157.341,17.666-312.504,53.469-461.015,106.377c39.399-1.497,78.798-2.994,118.197-4.492    c-152.718,36.26-289.62,130.362-373.95,257.041c98.291-6.428,196.581-12.855,294.872-19.283    c-63.645,14.48-118.573,42.81-140.628,61.778c315.167,14.649,773.74,50.077,1044.885,202.786    c-17.218-27.252-54.073-78.717-64.779-106.865c166.049,45.206,320.205,128.981,445.372,242.039    c-0.17-72.513-24.36-144.715-68.279-203.79c123.115,21.538,242.981,59.494,355.012,112.415    c-47.205-61.748-94.409-123.495-141.614-185.244c36.334-9.878,96.782-15.092,134.24,0.878    c-15.309-32.067-64.163-68.341-94.605-88.338c80.887-4.129,154.504,38.062,223.65,73.675    c-42.14-61.933-76.37-90.048-151.08-128.631c73.219,10.345,153.347,41.393,207.258,65.755    c-114.285-107.503-286.575-194.57-436.706-245.623C4642.35,2867.379,4235.293,2749.564,3928.763,2822.274z"/>
	</g>
	<g>
		<path style="fill:#E5A911;" d="M1883.821,3091.814c59.387-23.25,126.37-29.906,190.537-30.154    c252.995-0.981,526.498,70.108,754.571,186.374c104.953,53.5,291.62,113.096,354.399,220.263    c13.222,22.572,6.899,317.568-12.473,320.383c-23.222,3.371-8.655,94.428-4.762,146.235    c-34.681-2.894-21.253,261.628-23.095,389.641c-412.229-185.685-844.713-321.117-1285.962-403.362    C1968.094,3669.827,1901.808,3370.48,1883.821,3091.814z"/>
		<path style="fill:#F0BA42;" d="M3904.445,3214.791c19.097,6.032,39.622,12.645,51.602,28.705    c14.646,19.634,11.859,46.795,8.085,71.003c-24.081,154.452-60.835,306.991-77.021,462.472s-10.863,316.718,46.699,462.041    c-270.056-6.646-540.958,22.08-803.621,85.217c16.831-239.265,32.825-485.746-42.481-713.46    c-29.77-90.019-73.976-178.492-72.72-273.303c133.127-6.194,255.179-72.082,371.922-136.408    c73.841-40.687,165.394-121.782,250.031-95.949C3718.05,3129.864,3816.704,3218.441,3904.445,3214.791z"/>
		<path style="fill:#FED26B;" d="M2362.967,2821.926c39.576,4.013,84.86,3.263,157.63,7.784    c-205.392,23.06-407.939,69.796-601.805,138.863c51.431-1.955,102.862-3.909,154.293-5.864    c-199.356,47.334-378.067,170.174-488.15,335.539c128.308-8.392,256.615-16.782,384.923-25.173    c-83.081,18.903-154.784,55.883-183.574,80.646c411.416,19.123,1010.033,65.37,1363.982,264.715    c-22.477-35.575-70.587-102.756-84.563-139.501c216.759,59.011,417.992,168.372,581.385,315.955    c-0.222-94.658-31.801-188.909-89.131-266.025c160.713,28.116,317.185,77.663,463.428,146.746    c-61.62-80.605-123.241-161.21-184.862-241.816c47.431-12.895,126.34-19.701,175.237,1.146    c-19.984-41.86-83.759-89.212-123.498-115.315c105.59-5.391,201.688,49.685,291.952,96.174    c-55.009-80.846-99.694-117.548-197.219-167.912c95.579,13.503,200.177,54.033,270.552,85.834    c-149.187-140.332-374.092-253.989-570.071-320.633C3294.477,2880.806,2763.108,2727.012,2362.967,2821.926z"/>
	</g>
	<g>
		<path style="fill:#E5A911;" d="M4195.996,3724.564c-49.071-19.212-104.419-24.711-157.439-24.916    c-209.049-0.812-435.043,57.93-623.498,154c-86.723,44.207-240.965,93.45-292.84,182.002    c-10.925,18.651-5.7,262.404,10.307,264.73c19.188,2.785,7.152,78.025,3.935,120.834c28.656-2.393,17.562,216.182,19.083,321.957    c340.623-153.43,697.982-265.336,1062.584-333.296C4126.362,4202.174,4181.134,3954.824,4195.996,3724.564z"/>
		<path style="fill:#F0BA42;" d="M2526.365,3826.18c-15.78,4.984-32.74,10.447-42.639,23.719    c-12.102,16.223-9.799,38.666-6.68,58.669c19.897,127.623,50.268,253.665,63.643,382.138    c13.374,128.473,8.977,261.703-38.587,381.783c223.146-5.492,446.991,18.244,664.028,70.414    c-13.906-197.703-27.123-401.37,35.103-589.529c24.599-74.381,61.126-147.486,60.088-225.828    c-110.002-5.118-210.853-59.561-307.317-112.714c-61.014-33.619-136.664-100.627-206.599-79.282    C2680.382,3756.005,2598.865,3829.195,2526.365,3826.18z"/>
		<path style="fill:#FED26B;" d="M3800.08,3501.557c-32.701,3.316-70.119,2.696-130.248,6.433    c169.714,19.054,337.078,57.672,497.268,114.741c-42.497-1.615-84.994-3.23-127.492-4.845    c164.728,39.11,312.396,140.613,403.357,277.253c-106.021-6.933-212.041-13.866-318.061-20.799    c68.649,15.619,127.897,46.176,151.687,66.636c-339.95,15.802-834.585,54.016-1127.052,218.733    c18.572-29.396,58.326-84.907,69.874-115.27c-179.106,48.761-345.385,139.125-480.396,261.072    c0.184-78.215,26.277-156.094,73.649-219.814c-132.797,23.231-262.088,64.172-382.929,121.254    c50.917-66.604,101.834-133.206,152.75-199.811c-39.191-10.655-104.393-16.279-144.797,0.947    c16.513-34.589,69.209-73.716,102.045-95.285c-87.249-4.454-166.654,41.055-241.238,79.469    c45.454-66.803,82.376-97.13,162.96-138.746c-78.976,11.158-165.405,44.647-223.555,70.925    c123.272-115.955,309.11-209.87,471.047-264.938C3030.379,3550.209,3469.445,3423.13,3800.08,3501.557z"/>
	</g>
	<path style="fill:#FFC673;" d="M2321.608,826.649L2321.608,826.649c118.193-16.175,224.531-127.386,208.661-243.354   l-37.048-102.329c-9.606-70.191-75.996-119.609-147.533-109.819l-175.31,23.992c-68.427,9.365-116.896,71.958-107.708,139.097   l-7.434,114.069C2071.107,764.272,2203.416,842.825,2321.608,826.649z"/>
	<g>
		<path style="fill:#77283F;" d="M406.663,1562.418c892.818-229.266,1785.637-458.532,2678.456-687.798    c127.533-32.749,255.066-65.498,382.6-98.247c62.46-16.039,35.986-112.779-26.656-96.693    c-892.819,229.266-1785.638,458.531-2678.457,687.797c-127.533,32.749-255.067,65.499-382.6,98.248    C317.546,1481.764,344.02,1578.504,406.663,1562.418L406.663,1562.418z"/>
	</g>
	<path style="fill:#E59730;" d="M2951.485,632.576c0.624,59.697-280.46,146.255-634.349,194.686   c-350.866,48.017-642.886,40.707-662.898-15.62C2068.035,680.105,2507.276,640.142,2951.485,632.576z"/>
	<path style="fill:#FFA373;" d="M2542.413,1423.147c1.862,14.139-2.316,28.364-7.497,41.651   c-9.737,24.975-23.209,48.49-39.83,69.521c-10.155,12.85-24.364,25.864-40.545,23.336c-10.424-1.628-18.997-9.786-23.408-19.37   c-4.411-9.583-5.211-20.436-4.867-30.98c1.185-36.31,16.617-83.607,46.197-107.115   C2496.574,1381.029,2537.867,1388.642,2542.413,1423.147z"/>
	<path style="fill:#52382F;" d="M2853.075,3460.803c1.132,9.756,2.075,19.279,3.574,29.476c0.722,0.538,1.304,1.139,2.02,1.677   c-0.716-0.538-1.297-1.139-2.02-1.677c2.821,19.169,14.866,103.862,19.591,124.843c17.639,78.34,34.513,228.912,54.839,252.255   c0.991,0.294,11.053-16.831,12.069-16.573c16.843,4.32,36.997,4.186,56.661,3.892c0.27,0,0.539-0.012,0.827-0.012   c10.11-0.245,19.75-2.399,28.6-5.937c10.062-4.04,25.62,10.796,25.62,10.796c-7.62-56.344-4.548-189.021,17.804-310.056   C2986.027,3554.346,2909.486,3517.869,2853.075,3460.803z"/>
	<path style="fill:#FF7348;" d="M2602.683,2226.412c2.577-100.802-5.655-179.454-83.689-257.818   c-37.523-37.695-74.674-57.219-134.206-60.243c-278.083-14.162-312.442,473.816-247.555,629.995   c130.566,314.265,677.291,323.51,693.491,379.229c58.498,201.163-7.228,288.316,22.352,543.228   c56.411,57.066,132.952,93.543,219.585,88.684c10.275-55.634,21.861-112.528,33.074-165.566   c24.23-114.585,66.54-488.569,72.898-598.16C3189.418,2600.033,2600.553,2309.733,2602.683,2226.412z"/>
	<path style="fill:#FF7348;" d="M2214.083,4243.14c9.854-76.95,20.409-205.53,26.836-270.206   c29.267-294.655,81.77-615.664,84.129-911.336c0.672-83.343,27.409-235.046,28.074-318.383   c0.804-100.824-78.909-117.521-167.079-195.74c-42.398-37.626-105.064-62.928-171.176-65.837   c-308.81-13.588-250.048,452.979-198.042,616.239c19.353,60.762,91.385,374.336,110.491,430.035   c71.644,208.785-37.685,371.648,13.127,648.012c0.812,0.529,1.473,1.131,2.277,1.673c-0.804-0.542-1.465-1.144-2.277-1.673   c1.498,8.158,3.263,16.555,5.122,25.015C2034.793,4228.811,2123.786,4269.483,2214.083,4243.14z"/>
	<path style="fill:#52382F;" d="M2214.083,4243.14c-90.296,26.344-179.289-14.329-268.519-42.201   c2.494,11.397,5.243,23.009,8.492,35.046c21.163,78.316,40.441,159.596,75.369,235.34c12.681,27.501,39.398,97.27,62.418,120.578   c1.108,0.291-9.838-41.574-8.702-41.318c18.773,4.272,41.125,4.098,62.943,3.765c0.299-0.007,0.598-0.013,0.911-0.019   c11.213-0.258,21.866-2.438,31.615-5.992c11.084-4.057,24.79,30.075,24.79,30.075   C2194.712,4527.41,2197.978,4368.83,2214.083,4243.14z"/>
	<g>
		<path style="fill:#52382F;" d="M2234.914,4677.731c-0.966-14.562-11.391-31.329-17.985-46.52    c-10.828-24.946-16.993-53.788-17.018-55.772c-0.042-3.482-1.305-27.223-1.408-36.512c-0.03-2.477,0.942-7.585-1.577-9.183    c-7.547-4.786-24.8,0.829-36.442,2.833c-10.24,1.766-21.186,2.469-32.406,1.771c-0.315-0.021-0.613-0.041-0.913-0.06    c-17.152-1.169-38.595-3.36-55.78-6.448c-6.43-1.154-12.436,2.516-12.428,7.486c0.011,11.064-0.275,28.16,0.718,36.228    c0.005,0.027-1.868,6.618-1.858,6.648c1.032,3.499-23.18,61.245-27.927,74.735c-1.194,3.39-3.099,6.685-3.876,10.119    c-1.765,7.823-2.188,16.137,2.243,23.716c1.386,2.369,3.171,4.678,5.628,6.868c11.823,10.521,34.697,16.133,56.881,19.412    c19.122,2.822,38.826,3.522,58.222,2.627c64.547-2.979,72.956-11.089,76.739-13.505c3.401-2.167,7.369-7.235,8.122-10.077    C2235.112,4687.307,2235.228,4682.516,2234.914,4677.731z"/>
	</g>
	<g>
		<path style="fill:#52382F;" d="M2927.486,3882.791c-1.734,3.404-3.843,7.423-4.668,12.176c-0.69,3.982,0.493,15.801,1.245,22.506    c0.191,1.71,1.571,3.209,3.522,3.861c10.559,3.521,18.099,4.264,27.139,7.642c21.159,7.908,20.894,7.985,25.91,10.886    c11.019,6.368,13.729,10.81,26.658,20.601c2.83,2.144,16.058,12.16,29.193,18.396c17.842,8.467,36.386,9.754,64.477,11.127    c15.027,0.732,38.484,1.75,68.807-2.999c29.857-4.678,34.481-6.079,50.938-13.122c2.2-4.321,4.136-16.159,1.018-21.252    c-7.663-12.516-21.1-10.555-46.91-10.312c-56.423,0.534-99.514-11.967-171.089-32.731    C2985.392,3904.249,2958.777,3895.757,2927.486,3882.791z"/>
		<path style="fill:#52382F;" d="M3090.045,3921.711c4.827,0.407,9.723,0.764,14.691,1.07c28.133,1.727,54.68,1.463,79.499-0.037    c-0.143-0.058-0.269-0.104-0.413-0.162c-19.936-7.861-29.905-11.793-37.006-15.66c-21.131-11.504-33.128-25.572-37.82-31.186    c-4.453-5.326-10.519-11.994-16.89-18.778c-21.25-22.631-37.216-49.854-46.044-79.615c-3.968-13.376-8.205-24.875-12.098-26.955    c-6.695-3.577-0.577,34.854-10.967,34.47c-11.552-0.428,2.632,23.684-4.837,27.799c-8.497,4.684-11.397,12.248-12.455,16.048    c1.439,3.652,2.997,7.342,4.83,11.091C3029.793,3879.172,3063.421,3905.494,3090.045,3921.711z"/>
		<path style="fill:#52382F;" d="M3223.869,3949.227c-2.776-9.008-9.682-14.293-12.209-16.057    c-6.594-2.415-16.094-5.964-27.425-10.426c-24.819,1.5-51.366,1.764-79.499,0.037c-4.969-0.307-9.864-0.663-14.691-1.07    c-26.624-16.217-60.252-42.539-79.509-81.916c-1.833-3.749-3.391-7.438-4.83-11.091c-0.03,0.113-0.106,0.297-0.133,0.405    c0,0-14.152,3.17-25.343,8.115c-14.828,6.554-12.744,11.045-21.868,12.926c-14.037,2.891-13.88-15.717-21.382-11.721    c-2.964,1.579-13.473,13.463-14.214,30.203c-0.486,10.967-0.257,20.035,0.052,26.334c7.311,1.861,17.717,4.779,29.846,9.13    c16.012,5.748,24.023,8.622,31.416,13.853c14.227,10.063,11.331,16.986,24.637,29.024c10.436,9.442,21.551,13.633,34.891,18.659    c23.078,8.698,42.455,10.43,62.021,12.176c31.816,2.842,57.517,0.623,72.498-1.277c18.046-2.288,33.107-5.706,44.44-8.778    C3223.746,3965.199,3226.586,3958.039,3223.869,3949.227z"/>
	</g>
	<path style="fill:#FF7348;" d="M1869.84,2920.018c-25.943-58.574-47.256-209.891-46.161-274.616   c1.096-64.723,2.612-95.306,58.93-144.813c59.028-51.893,142.206-76.518,221.412-98.9   c107.491-30.375,216.262-60.721,326.581-69.744c34.91-2.855,72.023-3.072,99.645,12.236c13.17,7.3,22.56,18.189,32.434,28.47   c97.303,101.288,120.402,198.848,139.989,240.368c21.645,45.88,41.661,124.878,44.714,195.899   c3.357,78.046-179.679-62.743-257.999-12.255c-78.319,50.485-106.856,82.646-199.622,104.047   c-42.757,9.863-32.268,268.984-75.513,270.16C2014.217,3176.297,1953.521,3108.94,1869.84,2920.018z"/>
	<path style="fill:#BB541B;" d="M2265.695,863.3l106.681-21.991c84.81-17.482,156.192-71.173,138.71-155.983l0,0   c-3.292-31.65-16.282-61.85-38.462-84.665c-46.108-47.425-124.651-74.306-185.396-61.784l-55.247,10.505   c-5.761,1.093-11.508,2.376-17.068,4.236c-90.06,30.126-151.447,128.099-134.488,210.37l0,0   C2097.909,848.801,2180.885,880.782,2265.695,863.3z"/>
	<path style="fill:#52382F;" d="M2510.075,665.149c-2.179-6.043-4.837-12.458-10.305-15.832   c-8.177-5.04-46.124-51.441-54.667-47.054c-8.6,4.415,10.408,59.559,2.371,64.926c-4.227,2.822-8.517,5.937-10.896,10.427   c-3.245,6.122-2.321,13.522-1.353,20.384c9.072,64.352,14.396,129.233,15.939,194.204c0.44,18.548,0.564,37.208-2.345,55.532   c-3.333,20.977-36.341,75.663,2.893,66.971c33.111-7.334,66.271-58.345,74.454-84.811   C2552.287,845.415,2540.123,748.551,2510.075,665.149z"/>
	<path style="fill:#52382F;" d="M2077.531,744.919c-0.171-6.422-0.028-13.367,3.839-18.497c5.781-7.667,17.045-7.954,26.599-6.977   c9.614,0.985,19.174,2.519,28.615,4.594c4.963,1.091,10.091,2.431,13.942,5.746c5.251,4.522,7.082,11.751,8.679,18.495   c14.965,63.243,33.614,125.613,55.819,186.69c6.339,17.438,13.013,34.864,22.391,50.873c10.734,18.326,64.247,61.032,24.539,67.214   c-33.511,5.217-78.234-32.703-95.485-54.376C2111.398,929.496,2079.893,833.535,2077.531,744.919z"/>
	<path style="fill:#E7905A;" d="M2156.665,1280.107c-1.237,16.678,281.814,10.792,281.814,10.792l32.518-404.001   c0,0-33.198,8.503-37.438,5.828c-5.139-3.245-12.923-2.949-19.679-2.435c-80.056,6.11-185.021-3.515-216.101,43.029   C2169.114,976.244,2160.261,1231.664,2156.665,1280.107z"/>
	<path style="fill:#FFA373;" d="M2264.79,1062.041c-51.617-32.737-88.454-85.202-111.795-141.694   c-23.344-56.49-34.246-117.259-43.045-177.746c-6.188-42.537,21.305-146.294,137.312-177.203   c130.645-34.807,181.87,44.937,209.055,86.79c22.896,35.256,32.853,86.796,41.037,128.029c4.975,25.053,9.964,50.266,10.458,75.806   c1.429,73.751-35.278,148.791-82.417,204.056C2379.645,1113.713,2321.942,1098.289,2264.79,1062.041z"/>
	
		<ellipse transform="matrix(-0.9794 0.2019 -0.2019 -0.9794 5096.4736 1170.5046)" style="fill:#FFA373;" cx="2488.544" cy="845.159" rx="44.11" ry="48.753"/>
	
		<ellipse transform="matrix(-0.9794 0.2019 -0.2019 -0.9794 4480.8232 1358.5132)" style="fill:#FFA373;" cx="2171.129" cy="907.772" rx="44.11" ry="48.751"/>
	<path style="fill:#52382F;" d="M2165.172,697.297c-29.989,18.384-52.585,48.476-61.875,82.403   c-3.036,11.084-9.245,25.768-20.466,23.277c-6.41-24.451-12.821-48.902-19.231-73.352c-5.938-22.645-11.853-46.8-4.632-69.071   c7.223-22.27,33.231-40.058,54.285-29.818c21.751,13.995,37.661,36.786,43.305,62.026L2165.172,697.297z"/>
	<path style="fill:#52382F;" d="M2082.266,637.043c-10.528-39.853,8.292-70.502,39.032-97.964   c30.739-27.463,94.714-48.385,135.739-52.406c76.145-7.461,133.086-2.716,194.473,42.952   c32.803,24.407,59.653,68.213,73.38,106.727c10.642,29.863,11.923,62.989,3.614,93.583c1.563-27.351-25.427-49.366-52.563-53.118   c-27.136-3.751-54.134,5.573-80.38,13.424C2303.845,717.676,2118.054,772.516,2082.266,637.043z"/>
	<path style="fill:#FF9E73;" d="M1695.394,1383.994l-273.62,221.143c0,0-99.601-43.341-440.568-253.522   c-11.824-7.288-31.689-32.457-37.228-20.171c-14.641,32.471-23.964,45.042-38.615,77.527   c61.655,43.093,194.479,187.975,392.266,309.812c54.195,33.384,102.714,69.175,166.351,67.708   c37.727-0.869,314.695-131.093,423.608-193.589C1836.523,1525.024,1719.146,1468.174,1695.394,1383.994z"/>
	<path style="fill:#FF9E73;" d="M901.51,1394.466c-6.417-16.79-12.531-34.045-13.312-52.002s4.5-36.984,17.804-49.071   c5.002-4.545,11.24-8.057,17.983-8.512c15.917-1.075,27.987,14.554,32.964,29.712c4.977,15.157,0.005,22.008,9.437,34.876   c8.433,11.505,28.328,9.769,45.086,29.463c11.014,12.943,84.959,45.471,80.687,53.572c-55.002,104.28-83.807,38.187-109.424,32.924   C951.775,1459.069,911.847,1421.51,901.51,1394.466z"/>
	<path style="fill:#D2F4FF;" d="M2057.943,1825.057c75.61-115.417,54.457-224.769,42.73-276.026   c127.174,5.918,253.037,27.506,380.211,33.425c-0.465,91.952-3.719,179.627-4.178,271.579   c15.938,42.292,43.769,61.548,77.149,111.374c29.004,43.289,61.234,80.183,94.106,112.553   c11.732-303.85,77.989-650.619,117.037-890.339c-18.783-6.879-209.429-58.494-314.754-51.119   c-3.409,4.903-7.007,9.627-10.747,14.199c-54.128,66.093-129.365,97.246-201.377,56.38c-58.241-33.056-72.863-90.538-73.071-87.208   c-4.884,0.881-16.457,2.865-21.286,3.844c-58.92,11.947-113.397,30.247-146.588,33.79c-25.118,2.675-119.491,26.394-143.121,33.824   c14.046,208.507,40.765,500.168,13.113,799.299c24.641-13.795,50.346-30.192,76.149-49.899   C1971.886,1918.906,2021.068,1881.352,2057.943,1825.057z"/>
	<path style="fill:#FF7348;" d="M2553.855,1965.408c-33.38-49.825-35.368-82.126-31.189-107.195   c0.459-91.952,14.159-198.429,14.624-290.381c-127.174-5.918-357.49-27.507-484.664-33.425   c-2.317,20.291-15.293,214.183-20.658,294.989c-1.518,22.854-11.826,44.093-28.742,59.536   c-19.003,17.35-43.989,39.636-59.91,51.799c-25.803,19.707-51.508,36.104-76.149,49.899   c-21.868,236.618-50.077,467.458-74.068,638.478c405.429,111.108,730.646-63.796,838.198-81.502   c7.541-132.854,11.278-330.286,16.664-469.646C2615.089,2045.591,2582.859,2008.697,2553.855,1965.408z"/>
	<g>
		<path style="fill:#FF7348;" d="M2145.066,1570.966c6.454-144.381-16.946-298.296-82.096-428.407    c-18.061-36.069-72.141-4.368-54.116,31.632c60.104,120.033,79.472,264.054,73.54,396.775    C2080.592,1611.29,2143.268,1611.201,2145.066,1570.966L2145.066,1570.966z"/>
	</g>
	<g>
		<path style="fill:#FF7348;" d="M2504.983,1133.332c-41.981,149.963-58.723,302.679-63.792,458.003    c-1.316,40.34,61.357,40.293,62.672,0c4.891-149.862,21.05-296.661,61.553-441.342    C2576.307,1111.091,2515.857,1094.487,2504.983,1133.332L2504.983,1133.332z"/>
	</g>
	<path style="fill:#D2F4FF;" d="M1854.057,1191.334l-227.866,213.52c46.49,74.092,144.048,190.048,216.482,238.185   c49.17-51.264,136.998-137.157,175.708-181.725c-10.344-46.637-16.452-93.274-25.54-139.911   C1943.94,1296.164,1891.514,1256.345,1854.057,1191.334z"/>
	<path style="fill:#FFC673;" d="M1654.238,811.642c-0.439-1.232-0.927-2.457-1.102-3.735   c-8.178-59.756,275.847-147.976,634.386-197.042c358.539-49.067,655.822-40.402,664,19.355c0.107,0.78-0.044,1.574-0.036,2.356   C2507.276,640.142,2068.035,680.105,1654.238,811.642z"/>
	<path style="fill:#FFC673;" d="M2500.939,538.73c-10.43-20.77-21.24-42.071-36.726-56.897   c-23.086-22.103-52.814-26.437-80.758-28.454c-52.87-3.817-105.688-2.348-157.809,4.389c-33.123,4.282-67.314,11.368-93.394,36.071   c-15.368,14.557-26.999,34.417-38.354,54.087c-19.529,33.829-39.761,72.316-35.206,115.724   c60.928-8.669,121.856-17.338,182.784-26.007c27.837-3.961,55.74-7.926,83.958-7.993c50.331-0.119,101.104,12.412,151.291,9.058   C2548.253,633.928,2534.888,606.338,2500.939,538.73z"/>
	<g>
		<g>
			<path style="fill:#CCCCCC;" d="M4226.595,761.327c-238.216,47.795-476.431,95.59-714.646,143.386     c17.989,10.213,35.978,20.427,53.966,30.641c-33.674-167.834-67.348-335.667-101.021-503.501     c-10.214,17.988-20.428,35.977-30.641,53.966c238.215-47.795,476.431-95.59,714.646-143.386     c55.316-11.099,31.902-95.688-23.325-84.606c-238.216,47.795-476.431,95.59-714.646,143.385     c-24.382,4.892-35.03,32.087-30.642,53.966c33.674,167.834,67.348,335.667,101.021,503.501     c4.893,24.381,32.088,35.03,53.967,30.641c238.216-47.795,476.431-95.59,714.646-143.385     C4305.237,834.835,4281.823,750.246,4226.595,761.327L4226.595,761.327z"/>
		</g>
		<g>
			<path style="fill:#CCCCCC;" d="M3488.495,643.893c225.583-45.261,451.166-90.521,676.749-135.782     c55.316-11.099,31.902-95.688-23.325-84.607c-225.583,45.261-451.166,90.521-676.749,135.782     C3409.854,570.385,3433.268,654.974,3488.495,643.893L3488.495,643.893z"/>
		</g>
		<g>
			<path style="fill:#CCCCCC;" d="M3523.255,817.141c225.583-45.261,451.166-90.521,676.749-135.782     c55.317-11.099,31.903-95.688-23.324-84.607c-225.584,45.261-451.166,90.521-676.75,135.782     C3444.613,743.633,3468.027,828.222,3523.255,817.141L3523.255,817.141z"/>
		</g>
	</g>
	<path style="fill:#FF9E73;" d="M3122.189,1834.781c-8.312-36.813-141.281-261.124-202.063-360.383   c-62.421,63.29-134.469,113.214-191.737,161.215l224.358,276.375c0,0-18.887,87.882-126.58,386.37   c-9.811,50.474,24.8,89.485,53.118,125.484c44.164-80.2,139.953-224.255,209.395-412.613   C3110.702,1951.508,3136.199,1896.872,3122.189,1834.781z"/>
	<path style="fill:#FF9E73;" d="M2898.723,2284.098c-35.81-6.838-26.662-20.438-59.892-21.892   c-20.369,51.705-28.125,87.638-29.556,91.952c-7.755,23.342-10.561,22.679-3.588,46.323c7.448,25.261,70.134,58.942,122.295,93.611   c44.515-32.75,5.297-81.551-11.871-133.979C2909.782,2340.789,2903.963,2314.476,2898.723,2284.098z"/>
	<path style="fill:#D2F4FF;" d="M2567.768,1443.479c-15.562-48.215,111.646-180.275,119.913-232.513   c12.739-80.483,90.658-15.207,121.998,23.277c53.62,65.842,94.198,160.258,154.659,272.792   c-68.554,47.686-183.833,106.234-256.79,145.404C2680.168,1597.951,2601.985,1549.515,2567.768,1443.479z"/>
</g>
</svg>