<svg height="512pt" viewBox="-1 0 512 512.0003" width="512pt" xmlns="http://www.w3.org/2000/svg"><path d="m381.664062 433.578125 10.941407 1.925781c8.542969 1.507813 17.347656-.203125 24.707031-4.796875l42.191406-26.351562c16.890625-10.550781 28.511719-27.773438 31.96875-47.386719l14.863282-84.296875c1.003906-5.679687-2.789063-11.09375-8.46875-12.09375l-166.226563-29.3125c-5.679687-1-11.09375 2.789063-12.09375 8.46875l-14.867187 84.300781c-3.457032 19.609375 1.570312 39.769532 13.835937 55.460938l30.636719 39.191406c5.34375 6.835938 13.027344 11.453125 21.574218 12.960938zm0 0" fill="#e1ebef"/><path d="m364.167969 364.738281c36.230469-16.265625 56.03125-76.332031 56.03125-76.332031s-59.113281-22.492188-94.578125-4.613281c-6.992188 3.523437-12.246094 8.132812-16.179688 13.246093l-4.761718 26.996094c-1.675782 9.511719-1.339844 19.144532.832031 28.34375 10.546875 9.167969 32.953125 23.898438 58.65625 12.359375zm0 0" fill="#c4d3d6"/><path d="m477.015625 256.898438-14.082031 79.882812c-3.460938 19.609375-15.078125 36.832031-31.96875 47.382812l-42.195313 26.351563c-7.359375 4.597656-16.160156 6.304687-24.707031 4.800781l-10.9375-1.929687s-7.160156-1.261719-9.417969-1.660157l5.441407 6.960938c5.347656 6.835938 13.03125 11.453125 21.574218 12.960938l21.882813 3.859374c8.542969 1.503907 17.34375-.203124 24.703125-4.800781l42.195312-26.351562c16.890625-10.550781 28.511719-27.773438 31.96875-47.386719l14.863282-84.296875c1-5.679687-2.789063-11.09375-8.46875-12.09375zm0 0" fill="#c4d3d6"/><path d="m426.039062 181.925781-23.351562-4.117187-11.28125 63.996094 46.695312 8.234374 11.285157-63.996093zm0 0" fill="#e1ebef"/><path d="m435.550781 183.605469-7.472656 42.371093c-.839844 4.777344-5.398437 7.964844-10.171875 7.125l-14.703125-2.59375-9.511719-1.675781-2.285156 12.972657 46.695312 8.234374 11.285157-63.992187zm0 0" fill="#c4d3d6"/><path d="m448.453125 54.804688-23.351563-4.117188-22.414062 127.121094 23.351562 4.117187 23.347657 4.117188 22.414062-127.121094zm0 0" fill="#ffd432"/><path d="m425.101562 50.6875-2.285156 12.972656 24.214844 4.269532c4.773438.839843 7.964844 5.398437 7.121094 10.171874l-14.789063 83.882813c-.84375 4.777344-5.398437 7.964844-10.175781 7.125l-24.210938-4.269531-2.289062 12.96875 46.699219 8.234375 22.414062-127.121094zm0 0" fill="#f4ac03"/><path d="m507.914062 41.214844 2.304688-13.066406c1-5.679688-2.789062-11.09375-8.46875-12.09375l-90.128906-15.894532c-5.675782-1-11.089844 2.789063-12.09375 8.46875l-2.304688 13.066406-2.300781 13.066407c-1.003906 5.679687 2.789063 11.09375 8.46875 12.09375l90.125 15.894531c5.679687 1 11.09375-2.789062 12.097656-8.46875zm0 0" fill="#64aef7"/><path d="m495.601562 14.96875-3.8125 21.617188c-.839843 4.777343-5.398437 7.964843-10.171874 7.125l-85.613282-15.097657-1.085937 6.148438c-1 5.679687 2.792969 11.09375 8.46875 12.09375l90.128906 15.894531c5.679687 1 11.09375-2.789062 12.09375-8.46875l4.609375-26.136719c1-5.675781-2.789062-11.09375-8.46875-12.09375zm0 0" fill="#0a86e3"/><path d="m211.355469 307.359375s-26.570313 31.40625-58.902344 16.894531c-26.003906-11.675781-42.65625-48.277344-48.4375-62.933594-1.335937-3.382812.472656-7.179687 3.9375-8.277343 15.027344-4.75 53.9375-14.890625 79.390625-2.0625 31.644531 15.953125 24.011719 56.378906 24.011719 56.378906zm0 0" fill="#6ec030"/><path d="m187.34375 250.984375c-4.375-2.207031-9.148438-3.730469-14.128906-4.722656 20.28125 18.371093 14.367187 49.785156 14.367187 49.785156s-20.632812 24.378906-47.65625 20.246094c3.898438 3.226562 8.074219 5.960937 12.53125 7.960937 32.328125 14.511719 58.902344-16.894531 58.902344-16.894531s7.628906-40.425781-24.015625-56.375zm0 0" fill="#378900"/><path d="m299.054688 323.019531s26.574218 31.40625 58.902343 16.894531c26.003907-11.675781 42.660157-48.277343 48.441407-62.933593 1.332031-3.382813-.472657-7.179688-3.941407-8.277344-15.023437-4.75-53.933593-14.890625-79.386719-2.0625-31.648437 15.953125-24.015624 56.378906-24.015624 56.378906zm0 0" fill="#6ec030"/><path d="m387.164062 264.542969c-4.855468 12.8125-21.871093 52.796875-49.277343 65.101562-10.585938 4.75-20.554688 4.578125-29.175781 2.199219 10.5625 8.007812 28.746093 17.273438 49.246093 8.070312 26.003907-11.675781 42.65625-48.277343 48.4375-62.933593 1.335938-3.386719-.472656-7.179688-3.941406-8.277344-3.78125-1.195313-9.078125-2.730469-15.289063-4.160156zm0 0" fill="#378900"/><path d="m255.207031 242.644531s39.671875-9.453125 39.671875-44.890625c0-27.671875-24.292968-59.984375-34.859375-72.726562-2.5-3.015625-7.128906-3.015625-9.628906 0-10.566406 12.742187-34.855469 45.050781-34.855469 72.726562 0 35.4375 39.671875 44.890625 39.671875 44.890625zm0 0" fill="#6ec030"/><path d="m255.207031 242.644531s39.671875-9.453125 39.671875-44.890625c0-27.671875-24.292968-59.984375-34.859375-72.726562-2.5-3.015625-7.128906-3.015625-9.628906 0-10.566406 12.742187-34.855469 45.050781-34.855469 72.726562 0 35.4375 39.671875 44.890625 39.671875 44.890625zm0 0" fill="#6ec030"/><path d="m294.878906 197.753906c0-27.675781-24.292968-59.984375-34.859375-72.730468-.628906-.753907-1.390625-1.320313-2.21875-1.695313 8.984375 14.488281 17.242188 32.191406 17.242188 48.324219 0 18.71875-11.070313 30.1875-21.515625 36.84375-11.082032 7.0625-25.355469 7.007812-36.421875-.078125-.097657-.0625-.191407-.121094-.285157-.183594v.003906c5.492188 21.792969 27.355469 30.875 35.394532 33.523438.015625.003906.03125.011719.046875.015625.277343.09375.539062.175781.78125.25.042969.015625.085937.027344.128906.039062.21875.070313.421875.132813.609375.1875.050781.015625.097656.03125.144531.042969.164063.046875.320313.09375.457031.132813.050782.011718.097657.027343.148438.039062.109375.03125.21875.0625.300781.082031.054688.015625.09375.027344.136719.035157.050781.011718.109375.03125.140625.039062.054687.011719.097656.023438.097656.023438s39.671875-9.457032 39.671875-44.894532zm0 0" fill="#378900"/><path d="m354.144531 296.6875c-1.867187-3.898438-6.539062-5.550781-10.441406-3.6875l-47.957031 22.921875c-13.863282 5.253906-24.839844 13.828125-32.710938 21.671875v-136.707031c0-4.324219-3.503906-7.832031-7.828125-7.832031s-7.832031 3.507812-7.832031 7.832031v121.046875c-7.871094-7.84375-18.84375-16.417969-32.707031-21.671875l-47.957031-22.921875c-3.902344-1.863282-8.578126-.210938-10.441407 3.691406-1.863281 3.898438-.214843 8.574219 3.6875 10.4375l47.746094 22.820312c.300781.160157.609375.308594.9375.429688 21.222656 7.847656 34.882813 25.90625 38.734375 31.527344v59.265625c0 4.324219 3.507812 7.828125 7.832031 7.828125s7.828125-3.503906 7.828125-7.828125v-43.605469c3.855469-5.621094 17.515625-23.679688 38.734375-31.527344.328125-.121094.640625-.269531.941407-.425781l47.746093-22.820313c3.898438-1.867187 5.550781-6.542968 3.6875-10.445312zm0 0" fill="#378900"/><path d="m424.335938 512h75.589843c7.039063 0 12.148438-6.847656 9.972657-13.542969-5.703126-17.589843-22.222657-30.304687-41.714844-30.304687-5.285156 0-10.351563.933594-15.046875 2.648437-13.683594-21.660156-37.824219-36.058593-65.34375-36.058593-4.15625 0-8.238281.339843-12.21875.972656-3.996094-23.085938-24.105469-40.644532-48.332031-40.644532-17.804688 0-33.394532 9.484376-41.996094 23.675782-7.441406-8.132813-18.144532-13.234375-30.039063-13.234375-11.898437 0-22.597656 5.101562-30.042969 13.234375-8.601562-14.191406-24.191406-23.675782-41.996093-23.675782-24.226563 0-44.335938 17.558594-48.332031 40.644532-3.980469-.632813-8.0625-.972656-12.21875-.972656-27.519532 0-51.65625 14.398437-65.34375 36.058593-4.691407-1.714843-9.761719-2.648437-15.046876-2.648437-19.488281 0-36.011718 12.714844-41.714843 30.304687-2.171875 6.695313 2.9375 13.542969 9.972656 13.542969zm0 0" fill="#a77554"/><g fill="#915431"><path d="m468.183594 468.152344c-5.285156 0-10.351563.9375-15.046875 2.648437-13.683594-21.660156-37.824219-36.058593-65.339844-36.058593-4.160156 0-8.238281.339843-12.21875.972656-4-23.082032-24.109375-40.644532-48.335937-40.644532-17.742188 0-33.277344 9.421876-41.894532 23.527344 23.617188 2.824219 43.957032 16.304688 56.082032 35.5 4.691406-1.714844 9.761718-2.652344 15.046874-2.652344 16.367188 0 30.636719 8.96875 38.171876 22.257813 5.464843 9.640625-1.761719 21.589844-12.84375 21.589844h-380.121094c-.4375 1.054687-.832032 2.132812-1.1875 3.226562-2.15625 6.671875 2.980468 13.480469 9.992187 13.480469h489.4375c7.039063 0 12.148438-6.851562 9.972657-13.542969-5.703126-17.589843-22.222657-30.304687-41.714844-30.304687zm0 0"/><path d="m206.136719 466.585938c-4.324219 0-7.828125-3.503907-7.828125-7.828126 0-6.046874-4.917969-10.964843-10.964844-10.964843-6.042969 0-10.960938 4.917969-10.960938 10.964843 0 4.324219-3.503906 7.828126-7.828124 7.828126-4.328126 0-7.832032-3.503907-7.832032-7.828126 0-14.679687 11.945313-26.625 26.621094-26.625 14.679688 0 26.625 11.945313 26.625 26.625 0 4.324219-3.507812 7.828126-7.832031 7.828126zm0 0"/><path d="m327.242188 486.421875c-4.324219 0-7.828126-3.503906-7.828126-7.828125 0-6.046875-4.917968-10.964844-10.964843-10.964844-6.042969 0-10.960938 4.917969-10.960938 10.964844 0 4.324219-3.503906 7.828125-7.828125 7.828125-4.328125 0-7.832031-3.503906-7.832031-7.828125 0-14.679688 11.941406-26.625 26.621094-26.625 14.679687 0 26.625 11.945312 26.625 26.625 0 4.324219-3.507813 7.828125-7.832031 7.828125zm0 0"/></g><path d="m423.292969 484.855469c0 3.460937-2.804688 6.265625-6.265625 6.265625-3.460938 0-6.265625-2.804688-6.265625-6.265625 0-3.457031 2.804687-6.261719 6.265625-6.261719 3.460937 0 6.265625 2.804688 6.265625 6.261719zm0 0" fill="#a77554"/><path d="m118.441406 468.152344c0 3.460937-2.804687 6.265625-6.265625 6.265625-3.457031 0-6.261719-2.804688-6.261719-6.265625 0-3.460938 2.804688-6.265625 6.261719-6.265625 3.460938 0 6.265625 2.804687 6.265625 6.265625zm0 0" fill="#915431"/></svg>