<svg id="Capa_1" enable-background="new 0 0 512 512" height="512" viewBox="0 0 512 512" width="512" xmlns="http://www.w3.org/2000/svg"><g><g fill="#c8effe"><path d="m257.53 22.005c-135.881-.831-245.874 107.915-246.527 243.797-.11 22.81 2.916 44.892 8.639 65.861l26.323 17.634c41.219 27.613 86.238 47.205 132.875 58.703h200.782c33.967-8.381 67.177-21.084 98.799-38.169 14.483-31.271 22.579-66.103 22.579-102.831 0-134.799-108.864-244.172-243.47-244.995z"/><path d="m157.073 51c-12.585 0-22.823-10.238-22.823-22.823v-8.177c0-3.309 2.691-6 6-6h38c3.309 0 6 2.691 6 6v8.177c0 12.585-10.238 22.823-22.823 22.823z"/><path d="m326.674 51c-12.584 0-22.822-10.238-22.822-22.823v-8.177c0-3.309 2.691-6 6-6h38c3.309 0 6 2.691 6 6v8.177c0 12.585-10.238 22.823-22.823 22.823z"/></g><path d="m54.965 407c2.168.355 4.339.682 6.511 1h111.074c1.513-.221 3.026-.433 4.537-.672l2.072-.328c-.095-1.117-.159-2.243-.159-3.384 0-22.268 18.116-40.383 40.384-40.383h26.344l-.097-1.088c-.134-1.517-.199-2.914-.199-4.269 0-21.11 13.702-39.068 32.675-45.481-3.063-27.054-26.014-48.08-53.888-48.08-11.275 0-21.745 3.442-30.421 9.329-12.989-20.798-36.072-34.644-62.401-34.644-40.612 0-73.534 32.922-73.534 73.534 0 3.687.279 7.308.803 10.849h-12.858c-9.711 0-18.734 3.072-26.166 8.279 7.456 27.316 19.538 52.713 35.323 75.338z" fill="#97d729"/><path d="m450.695 408c2.115-.327 4.229-.657 6.341-1 8.156-11.691 15.339-24.111 21.386-37.169-6.745-4.776-14.959-7.598-23.805-7.598h-11.616c.473-3.199.725-6.47.725-9.801 0-36.689-29.742-66.431-66.431-66.431-23.785 0-44.639 12.509-56.374 31.298-7.838-5.319-17.296-8.428-27.482-8.428-27.066 0-49.007 21.941-49.007 49.007 0 1.469.077 2.92.203 4.356h-20.13c-5.458 17.15-16.019 32.457-30.744 43.98l-1.006.786 7.062 1z" fill="#8bc727"/><g><g><g fill="#554e56"><path d="m292.887 352.5 24.465-21.446v-19.947l-47.221 41.393z"/><path d="m387.572 352.5-47.22-41.393v19.947l24.464 21.446z"/></g><path d="m331.028 64h-4.354c-3.588 0-7.052-.536-10.322-1.523v204.523l.182.144c7.288 5.762 17.597 5.702 24.818-.144v-204.523c-3.271.987-6.736 1.523-10.324 1.523z" fill="#fe860a"/><path d="m327 64h-.326c-3.588 0-7.052-.536-10.322-1.523v204.523h10.648z" fill="#fe7701"/><path d="m316.351 267h25v85.5h-25z" fill="#433f43"/><g><path d="m331.028 65h-4.354c-20.337 0-36.823-16.486-36.823-36.823v-23.177c0-2.761 2.239-5 5-5h68c2.761 0 5 2.239 5 5v23.177c0 20.337-16.486 36.823-36.823 36.823zm-26.177-45v8.177c0 12.052 9.77 21.823 21.823 21.823h4.354c12.053 0 21.823-9.771 21.823-21.823v-8.177c0-2.761-2.239-5-5-5h-38c-2.761 0-5 2.239-5 5z" fill="#554e56"/></g><g><path d="m314.923 46.561c-6.055-3.878-10.071-10.66-10.071-18.384v-8.177c0-2.761 2.239-5 5-5h.148v-10c0-2.761 2.239-5 5-5h-20.149c-2.761 0-5 2.239-5 5v23.177c0 20.337 16.486 36.823 36.823 36.823h4.354c2.712 0 5.352-.302 7.897-.858-10.253-2.242-18.904-8.753-24.002-17.581z" fill="#433f43"/></g><path d="m249.453 408v-39c0-1.378 1.121-2.5 2.5-2.5h24.256v41.5h15v-41.5h30.143v41.5h15v-41.5h30.142v41.5h15v-41.5h24.257c1.379 0 2.5 1.122 2.5 2.5v39h15v-39c0-9.649-7.851-17.5-17.5-17.5h-153.798c-9.649 0-17.5 7.851-17.5 17.5v39z" fill="#554e56"/></g><g><path d="m171.75 62.477c-3.271.987-6.734 1.523-10.322 1.523h-4.354c-3.588 0-7.052-.536-10.323-1.523v183.523c7.161 5.846 17.419 5.946 24.693.241l.306-.241z" fill="#fe860a"/><path d="m157 63.997c-3.562-.007-7.001-.541-10.25-1.52v183.523h10.25z" fill="#fe7701"/><g><path d="m161.427 65h-4.354c-20.337 0-36.823-16.486-36.823-36.823v-23.177c0-2.761 2.239-5 5-5h68c2.761 0 5 2.239 5 5v23.177c0 20.337-16.486 36.823-36.823 36.823zm-26.177-45v8.177c0 12.053 9.771 21.823 21.823 21.823h4.354c12.053 0 21.823-9.771 21.823-21.823v-8.177c0-2.761-2.239-5-5-5h-38c-2.761 0-5 2.239-5 5z" fill="#554e56"/></g><g><path d="m146.245 47.121c-6.567-3.762-10.995-10.834-10.995-18.944v-8.177c0-2.761 2.239-5 5-5h.75v-10c0-2.761 2.239-5 5-5h-20.75c-2.761 0-5 2.239-5 5v23.177c0 20.337 16.486 36.823 36.823 36.823h4.354c2.819 0 5.56-.327 8.198-.927-9.906-2.254-18.295-8.493-23.38-16.952z" fill="#433f43"/></g><path d="m125.409 408h67.682c22.223-16.77 36.659-43.369 36.659-73.193v-41.807c0-8.284-6.716-15-15-15h-43v-32h-25v32h-43c-8.284 0-15 6.716-15 15v41.807c0 29.824 14.437 56.423 36.659 73.193z" fill="#554e56"/><path d="m168.75 408v-87.5c0-5.247-4.253-9.5-9.5-9.5s-9.5 4.253-9.5 9.5v87.5z" fill="#433f43"/></g></g><path d="m54.934 407c13.588 19.479 29.937 36.887 48.474 51.667 100.01 26.435 205.173 26.435 305.183 0 18.537-14.78 34.886-32.188 48.474-51.667z" fill="#c57a44"/><path d="m256 512c57.701 0 110.733-19.958 152.597-53.332-2.796-.21-5.549-1.198-7.936-2.971-8.204-6.092-18.364-9.697-29.368-9.697s-21.163 3.606-29.368 9.697c-5.415 4.02-12.712 4.02-18.126 0-8.205-6.092-18.364-9.697-29.368-9.697s-21.163 3.606-29.368 9.697c-5.415 4.02-12.712 4.02-18.126 0-8.205-6.092-18.364-9.697-29.368-9.697-11.005 0-21.164 3.606-29.368 9.697-5.415 4.02-12.712 4.02-18.126 0-8.204-6.092-18.364-9.697-29.368-9.697s-21.164 3.606-29.368 9.697c-2.387 1.772-5.14 2.761-7.936 2.971 41.864 33.374 94.896 53.332 152.597 53.332z" fill="#f6a96c"/><g fill="#f6a96c"><circle cx="175.5" cy="431.5" r="7.5"/><circle cx="254.5" cy="431.5" r="7.5"/><circle cx="333.5" cy="431.5" r="7.5"/><circle cx="412.5" cy="431.5" r="7.5"/><circle cx="99.5" cy="431.5" r="7.5"/></g><circle cx="423.888" cy="228.112" fill="#fff" r="16.043"/><circle cx="247.112" cy="117.112" fill="#fff" r="14.047"/><circle cx="80.112" cy="195.112" fill="#fff" r="14.047"/></g></svg>