<?xml version="1.0"?>
<svg xmlns="http://www.w3.org/2000/svg" viewBox="0 0 64 64" width="512" height="512"><g id="Gear-Implementation-Project-Management-Arrow"><path d="M41.68,34.47a9.8,9.8,0,0,1-1.09,2.62l2.02,2.69-2.83,2.83-2.69-2.02a9.8,9.8,0,0,1-2.62,1.09L34,45H30l-.47-3.32a9.8,9.8,0,0,1-2.62-1.09l-2.69,2.02-2.83-2.83,2.02-2.69a9.8,9.8,0,0,1-1.09-2.62L19,34V30l3.32-.47a9.8,9.8,0,0,1,1.09-2.62l-2.02-2.69,2.83-2.83,2.69,2.02a9.8,9.8,0,0,1,2.62-1.09L30,19h4l.47,3.32a9.8,9.8,0,0,1,2.62,1.09l2.69-2.02,2.83,2.83-2.02,2.69a9.8,9.8,0,0,1,1.09,2.62L45,30v4Z" style="fill:#ff9811"/><circle cx="32" cy="32" r="5" style="fill:#ffd422"/><path d="M56,38l-2.24-2.69A22.019,22.019,0,0,1,32,54V51l-3.31,2.76L26,56l2.04,1.7L32,61V58A26.01,26.01,0,0,0,57.7,35.96Z" style="fill:#00ccb3"/><path d="M35.96,6.3,32,3V6A26.01,26.01,0,0,0,6.3,28.04L8,26l2.24,2.69A22.019,22.019,0,0,1,32,10v3l3.31-2.76L38,8Z" style="fill:#00ccb3"/><path d="M28.69,53.76A22.019,22.019,0,0,1,10,32h3l-2.76-3.31L8,26,6.3,28.04,3,32H6A26.01,26.01,0,0,0,28.04,57.7L26,56Z" style="fill:#5aaae7"/><path d="M58,32A26.01,26.01,0,0,0,35.96,6.3L38,8l-2.69,2.24A22.019,22.019,0,0,1,54,32H51l2.76,3.31L56,38l1.7-2.04L61,32Z" style="fill:#5aaae7"/></g></svg>
