<svg xmlns="http://www.w3.org/2000/svg" viewBox="0 0 1364 960" xml:space="preserve"><path fill="#C0D7F7" d="m133.505 591.215.642-.326c6.031-1 25.948-3.369 46.143 4.609 24.194 9.558 37.044 23.746 37.044 23.746-7.704-2.424-45.259-28.479-83.829-28.029z"/><path fill="#C0D7F7" d="M187.587 586.327c20.297 8.027 32.611 19.302 36.049 22.715a954.885 954.885 0 0 0 5.194-9.492c-9.632-4.763-34.034-19.521-60.69-25.932l4.262-2.165c7.243 1.009 15.044 2.765 22.478 5.696 18.011 7.125 29.737 16.803 34.546 21.28 1.6-2.966 3.186-5.982 4.772-9.02-9.831-5.066-29.914-16.601-52.765-22.545l6.08-3.089c4.782.913 9.751 2.258 14.665 4.204 13.81 5.456 23.908 12.417 30.045 17.387l3.492 6.874a653.363 653.363 0 0 1-4.299 8.118c.333.347.509.538.509.538a13.489 13.489 0 0 1-.672-.242c-.177.337-.358.664-.535 1.001 2.439.87 6.976 2.647 12.684 5.714l3.692 7.266c-7.478-5.578-13.654-9.742-16.774-12.24a917.78 917.78 0 0 1-5.287 9.618c3.787 1.273 15.479 5.741 28.805 15.897l5.286 10.404c-14.678-13.125-29.514-21.773-34.374-25.798a897.935 897.935 0 0 1-5.585 9.826c2.77.859 19.662 6.577 37.327 22.514 7.332 6.616 12.716 14.122 16.574 20.899l4.272 8.407c3.108 6.934 4.311 11.797 4.311 11.797-16.159-34.806-55.922-57.126-62.586-63.443a832.412 832.412 0 0 1-5.693 9.724c5.885 2.046 20.279 7.946 35.345 21.042 19.636 17.056 28.324 48.815 28.324 48.815-12.539-35.255-51.214-62.916-63.864-69.535a787.528 787.528 0 0 1-5.292 8.791c6.101 2.206 21.716 8.854 36.035 23.328 18.294 18.5 29.382 48.469 29.382 48.469-29.506-49.774-57.218-63.982-66.019-70.817-1.43 2.33-2.846 4.62-4.253 6.883 5.79 2.543 21.085 10.262 34.5 25.891 16.947 19.734 28.94 56.298 28.94 56.298-24.392-53.483-54.007-74.329-63.799-81.614-2.12 3.377-4.215 6.673-6.273 9.884 5.92 2.623 21.055 10.356 34.33 25.821 16.947 19.734 28.935 56.289 28.935 56.289-26.045-55.368-54.764-75.223-63.632-81.53-.04.054-.08.108-.115.171.023.022.032.04.036.049-.022 0-.049-.009-.063-.013a826.774 826.774 0 0 1-5.172 7.945c5.091 2.315 20.939 10.438 34.521 27.103 16.427 20.167 27.46 57.027 27.46 57.027-22.452-54.457-52.589-75.734-62.274-83.69a883.086 883.086 0 0 1-3.88 5.83c4.803 2.697 19.962 12.179 32.085 30.057 14.606 21.529 22.371 59.22 22.371 59.22-20.535-56.048-48.171-79.975-54.921-88.581a880.301 880.301 0 0 1-4.257 6.279c3.549 2.482 18.595 13.726 29.225 33.899 11.948 22.656 15.584 60.145 15.694 61.289-14.595-59.458-40.34-86.152-45.207-94.762-1.019 1.483-2.016 2.942-3.009 4.367 3.884 3.848 16.035 17.012 23.014 37.503 8.255 24.24 5.97 61.822 5.893 62.994-4.942-59.091-25.03-89.467-29.439-99.733-.855 1.231-1.697 2.444-2.53 3.63 2.864 4.445 11.976 20.039 14.321 41.763 2.74 25.461-7.72 61.632-8.048 62.752 8.106-58.598-4.769-92.616-6.857-103.68a723.71 723.71 0 0 1-4.126 5.809c2.271 5.352 8.334 21.901 7.134 43.116-1.454 25.573-17.675 59.545-18.183 60.599 17.109-55.052 10.764-90.323 10.185-102.502a757.853 757.853 0 0 1-5.089 7.027c.839 6.023 2.816 24.794-1.593 45.721-5.272 25.056-17.723 43.843-18.113 44.423 14.558-40.183 14.658-73.85 17.843-87.628a765.845 765.845 0 0 1-5.622 7.523c-.593 7.267-2.779 24.754-10.734 42.94-10.264 23.465-26.28 39.319-26.774 39.805 13.39-24.335 25.167-51.114 35.583-80.22a545.715 545.715 0 0 1-6.312 8.086c-4.372 7.269-10.601 17.107-18.154 27.541-15.032 20.727-29.682 36.09-30.149 36.562.305-.592 10.079-19.725 25.11-40.452 10.204-14.091 20.239-25.336 25.769-31.253a733.394 733.394 0 0 0 5.712-7.501c-26.37 17.817-50.007 36.4-70.73 55.969 0 0 11.37-19.854 31.817-35.929 16.597-13.054 34.091-19.598 40.084-21.6a987.73 987.73 0 0 0 6.353-8.646c-9.401 6.885-44.767 14.635-83.33 41.127 0 0 15.162-17.137 38.455-28.713 21.412-10.643 42.22-12.893 45.442-13.195a805.673 805.673 0 0 0 4.827-6.726c-10.94 2.575-47.273 4.602-97.572 35.834 0 0 29.339-24.889 54.113-32.844 20.927-6.718 38.981-4.652 44.076-3.853 1.259-1.783 2.548-3.616 3.878-5.526-11.413.717-47.497-3.057-101.949 19.426 0 0 33.007-19.765 58.747-23.567 21.312-3.156 38.52 1.572 43.8 3.287.776-1.123 1.569-2.255 2.362-3.41-11.78-2.057-45.992-13.165-103.191-3.307 1.102-.37 36.908-12.022 62.448-10.125 20.663 1.526 36.017 9.339 41.412 12.452a673.08 673.08 0 0 0 3.81-5.593c-11.255-3.827-43.318-20.222-101.47-19.436 1.153-.182 38.337-6.096 63.272-.224 20.017 4.715 33.905 14.719 38.845 18.703a591.632 591.632 0 0 0 3.482-5.201c-9.839-4.199-39.942-25.145-99.711-30.963 0 0 38.431-1.96 62.941 6.764 20.44 7.27 33.449 19.65 37.204 23.553a883.898 883.898 0 0 0 6.581-10.051c-10.881-4.948-41.216-24.318-99.087-29.16 0 0 38.392-2.479 63.016 5.918 19.26 6.558 32.064 17.696 36.713 22.232a769.474 769.474 0 0 0 6.101-9.605c-10.639-4.757-40.989-24.423-99.325-29.342 0 0 38.396-2.448 63.012 5.954 19.551 6.667 32.419 18.042 36.902 22.45a751.223 751.223 0 0 0 4.572-7.404c-.009-.018-.027-.031-.049-.053 0 0 .027.009.076.017.266-.427.527-.862.792-1.289-8.778-3.28-33.235-23.82-94.422-28.412.97-.1 32.143-3.253 56.452 4.789 21.575 7.142 35.138 20.06 38.217 23.206a750.835 750.835 0 0 0 4.429-7.354c-.031-.018-.058-.026-.076-.04a.19.19 0 0 1 .09.022c.327-.548.655-1.096.978-1.652-9.494-7.515-53.201-31.79-91.776-27.244 1.912-.366 32.971-5.995 56.226 3.703 20.179 8.412 32.284 19.939 35.634 23.397a813.328 813.328 0 0 0 11.508-20.047c-8.921-3.981-38.292-24.369-70.98-27.928l2.924-1.486c8.661.12 20.302 1.44 32.3 6.179zM216.881 555.168c-2.251-.965-4.6-1.88-7.035-2.741l4.484-2.278 2.551 5.019zM194.325 560.313l6.722-3.415a79.844 79.844 0 0 1 4.514 1.621 118.824 118.824 0 0 1 17.372 8.56l3.379 6.651c-8.468-4.48-19.464-9.763-31.987-13.417z"/><path fill="#E6F1FF" d="M447.291 412.624c-10.597-75.704-67.355-100.436-51.735-148.999 28.389-88.267 242.374-88.884 277.303-88.985 113.313-.327 297.141-.858 372.496 130.374 34.726 60.474-15.974 96.401 6.208 250.4 13.168 91.42 32.123 102.46 22.764 142.791-28.255 121.758-235.37 169.148-264.887 175.901-220.962 50.558-500.319-19.927-521.495-134.512-18.939-102.484 180.368-176.8 159.346-326.97z"/><path fill="#D1E5FF" d="M345.889 642.33c-12.287-26.751-74.935-163.146-16.555-246.262 33.855-48.199 76.529-33.089 159.346-86.916 112.745-73.279 97.048-142.487 177.97-184.179 107.777-55.527 288.617-11.589 341.456 86.916 51.09 95.244-53.685 174.028-4.139 314.552 37.281 105.737 115.148 113.737 113.818 182.109-1.917 98.599-166.101 197.669-314.552 211.082-202.216 18.27-385.759-121.45-457.344-277.302z"/><path fill="#D5D5E8" d="M1051.244 836.95c-3.55-39.53 6.11-88.01-19.96-113.52V361.01c0-15.89-12.89-28.77-28.77-28.77h-585.78c-15.89 0-28.77 12.88-28.77 28.77v168.5c-4.42-5.2-8.96-7.55-10.45-6.91-4.17 1.78-6.39 23.55-9.99 33.89-.41 1.16-.83 2.18-1.28 3.01-2.22 4.11-8.58 17.87-15.37 33.22-6.75 15.27-13.92 32.11-17.84 42.54-5.63 14.98-6.63 61.63-12.12 87.21-3.12 14.56-113.88 163.46-179.28 237.53h181.76l72.7-141.19 8.39-8.57 2.52-2.57c38.33-12.71 56.77-27.9 64.96-41.78.33-.57.64-1.13.94-1.7.08-.14.15-.28.23-.43.1-.21.22-.42.32-.63.06-.11.11-.22.16-.34.05-.09.1-.18.14-.27h363.2c.36 1.08.73 2.14 1.13 3.17.7 1.66 1.44 3.3 2.22 4.93 3.92 8.5 9 16.48 14.11 24.42 3.9 6.13 7.82 12.25 11.33 18.58.06.09.12.19.17.28 1.31 2.22 2.67 4.45 4.06 6.68.11.17.21.34.32.5.18.3.37.59.55.88 3.14 4.99 6.44 9.91 9.97 14.63 9.49 12.9 20.46 24.92 32.66 33.51 5.45 5.52 10.13 11.87 14.29 18.83 10.31 21.23 19.9 50.73 28.06 71.07h136.75c-22.51-48.99-39.47-97.06-41.33-123.05zm-663.28-218.49c-3.33-4.43-3.83-18.51-3.83-18.51 1.4-2.25 2.67-4.44 3.83-6.6v25.11zm512.24 157.81c-5.95-1.74-11.88-6.92-17.85-13.75h25.98c-2.19 4.88-4.89 9.49-8.13 13.75z"/><path fill="#C0D7F7" d="M1119.292 282.842c-13.685 22.122-12.683 46.487-12.683 46.487 5.893-38.55 38.81-71.522 42.597-78.753 0 0-16.229 10.144-29.914 32.266zM1118.362 186.611c-5.39 4.76-10.17 9.57-14.07 13.54v-5.16c2.14-2.59 4.71-5.42 7.76-8.38h6.31z"/><path fill="#C0D7F7" d="M1310.282 352.891c-36.98-21.43-70.09-27.48-83.09-33.05 2.37 2.51 4.51 4.81 6.4 6.87 7.05 1.86 23.88 7.11 40.37 18.15 21.28 14.24 34.07 32.81 34.46 33.39-21.59-17.48-45.86-33.8-72.68-49.2 3.16 3.46 5.46 6.06 6.84 7.64 6.39 5.58 14.97 13.45 23.9 22.74 17.76 18.45 30.27 35.6 30.66 36.13-.53-.4-17.62-13.41-35.38-31.86-12.05-12.54-21.36-24.4-26.2-30.89-1.78-1.97-3.91-4.3-6.38-6.95 12.88 29.11 26.99 55.65 42.59 79.5-.54-.45-17.72-15.04-29.74-37.65-9.91-18.65-13.26-37.02-14.17-43.27-2.23-2.38-4.69-4.98-7.39-7.79 5.11 10.47 6.5 46.64 25.75 89.28-.43-.55-14.29-18.33-21.46-42.91-6.7-22.96-5.23-43.84-4.95-47.06-1.83-1.9-3.75-3.88-5.78-5.95.61 11.23-3.81 47.34 18.02 102.36-.59-1.02-19.35-33.66-22.75-59.04-2.92-21.79 2.31-39.19 4-44.07-1.53-1.55-3.12-3.15-4.75-4.79-1.32 11.35-11.41 46.2 1.09 103.76-.4-1.07-13.6-36.36-12.81-61.97.66-21.54 8.35-37.64 10.98-42.53-.97-.96-1.95-1.94-2.95-2.93-4.1 11.23-21.08 42.96-21.48 101.02 0 0-5.41-38.1 1.07-63.29 5.16-20.07 15.55-33.8 19.57-38.57-1.56-1.54-3.17-3.12-4.82-4.73-5.77 10.4-27.57 39.08-37.07 96.47 0 0 .62-38.48 10.96-62.34 8.18-18.88 20.48-30.78 25.27-34.94-1.47-1.43-2.97-2.88-4.5-4.34-5.87 8.94-31.81 34.87-48.1 92.67 0 0 4.87-38.17 17.78-60.75 10.78-18.84 25.25-29.46 29.76-32.47a960.28 960.28 0 0 0-8.73-8.24c-6.79 9.83-31.22 36.26-46.21 92.37 0 0 4.35-38.23 16.95-60.98 9.87-17.8 23.09-28.43 28.38-32.21-2.72-2.53-5.51-5.1-8.38-7.7-6.56 9.64-31.28 36.02-46.43 92.58 0 0 4.37-38.23 16.99-60.98 10.03-18.06 23.5-28.72 28.62-32.35-2.12-1.92-4.28-3.85-6.47-5.81-.02.02-.05.03-.07.04 0 0 .02-.02.04-.06-.38-.34-.76-.67-1.14-1.01-4.77 8.06-29.32 28.5-44.65 87.93 0 0 2.29-31.87 14.7-54.74 10.84-19.97 25.95-31.03 29.59-33.51-2.12-1.87-4.27-3.76-6.46-5.66-.01.03-.02.05-.05.07.01-.02.03-.05.04-.08-.48-.42-.97-.84-1.45-1.26-9.09 8.01-40.75 46.81-43.04 85.61 0 0-.52-32.92 13.58-54.78 11.85-18.37 25.33-28.25 29.33-30.94-5.68-4.9-11.59-9.87-17.7-14.87-4.9 7.2-25.45 28.04-36.45 54.79v-8.93c1.82-4.79 4.19-9.81 7.26-14.77 11.48-18.57 24.76-28.69 28.73-31.47-2.77-2.26-5.58-4.52-8.43-6.79-4.91 6.63-17.15 20.8-27.56 38.39v-9.69c10.07-16.02 21.39-25.6 26.57-29.49-2.65-2.1-5.33-4.19-8.04-6.28-4.12 5.37-11.31 14.11-18.53 25v-8.94c6.6-8.27 12.94-13.94 17.04-17.2-2.14-1.64-4.29-3.28-6.47-4.92-2.44 3.15-6.26 7.63-10.57 13.25v-5.87c3.75-3.74 7.04-6.48 9.37-8.27a767.01 767.01 0 0 0-8.26-6.09c-.35.4-.72.81-1.11 1.24v-5.32c.59.42 1.17.84 1.76 1.26.1-.08.2-.15.29-.22 3.05-5.08 10.14-15.49 22.36-26.02h6.11c-13.06 9.91-21.87 20.9-27.08 26.33-.18.23-.38.46-.58.71 2.85 2.07 5.67 4.15 8.47 6.24 3.21-5.45 11.8-18.3 27.46-30.43 1.32-1.02 2.63-1.97 3.94-2.85h9.65c-19.69 11.95-33.58 27.88-40.13 33.97 2.35 1.77 4.68 3.54 6.98 5.31 1.45-1.08 2.34-1.65 2.45-1.71-.32.61-.85 1.42-1.56 2.4.19.14.38.29.57.43 3.05-5.24 11.67-18.39 27.66-30.78 5.16-4 10.65-7.15 15.96-9.62h8.53c-24.57 13.22-43.75 34.28-51.32 41.04 2.46 1.91 4.89 3.82 7.3 5.73.34-.24.55-.37.6-.4-.08.19-.21.38-.34.61.29.23.59.46.88.7 2.76-4.85 11.42-18.48 27.95-31.28 10.28-7.95 22.37-13.17 31.89-16.4h3.78c-29.78 13-54.66 40.97-62.95 48.21 2.88 2.3 5.73 4.61 8.53 6.9 2.29-4.16 10.97-18.5 28.32-31.94 20.56-15.93 43.58-18.08 43.58-18.08-35.97 9.45-63.13 43.35-71.46 50.39 2.95 2.42 5.84 4.83 8.69 7.23 1.33-2.57 9.95-18.2 28.75-32.76 20.57-15.93 44.9-17.49 44.9-17.49-37.11 9.74-66.1 44.94-73.5 50.38 2.91 2.45 5.76 4.9 8.57 7.32 3.05-5.43 11.4-18.55 26.95-31.07 20.26-16.31 53.05-19.25 53.05-19.25-36.91 6.11-70.97 39.29-79.72 50.57 2.62 2.27 5.19 4.53 7.71 6.77 3.26-5.63 12.56-19.82 29.34-31.35 21.05-14.48 51.77-20.16 52.86-20.35-54.19 20.25-73.06 45.01-81.34 52.46 2.04 1.82 4.05 3.62 6.02 5.4 3.53-5.25 13.84-18.94 31.58-29.38 21.95-12.92 58.93-18.31 60.48-18.53-56.92 14.57-82.65 40.01-91.55 48.37 2.95 2.68 5.83 5.32 8.62 7.92 3.63-5.37 13.91-18.89 31.48-29.23 22.02-12.96 59.19-18.34 60.48-18.52-59.08 15.85-83.69 40.6-91.46 48.22.05.04.1.09.15.13.04-.02.07-.04.07-.04-.01.02-.02.05-.04.08 2.36 2.2 4.67 4.36 6.9 6.49 3.19-4.6 13.98-18.76 32.78-29.18 22.75-12.61 60.99-16.96 60.99-16.96-57.57 12.48-83.84 38.38-93.38 46.51 1.72 1.64 3.41 3.25 5.05 4.84 3.51-4.24 15.52-17.49 35.26-26.26 23.77-10.57 62.23-11.56 62.23-11.56-58.78 10.31-87.23 33.28-96.88 38.41 1.86 1.8 3.67 3.57 5.43 5.3 3.06-3.06 16.79-15.87 38.52-22.78 24.79-7.88 63.13-4.61 63.13-4.61-61.12 3.85-91.95 24.48-101.28 27.75 1.28 1.26 2.53 2.51 3.76 3.73 4.47-3.15 19.57-12.77 40.98-16.02 25.71-3.9 63.07 5.33 63.07 5.33-59.05-5.59-92.51 8.82-103.39 11.34 1.06 1.07 2.1 2.11 3.12 3.14 4.88-2.03 21.85-8.25 43.64-6.71 25.53 1.8 59.3 18.49 60.34 19.01-56.24-18.34-92-11.68-103.26-11.57 1.73 1.74 3.39 3.44 4.99 5.08 5.67-1.29 23.03-4.33 43.7.6 25.3 6.04 56.46 28.61 56.46 28.61-51.18-26.58-87.03-26.56-99.12-28.15 2.13 2.2 4.14 4.29 6.02 6.26 6.08.24 24.9 1.61 44.72 9.64 23.73 9.62 40.01 25.19 40.52 25.68z"/><path fill="#D5D5E8" d="m1288.957 380.605-8.412-3.476a9.103 9.103 0 0 0-11.888 4.936l-2.781 6.729-.555 1.342-5.007 12.116-3.365-1.39-5.047-2.086-28.85 69.817a2.73 2.73 0 0 0 1.481 3.566 2.721 2.721 0 0 0 3.08-.722c.047.027.088.062.139.083.929.383 2.149-.435 2.725-1.829.576-1.393.289-2.835-.64-3.218l25.027-60.565 3.364 1.39-97.325 235.528-.59 37.178 25.826-26.75 38.235-92.529.412-.997 69.106-167.237c1.92-4.644-.29-9.966-4.935-11.886zM816.142 144.931l-16.933 4.18a2.22 2.22 0 0 0-1.423 1.111c-9.405-17.285-29.582-26.772-49.583-21.836l-38.692 9.549c-14.096 3.479-23.337 16.468-22.593 30.451l-.998-.424c-6.135-2.606-12.64-3.179-18.81-1.656l-2.755.68c-5.567 1.374-10.641 4.425-14.676 8.826l-2.942 3.209c-5.656-13.125-20.121-20.628-34.454-17.09l-38.691 9.548c-19.74 4.871-33.087 22.26-33.705 41.63l-14.643 3.614a2.234 2.234 0 0 0 1.07 4.336l13.665-3.372a44.567 44.567 0 0 0 1.175 7.486l2.624 10.632a48.14 48.14 0 0 0 12.398 22.248l-11.398 18.867a2.232 2.232 0 0 0 2.447 3.323 2.233 2.233 0 0 0 1.377-1.013l10.919-18.075c11.439 9.655 27.178 13.892 42.823 10.031 30.164-7.444 50.234-34.652 49.869-64.433 1.234.975 2.505 1.412 3.682 1.122 3.417-.843 4.741-7.386 2.957-14.615-1.738-7.043-5.784-12.121-9.151-11.597l2.905-3.168c3.504-3.822 7.896-6.468 12.701-7.654l2.755-.68c5.33-1.315 10.969-.812 16.306 1.456l3.153 1.339.057.262c-.826-.389-1.649-.524-2.43-.332-3.417.843-4.741 7.386-2.958 14.614 1.784 7.228 6 12.404 9.417 11.561 1.397-.345 2.437-1.653 3.065-3.56 13.354 26.965 44.045 42.03 74.468 34.522 16.702-4.122 29.204-16.463 34.292-31.65l21.116 12.757a2.226 2.226 0 0 0 1.69.257 2.233 2.233 0 0 0 .62-4.08l-22.167-13.392a48.154 48.154 0 0 0-.17-22.458l-2.624-10.633a44.675 44.675 0 0 0-2.518-7.343c.291.048.596.041.901-.034l16.933-4.179a2.233 2.233 0 1 0-1.071-4.337zM437.269 169.692 281.626 77.287a2.478 2.478 0 0 0-3.396.866l-2.978 5.015a10.902 10.902 0 0 0-1.632 2.093l-.327.551-.001.002-97.688 164.589-14.853 25.026c-.289.486-.53.982-.742 1.488-.014.036-.022.073-.036.108a5.791 5.791 0 0 1-.036.074c-.034.092-.051.185-.083.278-.043.124-.088.249-.126.374l-.004.007-1.006 1.694c-3.205 5.398-1.427 12.372 3.971 15.577l21.041 12.492-6.363 10.707 18.741-2.945 6.01 17.652 6.368-10.717 102.203 60.677c5.398 3.205 12.372 1.427 15.578-3.971L441.241 185.27c3.204-5.398 1.427-12.373-3.972-15.578z"/><path fill="#4C5070" d="M539.512 267.158a2.233 2.233 0 0 1-2.447-3.323l15.627-25.867a2.234 2.234 0 0 1 3.823 2.309l-15.627 25.867a2.226 2.226 0 0 1-1.376 1.014zM535.535 203.795l-16.934 4.179a2.233 2.233 0 0 1-1.07-4.336l16.933-4.179a2.234 2.234 0 0 1 1.071 4.336zM818.525 198.302a2.222 2.222 0 0 1-1.69-.257l-25.867-15.627a2.232 2.232 0 1 1 2.31-3.823l25.867 15.627a2.233 2.233 0 0 1-.62 4.08zM809.5 136.185l-16.933 4.179a2.233 2.233 0 0 1-1.07-4.336l16.933-4.179a2.234 2.234 0 0 1 1.07 4.336z"/><path fill="#D3E3FF" d="M651.139 180.175c1.784 7.228.46 13.771-2.957 14.615-3.417.843-7.633-4.332-9.417-11.56-1.784-7.228-.459-13.772 2.958-14.615 3.417-.844 7.633 4.332 9.416 11.56zM674.477 174.415c1.784 7.228 6 12.404 9.417 11.561s4.741-7.387 2.958-14.614c-1.784-7.228-6-12.404-9.417-11.561-3.418.844-4.742 7.387-2.958 14.614z"/><path fill="#4C5070" d="m639.465 171.331-2.926-2.683 5.428-5.92c4.034-4.4 9.109-7.452 14.675-8.826l2.755-.68c6.17-1.523 12.674-.95 18.81 1.656l5.293 2.248-1.552 3.654-5.293-2.248c-5.338-2.268-10.977-2.771-16.306-1.456l-2.755.68c-4.805 1.186-9.196 3.833-12.701 7.654l-5.428 5.921z"/><path fill="#4C5070" d="m604.571 148.845-38.691 9.548c-23.785 5.87-38.308 29.909-32.438 53.694l2.624 10.632c6.402 25.943 32.623 41.784 58.565 35.382 35.172-8.68 56.648-44.229 47.968-79.4l-1.996-8.086c-3.939-15.963-20.071-25.709-36.032-21.77z"/><path fill="#D3E3FF" d="m602.66 156.6-33.414 8.246c-20.541 5.069-33.083 25.83-28.014 46.37l2.266 9.182c5.529 22.404 28.173 36.084 50.578 30.555 30.374-7.496 48.921-38.196 41.426-68.57l-1.724-6.984c-3.401-13.783-17.333-22.2-31.118-18.799z"/><path fill="#FFF" d="M558.202 176.442c-7.249 6.394-10.887 16.117-10.926 25.666-.046 11.333 4.737 22.093 11.061 31.274 1.115 1.619 3.13 2.421 4.96 1.396 1.596-.893 2.518-3.331 1.396-4.96-5.45-7.913-9.992-17.065-10.129-26.87-.112-7.996 2.632-15.915 8.715-21.28 3.518-3.102-1.561-8.328-5.077-5.226zM571.212 237.304c-4.551 1.123-2.813 8.199 1.745 7.074 4.552-1.123 2.814-8.199-1.745-7.074z"/><path fill="#4C5070" d="m701.799 124.851 38.692-9.549c23.784-5.87 47.824 8.653 53.694 32.438l2.624 10.632c6.402 25.943-9.439 52.164-35.381 58.566-35.172 8.68-70.721-12.796-79.401-47.968l-1.996-8.087c-3.94-15.96 5.807-32.093 21.768-36.032z"/><path fill="#D3E3FF" d="m707.098 130.827 33.414-8.246c20.54-5.069 41.301 7.473 46.37 28.014l2.266 9.182c5.529 22.404-8.151 45.049-30.555 50.578-30.374 7.496-61.074-11.051-68.57-41.425l-1.723-6.984c-3.403-13.785 5.014-27.717 18.798-31.119z"/><path fill="#FFF" d="M755.683 127.707c9.392 2.287 17.135 9.202 21.612 17.636 5.313 10.01 6.085 21.76 4.759 32.829-.234 1.952-1.644 3.599-3.741 3.544-1.829-.048-3.779-1.777-3.544-3.741 1.143-9.54.906-19.754-3.534-28.497-3.62-7.13-9.734-12.863-17.615-14.782-4.557-1.11-2.492-8.099 2.063-6.989zM772.482 187.635c4.552-1.124 6.305 5.948 1.745 7.073-4.551 1.123-6.304-5.949-1.745-7.073z"/><path fill="#FEC5BE" d="M599.624 596.31c-2.96 8.67-15.61 13.2-27.63 15.5-10.14 1.94-19.84 2.29-22.88 2.19-.47-.01-.79-.04-.91-.06 2.25 1.42 1.58 6.08-1.01 12.71v.01c-6.52 16.7-25.11 45.86-39.2 66.88-9.72 14.5-17.29 25.12-17.29 25.12s.28.41.72 1.16c.67 1.15 1.69 3.11 2.65 5.71.1.28.21.56.31.85.09.27.18.55.27.83.09.26.17.52.25.8.18.6.35 1.23.51 1.88.09.33.17.67.24 1.02.07.3.14.61.19.93.05.28.11.57.16.86.06.29.1.58.14.88.09.58.16 1.18.23 1.8.02.14.03.29.04.44.03.28.05.56.07.84a36.013 36.013 0 0 1 .03 4.64c0 .12-.01.25-.02.37-.01.27-.03.55-.06.83l-.06.68c-.01.1-.02.21-.04.32-.03.3-.07.61-.11.91-.05.39-.11.79-.18 1.18-.07.42-.15.86-.24 1.29v.01c-.05.25-.11.51-.16.76-.18.78-.38 1.57-.62 2.37-.07.24-.14.48-.22.72-.22.73-.48 1.46-.76 2.2-.16.44-.34.89-.53 1.33-.36.9-.78 1.8-1.24 2.71-.45.92-.95 1.84-1.49 2.76-8.19 13.88-26.63 29.07-64.96 41.78l-2.52 2.57-8.39 8.57L339.044 960h-184.08c64.49-71.62 181.56-228.71 184.77-243.68 5.49-25.58 6.49-72.23 12.12-87.21 3.92-10.43 11.09-27.27 17.84-42.54 6.79-15.35 13.15-29.11 15.37-33.22.45-.83.87-1.85 1.28-3.01 3.6-10.34 5.82-32.11 9.99-33.89 4.64-1.99 39.12 25.19 6.62 77.35 0 0 .8 22.87 7.25 19.5 11.4-5.92 56.18-60.83 56.18-60.83s111.75-32.21 122.07-26.67c7.87 4.22 3.38 32.79-43.46 49.5-5.46 1.95-11.51 3.74-18.18 5.31 0 0 5.86-.13 14.25.03 3.14.06 6.62.16 10.29.33 22.57 1.01 52 4.4 48.27 15.34z"/><path fill="#F0B2AA" d="m425.824 801.52-2.52 2.57c-2.78-9.11-27.43-18.33-35.88-20.84-11.62-3.19-16.14-18.69-23.15-24.85-7.01-6.15-20.03-10.01-36.83 1.73-8.13 5.69-78.16 134.78-123.02 199.87h-49.46c64.49-71.62 181.56-228.71 184.77-243.68 5.49-25.58 6.49-72.23 12.12-87.21 3.92-10.43 11.09-27.27 17.84-42.54-12.76 44.79-6.05 48.89-12.76 71.69-3.13 10.61-13.02 53.55-1.34 76.48 5.61 11.01 22.7 18.24 28.7 29.15 3.25 5.9 8.23 13.38 23.04 19.36 13.84 5.59 17.69 13.69 18.49 18.27z"/><path fill="#F0B2AA" d="M490.777 759.735c-6.316-2.066-16.408-2.352-32.031.48-64.427 11.686-60.454-14.046-60.454-14.046l39.422-26.344h53.711c2.568 4.43 10.532 20.948-.648 39.91z"/><path fill="#4C5070" d="M1021.327 326.095H435.548c-15.889 0-28.77 12.881-28.77 28.77v372.743c0 15.889 12.881 28.77 28.77 28.77h585.779c15.889 0 28.77-12.881 28.77-28.77V354.864c-.001-15.889-12.881-28.769-28.77-28.769z"/><path fill="#FFF" d="M434.542 747.769c-10.563 0-19.156-9.045-19.156-20.162V354.865c0-11.117 8.593-20.162 19.156-20.162h556.542c10.562 0 19.156 9.045 19.156 20.162v372.743c0 11.118-8.594 20.162-19.156 20.162H434.542z"/><path fill="#FFBC47" d="M440.827 469.858h214.578v30.821H440.827z"/><path fill="#C8CBE3" d="M506.038 521.558h-62.752c-1.358 0-2.459-.713-2.459-1.592 0-.879 1.101-1.592 2.459-1.592h62.752c1.358 0 2.459.712 2.459 1.592.001.88-1.1 1.592-2.459 1.592zM616.88 521.558h-97.225c-1.358 0-2.459-.713-2.459-1.592 0-.879 1.101-1.592 2.459-1.592h97.225c1.358 0 2.459.712 2.459 1.592 0 .88-1.102 1.592-2.459 1.592zM653.265 521.558h-20.401c-1.182 0-2.14-.62-2.14-1.385s.958-1.385 2.14-1.385h20.401c1.182 0 2.14.62 2.14 1.385s-.958 1.385-2.14 1.385zM652.946 538.006h-209.66c-1.358 0-2.459-.713-2.459-1.592 0-.879 1.101-1.592 2.459-1.592h209.66c1.358 0 2.459.713 2.459 1.592 0 .879-1.101 1.592-2.459 1.592zM506.038 569.132h-62.752c-1.358 0-2.459-.713-2.459-1.592 0-.879 1.101-1.592 2.459-1.592h62.752c1.358 0 2.459.713 2.459 1.592.001.88-1.1 1.592-2.459 1.592zM616.88 569.132h-97.225c-1.358 0-2.459-.713-2.459-1.592 0-.879 1.101-1.592 2.459-1.592h97.225c1.358 0 2.459.713 2.459 1.592 0 .88-1.102 1.592-2.459 1.592zM547.615 552.685H443.286c-1.358 0-2.459-.713-2.459-1.592 0-.879 1.101-1.592 2.459-1.592h104.329c1.358 0 2.459.713 2.459 1.592 0 .879-1.1 1.592-2.459 1.592zM652.946 552.685h-80.33c-1.358 0-2.459-.713-2.459-1.592 0-.879 1.101-1.592 2.459-1.592h80.33c1.358 0 2.459.713 2.459 1.592 0 .879-1.101 1.592-2.459 1.592zM653.265 569.132h-20.401c-1.182 0-2.14-.62-2.14-1.385s.958-1.385 2.14-1.385h20.401c1.182 0 2.14.62 2.14 1.385s-.958 1.385-2.14 1.385zM613.327 590.761h-62.752c-1.358 0-2.459-.713-2.459-1.592 0-.879 1.101-1.592 2.459-1.592h62.752c1.358 0 2.459.712 2.459 1.592.001.88-1.1 1.592-2.459 1.592zM724.168 590.761h-97.225c-1.358 0-2.459-.713-2.459-1.592 0-.879 1.101-1.592 2.459-1.592h97.225c1.358 0 2.459.712 2.459 1.592 0 .88-1.101 1.592-2.459 1.592zM760.554 590.761h-20.402c-1.182 0-2.14-.62-2.14-1.385s.958-1.385 2.14-1.385h20.402c1.182 0 2.14.62 2.14 1.385s-.958 1.385-2.14 1.385zM760.235 607.209h-209.66c-1.358 0-2.459-.713-2.459-1.592 0-.879 1.101-1.592 2.459-1.592h209.66c1.358 0 2.459.713 2.459 1.592 0 .879-1.101 1.592-2.459 1.592zM613.327 638.336h-62.752c-1.358 0-2.459-.713-2.459-1.592 0-.879 1.101-1.592 2.459-1.592h62.752c1.358 0 2.459.713 2.459 1.592.001.879-1.1 1.592-2.459 1.592zM724.168 638.336h-97.225c-1.358 0-2.459-.713-2.459-1.592 0-.879 1.101-1.592 2.459-1.592h97.225c1.358 0 2.459.713 2.459 1.592 0 .879-1.101 1.592-2.459 1.592zM654.904 621.888H550.575c-1.358 0-2.459-.713-2.459-1.592 0-.879 1.101-1.592 2.459-1.592h104.329c1.358 0 2.459.713 2.459 1.592 0 .879-1.101 1.592-2.459 1.592zM760.235 621.888h-80.33c-1.358 0-2.459-.713-2.459-1.592 0-.879 1.101-1.592 2.459-1.592h80.33c1.358 0 2.459.713 2.459 1.592 0 .879-1.101 1.592-2.459 1.592zM760.554 638.336h-20.402c-1.182 0-2.14-.62-2.14-1.385s.958-1.385 2.14-1.385h20.402c1.182 0 2.14.62 2.14 1.385 0 .764-.958 1.385-2.14 1.385zM613.327 657.785h-62.752c-1.358 0-2.459-.713-2.459-1.592 0-.879 1.101-1.592 2.459-1.592h62.752c1.358 0 2.459.712 2.459 1.592.001.88-1.1 1.592-2.459 1.592zM724.168 657.785h-97.225c-1.358 0-2.459-.713-2.459-1.592 0-.879 1.101-1.592 2.459-1.592h97.225c1.358 0 2.459.712 2.459 1.592 0 .88-1.101 1.592-2.459 1.592zM760.554 657.785h-20.402c-1.182 0-2.14-.62-2.14-1.385s.958-1.385 2.14-1.385h20.402c1.182 0 2.14.62 2.14 1.385s-.958 1.385-2.14 1.385zM760.235 674.233h-209.66c-1.358 0-2.459-.713-2.459-1.592 0-.879 1.101-1.592 2.459-1.592h209.66c1.358 0 2.459.713 2.459 1.592 0 .879-1.101 1.592-2.459 1.592zM613.327 705.36h-62.752c-1.358 0-2.459-.713-2.459-1.592 0-.879 1.101-1.592 2.459-1.592h62.752c1.358 0 2.459.713 2.459 1.592.001.879-1.1 1.592-2.459 1.592zM724.168 705.36h-97.225c-1.358 0-2.459-.713-2.459-1.592 0-.879 1.101-1.592 2.459-1.592h97.225c1.358 0 2.459.713 2.459 1.592 0 .879-1.101 1.592-2.459 1.592zM654.904 688.912H550.575c-1.358 0-2.459-.713-2.459-1.592 0-.879 1.101-1.592 2.459-1.592h104.329c1.358 0 2.459.713 2.459 1.592 0 .879-1.101 1.592-2.459 1.592zM760.235 688.912h-80.33c-1.358 0-2.459-.713-2.459-1.592 0-.879 1.101-1.592 2.459-1.592h80.33c1.358 0 2.459.713 2.459 1.592 0 .879-1.101 1.592-2.459 1.592zM760.554 705.36h-20.402c-1.182 0-2.14-.62-2.14-1.385s.958-1.385 2.14-1.385h20.402c1.182 0 2.14.62 2.14 1.385 0 .764-.958 1.385-2.14 1.385zM733.614 398.216h-62.752c-1.358 0-2.459-.797-2.459-1.78s1.101-1.78 2.459-1.78h62.752c1.358 0 2.459.797 2.459 1.78s-1.101 1.78-2.459 1.78zM844.455 398.216H747.23c-1.358 0-2.459-.797-2.459-1.78s1.101-1.78 2.459-1.78h97.225c1.358 0 2.459.797 2.459 1.78s-1.101 1.78-2.459 1.78zM880.84 398.216h-20.401c-1.182 0-2.14-.693-2.14-1.549 0-.855.958-1.549 2.14-1.549h20.401c1.182 0 2.14.694 2.14 1.549.001.855-.958 1.549-2.14 1.549zM880.521 416.607h-209.66c-1.358 0-2.459-.797-2.459-1.78s1.101-1.78 2.459-1.78h209.66c1.358 0 2.459.797 2.459 1.78.001.983-1.1 1.78-2.459 1.78zM733.614 451.412h-62.752c-1.358 0-2.459-.797-2.459-1.78s1.101-1.78 2.459-1.78h62.752c1.358 0 2.459.797 2.459 1.78s-1.101 1.78-2.459 1.78zM844.455 451.412H747.23c-1.358 0-2.459-.797-2.459-1.78s1.101-1.78 2.459-1.78h97.225c1.358 0 2.459.797 2.459 1.78s-1.101 1.78-2.459 1.78zM775.191 433.021H670.862c-1.358 0-2.459-.797-2.459-1.78s1.101-1.78 2.459-1.78h104.329c1.358 0 2.459.797 2.459 1.78s-1.101 1.78-2.459 1.78zM880.521 433.021h-80.33c-1.358 0-2.459-.797-2.459-1.78s1.101-1.78 2.459-1.78h80.33c1.358 0 2.459.797 2.459 1.78.001.983-1.1 1.78-2.459 1.78zM880.84 451.412h-20.401c-1.182 0-2.14-.694-2.14-1.549s.958-1.549 2.14-1.549h20.401c1.182 0 2.14.694 2.14 1.549.001.856-.958 1.549-2.14 1.549zM521.529 626.87H443.87c-1.681 0-3.043-.858-3.043-1.916 0-1.058 1.362-1.916 3.043-1.916h77.659c1.681 0 3.043.857 3.043 1.916.001 1.058-1.362 1.916-3.043 1.916zM521.529 642.652H443.87c-1.681 0-3.043-.858-3.043-1.916 0-1.058 1.362-1.916 3.043-1.916h77.659c1.681 0 3.043.857 3.043 1.916.001 1.058-1.362 1.916-3.043 1.916zM521.529 658.433H443.87c-1.681 0-3.043-.858-3.043-1.916 0-1.058 1.362-1.916 3.043-1.916h77.659c1.681 0 3.043.857 3.043 1.916.001 1.059-1.362 1.916-3.043 1.916zM521.529 674.215H443.87c-1.681 0-3.043-.858-3.043-1.916 0-1.058 1.362-1.916 3.043-1.916h77.659c1.681 0 3.043.857 3.043 1.916.001 1.059-1.362 1.916-3.043 1.916zM521.529 689.997H443.87c-1.681 0-3.043-.858-3.043-1.916 0-1.058 1.362-1.916 3.043-1.916h77.659c1.681 0 3.043.857 3.043 1.916.001 1.058-1.362 1.916-3.043 1.916zM521.529 705.779H443.87c-1.681 0-3.043-.858-3.043-1.916 0-1.058 1.362-1.916 3.043-1.916h77.659c1.681 0 3.043.857 3.043 1.916.001 1.058-1.362 1.916-3.043 1.916zM880.443 473.689h-64.749c-1.401 0-2.537-.858-2.537-1.916 0-1.058 1.136-1.916 2.537-1.916h64.749c1.401 0 2.537.858 2.537 1.916.001 1.059-1.136 1.916-2.537 1.916zM880.443 489.471h-64.749c-1.401 0-2.537-.858-2.537-1.916 0-1.058 1.136-1.916 2.537-1.916h64.749c1.401 0 2.537.858 2.537 1.916.001 1.058-1.136 1.916-2.537 1.916zM880.443 505.253h-64.749c-1.401 0-2.537-.858-2.537-1.916 0-1.058 1.136-1.916 2.537-1.916h64.749c1.401 0 2.537.858 2.537 1.916.001 1.058-1.136 1.916-2.537 1.916zM880.443 521.035h-64.749c-1.401 0-2.537-.858-2.537-1.916 0-1.058 1.136-1.916 2.537-1.916h64.749c1.401 0 2.537.858 2.537 1.916.001 1.058-1.136 1.916-2.537 1.916zM880.443 536.817h-64.749c-1.401 0-2.537-.858-2.537-1.916 0-1.058 1.136-1.916 2.537-1.916h64.749c1.401 0 2.537.858 2.537 1.916.001 1.058-1.136 1.916-2.537 1.916zM880.443 552.598h-64.749c-1.401 0-2.537-.858-2.537-1.916 0-1.058 1.136-1.916 2.537-1.916h64.749c1.401 0 2.537.858 2.537 1.916.001 1.059-1.136 1.916-2.537 1.916zM880.443 569.132h-64.749c-1.401 0-2.537-.858-2.537-1.916 0-1.058 1.136-1.916 2.537-1.916h64.749c1.401 0 2.537.857 2.537 1.916.001 1.059-1.136 1.916-2.537 1.916z"/><path fill="#5ABFE0" d="M668.403 469.858h62.108v99.274h-62.108z"/><path fill="#FF7870" d="M739.851 469.858h62.108v99.274h-62.108zM440.827 587.849h83.745v23.66h-83.745z"/><path fill="#C8CBE3" d="M879.153 626.87h-97.676c-2.114 0-3.827-.858-3.827-1.916 0-1.058 1.714-1.916 3.827-1.916h97.676c2.114 0 3.828.857 3.828 1.916 0 1.058-1.714 1.916-3.828 1.916zM879.153 642.652h-97.676c-2.114 0-3.827-.858-3.827-1.916 0-1.058 1.714-1.916 3.827-1.916h97.676c2.114 0 3.828.857 3.828 1.916 0 1.058-1.714 1.916-3.828 1.916zM879.153 658.433h-97.676c-2.114 0-3.827-.858-3.827-1.916 0-1.058 1.714-1.916 3.827-1.916h97.676c2.114 0 3.828.857 3.828 1.916s-1.714 1.916-3.828 1.916zM879.153 674.215h-97.676c-2.114 0-3.827-.858-3.827-1.916 0-1.058 1.714-1.916 3.827-1.916h97.676c2.114 0 3.828.857 3.828 1.916s-1.714 1.916-3.828 1.916zM879.153 689.997h-97.676c-2.114 0-3.827-.858-3.827-1.916 0-1.058 1.714-1.916 3.827-1.916h97.676c2.114 0 3.828.857 3.828 1.916 0 1.058-1.714 1.916-3.828 1.916zM879.153 705.779h-97.676c-2.114 0-3.827-.858-3.827-1.916 0-1.058 1.714-1.916 3.827-1.916h97.676c2.114 0 3.828.857 3.828 1.916 0 1.058-1.714 1.916-3.828 1.916z"/><path fill="#FFBC47" d="M777.65 587.849h105.331v23.66H777.65z"/><path fill="#C0D7F7" d="M874.951 368.138H488.222a3.56 3.56 0 0 1-3.559-3.559v-10.283a3.56 3.56 0 0 1 3.559-3.56h386.729a3.56 3.56 0 0 1 3.56 3.56v10.283a3.56 3.56 0 0 1-3.56 3.559zM474.145 368.138h-34.624a2.152 2.152 0 0 1-2.152-2.152v-13.098c0-1.189.964-2.152 2.152-2.152h34.624c1.189 0 2.152.964 2.152 2.152v13.098a2.152 2.152 0 0 1-2.152 2.152zM925.905 368.138h-31.764a3.39 3.39 0 0 1-3.391-3.391v-9.871a3.39 3.39 0 0 1 3.391-3.391h31.764a3.39 3.39 0 0 1 3.391 3.391v9.871a3.39 3.39 0 0 1-3.391 3.391z"/><path fill="#FFBC47" d="M686.9 730.964a5.052 5.052 0 1 1 10.104 0 5.052 5.052 0 0 1-10.104 0z"/><circle fill="#FF7870" cx="713.283" cy="730.964" r="5.052"/><path fill="#5ABFE0" d="M729.562 730.964a5.052 5.052 0 1 1 10.104 0 5.052 5.052 0 0 1-10.104 0z"/><path fill="#C0D7F7" d="M987.274 354.806h-40.558a1.262 1.262 0 1 1 0-2.526h40.558a1.262 1.262 0 1 1 0 2.526zM987.274 361.075h-40.558a1.262 1.262 0 1 1 0-2.526h40.558a1.263 1.263 0 0 1 0 2.526zM987.274 367.343h-40.558a1.262 1.262 0 1 1 0-2.526h40.558a1.262 1.262 0 1 1 0 2.526z"/><path fill="#5ABFE0" d="M909.62 395.118h80.274v62.277H909.62z"/><path fill="#C8CBE3" d="M985.683 473.14h-72.835c-1.576 0-2.854-.858-2.854-1.916 0-1.058 1.278-1.916 2.854-1.916h72.835c1.576 0 2.854.858 2.854 1.916 0 1.059-1.277 1.916-2.854 1.916zM985.683 488.922h-72.835c-1.576 0-2.854-.858-2.854-1.916 0-1.058 1.278-1.916 2.854-1.916h72.835c1.576 0 2.854.858 2.854 1.916 0 1.058-1.277 1.916-2.854 1.916z"/><path fill="#5ABFE0" d="M909.62 501.865h80.274v62.277H909.62z"/><path fill="#C8CBE3" d="M985.683 579.887h-72.835c-1.576 0-2.854-.858-2.854-1.916 0-1.058 1.278-1.916 2.854-1.916h72.835c1.576 0 2.854.857 2.854 1.916s-1.277 1.916-2.854 1.916zM985.683 595.669h-72.835c-1.576 0-2.854-.858-2.854-1.916 0-1.058 1.278-1.916 2.854-1.916h72.835c1.576 0 2.854.857 2.854 1.916s-1.277 1.916-2.854 1.916z"/><path fill="#5ABFE0" d="M909.62 608.612h80.274v62.277H909.62z"/><path fill="#C8CBE3" d="M985.683 686.634h-72.835c-1.576 0-2.854-.858-2.854-1.916 0-1.058 1.278-1.916 2.854-1.916h72.835c1.576 0 2.854.858 2.854 1.916 0 1.059-1.277 1.916-2.854 1.916zM985.683 702.416h-72.835c-1.576 0-2.854-.858-2.854-1.916 0-1.058 1.278-1.916 2.854-1.916h72.835c1.576 0 2.854.858 2.854 1.916 0 1.058-1.277 1.916-2.854 1.916z"/><path fill="#FEC5BE" d="M1070.064 830.8c-4.667-51.856 13.438-119.151-56.301-129.708-13.088-3.918-26.935-6.486-38.529-14.032-26.471-18.103-26.079-53.18-55.331-71.36-7.489-5.991-17.229-13.441-25.149-8.561 0 0 0 .01-.01.01-6.43 12.289 9.68 29.411 17.19 38.53.688.815 1.35 1.652 2.01 2.47 22.496 33.378 30.544 88.521 5.08 121.97-28.25-8.24-55.692-93.733-91.672-66.392.089 7.575 16.358 27.206 21.911 34.772 3.681 6.72 5.034 14.415 7.64 21.04 7.11 17.087 18.723 31.813 27.66 47.93 11.687 19.627 25.071 39.472 45.25 51.22 17.758 12.554 34.574 71.63 47.37 101.31h137.06c-23.919-51.079-42.239-102.119-44.179-129.199z"/><path fill="#F0B2AA" d="M853.954 750.121c.01.079.025.158.039.242a94.956 94.956 0 0 0-.686-.77c.32.103.682.28.647.528zM993.244 960h-14.6c-14.613-36.769-23.927-73.348-46.358-96.051-19.321-13.597-35.572-35.836-47.722-56.479-10.279-18.916-25.141-35.909-30.57-57.1 23.975 23.983 58.234 99.656 91.92 108.52 6.56 1.44 29.04 55.1 47.33 101.11zM944.365 734.627c-6.759 14.655-5.779 30.225-24.306 35.394 22.569-31.691 17.303-91.728-7.402-123.594-8.848-9.227-17.687-20.316-19.166-33.152 9.51 26.15 33.709 30.721 37.897 56.398 2.342 14.582 19.736 50.299 12.977 64.954zM1045.134 713.267c-11.505.753-16.616-5.437-28.151-6.032-17.175 1.493-30.42-8.824-41.804-20.202 21.274 13.258 48.802 12.948 69.955 26.234z"/><path fill="#FEDCD8" d="M850.191 719.79c.225 3.114-10.191 6.56-10.191 6.56-31.101-37.269 4.037-29.017 10.191-6.56zM920.025 615.612c-4.669 3.515-12.41 8.479-17.884 5.393-18.226-18.613 1.04-21.549 17.884-5.393z"/><path fill="#245CA3" d="m300.681 359.195-148-87.867c-5.398-3.205-7.176-10.179-3.971-15.578l119.511-201.3a2.479 2.479 0 0 1 3.396-.866L427.26 145.99c5.398 3.205 7.176 10.179 3.971 15.578L316.259 355.224c-3.205 5.398-10.18 7.177-15.578 3.971z"/><path fill="#FFF" d="M313.49 348.329c-3.066 5.174-9.771 6.861-14.969 3.772l-143.924-85.426-.013-.008c-.165-.098-.32-.199-.474-.3a10.302 10.302 0 0 1-.407-.277l-.32-.243c-.087-.079-.185-.155-.276-.227-.5-.421-.956-.888-1.362-1.378-.095-.11-.19-.237-.281-.354-.28-.371-.535-.754-.765-1.149a9.789 9.789 0 0 1-.591-1.187c-.059-.142-.121-.277-.17-.421a6.418 6.418 0 0 1-.146-.416 11.413 11.413 0 0 1-.13-.397 13.397 13.397 0 0 1-.215-.901 11.991 11.991 0 0 1-.144-.885c-.014-.142-.031-.294-.041-.443-.01-.148-.016-.303-.027-.451 0-.151-.003-.295-.003-.446 0-.151.007-.298.012-.456.017-.443.073-.885.149-1.325l.007-.041c.128-.729.324-1.451.605-2.156.211-.506.453-1.002.741-1.488l14.853-25.025 97.688-164.589c3.072-5.17 9.771-6.862 14.973-3.779l143.924 85.426c.743.442 1.406.963 2 1.538l.001-.002.045.046c.137.134.272.269.4.409.172.184.338.372.494.566.193.231.379.475.541.73.087.123.171.253.248.379.157.262.308.521.45.792.063.136.132.274.195.409.063.135.121.277.178.408.115.273.222.559.308.85l.128.432c.038.147.076.294.107.437.031.143.063.286.089.436.027.15.055.299.076.445.02.146.038.298.054.45.048.446.068.894.056 1.349-.007.147-.007.298-.018.451a6.842 6.842 0 0 1-.041.446 4.635 4.635 0 0 1-.055.438c-.067.458-.164.908-.288 1.358-.023.084-.046.168-.073.259a3.546 3.546 0 0 1-.092.275c-.043.117-.075.231-.124.344-.048.141-.106.284-.164.427l-.159.358c-.069.146-.145.288-.224.436-.087.162-.174.323-.272.487L313.49 348.329z"/><path fill="#4680CC" d="M310.629 337.213c-3.081 5.185-9.787 6.888-14.989 3.806l-143.924-85.426a11.266 11.266 0 0 1-2.001-1.536c-.067.219-.128.441-.182.668.098-.442.232-.888.395-1.326l.153-.318 15.561-26.458 97.969-165.062c3.081-5.185 9.787-6.888 14.989-3.806l143.924 85.426.023.014a2.87 2.87 0 0 1 1.013 3.932c-13.259 22.294-112.931 190.086-112.931 190.086z"/><path fill="#9996FA" d="M313.49 348.329c-3.066 5.174-9.771 6.861-14.969 3.772l-143.924-85.426-.013-.008c-.165-.098-.32-.199-.474-.3a10.302 10.302 0 0 1-.407-.277l-.32-.243c-.087-.079-.185-.155-.276-.227-.5-.421-.956-.888-1.362-1.378-.095-.11-.19-.237-.281-.354-.28-.371-.535-.754-.765-1.149-.221-.38-.42-.783-.591-1.187-.059-.142-.121-.277-.17-.421a6.418 6.418 0 0 1-.146-.416 11.413 11.413 0 0 1-.13-.397 13.397 13.397 0 0 1-.215-.901 11.991 11.991 0 0 1-.144-.885c-.014-.142-.031-.294-.041-.443-.01-.148-.016-.303-.027-.451 0-.151-.003-.295-.003-.446l.003-.185c.008-.119.01-.243.019-.362a5.65 5.65 0 0 1 .03-.426c.013-.143.034-.282.054-.422.013-.143.04-.278.064-.424l.042-.206c.024-.146.052-.298.093-.442.054-.226.114-.448.181-.666.6.57 1.255 1.092 2.001 1.536L295.64 341.02c5.202 3.083 11.901 1.392 14.973-3.779l112.541-189.614c.445-.749.786-1.533 1.028-2.331.155.145.299.293.446.452.172.191.338.379.493.568.193.231.379.475.541.73.087.123.171.253.248.379.157.262.308.521.45.792.063.136.132.274.195.409.063.135.121.277.178.408.115.273.222.559.308.85l.128.432c.038.147.073.283.107.437.031.143.063.286.089.436.027.15.055.299.076.445.02.146.038.298.054.45.048.446.068.894.056 1.349-.007.147-.007.298-.018.451a6.842 6.842 0 0 1-.041.446 4.635 4.635 0 0 1-.055.438c-.009.03-.008.058-.017.088-.046.257-.091.515-.15.764a5.365 5.365 0 0 1-.121.505c-.023.084-.046.168-.073.259a3.546 3.546 0 0 1-.092.275c-.043.117-.075.231-.124.344-.048.141-.106.284-.164.427l-.159.358c-.069.146-.145.288-.224.436-.087.162-.174.323-.272.487L313.49 348.329z"/><path fill="#FFF" d="M313.49 348.329c-3.066 5.174-9.771 6.861-14.969 3.772l-143.924-85.426-.013-.008c-.165-.098-.32-.199-.474-.3a10.302 10.302 0 0 1-.407-.277l-.32-.243c-.087-.079-.185-.155-.276-.227-.5-.421-.956-.888-1.362-1.378-.095-.11-.19-.237-.281-.354-.28-.371-.535-.754-.765-1.149-.221-.38-.42-.783-.591-1.187-.059-.142-.121-.277-.17-.421a6.418 6.418 0 0 1-.146-.416 11.413 11.413 0 0 1-.13-.397 13.397 13.397 0 0 1-.215-.901 11.991 11.991 0 0 1-.144-.885c-.014-.142-.031-.294-.041-.443-.01-.148-.016-.303-.027-.451 0-.151-.003-.295-.003-.446l.003-.185c.006-.085.005-.175.009-.27.002-.034.001-.062.01-.092a5.65 5.65 0 0 1 .03-.426c.013-.143.034-.282.054-.422.013-.143.04-.278.064-.424l.042-.206c.024-.146.052-.298.093-.442.054-.226.114-.448.181-.666.6.57 1.255 1.092 2.001 1.536L295.64 341.02c5.202 3.083 11.901 1.392 14.973-3.779l112.541-189.614c.445-.749.786-1.533 1.028-2.331.155.145.299.293.446.452.172.191.338.379.493.568.19.237.376.481.541.73.087.123.171.253.248.379.157.262.308.521.45.792.063.136.132.274.195.409.063.135.121.277.178.408.111.279.218.565.308.85l.128.432c.038.147.073.283.107.437.031.143.063.286.089.436.027.15.055.299.076.445.02.146.038.298.054.45.048.446.068.894.056 1.349-.007.147-.007.298-.018.451a6.842 6.842 0 0 1-.041.446 4.635 4.635 0 0 1-.055.438c-.009.03-.008.058-.017.088-.046.257-.091.515-.15.764a5.365 5.365 0 0 1-.121.505c-.023.084-.046.168-.073.259a3.546 3.546 0 0 1-.092.275c-.043.117-.075.231-.124.344-.048.141-.106.284-.164.427l-.159.358c-.069.146-.145.288-.224.436-.087.162-.174.323-.272.487L313.49 348.329z"/><path fill="#FFF" d="m367.762 178.683-95.505-56.751c-4.462-2.651-5.929-8.418-3.278-12.879l9.138-15.377c2.651-4.462 8.417-5.929 12.879-3.278l95.505 56.752c4.462 2.651 5.929 8.417 3.278 12.879l-9.138 15.378c-2.651 4.46-8.417 5.927-12.879 3.276zM269.766 224.706l-57.643-34.131a3.788 3.788 0 1 1 3.859-6.519l57.644 34.132a3.786 3.786 0 0 1 1.329 5.188v.001a3.79 3.79 0 0 1-5.189 1.329zM257.442 245.443l-57.643-34.131a3.787 3.787 0 1 1 3.86-6.518l57.643 34.131a3.788 3.788 0 0 1-3.86 6.518z"/><path fill="#C24E4E" d="m203.412 290.216-11.302 19.019-6.01-17.652-18.741 2.944 11.302-19.019z"/><path fill="#D5D5E8" d="m63.268 546.79 136.776-69.501 87.702 172.598-136.776 69.5z"/><path fill="#FFF" d="m45.873 537.574 136.776-69.5L270.35 640.67l-136.776 69.5z"/><path fill="#BADDDE" d="m154.817 579.713 3.93 7.735a36.191 36.191 0 0 1-23.007 2.652l1.209-8.641a27.302 27.302 0 0 0 17.868-1.746z"/><path fill="#5ABFE0" d="m154.817 579.713 3.93 7.735a36.191 36.191 0 0 1-23.007 2.652l1.209-8.641a27.302 27.302 0 0 0 17.868-1.746z"/><path fill="#D1ECED" d="m134.838 580.864-1.216 8.708a35.794 35.794 0 0 1-22.724-19.039l7.772-3.949c.118.253.241.503.369.756 3.255 6.407 8.979 11.293 15.799 13.524z"/><path fill="#FFBC47" d="m134.838 580.864-1.216 8.708a35.794 35.794 0 0 1-22.724-19.039l7.772-3.949c.118.253.241.503.369.756 3.255 6.407 8.979 11.293 15.799 13.524z"/><path fill="#BADDDE" d="M123.86 535.957c-7.351 7.553-9.726 18.805-6.034 28.622l-7.799 3.962c-2.674-6.542-3.34-13.641-1.923-20.607a35.956 35.956 0 0 1 9.612-18.105l6.144 6.128z"/><path fill="#D94559" d="M123.86 535.957c-7.351 7.553-9.726 18.805-6.034 28.622l-7.799 3.962c-2.674-6.542-3.34-13.641-1.923-20.607a35.956 35.956 0 0 1 9.612-18.105l6.144 6.128z"/><path fill="#BADDDE" d="M175.627 538.593a35.704 35.704 0 0 1 3.312 9.813l-8.787.531a27.135 27.135 0 0 0-2.3-6.394c-3.799-7.477-10.885-12.788-19.11-14.387l1.827-8.499a36.329 36.329 0 0 1 14.085 6.109c4.662 3.357 8.354 7.672 10.973 12.827z"/><path fill="#D94559" d="M175.627 538.593a35.704 35.704 0 0 1 3.312 9.813l-8.787.531a27.135 27.135 0 0 0-2.3-6.394c-3.799-7.477-10.885-12.788-19.11-14.387l1.827-8.499a36.329 36.329 0 0 1 14.085 6.109c4.662 3.357 8.354 7.672 10.973 12.827z"/><path fill="#D1ECED" d="M179.264 550.56c.847 7.071-.417 14.168-3.683 20.586-3.323 6.533-8.461 11.811-14.9 15.321l-3.93-7.736c9.809-5.488 15.334-16.577 13.79-27.645l8.723-.526z"/><path fill="#FFBC47" d="M179.264 550.56c.847 7.071-.417 14.168-3.683 20.586-3.323 6.533-8.461 11.811-14.9 15.321l-3.93-7.736c9.809-5.488 15.334-16.577 13.79-27.645l8.723-.526z"/><path fill="#D1ECED" d="m148.427 519.299-1.832 8.528c-5.33-.607-10.665.359-15.492 2.812-.553.281-1.095.579-1.613.888a27.233 27.233 0 0 0-4.057 2.944l-6.154-6.139a36.209 36.209 0 0 1 7.894-5.422c6.63-3.369 13.953-4.609 21.254-3.611z"/><path fill="#5ABFE0" d="m148.427 519.299-1.832 8.528c-5.33-.607-10.665.359-15.492 2.812-.553.281-1.095.579-1.613.888a27.233 27.233 0 0 0-4.057 2.944l-6.154-6.139a36.209 36.209 0 0 1 7.894-5.422c6.63-3.369 13.953-4.609 21.254-3.611z"/><path fill="#D5D5E8" d="m218.478 579.21-100.347 50.984a1.028 1.028 0 0 1-1.381-.45l-1.241-2.443a1.027 1.027 0 0 1 .451-1.381l100.347-50.984a1.027 1.027 0 0 1 1.381.451l1.241 2.443a1.028 1.028 0 0 1-.451 1.38zM226.751 595.493l-100.347 50.984a1.027 1.027 0 0 1-1.381-.451l-1.241-2.443a1.027 1.027 0 0 1 .451-1.381l100.347-50.984a1.028 1.028 0 0 1 1.381.45l1.241 2.443a1.029 1.029 0 0 1-.451 1.382zM235.024 611.777 134.677 662.76a1.027 1.027 0 0 1-1.381-.451l-1.241-2.443a1.027 1.027 0 0 1 .451-1.381l100.347-50.984a1.027 1.027 0 0 1 1.381.451l1.241 2.443a1.028 1.028 0 0 1-.451 1.382zM243.297 628.06 142.95 679.044a1.027 1.027 0 0 1-1.381-.451l-1.241-2.443a1.027 1.027 0 0 1 .451-1.381l100.347-50.984a1.027 1.027 0 0 1 1.381.451l1.241 2.443a1.027 1.027 0 0 1-.451 1.381zM970.394 240.058l30.311-140.42 263.289 56.832-30.311 140.42z"/><path fill="#FFF" d="m990.802 82.44 263.289 56.833-30.311 140.42-263.289-56.832z"/><path fill="#FFBC47" d="M1043.51 198.071c-10.702 1.019-21.263-1.719-30.036-7.738l26.555-33.845 38.931 18.43a45.64 45.64 0 0 1-13.403 14.968c-6.466 4.597-14.09 7.427-22.047 8.185zM1041.693 150.087l-4.019-42.187c22.882-.813 42.887 15.632 46.411 38.149l-42.392 4.038z"/><path fill="#D94559" d="m1057.986 155.578 35.208-3.354a44.953 44.953 0 0 1-3.274 18.471l-31.934-15.117zM1009.146 186.97c-8.684-7.608-14.027-18.016-15.129-29.589-2.277-23.899 14.673-45.299 38.201-48.961l4.175 43.825-27.247 34.725z"/><path fill="#D8D9EB" d="m1206.212 157.499-83.434-16.393a1.036 1.036 0 0 1-.817-1.217l.409-2.084c.11-.562.655-.928 1.217-.817l83.434 16.393c.562.11.927.655.817 1.217l-.41 2.084c-.11.561-.654.927-1.216.817zM1203.015 171.083l-83.434-16.393a1.036 1.036 0 0 1-.817-1.217l.41-2.084c.11-.562.655-.928 1.217-.817l83.434 16.393c.562.11.927.655.817 1.217l-.41 2.084c-.11.562-.655.928-1.217.817zM1201.018 185.867l-83.434-16.393a1.035 1.035 0 0 1-.817-1.217l.409-2.084c.11-.562.655-.928 1.217-.817l83.434 16.393c.562.11.928.655.817 1.217l-.41 2.084c-.11.561-.655.927-1.216.817zM1197.422 200.65l-83.434-16.393a1.035 1.035 0 0 1-.817-1.217l.41-2.084c.11-.562.655-.928 1.217-.817l83.434 16.393c.562.11.927.655.817 1.217l-.409 2.084a1.039 1.039 0 0 1-1.218.817z"/><path fill="#FFBC47" d="m1109.848 219.743 9.816 2.186-2.41 10.827-9.817-2.186z"/><path fill="#5ABFE0" d="m1129.3 214.95 9.817 2.185-4.344 19.516-9.817-2.185z"/><path fill="#FFBC47" d="m1148.61 210.793 9.817 2.186-6.138 27.572-9.817-2.186z"/><path fill="#5ABFE0" d="m1167.584 208.13 9.817 2.185-7.602 34.15-9.817-2.186z"/><path fill="#D94559" d="m1178.724 187.613-.631-8.145a.749.749 0 0 0-1.167-.559l-6.766 4.603a.743.743 0 0 0 .099 1.285l2.167 1.038a23.966 23.966 0 0 1-3.422 4.413c-1.706 1.74-3.689 3.227-5.845 4.443-4.321 2.437-9.29 3.786-14.335 4.222a44.312 44.312 0 0 1-15.16-1.357 39.889 39.889 0 0 1-7.194-2.681c-2.303-1.13-4.495-2.504-6.475-4.151a.195.195 0 0 0-.267.017.192.192 0 0 0 .012.272c1.923 1.764 4.084 3.27 6.378 4.536a40.878 40.878 0 0 0 7.224 3.096 45.869 45.869 0 0 0 15.602 2.151 41.069 41.069 0 0 0 7.899-1.056c2.599-.616 5.15-1.509 7.566-2.722 2.414-1.212 4.693-2.747 6.703-4.606a27.067 27.067 0 0 0 4.328-5.134l2.216 1.061a.746.746 0 0 0 1.068-.726z"/><path fill="#2154A6" d="m1277.365 388.159-107.753 260.763-25.235-10.428 107.753-260.763a9.103 9.103 0 0 1 11.888-4.936l8.411 3.476a9.102 9.102 0 0 1 4.936 11.888zM1143.787 675.673l.59-37.179 25.235 10.428z"/><path fill="#EB7C76" d="m1266.938 413.394 2.085-5.047-28.599-11.818-5.047-2.085-28.85 69.817a2.73 2.73 0 0 0 1.481 3.566 2.721 2.721 0 0 0 3.08-.722c.047.027.088.062.139.083.929.383 2.149-.435 2.725-1.829.576-1.393.289-2.835-.64-3.218l25.027-60.564 28.599 11.817zM1144.376 638.5l34.759-84.117 25.235 10.427-34.76 84.117zM1182.652 546.015l2.78-6.73 25.236 10.429-2.78 6.729zM1246.54 391.171l2.78-6.729 25.236 10.428-2.78 6.73z"/></svg>