<svg height="512" viewBox="0 0 32 32" width="512" xmlns="http://www.w3.org/2000/svg"><g id="Layer_2" data-name="Layer 2"><circle cx="16" cy="16" fill="#9bc9ff" r="13"/><circle cx="16" cy="16" fill="#e6f3fc" r="9"/><path d="m16.007 31a15.009 15.009 0 0 1 -4.577-.716 1 1 0 1 1 .609-1.9 13 13 0 1 0 -2.98-23.375 1 1 0 0 1 -1.069-1.692 15 15 0 0 1 22.642 15.983 15.007 15.007 0 0 1 -14.625 11.7z" fill="#f8834b"/><path d="m15.888 31h-.009a15.059 15.059 0 0 1 -4.221-.644 1 1 0 1 1 .579-1.914 13.008 13.008 0 0 0 3.663.558 1 1 0 0 1 -.008 2zm3.949-.533a1 1 0 0 1 -.274-1.962 13.052 13.052 0 0 0 3.379-1.515 1 1 0 0 1 1.067 1.692 15.089 15.089 0 0 1 -3.9 1.747 1.055 1.055 0 0 1 -.272.039zm-11.5-1.75a1 1 0 0 1 -.546-.163 14.955 14.955 0 0 1 -3.2-2.825 1 1 0 1 1 1.523-1.3 12.944 12.944 0 0 0 2.776 2.447 1 1 0 0 1 -.548 1.837zm-5.121-6.005a1 1 0 0 1 -.913-.591 14.944 14.944 0 0 1 -1.172-4.109 1 1 0 0 1 1.983-.268 12.908 12.908 0 0 0 1.014 3.556 1 1 0 0 1 -.912 1.409zm-1.055-7.819a.983.983 0 0 1 -.152-.012 1 1 0 0 1 -.838-1.14 15.04 15.04 0 0 1 1.236-4.087 1 1 0 0 1 1.813.846 13.027 13.027 0 0 0 -1.072 3.544 1 1 0 0 1 -.987.849zm3.333-7.151a1 1 0 0 1 -.749-1.661 15.016 15.016 0 0 1 3.245-2.764 1 1 0 0 1 1.069 1.692 12.983 12.983 0 0 0 -2.814 2.391 1 1 0 0 1 -.751.342z" fill="#f8834b"/><path d="m10 8h-5a1 1 0 0 1 -.98-1.2l1-5a1 1 0 0 1 1.96.4l-.76 3.8h3.78a1 1 0 1 1 0 2z" fill="#f8834b"/><g fill="#1e81ce"><path d="m19 20a1 1 0 0 1 -.707-.293l-3-3a1 1 0 0 1 -.293-.707v-5a1 1 0 0 1 2 0v4.586l2.707 2.707a1 1 0 0 1 -.707 1.707z"/><path d="m16.008 31a15.04 15.04 0 0 1 -4.578-.715 1 1 0 0 1 .609-1.9 13 13 0 1 0 -2.98-23.376 1 1 0 0 1 -1.069-1.692 15 15 0 0 1 22.642 15.983 15 15 0 0 1 -14.624 11.7z"/><path d="m15.888 31h-.01a15.056 15.056 0 0 1 -4.22-.643 1 1 0 0 1 .578-1.915 13.053 13.053 0 0 0 3.664.558 1 1 0 0 1 -.009 2zm3.949-.533a1 1 0 0 1 -.274-1.962 13.013 13.013 0 0 0 3.378-1.514 1 1 0 1 1 1.069 1.69 15 15 0 0 1 -3.9 1.747 1 1 0 0 1 -.273.04zm-11.5-1.749a1 1 0 0 1 -.546-.163 14.907 14.907 0 0 1 -3.2-2.825 1 1 0 1 1 1.523-1.3 12.892 12.892 0 0 0 2.776 2.446 1 1 0 0 1 -.548 1.838zm-5.121-6.006a1 1 0 0 1 -.913-.591 14.908 14.908 0 0 1 -1.171-4.109 1 1 0 0 1 1.982-.266 12.949 12.949 0 0 0 1.014 3.554 1 1 0 0 1 -.912 1.409zm-1.055-7.819a1 1 0 0 1 -.991-1.151 15.075 15.075 0 0 1 1.236-4.087 1 1 0 1 1 1.813.844 13.078 13.078 0 0 0 -1.071 3.544 1 1 0 0 1 -.987.85zm3.332-7.151a1 1 0 0 1 -.749-1.662 14.988 14.988 0 0 1 3.246-2.762 1 1 0 1 1 1.069 1.69 13 13 0 0 0 -2.815 2.392 1 1 0 0 1 -.751.342z"/><path d="m10 8h-5a1 1 0 0 1 -.98-1.2l1-5a1 1 0 0 1 1.96.4l-.76 3.8h3.78a1 1 0 1 1 0 2z"/></g></g></svg>