<svg xmlns="http://www.w3.org/2000/svg" viewBox="0 0 18.17 20">
  <g id="Layer_2">
    <g id="Layer_1-2">
      <path d="M18.17,6.58v6.84a3.17,3.17,0,0,1-1.57,2.73l-5.94,3.43a3.16,3.16,0,0,1-3.15,0L1.57,16.15A3.15,3.15,0,0,1,0,13.42V6.58A3.17,3.17,0,0,1,1.57,3.85L7.51.42a3.16,3.16,0,0,1,3.15,0L16.6,3.85A3.16,3.16,0,0,1,18.17,6.58Z" fill="#b2b1ff"/>
      <path d="M9.09 10A2.33 2.33 0 1 0 6.76 7.67 2.33 2.33 0 0 0 9.09 10ZM11.77 14.66a1 1 0 0 0 .83-1.57A4.21 4.21 0 0 0 9.09 11.4a4.21 4.21 0 0 0-3.51 1.69 1 1 0 0 0 .83 1.57Z" fill="#6563ff"/>
    </g>
  </g>
</svg>
