<svg id="Layer_1" height="512" viewBox="0 0 36 36" width="512" xmlns="http://www.w3.org/2000/svg" data-name="Layer 1"><g fill-rule="evenodd"><path d="m27.26 30.89a.27.27 0 0 0 .07.1 16 16 0 0 1 -18.66.01.23.23 0 0 0 .06-.1l1.47-3.68a6 6 0 0 1 5.58-3.78h4.43a6 6 0 0 1 5.57 3.77z" fill="#072a30"/><path d="m22.86 13.43a4.86 4.86 0 1 1 -4.86-4.86 4.86 4.86 0 0 1 4.86 4.86z" fill="#072a30"/><path d="m18 2a16 16 0 0 0 -10.71 27.89l1.33-3.31a7.68 7.68 0 0 1 7.17-4.86h4.43a7.68 7.68 0 0 1 7.15 4.86l1.33 3.31a16 16 0 0 0 -10.7-27.89zm0 18a6.57 6.57 0 1 1 6.57-6.57 6.57 6.57 0 0 1 -6.57 6.57z" fill="#43d685"/></g></svg>