<svg fill="none" height="512" viewBox="0 0 512 512" width="512" xmlns="http://www.w3.org/2000/svg"><g fill="#1ac6c6"><path d="m43 133c0-49.7056 40.2944-90 90-90h246c49.706 0 90 40.2944 90 90v246c0 49.706-40.294 90-90 90h-246c-49.7056 0-90-40.294-90-90z" fill-opacity=".3"/><path d="m332.999 184c0 42.526-34.474 77-77 77s-77-34.474-77-77 34.474-77 77-77 77 34.474 77 77z"/><path d="m395.03 367.84c7.553 20.172-10.491 38.16-32.031 38.16h-214c-21.539 0-39.583-17.988-32.03-38.16 1.223-3.267 2.605-6.495 4.144-9.675 7.337-15.166 18.091-28.946 31.649-40.553 13.557-11.608 29.652-20.815 47.366-27.097 17.713-6.282 36.698-9.515 55.871-9.515s38.159 3.233 55.872 9.515c17.714 6.282 33.809 15.489 47.366 27.097 13.557 11.607 24.312 25.387 31.649 40.553 1.538 3.18 2.92 6.408 4.144 9.675z"/></g></svg>