<svg xmlns="http://www.w3.org/2000/svg" id="Layer_1" data-name="Layer 1" viewBox="82.299 77.229 385.396 395.545" height="395.545" width="385.396"><defs><style>.cls-1{fill:#ffe3d4}.cls-3{fill:#fff}.cls-5{fill:#843b34}.cls-6{fill:#e5a973}.cls-7{fill:#ffc888}.cls-8{fill:#445299}.cls-9{fill:#5567bc}.cls-10{fill:#e1dcd1}.cls-11{fill:#6d8243}.cls-12{fill:#95a46f}.cls-13{fill:#d05e3f}.cls-16{fill:#ffb294}.cls-17{fill:#382c58}.cls-18{fill:#271e3f}.cls-19{fill:#f36e52}</style></defs><path class="cls-1" d="M345.3 162.55a5.36 5.36 0 0 1-4.11 5.94c-10.89 2.52-42.56 6.65-69.05-21.31-30.93-32.65 69.27-14.95 73.16 15.37Z"/><path class="cls-1" d="M389.62 418c-63.06 60.48-186.6 32.17-249.76 0s-16.63-109.39-33.34-175c-14.18-55.73 41.18-105 94.56-102.79.95 0 1.9.09 2.84.16a77.43 77.43 0 0 1 25 6.11c59.38 25.74 64.13 41.89 119.49 39.89 142.88-5.18 104.27 171.12 41.21 231.63Z"/><path d="M449.42 454.79H101.1a.65.65 0 1 1 0-1.29h348.32a.65.65 0 1 1 0 1.29Z" style="fill:#c0bdb1"/><path class="cls-3" d="M281.47 186.74h-.06a11.32 11.32 0 0 0-10.64-2.12c.35-1.13.91-2.18.42-3.38a4.51 4.51 0 0 0-3.07-2.27 7 7 0 0 0-6.27 1 6.17 6.17 0 0 0-12.28 1.13 9.61 9.61 0 0 0-5.57-.08c-1.54.52-1.95 2.06-3.09 2.56-1.53.68-3.31-.51-4.67.95a2.06 2.06 0 0 0-.53 2.07 4.24 4.24 0 0 0 1.25 1.45h44a.69.69 0 0 0 .86-.11.68.68 0 0 0-.35-1.2ZM167.75 216.4h-.08a16.37 16.37 0 0 0-15.34-3.06c.5-1.62 1.31-3.14.6-4.87s-2.69-2.79-4.42-3.28a10.2 10.2 0 0 0-9 1.49c-.9-4.27-4.52-7.9-9.19-7.69-5 .23-8.38 4.68-8.5 9.33a13.94 13.94 0 0 0-8-.13c-2.21.76-2.81 3-4.45 3.7-2.21 1-4.77-.73-6.73 1.36a3 3 0 0 0-.77 3 6.53 6.53 0 0 0 1.8 2.09H167a1 1 0 0 0 1.24-.17 1 1 0 0 0-.49-1.77ZM433.49 231.16h-.05a10.73 10.73 0 0 0-10.09-2c.33-1.06.86-2.06.39-3.2a4.28 4.28 0 0 0-2.91-2.16 6.68 6.68 0 0 0-5.95 1 5.86 5.86 0 0 0-11.65 1.08 9.05 9.05 0 0 0-5.28-.08c-1.46.49-1.86 2-2.93 2.43-1.46.64-3.14-.49-4.44.89a2 2 0 0 0-.5 2 4.29 4.29 0 0 0 1.18 1.37H433a.68.68 0 1 0 .46-1.27Z"/><path d="m341.84 453.49-7.33-.36a4 4 0 0 1-3.8-4.18l14.07-290.32a4 4 0 0 1 4.19-3.8l7.32.36a4 4 0 0 1 3.8 4.18L346 449.69a4 4 0 0 1-4.16 3.8Z" style="fill:#a34a42"/><path class="cls-5" d="M352.29 173.19h-.07a1.44 1.44 0 0 1-1.37-1.51l.58-11.81a1.44 1.44 0 1 1 2.87.14l-.58 11.82a1.43 1.43 0 0 1-1.43 1.36ZM356.29 155.19h-.32a4 4 0 0 1 .77 2.52L342.67 448a4 4 0 0 1-4.19 3.8l-7-.34a4 4 0 0 0 3 1.66l7.33.36a4 4 0 0 0 4.18-3.8l14.07-290.32a4 4 0 0 0-3.77-4.17Z"/><path class="cls-6" d="m295.34 223.38 96.83-13.24a4.52 4.52 0 0 0 3.88-5.1l-3.73-27.22a4.52 4.52 0 0 0-5.1-3.88l-96.84 13.23a4.56 4.56 0 0 0-3.26 2.15L278 204.44a4.51 4.51 0 0 0 .77 5.64l12.87 12.11a4.53 4.53 0 0 0 3.7 1.19Z"/><path class="cls-7" d="m289.33 225.07 96.84-13.23a4.54 4.54 0 0 0 3.88-5.1l-3.73-27.23a4.53 4.53 0 0 0-5.1-3.88l-96.84 13.24a4.52 4.52 0 0 0-3.26 2.14L272 206.13a4.54 4.54 0 0 0 .77 5.64l12.88 12.11a4.49 4.49 0 0 0 3.68 1.19Z"/><path class="cls-3" transform="rotate(-8.1 310.541 202.965)" d="M298.8 194.4h13.74v2.05H298.8z"/><path class="cls-3" transform="rotate(-7.64 344.65 190.296)" d="M317.09 189.19h54.79v2.05h-54.79z"/><path class="cls-3" transform="rotate(-7.64 317.607 198.795)" d="M299.35 197.71h36.24v2.05h-36.24z"/><path class="cls-3" transform="rotate(-7.65 344.911 194.933)" d="M338.26 194H352v2.05h-13.74z"/><path class="cls-3" transform="rotate(-7.64 363.98 192.564)" d="M355.24 191.49h17.11v2.05h-17.11z"/><path class="cls-3" transform="rotate(-7.64 321.83 203.138)" d="M299.96 202.05h43.34v2.05h-43.34z"/><path class="cls-3" transform="rotate(-8.1 365.994 206.076)" d="M346.88 196.91h26.17v2.05h-26.17z"/><path class="cls-3" transform="rotate(-7.64 356.78 203.516)" d="M339.47 202.36h34.27v2.05h-34.27z"/><path class="cls-3" transform="rotate(-7.64 305.18 210.3)" d="M300.76 209.18h8.47v2.05h-8.47z"/><path class="cls-3" transform="rotate(-7.64 324.385 207.671)" d="M312.2 206.6h24.1v2.05h-24.1z"/><path class="cls-8" d="m414.17 283.74-108.07-10.4a4.65 4.65 0 0 1-4.21-5l2.58-28.09a4.65 4.65 0 0 1 5-4.21l108.07 10.4a4.63 4.63 0 0 1 3.44 2l10.07 15.09a4.64 4.64 0 0 1-.53 5.82l-12.64 13a4.7 4.7 0 0 1-3.71 1.39Z"/><path class="cls-9" d="m407.78 283.33-108.07-10.4a4.65 4.65 0 0 1-4.21-5.05l2.58-28.09a4.65 4.65 0 0 1 5.05-4.21L411.2 246a4.63 4.63 0 0 1 3.45 2.05l10.07 15.08a4.65 4.65 0 0 1-.54 5.82l-12.64 13a4.7 4.7 0 0 1-3.76 1.38Z"/><path class="cls-10" transform="rotate(-84.72 391.178 254.722)" d="M390.07 247.06h2.16v15.32h-2.16z"/><path class="cls-10" transform="rotate(-84.73 347.655 250.713)" d="M346.6 220.17h2.16v61.08h-2.16z"/><path class="cls-10" transform="rotate(-84.73 378.164 258.663)" d="M377.11 238.46h2.16v40.4h-2.16z"/><path class="cls-10" transform="rotate(-84.72 347.23 255.792)" d="M346.13 248.14h2.16v15.32h-2.16z"/><path class="cls-10" transform="rotate(-84.73 326.276 253.871)" d="M325.22 244.33h2.16v19.08h-2.16z"/><path class="cls-10" transform="rotate(-84.73 373.754 263.388)" d="M372.7 239.22h2.16v48.32h-2.16z"/><path class="cls-10" transform="rotate(-84.73 330.828 259.418)" d="M329.77 244.83h2.16V274h-2.16z"/><path class="cls-10" transform="rotate(-84.73 334.842 265.037)" d="M333.79 245.94h2.16v38.2h-2.16z"/><path class="cls-10" transform="rotate(-84.73 371.08 268.27)" d="M370.03 254.83h2.16v26.87h-2.16z"/><path class="cls-6" d="m306.84 317.58 70.39 16.72a3 3 0 0 0 3.63-2.23l4.25-17.77a3 3 0 0 0-2.22-3.63L312.51 294a3 3 0 0 0-2.54.54l-9.32 7.17a3 3 0 0 0-.88 3.68l5.06 10.61a3 3 0 0 0 2.01 1.58Z"/><path class="cls-7" d="m302.85 316.46 70.38 16.71a3 3 0 0 0 3.64-2.22l4.25-17.78a3 3 0 0 0-2.23-3.63l-70.38-16.71a3 3 0 0 0-2.53.54l-9.32 7.16a3 3 0 0 0-.88 3.69l5.06 10.6a3 3 0 0 0 2.01 1.64Z"/><path class="cls-3" transform="rotate(-76.48 329.626 305.604)" d="M328.7 293.48h1.84v24.25h-1.84z"/><path class="cls-3" transform="rotate(-76.48 347.774 309.97)" d="M346.86 305.38h1.84v9.19h-1.84z"/><path class="cls-3" transform="rotate(-76.48 360.03 312.923)" d="M359.11 307.2h1.85v11.45h-1.85z"/><path class="cls-3" transform="rotate(-76.48 330.91 310.41)" d="M329.99 295.91h1.85v29h-1.85z"/><path class="cls-3" transform="rotate(-76.48 356.061 316.46)" d="M355.15 307.71h1.84v17.51h-1.84z"/><path class="cls-3" transform="rotate(-76.48 352.388 320.167)" d="M351.47 308.71h1.84v22.93h-1.84z"/><path class="cls-3" transform="rotate(-76.48 331.174 314.969)" d="M330.26 306.91h1.85v16.12h-1.85z"/><path class="cls-5" d="M339.78 374.42h-.06a1.44 1.44 0 0 1-1.38-1.49l1.6-39a1.44 1.44 0 1 1 2.87.12l-1.59 39a1.44 1.44 0 0 1-1.44 1.37ZM339.73 415.77h-.07a1.43 1.43 0 0 1-1.36-1.51l.84-17.23a1.45 1.45 0 0 1 1.51-1.36 1.43 1.43 0 0 1 1.36 1.5l-.84 17.24a1.45 1.45 0 0 1-1.44 1.36Z"/><path class="cls-8" d="m372.74 368.62-62.91 4.8a3.09 3.09 0 0 1-3.33-2.83l-1.5-18.68a3.08 3.08 0 0 1 2.83-3.32l62.92-4.81a3.08 3.08 0 0 1 2.48 1l8.29 8.74a3.09 3.09 0 0 1 .31 3.87l-6.83 9.89a3.09 3.09 0 0 1-2.26 1.34Z"/><path class="cls-9" d="m368.51 369.07-62.91 4.81a3.09 3.09 0 0 1-3.32-2.84l-1.48-18.67a3.09 3.09 0 0 1 2.83-3.33l62.92-4.8a3 3 0 0 1 2.48.95l8.29 8.74a3.08 3.08 0 0 1 .31 3.87l-6.81 9.94a3.09 3.09 0 0 1-2.31 1.33Z"/><path class="cls-10" transform="rotate(-4.19 354.584 352.673)" d="M350.04 351.82h9.1v1.93h-9.1z"/><path class="cls-10" transform="rotate(-4.19 328.514 354.456)" d="M310.6 353.71h36.27v1.93H310.6z"/><path class="cls-10" transform="rotate(-4.19 347.287 357.607)" d="M335.5 356.93h23.99v1.93H335.5z"/><path class="cls-10" transform="rotate(-4.19 328.76 358.982)" d="M324.52 358.28h9.1v1.93h-9.1z"/><path class="cls-10" transform="rotate(-4.19 316.408 359.899)" d="M310.96 359.19h11.33v1.93h-11.33z"/><path class="cls-10" transform="translate(-25.55 26.19)" d="M331.14 361.66h28.69v1.93h-28.69z"/><path class="cls-10" transform="rotate(-4.19 319.67 364.26)" d="M311.29 363.53h17.32v1.93h-17.32z"/><path class="cls-11" d="M297.24 422.33c1.64 1 4.07.78 5.86.42l.19-.08a29 29 0 0 1 4 2.18 12.08 12.08 0 0 0-4.46.9c-1.47.62-3.77 2.34-2.57 3.79 1.56 1.87 7.68-.47 10.19-2.35a35.7 35.7 0 0 1 4.84 5 11.81 11.81 0 0 0-4.38.36c-1.53.43-4 1.86-3 3.44 1.21 1.88 6.69.71 9.68-.71a58.42 58.42 0 0 1 3.29 5.56 11.85 11.85 0 0 0-4.15-.57c-1.59.07-4.35.9-3.72 2.67.75 2.12 6.42 2.2 9.65 1.48.9 1.92 1.67 3.62 2.44 5.44a12 12 0 0 0-4.55-1.46c-1.58-.16-4.44.24-4.08 2.08.46 2.4 7 3.29 10.11 2.82.45.58 1.63 0 1.52-.74-.07-.16-.14-.32-.2-.48a6.2 6.2 0 0 0 2.33-2.79 1.9 1.9 0 0 0 0 .35c.09 2.33 5.91 4.16 9.15 4.33a.84.84 0 0 0 1.29-.33 14.63 14.63 0 0 0 1.6-1.33 14.66 14.66 0 0 0 1.59 1.33.85.85 0 0 0 1.3.33c3.24-.17 9.06-2 9.14-4.33.07-1.88-2.82-1.84-4.36-1.44a11.78 11.78 0 0 0-3.86 1.85l.6-3a17.22 17.22 0 0 0 7.66-2.46 15.2 15.2 0 0 0 .36 3.26 6.49 6.49 0 0 0 2.78 4.19c-.06.16-.13.32-.2.48-.11.72 1.07 1.32 1.52.74 3.09.47 9.65-.42 10.11-2.82.36-1.84-2.5-2.24-4.08-2.08a12 12 0 0 0-4.55 1.46c.77-1.82 1.54-3.52 2.44-5.44 3.23.72 8.9.64 9.65-1.48.63-1.77-2.13-2.6-3.72-2.67a11.85 11.85 0 0 0-4.15.57 58.42 58.42 0 0 1 3.29-5.56c3 1.42 8.47 2.59 9.68.71 1-1.58-1.49-3-3-3.44a11.81 11.81 0 0 0-4.38-.36 35.7 35.7 0 0 1 4.84-5c2.51 1.88 8.64 4.22 10.19 2.35 1.2-1.45-1.1-3.17-2.57-3.79a12.08 12.08 0 0 0-4.46-.9 29 29 0 0 1 4.05-2.18l.19.08c1.79.36 4.22.58 5.86-.42a4.81 4.81 0 0 0 2-4.21.82.82 0 0 0-.47-.65 8.48 8.48 0 0 0-5.13.08c-1.83.63-2.75 2.17-3.55 3.82-1 .44-1.88.92-2.77 1.44a10.58 10.58 0 0 0 .46-3.15c0-1.07-.17-4.2-2-3.76-1.38.34-2.42 3.33-2.77 4.51a6.39 6.39 0 0 0 .46 5.09 37.38 37.38 0 0 0-4.48 4.33 10.14 10.14 0 0 0 0-2.86c-.15-1.06-.69-4.15-2.47-3.48-1.33.49-2 3.59-2.19 4.8a6.4 6.4 0 0 0 1.34 5.34.87.87 0 0 0-.09.63c-1 1.43-1.88 2.92-2.72 4.45l-.15.27a10.35 10.35 0 0 0-.65-3.12c-.39-1-1.62-3.89-3.2-2.83-1.18.78-1.12 3.95-1 5.17a6.38 6.38 0 0 0 2.52 4.9.84.84 0 0 0 0 .47c-.59 1.22-1.16 2.43-1.71 3.67a10.18 10.18 0 0 0-1-2.35c-.45-.8-1.72-2.86-3-2.64-.41-1.39-2.9-1.33-4.29-1a11.6 11.6 0 0 0-3.76 1.77q.77-3.57 1.62-7.11c3.13 0 9.45-1.91 9.54-4.34.06-1.88-2.82-1.84-4.36-1.43a11.91 11.91 0 0 0-4.28 2.15c.5-1.93 1-3.85 1.6-5.76 3.3.21 8.87-.74 9.29-2.95.35-1.84-2.51-2.23-4.09-2.06a11.78 11.78 0 0 0-4 1.19 59.77 59.77 0 0 1 2.39-6c3.18.94 8.77 1.26 9.67-.78.76-1.72-1.93-2.75-3.51-2.94a11.92 11.92 0 0 0-4.38.31 36.29 36.29 0 0 1 4-5.67c2.77 1.48 9.18 2.85 10.43.76 1-1.61-1.58-3-3.13-3.35a12 12 0 0 0-4.54-.2 28.28 28.28 0 0 1 3.67-2.78.59.59 0 0 0 .19.05c1.83.08 4.26-.07 5.73-1.31a4.85 4.85 0 0 0 1.32-4.47.82.82 0 0 0-.57-.57 8.42 8.42 0 0 0-5.05.87c-1.71.9-2.39 2.57-2.92 4.32-.87.58-1.71 1.2-2.51 1.85a10.68 10.68 0 0 0 0-3.19c-.18-1.05-.82-4.12-2.58-3.4-1.31.54-1.88 3.66-2 4.88a6.39 6.39 0 0 0 1.25 5 35.54 35.54 0 0 0-3.76 5 10.3 10.3 0 0 0-.44-2.83c-.31-1-1.32-4-3-3.06-1.23.7-1.41 3.86-1.42 5.09a6.42 6.42 0 0 0 2.15 5.07.81.81 0 0 0 0 .63q-1.11 2.35-2 4.82l-.09.29a10.6 10.6 0 0 0-1.14-3c-.53-.93-2.19-3.59-3.6-2.31-1 1-.49 4.08-.23 5.28a6.42 6.42 0 0 0 3.25 4.45.93.93 0 0 0 .09.52c-.4 1.28-.77 2.57-1.13 3.87a10.78 10.78 0 0 0-1.34-2.21c-.67-.84-2.71-3.22-3.91-1.74-.89 1.1.13 4.1.57 5.25a6.46 6.46 0 0 0 3.39 3.71q-.79 3.34-1.52 6.71a10.59 10.59 0 0 0-1.58-2.81l-.3-.37a2.23 2.23 0 0 0-.34-1.38 4.73 4.73 0 0 0-3.26 0 2.17 2.17 0 0 0-.34 1.38l-.31.37a10.59 10.59 0 0 0-1.58 2.81c-.48-2.24-1-4.48-1.52-6.71a6.46 6.46 0 0 0 3.39-3.71c.45-1.15 1.46-4.15.57-5.25-1.19-1.48-3.24.9-3.9 1.74a10.4 10.4 0 0 0-1.45 2.34c-.35-1.3-.73-2.59-1.12-3.87a.85.85 0 0 0 .08-.52 6.42 6.42 0 0 0 3.25-4.45c.26-1.2.81-4.32-.23-5.28-1.4-1.28-3.06 1.38-3.6 2.31a10.57 10.57 0 0 0-1.13 3c0-.1-.07-.19-.1-.29-.6-1.64-1.26-3.25-2-4.82a.86.86 0 0 0 0-.63 6.35 6.35 0 0 0 2.15-5.07c0-1.23-.18-4.39-1.42-5.09-1.66-.93-2.67 2-3 3.06a10.67 10.67 0 0 0-.43 2.83 37.16 37.16 0 0 0-3.76-5 6.43 6.43 0 0 0 1.24-5c-.16-1.22-.72-4.34-2-4.88-1.76-.72-2.4 2.35-2.58 3.4a10.36 10.36 0 0 0 0 3.19c-.8-.65-1.63-1.27-2.51-1.85-.53-1.75-1.21-3.42-2.91-4.32a8.46 8.46 0 0 0-5.06-.87.79.79 0 0 0-.56.57 4.82 4.82 0 0 0 1.31 4.47c1.47 1.24 3.9 1.39 5.73 1.31a.59.59 0 0 0 .19-.05 27.62 27.62 0 0 1 3.67 2.78 12 12 0 0 0-4.54.2c-1.55.39-4.09 1.74-3.13 3.35 1.25 2.09 7.67.72 10.43-.76a35.64 35.64 0 0 1 4 5.67 11.92 11.92 0 0 0-4.38-.31c-1.58.19-4.27 1.22-3.51 2.94.9 2 6.49 1.72 9.67.78a57.48 57.48 0 0 1 2.39 6 11.78 11.78 0 0 0-4-1.19c-1.58-.17-4.44.22-4.09 2.06.42 2.21 6 3.16 9.3 2.95q.84 2.86 1.59 5.76a11.91 11.91 0 0 0-4.28-2.15c-1.54-.41-4.42-.45-4.35 1.43.08 2.43 6.41 4.31 9.54 4.34.57 2.36 1.1 4.73 1.62 7.11a11.7 11.7 0 0 0-3.76-1.77c-1.47-.38-4.13-.43-4.34 1.17a7.13 7.13 0 0 0-2 2.43 10.18 10.18 0 0 0-1 2.35c-.55-1.24-1.12-2.45-1.71-3.67a.84.84 0 0 0 0-.47 6.38 6.38 0 0 0 2.52-4.9c.08-1.22.14-4.39-1-5.17-1.58-1.06-2.81 1.83-3.2 2.83a10.35 10.35 0 0 0-.65 3.12l-.15-.27c-.84-1.53-1.75-3-2.72-4.45a.83.83 0 0 0-.1-.63 6.37 6.37 0 0 0 1.35-5.34c-.2-1.21-.86-4.31-2.19-4.8-1.78-.67-2.32 2.42-2.47 3.48a10.14 10.14 0 0 0 0 2.86 37.38 37.38 0 0 0-4.48-4.33 6.43 6.43 0 0 0 .46-5.09c-.35-1.18-1.39-4.17-2.77-4.51-1.85-.44-2 2.69-2 3.76a10.26 10.26 0 0 0 .46 3.15c-.89-.52-1.81-1-2.77-1.44-.8-1.65-1.72-3.19-3.55-3.82a8.48 8.48 0 0 0-5.13-.08.82.82 0 0 0-.47.65 4.81 4.81 0 0 0 1.84 4.16Zm45 22.37-.2-.19c.06-.08.13-.15.2-.23.06.08.13.15.2.23a1.8 1.8 0 0 0-.17.19Zm-11.87 4.19a7.92 7.92 0 0 0 .31-1 17.93 17.93 0 0 0 .36-2.71 18.42 18.42 0 0 0 6.78 1.91c.2 1 .41 2 .6 3a11.78 11.78 0 0 0-3.86-1.85c-1.27-.39-3.56-.46-4.16.65Z"/><path class="cls-11" d="M395.25 453.49c2.93-1.4.59-5.19-1.69-4.59a12.15 12.15 0 0 0-.53-4.76.75.75 0 0 0-.91-.52 37.63 37.63 0 0 0-9 4.28 4 4 0 0 0-2.91-3.34c-3-.9-5.22 1.5-6.82 3.79a11.15 11.15 0 0 0-.74-1.52.75.75 0 0 0-1-.27l-.68.51c1.09-3.15 1.79-7.14-1.21-8-3.16-.95-5.94 2.46-7.88 5.81a3.64 3.64 0 0 0-3.13-3.75c-3.46-.61-4.79 3.71-5.38 7a15.24 15.24 0 0 0-1.73-2.17.76.76 0 0 0-1.17.15 7.84 7.84 0 0 0-.81 1.48c-1.39-2.92-3.67-6.51-6.65-6.77-3.3-.28-4.66 4.84-5.66 7.92a3.94 3.94 0 0 0-4.94-.15 4.89 4.89 0 0 0-4.35-3.61 5.31 5.31 0 0 0-4.95 2.72c-.82-4.55-.95-8.74-4.51-11.88a2.37 2.37 0 0 0-3.44.28c-2.66 4.38-3.19 8.57-3.58 13.6a34.56 34.56 0 0 0-3.59-4.81.77.77 0 0 0-.91-.11 11.77 11.77 0 0 0-4.23 4.39c-.71-1.84-2.28-3.3-4.5-2.94a3.9 3.9 0 0 0-3 2.57 64.61 64.61 0 0 0-5.38-7.37c-1.33-1.58-3.1-3.71-5.4-2.63-3.53 1.67-2.74 6-1.12 9.45-3-2.26-6.75-4.4-8.86-2.11-2.32 2.53-.33 5.21 1.72 7.41Z"/><path class="cls-12" d="M354.1 452.18a12 12 0 0 1-1.29 1.18h-36.39c-.61-2-1-4.16-.19-5.95a3.63 3.63 0 0 1 4-2.26 87.09 87.09 0 0 1-2.44-9.12c-.29-1.61-.55-3.58.63-4.93 1.86-2.14 3-.76 4.17.77-.51-4.34 1.52-9.36 6.28-10a4.31 4.31 0 0 1 .6 0c5.27-.11 5.93 7.8 5.93 13v1l.21-.11a3.33 3.33 0 0 1 2.89 0c2.26 1.05 2.77 3.5 2.83 5.8 1.85-1.21 4-2.17 6.17-1.38 2.51.92 2.29 3.54 4.75 4.28 1.64.49 2.72.47 3.46 2.41s-.33 3.94-1.61 5.31Z"/><path class="cls-11" d="M328.85 421.91c-4.76.6-6.79 5.62-6.28 10-1.14-1.53-2.31-2.91-4.17-.77-1.18 1.35-.92 3.32-.63 4.93a87.09 87.09 0 0 0 2.44 9.12 3.63 3.63 0 0 0-4 2.26c-.8 1.79-.42 4 .19 5.95h3.51c-.33-3.62.83-5.51 3.46-5.67a.82.82 0 0 0 .57-1 35.86 35.86 0 0 1-1.57-5.38c-.15-1.23-.63-5.14 1.32-3.35a.82.82 0 0 0 1.36-.8c-1.42-5.53-.38-11 4.11-14.71a.61.61 0 0 0 .27-.58 4.31 4.31 0 0 0-.58 0ZM333.49 442.69c0 .28-.18.6-.5.5-4.51-1.45-2.31 5.32-1.58 6.74a23.43 23.43 0 0 0 2.23 3.43h-1c-1.73-2.37-3.27-4.95-3.29-7.95 0-2.43 1.13-3.62 3.28-3.16-.27-2.85.29-5.64 2.75-7.38v1l.21-.11c-2.14 1.65-2.46 4.32-2.1 6.93ZM351.54 447.43a1.26 1.26 0 0 0-.69-.82c-.22-.09-.57.05-.73 0-.77-.4-1.07-2.43-1.63-3.23a2.35 2.35 0 0 0-3.89-.23c-1.65 1.76-2.06 4.7-1.84 7 0 .52.86.52.81 0a9.73 9.73 0 0 1 .8-5.08c.62-1.32 1.87-3 3.41-1.27a6.39 6.39 0 0 1 .81 1.66 7.18 7.18 0 0 0 1.21 2.06.37.37 0 0 0 .21 0c.62.75.57 1.37-.16 1.86a6.7 6.7 0 0 1-1.89 1.32c-.47.23-.06.93.41.7 1.23-.65 3.63-2.29 3.17-3.97ZM338.94 440.59c-.33-1-1.8-2.85-2.95-1.81s-.5 3.13.26 4.15c.31.41 1 0 .7-.42a3.25 3.25 0 0 1-.7-2.24c0-.13 0-.47.1-.57a.91.91 0 0 1 .94-.1 2.18 2.18 0 0 1 .87 1.21c.17.49.96.28.78-.22ZM332.64 428.49c-.71-1.29-2.22-3.17-3.84-2.3-.46.25-.05.95.41.7 1.59-.85 3.1 2.66 3.32 3.54a7.89 7.89 0 0 1-.29 4.46c-.17.5.62.72.79.22a8.21 8.21 0 0 0-.39-6.62Z"/><path class="cls-12" d="M288.94 452.32a13 13 0 0 1-1.29 1.17h-36.4c-.61-2-1-4.16-.19-5.94a3.65 3.65 0 0 1 4-2.27 82.43 82.43 0 0 1-2.44-9.12c-.3-1.61-.56-3.57.63-4.93 1.86-2.14 3-.75 4.16.77-.5-4.34 1.52-9.35 6.28-10h.61c5.26-.1 5.92 7.81 5.92 13v1l.21-.1a3.3 3.3 0 0 1 2.89.05c2.27 1.05 2.77 3.49 2.83 5.8 1.85-1.21 4-2.17 6.17-1.38 2.52.91 2.29 3.53 4.75 4.27 1.64.5 2.72.47 3.47 2.42s-.32 3.94-1.6 5.26Z"/><path class="cls-11" d="M263.68 422c-4.76.61-6.78 5.62-6.28 10-1.14-1.52-2.3-2.91-4.16-.77-1.19 1.36-.93 3.32-.63 4.93a82.43 82.43 0 0 0 2.44 9.12 3.65 3.65 0 0 0-4 2.27c-.79 1.78-.42 4 .19 5.94h3.51c-.33-3.62.83-5.51 3.46-5.67a.82.82 0 0 0 .57-1 36.55 36.55 0 0 1-1.56-5.37c-.15-1.24-.63-5.14 1.32-3.36a.82.82 0 0 0 1.36-.8c-1.42-5.53-.39-11 4.11-14.7a.66.66 0 0 0 .27-.59h-.6ZM268.33 442.83c0 .27-.18.6-.51.49-4.5-1.45-2.31 5.33-1.57 6.75a24.7 24.7 0 0 0 2.22 3.42h-1c-1.72-2.36-3.26-4.95-3.29-7.95 0-2.42 1.14-3.61 3.28-3.16-.27-2.84.3-5.64 2.75-7.38v1l.21-.1c-2.14 1.64-2.42 4.31-2.09 6.93ZM286.37 447.56a1.21 1.21 0 0 0-.69-.82c-.22-.09-.56.06-.73 0-.76-.41-1.07-2.43-1.63-3.24a2.34 2.34 0 0 0-3.88-.23c-1.65 1.76-2.06 4.7-1.85 7 .05.52.86.52.82 0a9.61 9.61 0 0 1 .79-5.07c.63-1.33 1.88-3.05 3.42-1.28a6.73 6.73 0 0 1 .81 1.66 7 7 0 0 0 1.2 2.07.41.41 0 0 0 .22 0c.62.75.56 1.37-.17 1.86a6.88 6.88 0 0 1-1.89 1.31c-.47.23-.06.93.41.7 1.23-.64 3.67-2.27 3.17-3.96ZM273.78 440.73c-.34-1-1.8-2.85-2.95-1.82s-.5 3.14.25 4.15c.31.42 1 0 .71-.41a3.33 3.33 0 0 1-.71-2.25c0-.12 0-.46.11-.57a.94.94 0 0 1 .93-.1 2.22 2.22 0 0 1 .87 1.21c.17.5 1.01.28.79-.21ZM267.48 428.62c-.71-1.29-2.22-3.16-3.85-2.3-.46.25-.05 1 .42.71 1.58-.85 3.1 2.66 3.32 3.54a7.81 7.81 0 0 1-.3 4.46c-.16.5.63.71.79.21a8.21 8.21 0 0 0-.38-6.62Z"/><path class="cls-12" d="M443.25 451.9a15.4 15.4 0 0 1-1.74 1.59h-49.3c-.83-2.66-1.34-5.63-.27-8.05a5 5 0 0 1 5.41-3.07A113.37 113.37 0 0 1 394 430c-.4-2.17-.75-4.83.85-6.67 2.52-2.9 4.1-1 5.65 1-.69-5.88 2-12.67 8.51-13.49a7.94 7.94 0 0 1 .81-.06c7.13-.14 8 10.58 8 17.62v1.31l.29-.14a4.44 4.44 0 0 1 3.91.06c3.08 1.43 3.76 4.74 3.84 7.86 2.51-1.64 5.37-2.94 8.36-1.87 3.4 1.24 3.11 4.79 6.43 5.79 2.22.68 3.69.64 4.7 3.27s-.35 5.37-2.1 7.22Z"/><path class="cls-11" d="M409.05 410.89c-6.46.82-9.2 7.61-8.51 13.49-1.55-2.07-3.13-3.94-5.65-1-1.6 1.84-1.25 4.5-.85 6.67a113.37 113.37 0 0 0 3.31 12.36 5 5 0 0 0-5.41 3.07c-1.07 2.42-.56 5.39.27 8.05H397c-.44-4.9 1.13-7.47 4.68-7.68a1.11 1.11 0 0 0 .78-1.35c-.69-2.32-1.82-4.89-2.12-7.29-.2-1.66-.85-7 1.79-4.54a1.11 1.11 0 0 0 1.84-1.08c-1.92-7.49-.52-14.85 5.57-19.92a.85.85 0 0 0 .36-.8 7.94 7.94 0 0 0-.85.02ZM415.33 439c.05.38-.24.82-.68.68-6.1-2-3.13 7.21-2.13 9.13a32.88 32.88 0 0 0 3 4.64h-1.36c-2.33-3.2-4.42-6.7-4.45-10.77 0-3.28 1.54-4.89 4.44-4.27-.36-3.86.4-7.65 3.73-10v1.31l.29-.14c-2.89 2.3-3.32 5.93-2.84 9.42ZM439.78 445.46a1.7 1.7 0 0 0-.93-1.11c-.31-.12-.77.07-1-.05-1-.55-1.45-3.29-2.2-4.38a3.18 3.18 0 0 0-5.26-.31c-2.24 2.38-2.79 6.36-2.51 9.46.07.71 1.17.71 1.11 0a13.09 13.09 0 0 1 1.08-6.87c.84-1.79 2.54-4.12 4.62-1.72a8.8 8.8 0 0 1 1.1 2.24 9.59 9.59 0 0 0 1.63 2.8.71.71 0 0 0 .29 0c.84 1 .77 1.86-.22 2.52a9.27 9.27 0 0 1-2.56 1.78c-.64.31-.08 1.26.56.95 1.66-.77 4.97-3.03 4.29-5.31ZM422.72 436.2c-.45-1.31-2.44-3.86-4-2.46s-.67 4.25.35 5.62c.42.56 1.38 0 .95-.56a4.52 4.52 0 0 1-1-3c0-.17 0-.63.15-.77a1.26 1.26 0 0 1 1.27-.14 3 3 0 0 1 1.17 1.64c.28.63 1.39.34 1.11-.33ZM414.19 419.8c-1-1.74-3-4.29-5.21-3.11-.63.34-.07 1.29.56.95 2.15-1.15 4.2 3.6 4.5 4.8a10.73 10.73 0 0 1-.4 6c-.23.68.84 1 1.06.29a11.13 11.13 0 0 0-.51-8.93Z"/><path class="cls-13" d="m227.58 390.73 4.42.18 4.05-4.19-5.37-3.25-1.47 1.22-1.63 6.04z"/><path class="cls-8" d="M262.83 343a33.75 33.75 0 1 1 47.39-5.69 33.79 33.79 0 0 1-47.39 5.69Zm38.68-49.24a28.87 28.87 0 1 0 4.87 40.53 28.89 28.89 0 0 0-4.87-40.54Z"/><path class="cls-13" d="M226.6 389.1a8.48 8.48 0 0 1-1.43-11.9l15.73-20a8.48 8.48 0 0 1 11.9-1.43 8.48 8.48 0 0 1 1.43 11.9l-15.74 20a8.47 8.47 0 0 1-11.89 1.43Z"/><path class="cls-8" transform="rotate(38.16 246.195 364.153)" d="M242.89 333.88h6.6v60.55h-6.6z"/><path class="cls-13" d="m254.98 358.32-4.03-.18-2.44 9.27 3 .76 3.46-9.66.01-.19z"/><path class="cls-9" d="M258.8 342.81a33.75 33.75 0 1 1 47.39-5.69 33.78 33.78 0 0 1-47.39 5.69Zm38.68-49.24a28.87 28.87 0 1 0 4.87 40.53 28.9 28.9 0 0 0-4.87-40.53Z"/><path class="cls-9" transform="rotate(38.16 242.163 363.961)" d="M238.86 333.7h6.6v60.55h-6.6z"/><path d="M222.56 388.92a8.47 8.47 0 0 1-1.42-11.92l15.73-20a8.47 8.47 0 0 1 11.9-1.42 8.46 8.46 0 0 1 1.42 11.89l-15.73 20a8.48 8.48 0 0 1-11.9 1.45Z" style="fill:#f26e4b"/><path d="M308.48 317.54a28.86 28.86 0 1 1-27.56-30.1 28.86 28.86 0 0 1 27.56 30.1Z" style="opacity:.6;fill:#fff"/><path class="cls-7" d="M416.8 325.6c-10-4.45-16.26-16.91-14.63-30.66s10.55-24.25 21.18-26.34l.12-1 6.07.73c13.19 1.56 22.31 16 20.38 32.25s-14.18 28.15-27.37 26.58l-5.87-.54Z"/><path class="cls-6" d="M396.09 294.21c-1.93 16.25 7.4 30.87 20.59 32.44s25.24-10.51 27.17-26.76-7.2-30.69-20.38-32.26S398 278 396.09 294.21Z"/><path class="cls-7" d="M400.36 294.73c-1.59 13.35 6.07 25.36 16.9 26.64s20.73-8.63 22.32-22-5.91-25.2-16.74-26.49-20.9 8.51-22.48 21.85Z"/><path class="cls-6" d="M422.55 285.36a8.74 8.74 0 0 1 2 .95 6.35 6.35 0 0 1 1.58 1.43 6.08 6.08 0 0 1 1 1.95 7.29 7.29 0 0 1 .35 2.49l-2.63-.5a5.28 5.28 0 0 0-.89-2.36 4 4 0 0 0-1.91-1.39l-1.39 7.33c.48.33 1 .65 1.44 1a16 16 0 0 1 1.35 1 11.39 11.39 0 0 1 1.16 1.14 6.38 6.38 0 0 1 .86 1.28 4.8 4.8 0 0 1 .39 3.13 5.67 5.67 0 0 1-1.05 2.48 6 6 0 0 1-1.82 1.58 7.08 7.08 0 0 1-2.28.78 10 10 0 0 1-2.43.11l-.69 3.67-2.66-.51.71-3.73a7.06 7.06 0 0 1-2-1.32 8.08 8.08 0 0 1-1.54-1.93 9.41 9.41 0 0 1-1-2.4 10.18 10.18 0 0 1-.27-2.72l2.79.53a7.45 7.45 0 0 0 .15 1.65 6.67 6.67 0 0 0 .48 1.47 4.74 4.74 0 0 0 .8 1.2 4 4 0 0 0 1.1.86l1.51-8c-.67-.47-1.32-.95-1.93-1.44a9.62 9.62 0 0 1-1.59-1.6 5.91 5.91 0 0 1-1-1.88 4.82 4.82 0 0 1-.06-2.28 4.74 4.74 0 0 1 .85-2 5.76 5.76 0 0 1 1.55-1.44 6.91 6.91 0 0 1 2-.87 8.66 8.66 0 0 1 2.34-.23l.44-2.35 2.66.5Zm-6.66 4.45a2.44 2.44 0 0 0 0 1.11 3.15 3.15 0 0 0 .44 1 5.07 5.07 0 0 0 .78.93 12.26 12.26 0 0 0 1.07.88l1.19-6.28a3.89 3.89 0 0 0-2.38.63 2.64 2.64 0 0 0-1.1 1.73Zm7.21 12.57a2.21 2.21 0 0 0-.09-1.14 4 4 0 0 0-.64-1.09 7.51 7.51 0 0 0-1-1c-.39-.33-.81-.65-1.24-1l-1.34 7.08a5.19 5.19 0 0 0 1.6-.15 4.67 4.67 0 0 0 1.3-.58 3.3 3.3 0 0 0 1.42-2.13Z"/><path class="cls-7" d="M284 168.18c6.08-4.62 8.37-14.1 5.07-23.2s-11-14.82-18.6-14.55l-.23-.64-4 1.46c-8.73 3.16-12.64 14.44-8.74 25.19s14.13 16.9 22.86 13.74l3.91-1.31Z"/><path class="cls-6" d="M293.05 143.52c3.9 10.75-.12 22.18-8.84 25.35s-18.85-3.14-22.75-13.89 0-22 8.74-25.19 18.96 2.98 22.85 13.73Z"/><path class="cls-7" d="M290.24 144.56c3.2 8.82-.1 18.21-7.27 20.81s-15.48-2.57-18.69-11.4 0-18.1 7.18-20.69 15.54 2.45 18.78 11.28Z"/><path class="cls-6" d="M275.46 141a6.48 6.48 0 0 1 1.51-.17 4.67 4.67 0 0 1 1.48.27 4.19 4.19 0 0 1 1.33.77 5 5 0 0 1 1.13 1.34l-1.74.68a3.78 3.78 0 0 0-1.4-1.07 2.85 2.85 0 0 0-1.65-.12l1.89 4.86 1.22.05a11.41 11.41 0 0 1 1.19.12 9.3 9.3 0 0 1 1.1.24 4.58 4.58 0 0 1 1 .44 3.2 3.2 0 0 1 .81.7 3.45 3.45 0 0 1 .59 1 4 4 0 0 1 .3 1.86 4.21 4.21 0 0 1-.5 1.61 4.74 4.74 0 0 1-1.06 1.31 7.05 7.05 0 0 1-1.39 1l.94 2.44-1.76.68-1-2.47a4.85 4.85 0 0 1-1.7 0 5.37 5.37 0 0 1-1.63-.57 6.44 6.44 0 0 1-1.46-1.07 6.77 6.77 0 0 1-1.17-1.51l1.85-.72a5 5 0 0 0 .7.92 4.42 4.42 0 0 0 .82.7 3.76 3.76 0 0 0 .92.41 3 3 0 0 0 1 .11l-2.06-5.28c-.57 0-1.13-.07-1.67-.14a6.3 6.3 0 0 1-1.54-.36 4 4 0 0 1-1.27-.76 3.26 3.26 0 0 1-.88-1.32 3.39 3.39 0 0 1-.24-1.49 4 4 0 0 1 .39-1.43 4.71 4.71 0 0 1 .89-1.27 5.82 5.82 0 0 1 1.29-1l-.61-1.56 1.77-.69Zm-2.3 5.11a1.82 1.82 0 0 0 .42.65 2.59 2.59 0 0 0 .63.43 4.28 4.28 0 0 0 .81.26 7 7 0 0 0 1 .12l-1.62-4.16a2.76 2.76 0 0 0-1.18 1.26 1.85 1.85 0 0 0-.06 1.39Zm8.93 4.77a1.45 1.45 0 0 0-.48-.64 2.88 2.88 0 0 0-.78-.41 5.63 5.63 0 0 0-1-.23 9.81 9.81 0 0 0-1.09-.11l1.83 4.69a3.7 3.7 0 0 0 .89-.69 2.92 2.92 0 0 0 .56-.82 2.36 2.36 0 0 0 .21-.89 2.31 2.31 0 0 0-.14-.95Z"/><path class="cls-16" d="M207.94 435.57c-.81-1-9.53-.16-9.62.36-.26 1.61-.68 7.76.15 8.57s8.34 2.5 8.51.95c.15-1.35 1.74-8.9.96-9.88Z"/><path class="cls-8" d="M197.86 442.62s-4 5.77-1.15 10.3c0 0 21 1 27.34 0 0 0 .17-7.74-5.27-8.4a99.82 99.82 0 0 0-11.56-.57s-5.41 2.96-9.36-1.33Z"/><path class="cls-16" d="M160.24 435.61c-.81-1-8.28-.2-8.37.32-.27 1.61-.68 7.76.15 8.57s7.37 3.35 7.54 1.79c.15-1.29 1.44-9.71.68-10.68Z"/><path class="cls-17" d="M198.09 360.9c1 12.36.08 37.27-.91 49.62-.06.84-.06 29.54-.06 29.54l11.61 1.1c6.33-18.86 18.4-61.16 18.4-79.94s-1.62-50.07-8.52-64.92c-6.56-14.11-32.45 5.38-35.49 8.84-1.41 1.6 1.25 15.89 4.93 25.36 4.27 10.97 9.51 23.76 10.04 30.4Z"/><path class="cls-18" d="m197.12 440.06 7.17.68c-.66-4.51 0-14.56.25-19.15.47-8 2.44-15.79 4.3-23.54 2.93-12.3 5.72-25.32 2.24-37.82-1.8-6.42-5.74-10.89-8.94-16.56a22.45 22.45 0 0 1-2.88-12.54c.17-2.39 1.66-5.41.85-7.8-1-3-10.05-13.25-12.37-11.71-2.79 1.88-1.38 9.14-2.51 12.52 4.27 11 12.33 30.12 12.86 36.76 1 12.36-1.05 37.17-1.73 49.54s.76 29.62.76 29.62Z"/><path class="cls-17" d="m151 440.06 10.32 1.1c5.38-17.79 19.76-48.18 21.87-66.84 3.28-29 7.24-60 7.42-67.65v-1.87c-7.1-8.64-19.12-12.16-24.48-12.8-2.12-.26-3.66.16-4.33 1.27a81.94 81.94 0 0 0-5.2 10.16c-8.6 20.57-1.35 32.91-1.51 59.57 0 1.54 0 3.12-.06 4.68-.28 11 2.7 24.62-.47 36.14-6.22 22.63-3.56 36.24-3.56 36.24Z"/><path class="cls-18" d="m151 440.06 2.35.22a199.73 199.73 0 0 1 .74-20.62c1-9.48 3.68-18.38 7-27.31 5.26-14.4 8.8-28.61 7.79-44.09-.56-8.42-3.22-16.23-4.39-24.49-.75-5.34.36-10.46 1.2-15.64a49.32 49.32 0 0 0 .78-8.95c-.08-2.49-9.78-.5-9.78 3.6-8.64 20.52-1.37 33.56-1.53 60.25 0 1.54 0 3.12-.06 4.68-.26 11-.66 23.58-2.45 35.4-4.38 28.42-1.65 36.95-1.65 36.95Z"/><path class="cls-8" d="M151.4 442.62s-4 5.77-1.15 10.3c0 0 21 1 27.35 0 0 0 .16-7.74-5.27-8.4s-12.41-.95-12.41-.95-4.57 3.34-8.52-.95Z"/><path class="cls-13" d="M208 216.16s15.89 12.33 25.94 45.21L208 267.23l-.26-32.63Z"/><path class="cls-19" d="M223.8 305.22c-.31 1-12.5 5.18-24.61 7-13.93 2.15-36.13-3.21-41.85-4.29-2.34-.44-3.85-1.07-4.2-1.82-1.11-2.38 2.71-25.57 2.25-41-.08-3-.14-6-.14-9-.09-15.5 1-30 4.51-32.71.79-.62 1.71-1.27 2.73-2s1.82-1.21 2.87-1.82c.77-.46 1.58-.92 2.44-1.36a49.61 49.61 0 0 1 10.92-4.21 45.22 45.22 0 0 1 21.81-.34 44.79 44.79 0 0 1 6 1.8c.48.16 1 .35 1.47.54 6.85 2.76 5.86 17.67 4.76 30.18-.5 5.81-1 11.09-.82 14.39a30.06 30.06 0 0 0 .42 3.3c1.58 9.35 10.29 34.64 11.44 41.34Z"/><path class="cls-16" d="M194.69 206v6.7s1.59 2.9 0 3.22c-3.48.7-8.5-3.22-8.5-3.22v-10.25Z"/><path d="M186 207.65v-4.52s3.76 4.79 7.94 5c.06.03-4.46 1.87-7.94-.48Z" style="fill:#d47363"/><path class="cls-16" d="M196 188.85a46.74 46.74 0 0 1 5.4 11.7c1.07 4.1-5.88 10.55-12.83 5.45s-6.34-14.3-6.34-14.3Z"/><path d="M178.22 198c-1.07 2 1.28 3.29 3.57 3.57a2.23 2.23 0 0 0 .37.5c0 2.33 1.73 4.5 4 2.72 3.38 2.68 7.49 4.86 12.32 2.68 2.11-.95 3.72-4.37 3.14-6.12-.73-2.22-4.06.27-5.5-1a1.13 1.13 0 0 0-1.53.06c-1.25 1.5-2.15 2.23-4.31 1.77a7.79 7.79 0 0 1-3-1.34c-.3-1.62-1.28-3.23-1.77-4.68-.14-.4-.63-2.1-1.08-3.48 5.42-.76 12.56-2.07 14.8-6.81 2-4.23-1.4-6.4-5-5.84-1.66-1.22-4.63-.64-5.44 1.36-1.29-.57-2.82-1-3.81.1a2 2 0 0 0-.57 1.54 2.26 2.26 0 0 0-1.34.29 3.38 3.38 0 0 0-1.49 1.55c-1.64-.54-3.5 1.7-3 3.77a3 3 0 0 0-.64 4.05 3.3 3.3 0 0 0 .28 5.31Z" style="fill:#403864"/><path class="cls-13" d="M208.12 276.85s23.37 2.59 25.88-3.71c2.35-5.91-.18-13.15-3.21-21.24-2.34-6.26-21.9 12.64-21.9 12.64ZM196.83 263.79c-1.52 1.76-1.4 12.45-3.76 12.64-13.16 1.1-19.61-13.12-20.82-11.8-.5.52-.61 3.74-.77 4.63a169 169 0 0 1-4.56 19.2c-.19.6-.4 1.36-.67 2a65.14 65.14 0 0 0 2.55 7.92 5.84 5.84 0 0 0 .67 1.19c-5.89 3.43-11.45 6.29-12.13 8.4-2.34-.44-3.85-1.07-4.2-1.82-1.11-2.38 2.71-25.57 2.25-41-.08-3-.14-6-.14-9-.09-15.5 1.05-26.16 3.64-31.73.43-.92 2.58-2.25 3.6-2.94s1.82-1.21 2.87-1.82c7.37-2.25 17.12 2.05 21.19 8.11 2.84 4.19 18.49 26.37 18.7 27 1.5 4.72-5.48 5.7-8.42 9.02Z"/><path class="cls-16" d="M203.4 217.1c.68-.94-1-4.58-1.34-5.53-.37-1.15.44-5-.65-5.95-1.46-1.21-.7 2.75-1.8 2.32-.39-.15-.59-6.06-2.18-3.62-.35.54-.33 3.72-1 2.81-.22-1.32 0-4.23-1.29-4-.62.12-.68 1.9-.61 2.74.29 3.26 0 2-.31-.79-.15-1.45-1.09-1.42-1.57.1-1 3.15.56 6.83 2.72 8.79.88.84 5.08 7.19 8.03 3.13Z"/><path class="cls-16" d="M195.06 212.79c-.4-.26-.93-.39-1.36-.63a3.65 3.65 0 0 0-1.67-.53c-.92 0-.64.86-.19 1.32.82.85 3.52 1.4 4.63 1.62a6.4 6.4 0 0 0-1.41-1.78Z"/><path class="cls-19" d="M211.73 276.63c17.82-4-7-61.09-7-61.09l-6 2.75c-.35.57 9.77 40.73 5 39.16-2.08-.69-17-27.14-26.1-32.92a22.69 22.69 0 0 0-13-3.35c-5.23.08-7.81 5.18-7 10.33 1.7 10.45 9.43 25.2 19.62 35.81 11.23 11.68 19.11 12.8 34.48 9.31Z"/><path class="cls-16" d="M202.36 278.68a.39.39 0 0 0 .12-.3 1.69 1.69 0 0 0 1.24.63c.59-.07.86-.68 1.07-1.15a.08.08 0 0 0 0-.07c.68.87 1.56 1.55 2.49 1.2s1-1.19.82-2.14a5.11 5.11 0 0 0 .86.77c1.2.82 2.25-.4 2.32-1.59a8 8 0 0 0-1.38-3.3 5.14 5.14 0 0 0-1.6-1.86c-1.22-.58-1.59.95-1.68 2-.42-1-1.06-1.77-2.19-1.11a2.38 2.38 0 0 0-1.17 1.93 3.09 3.09 0 0 0-1.05-1c-1.06-.58-1.64.75-1.73 1.61a3.66 3.66 0 0 0 .09 1.2.73.73 0 0 0-.25-.08c-.74-.06-1.11 1-1.14 1.57a1.94 1.94 0 0 0 3.18 1.69Z"/><path class="cls-8" d="M149.72 158s.54 16.42 19.05 18.14l-10.68-19.34a40.32 40.32 0 0 0-8.37 1.2Z"/><path class="cls-8" d="M163.3 157.56a87.12 87.12 0 0 1-39.74-4.85c-23.18-8.9-30.67-25.71-16.73-37.56 7.48-6.36 19.61-10 32.84-10.62-11.15 1.23-21.13 4.69-27.62 10.2-13.94 11.85-6.45 28.67 16.74 37.56a86.46 86.46 0 0 0 34.51 5.27Z"/><path class="cls-9" d="M179.28 109.39a86.85 86.85 0 0 0-39.61-4.86c-11.15 1.23-21.13 4.69-27.62 10.2-13.94 11.85-6.45 28.67 16.74 37.56a86.46 86.46 0 0 0 34.51 5.27c13.17-.65 25.25-4.28 32.71-10.62 13.99-11.85 6.45-28.66-16.73-37.55Z"/><path class="cls-9" d="M153.71 157.44s-2.1 15.08 15.06 18.74c0 0-1.85-14.53 6.57-21.69Z"/><path class="cls-3" d="M171.65 130.55a4.48 4.48 0 1 0 4.76-4.18 4.48 4.48 0 0 0-4.76 4.18ZM150.56 130.55a4.48 4.48 0 1 0 4.76-4.18 4.49 4.49 0 0 0-4.76 4.18ZM129.47 127.85a4.48 4.48 0 1 0 4.76-4.18 4.49 4.49 0 0 0-4.76 4.18Z"/><path class="cls-7" d="M394.19 120.75a16.42 16.42 0 1 1 24.23 18.78c-4.14 2.52-7.71 6.27-9.12 10.91l-.14.47-12.7-3.84.12-.42c1.41-4.66.52-9.79-1.54-14.2a16.31 16.31 0 0 1-.85-11.7Z"/><path class="cls-9" d="M402.42 135.85s.23-3.71.68-7.3a41.74 41.74 0 0 1 .79-4.66 2.61 2.61 0 0 1-.77-.69c-1.94-2.41 1.35-5.24 1.49-5.36a.42.42 0 0 1 .5.1c.17.16.21.36.1.45-.87.74-2.84 3-1.56 4.6a1.73 1.73 0 0 0 .38.35c.59-2.16 1.13-2.09 1.44-2a1.37 1.37 0 0 1 1.07.72 1.72 1.72 0 0 1-1.4 2.11 1.74 1.74 0 0 1-.51 0 80 80 0 0 0-1.48 12c0 .17-.18.23-.38.16l-.14-.08a.49.49 0 0 1-.21-.4Zm3.23-13.91c-.28 0-.57.56-.85 1.53.74-.18 1.25-1 1.07-1.44a.51.51 0 0 0-.22-.09ZM410 138.45h-.16c-.21-.05-.32-.2-.23-.34a81.06 81.06 0 0 0 5.41-10.8 2 2 0 0 1-.41-.29 1.71 1.71 0 0 1 0-2.53 1.31 1.31 0 0 1 1.29 0c.28.13.77.37.07 2.5a1.61 1.61 0 0 0 .5-.09c2-.63 1.57-3.6 1.26-4.69 0-.14.1-.28.33-.32a.41.41 0 0 1 .47.2c.05.18 1.22 4.35-1.73 5.29a2.88 2.88 0 0 1-1 .14 43.92 43.92 0 0 1-1.93 4.32c-1.61 3.24-3.46 6.41-3.48 6.45a.47.47 0 0 1-.39.16Zm5.2-13.61a1.38 1.38 0 0 0 .09 1.79c.31-1 .38-1.59.14-1.74a.46.46 0 0 0-.19-.05Z"/><path class="cls-9" d="m402.55 135.45.48-.19a5.92 5.92 0 0 1 7.2 2.17l.29.43-3.84 12.7-8-2.4Zm7.12 2.54-.08-.13a5.17 5.17 0 0 0-6.26-1.89l-.14.06-3.51 11.61 6.48 2Z"/><path class="cls-9" d="m395.93 148 13.17 4a1 1 0 0 0 1.26-.68 1 1 0 0 0-.68-1.26l-13.17-4a1 1 0 0 0-1.27.68 1 1 0 0 0 .69 1.26Z"/><path class="cls-8" d="m396.05 150.13 11.76 3.55A1 1 0 0 0 409 153a1 1 0 0 0-.57-1.23l-11.77-3.55a1 1 0 0 0-1.16.71 1 1 0 0 0 .55 1.2Z"/><path class="cls-9" d="m395.46 152.07 11.76 3.56a1 1 0 0 0 1.16-.71 1 1 0 0 0-.57-1.23L396 150.13a1 1 0 0 0-1.16.71 1 1 0 0 0 .62 1.23Z"/><path class="cls-8" d="m394.87 154 11.76 3.55a1 1 0 0 0 1.16-.71 1 1 0 0 0-.57-1.23l-11.76-3.55a1 1 0 0 0-1.17.71 1 1 0 0 0 .58 1.23Z"/><path class="cls-9" d="m394.28 156 11.72 3.52a1 1 0 0 0 1.16-.71 1 1 0 0 0-.57-1.23L394.87 154a1 1 0 0 0-1.16.71 1 1 0 0 0 .57 1.29Z"/><path class="cls-8" d="m402.68 160.63-6.22-1.88a2 2 0 0 1-1.35-2.53l10.1 3.06a2 2 0 0 1-2.53 1.35Z"/><path class="cls-7" d="M415.85 105a1.17 1.17 0 0 1-.54-1.35l1.91-6.29a1.15 1.15 0 0 1 1.45-.78 1.17 1.17 0 0 1 .78 1.46l-1.9 6.28a1.17 1.17 0 0 1-1.46.78 1 1 0 0 1-.24-.1ZM404.58 103.85a1.23 1.23 0 0 1-.54-.7l-1.78-6.46a1.17 1.17 0 1 1 2.26-.62l1.78 6.45a1.18 1.18 0 0 1-1.72 1.33ZM394.93 110a1 1 0 0 1-.17-.12l-5.11-4.36a1.17 1.17 0 0 1 1.52-1.78l5.1 4.36a1.17 1.17 0 0 1-1.34 1.9ZM383.06 121.09a1.17 1.17 0 0 1 .88-2.14l5.38 1.38a1.17 1.17 0 1 1-.58 2.26l-5.38-1.37a1 1 0 0 1-.3-.13ZM426.63 110.52a1.42 1.42 0 0 1-.3-.25 1.17 1.17 0 0 1 .12-1.65l5.06-4.39A1.17 1.17 0 0 1 433 106l-5 4.39a1.18 1.18 0 0 1-1.37.13ZM431.26 121a1.16 1.16 0 0 1 .45-2.17l6.66-.81a1.17 1.17 0 0 1 .28 2.33l-6.67.8a1.18 1.18 0 0 1-.72-.15ZM429.73 135a1.17 1.17 0 0 1 1-2.11l5.25 1.83a1.17 1.17 0 0 1-.77 2.21l-5.25-1.84a.72.72 0 0 1-.23-.09Z"/></svg>