<svg xmlns="http://www.w3.org/2000/svg" viewBox="0 0 20 20">
  <g id="Layer_2">
    <g id="Layer_1-2">
      <path d="M20,5.81v8.38c0,2.81-1.29,4.74-3.56,5.47a6.86,6.86,0,0,1-2.25.34H5.81a6.86,6.86,0,0,1-2.25-.34C1.29,18.93,0,17,0,14.19V5.81C0,2.17,2.17,0,5.81,0h8.38C17.83,0,20,2.17,20,5.81Z" fill="#b2b1ff"/>
      <path d="M16.44 19.66a6.86 6.86 0 0 1-2.25.34H5.81a6.86 6.86 0 0 1-2.25-.34C3.91 17 6.67 15 10 15S16.09 17 16.44 19.66ZM13.58 9.58A3.58 3.58 0 1 1 10 6 3.58 3.58 0 0 1 13.58 9.58Z" fill="#6563ff"/>
    </g>
  </g>
</svg>
