<svg id="Icons" height="512" viewBox="0 0 60 60" width="512" xmlns="http://www.w3.org/2000/svg"><path d="m46.12 28.01-1.92-.64c-.38-2.03-1.17-3.92-2.3-5.55l.91-1.81c.25-.5.15-1.09-.24-1.48l-1.1-1.1c-.39-.39-.98-.49-1.48-.24l-1.81.91c-1.63-1.13-3.52-1.92-5.55-2.3l-.64-1.92c-.17-.53-.66-.88-1.21-.88h-1.56c-.55 0-1.04.35-1.21.88l-.64 1.92c-2.03.38-3.92 1.17-5.55 2.3l-1.81-.91c-.5-.25-1.09-.15-1.48.24l-1.1 1.1c-.39.39-.49.98-.24 1.48l.91 1.81c-1.13 1.63-1.92 3.52-2.3 5.55l-1.92.64c-.53.17-.88.66-.88 1.21v1.56c0 .55.35 1.04.88 1.21l1.92.64c.38 2.03 1.17 3.92 2.3 5.55l-.91 1.81c-.25.5-.15 1.09.24 1.48l1.1 1.1c.39.39.98.49 1.48.24l1.81-.91c1.63 1.13 3.52 1.92 5.55 2.3l.64 1.92c.17.53.66.88 1.21.88h1.56c.55 0 1.04-.35 1.21-.88l.64-1.92c2.03-.38 3.92-1.17 5.55-2.3l1.81.91c.5.25 1.09.15 1.48-.24l1.1-1.1c.39-.39.49-.98.24-1.48l-.91-1.81c1.13-1.63 1.92-3.52 2.3-5.55l1.92-.64c.53-.17.88-.66.88-1.21v-1.56c0-.55-.35-1.04-.88-1.21zm-16.12 11.99c-5.52 0-10-4.48-10-10s4.48-10 10-10 10 4.48 10 10-4.48 10-10 10z" fill="#272e68"/><path d="m54 45.02-.4 6.98c-.04.69-.87 1.02-1.36.53l-1.89-1.89c-5.24 5.18-12.42 8.36-20.35 8.36-16.02 0-29-12.98-29-29 0-2.44.3-4.81.87-7.07.26-1.07 1.37-1.72 2.44-1.44.9.23 1.49 1.04 1.49 1.94 0 .16-.02.33-.06.5-.48 1.94-.74 3.98-.74 6.07 0 13.79 11.21 25 25 25 6.82 0 13.01-2.75 17.52-7.19l-1.87-1.87c-.48-.48-.16-1.32.53-1.36l6.99-.4c.47-.03.86.36.83.84z" fill="#24bc8d"/><path d="m59 30c0 2.44-.3 4.81-.87 7.07-.26 1.07-1.37 1.72-2.44 1.44-.9-.23-1.49-1.04-1.49-1.94 0-.16.02-.33.06-.5.48-1.94.74-3.98.74-6.07 0-13.79-11.21-25-25-25-6.82 0-13.01 2.75-17.52 7.19l1.87 1.87c.48.48.16 1.32-.53 1.36l-6.99.4c-.47.03-.86-.36-.83-.84l.4-6.98c.04-.69.87-1.02 1.36-.53l1.89 1.89c5.24-5.18 12.42-8.36 20.35-8.36 16.02 0 29 12.98 29 29z" fill="#24bc8d"/><path d="m30 41c-6.065 0-11-4.935-11-11s4.935-11 11-11 11 4.935 11 11-4.935 11-11 11zm0-20c-4.963 0-9 4.037-9 9s4.037 9 9 9 9-4.037 9-9-4.037-9-9-9z" fill="#1b2051"/></svg>