<svg id="farm_scape" data-name="farm scape" xmlns="http://www.w3.org/2000/svg" xmlns:xlink="http://www.w3.org/1999/xlink" viewBox="0 0 2551.18 2551.18"><defs><style>.cls-1,.cls-15,.cls-16,.cls-18,.cls-21,.cls-24,.cls-26,.cls-27,.cls-29,.cls-30,.cls-31,.cls-33,.cls-34,.cls-38,.cls-40,.cls-44,.cls-45,.cls-46,.cls-47,.cls-48,.cls-52,.cls-54,.cls-55,.cls-58,.cls-60,.cls-61,.cls-65,.cls-8{fill:none;}.cls-2{fill:#66b3c6;}.cls-3{fill:#88c6d9;}.cls-4{clip-path:url(#clip-path);}.cls-5{fill:#588f3d;}.cls-6{fill:#4a870d;}.cls-7{fill:#d0d2d3;}.cls-8{stroke:#3c7780;}.cls-16,.cls-18,.cls-21,.cls-24,.cls-8{stroke-linejoin:bevel;}.cls-18,.cls-21,.cls-8{stroke-width:7.56px;}.cls-9{fill:#0e0f2d;}.cls-10{fill:#c44224;}.cls-11{fill:#784726;}.cls-12{fill:#6e3d1c;}.cls-13{fill:#bf304a;}.cls-14{fill:#971841;}.cls-15,.cls-24,.cls-38,.cls-44,.cls-45,.cls-47,.cls-52,.cls-54{stroke:#0e0f2d;}.cls-15,.cls-26{stroke-miterlimit:10;}.cls-15{stroke-width:5.33px;}.cls-16,.cls-21,.cls-26,.cls-27{stroke:#784726;}.cls-16,.cls-24{stroke-width:7.17px;}.cls-17{fill:#327646;}.cls-18{stroke:#848579;}.cls-18,.cls-34,.cls-40,.cls-48,.cls-54,.cls-55,.cls-58,.cls-60,.cls-61{stroke-linecap:round;}.cls-19{fill:#6b9c38;}.cls-20{fill:#0d6357;}.cls-22{fill:#ccc576;}.cls-23{fill:#8aa133;}.cls-25{fill:#235964;}.cls-26,.cls-27{stroke-width:3.78px;}.cls-28{fill:#1f5c74;}.cls-29,.cls-30,.cls-31{stroke:#1c4260;}.cls-29{stroke-width:6.34px;}.cls-30{stroke-width:5.04px;}.cls-31{stroke-width:3.52px;}.cls-32{fill:#74632c;}.cls-33,.cls-34{stroke:#6e3d1c;stroke-width:17.29px;}.cls-34,.cls-48,.cls-52,.cls-54,.cls-55,.cls-60,.cls-61{stroke-linejoin:round;}.cls-35{fill:#502908;}.cls-36{fill:#292940;}.cls-37{opacity:0.11;}.cls-38,.cls-51{stroke-width:7.65px;}.cls-39{fill:#36364a;}.cls-40{stroke:#971841;stroke-width:22.96px;}.cls-41{fill:#3c6983;}.cls-42{fill:#f8ecd4;}.cls-43{fill:#5a87a1;}.cls-44{stroke-width:18.9px;}.cls-45,.cls-48,.cls-52{stroke-width:10.29px;}.cls-46,.cls-48{stroke:#36364a;}.cls-46,.cls-47{stroke-width:17.15px;}.cls-49,.cls-51{fill:#e0a624;}.cls-50{fill:#cc9210;}.cls-51{stroke:#cc9210;}.cls-53{fill:#81a5a0;}.cls-54{stroke-width:16.04px;}.cls-55{stroke:#292940;stroke-width:15.38px;}.cls-56{fill:#e34033;}.cls-57{fill:#f7f3e8;}.cls-58{stroke:#bf7906;stroke-width:21.59px;}.cls-59{fill:#d38d10;}.cls-60{stroke:#676866;stroke-width:13.29px;}.cls-61{stroke:#bf304a;stroke-width:24.91px;}.cls-62{fill:#868d91;}.cls-63{fill:#676866;}.cls-64{fill:#c2c3ca;}.cls-65{stroke:#502908;stroke-width:48.6px;}</style><clipPath id="clip-path"><path class="cls-1" d="M2076.31,1800.45h0a325.09,325.09,0,0,1-270.58,320.48L1058.44,2248a331.57,331.57,0,0,1-360.63-196.93h0A222.48,222.48,0,0,0,493.12,1915.8h0c-122.87,0-222.48-99.61-222.48-222.48V579.54H2310.49v570.6A681.08,681.08,0,0,1,2183.67,1546l-46.83,65.58A325.08,325.08,0,0,0,2076.31,1800.45Z"/></clipPath></defs><title>plowing_scene_02</title><path class="cls-2" d="M2195.89,1208.74H361.24L435.9,544.87C459,339.59,651.53,197.11,854.59,235l910,170a472.22,472.22,0,0,1,381.92,406Z"/><path class="cls-3" d="M465.58,1208.74H2089.11l-29-233.33A322.88,322.88,0,0,0,1799,697.81L778.28,507.19c-123.68-23.1-240.95,63.68-255,188.71Z"/><g class="cls-4"><path class="cls-5" d="M2231.55,853.89l-28.77-8.11C2125.62,824,2043.1,829,1969.72,861.27a348.34,348.34,0,0,1-206.06,23.27,934.06,934.06,0,0,0-276.31-11.39L1470.19,875A2359.31,2359.31,0,0,1,916,869.26l-108.46-14a1650.22,1650.22,0,0,0-442.46,2.83,109.85,109.85,0,0,0-94.41,108.76v370.91H2310.49V958.16A108.34,108.34,0,0,0,2231.55,853.89Z"/><path class="cls-6" d="M2241.81,1027.29H1483.33l-124.87-35.57c-11.51-3.28-9.14-20.25,2.83-20.25h124.46A403.9,403.9,0,0,0,1603.19,954h0a404,404,0,0,1,154.92-15.7l45.33,4.23a194.14,194.14,0,0,0,94.54-14.9h0a194.1,194.1,0,0,1,122.56-10.19l221.27,54Z"/><path class="cls-6" d="M1207.86,942.79l-1.29-6.25a15.7,15.7,0,0,0-29.22-4.21l-6.85,12.86a16.21,16.21,0,0,1-26.11,3.49l-22.58-24a9,9,0,0,0-10.82-1.78,53.18,53.18,0,0,1-38.17,4.57A22.33,22.33,0,0,0,1047,939.85a7.41,7.41,0,0,1-13.17.62h0a40.54,40.54,0,0,0-34-20.36h0a40.55,40.55,0,0,0-27.08,9.38,36.82,36.82,0,0,1-37.07,6l-5.11-2a19.58,19.58,0,0,0-9.09-1.28v39.2c.62.06,1.24.09,1.88.09H1184.5A23.86,23.86,0,0,0,1207.86,942.79Z"/><path class="cls-6" d="M515,913.66h0A23.42,23.42,0,0,1,546,891.47l39.75,13.44v69.26H492.56v-38A22.47,22.47,0,0,1,515,913.66Z"/><path class="cls-7" d="M547.47,963.06h65.78V766.61a32.9,32.9,0,0,0-32.89-32.9h0a32.89,32.89,0,0,0-32.89,32.9Z"/><line class="cls-8" x1="613.25" y1="797.72" x2="547.47" y2="797.72"/><line class="cls-8" x1="613.25" y1="844.82" x2="547.47" y2="844.82"/><line class="cls-8" x1="613.25" y1="891.92" x2="547.47" y2="891.92"/><line class="cls-8" x1="613.25" y1="939.03" x2="547.47" y2="939.03"/><path class="cls-9" d="M561.47,778.16h0a4,4,0,0,1,4,4v192h-8v-192A4,4,0,0,1,561.47,778.16Z"/><path class="cls-10" d="M705.37,868.47l15.27-36,81.64-23.66L842,832.48l15.26,36,10,13v11.27L931.89,931V961.8H695.34V881.48Z"/><polygon class="cls-11" points="807.83 805.6 848.02 830.63 862.82 867.08 876.53 884.51 872.23 887.89 704.22 887.89 690.13 869.98 680 830.63 639.82 805.6 807.83 805.6"/><polygon class="cls-12" points="689.39 867.08 680 830.63 848.02 830.63 862.82 867.08 689.39 867.08"/><rect class="cls-13" x="763.88" y="930.99" width="168.01" height="41.48" transform="translate(1695.77 1903.47) rotate(180)"/><path class="cls-14" d="M587.93,868.47l14.61-36,37.29-23.66,38,23.66,14.61,36,9.61,13v11.27L763.88,931v41.48H578.32v-91Z"/><rect class="cls-9" x="631.78" y="855.73" width="16.54" height="31.55"/><path class="cls-7" d="M674.85,897.06H605.5v65.87h69.35Zm-50.65,39,11,21.4H613.17Zm11.86-33.55-11.86,23-11.85-23Zm1.7,7.22v42.11L626.92,930.8ZM621.49,930.8,611,951.23V910.36ZM668,902.52l-11.85,23-11.84-23Zm-11.85,33.55,11,21.4h-22Zm13.25-25.71v40.87L658.86,930.8Zm-26.8,41.49V909.74l10.84,21.06Z"/><polygon class="cls-9" points="649.99 814.33 610.08 839.65 595.71 875.04 581.47 893.22 576.13 887.89 577.17 884.52 590.88 867.08 605.53 830.98 605.67 830.64 640.14 808.77 649.99 814.33"/><polygon class="cls-7" points="585.54 867.08 600.2 830.98 600.34 830.64 639.22 805.98 639.82 805.6 680 830.63 694.8 867.08 708.52 884.51 704.22 887.89 690.13 869.98 675.61 834.33 639.85 812.05 604.74 834.32 590.38 869.71 576.13 887.89 571.83 884.52 585.54 867.08"/><path class="cls-7" d="M629.25,853.2v36.6h21.6V853.2Zm5.06,31.56V858.25H645.8v26.51Z"/><path class="cls-7" d="M714.59,921V963h21.6V921Zm5,36.89V926.06h11.49V957.9Z"/><rect class="cls-9" x="890.73" y="945.17" width="15.67" height="15.67" transform="translate(1797.13 1906.01) rotate(180)"/><path class="cls-7" d="M887.6,942.35V963h21.6v-20.6Zm5,15.55V947.4h11.49v10.5Z"/><rect class="cls-9" x="853.39" y="945.17" width="15.67" height="15.67" transform="translate(1722.45 1906.01) rotate(180)"/><path class="cls-7" d="M850.26,942.35V963h21.6v-20.6Zm5,15.55V947.4h11.5v10.5Z"/><polygon class="cls-11" points="936.08 930.38 937.05 930.97 934.17 935.62 766.16 935.62 699.74 888.12 867.75 888.12 936.08 930.38"/><polygon class="cls-9" points="876.91 893.78 707.66 893.78 699.74 888.12 867.75 888.12 876.91 893.78"/><polygon class="cls-7" points="768.07 930.38 769.04 930.97 766.16 935.62 696.88 892.77 699.74 888.12 768.07 930.38"/><rect class="cls-7" x="766.16" y="930.97" width="170.89" height="4.65" transform="translate(1703.21 1866.59) rotate(180)"/><rect class="cls-7" x="704.22" y="884.52" width="172.31" height="3.38" transform="translate(1580.75 1772.41) rotate(180)"/><line class="cls-15" x1="645.8" y1="882.17" x2="603.83" y2="882.17"/><line class="cls-15" x1="638.94" y1="863.72" x2="623.16" y2="882.17"/><line class="cls-15" x1="650.85" y1="805.6" x2="650.85" y2="779.75"/><line class="cls-15" x1="656.19" y1="779.75" x2="645.51" y2="779.75"/><line class="cls-16" x1="977.06" y1="902.1" x2="1023.07" y2="972.84"/><polyline class="cls-16" points="966.45 972.84 994.76 799.5 1023.07 972.84"/><path class="cls-17" d="M332.25,962.28a2337.51,2337.51,0,0,1,377.45-.81c66.37,5.23,132.88,8.47,199.45,8.47h117.62a33.88,33.88,0,0,0,28.77,33.49l32.8,5a2338.23,2338.23,0,0,0,407.09,0l151.16-13.24Q1843.32,977.91,2041,977.9h371.52v311.38H144.63V977.9Z"/><path class="cls-18" d="M563,1054.18H935.68a28.53,28.53,0,0,0,28.53-28.53h0a28.53,28.53,0,0,0-28.53-28.53H797.53a239.13,239.13,0,0,1-124.48-35h0"/><path class="cls-6" d="M1730.37,1097.31a34.39,34.39,0,0,1-34-34.49c0-18.87-14.35-34.31-33.23-34.31H1645a31.9,31.9,0,0,0-31.9,32.16c.05,6.41-3.47,12.51-9.42,14.89-11.48,4.6-22.41-3.74-22.41-14.62v-5.19c0-20.15-14.73-38.15-34.79-40.06a38.59,38.59,0,0,0-42.38,38.4v54.52c0,11.54-8.37,22-19.87,23a21.81,21.81,0,0,1-23.74-22.58c.66-17.27-11.54-32.21-28.83-32.21h-9.76c-14.91,0-26.71-11.64-26.77-26.06a22.17,22.17,0,0,0-22-22.28h0a28.05,28.05,0,0,0-28,28v14a37.61,37.61,0,0,1-37.61,37.61h0a29,29,0,0,0-29,29h0a29,29,0,0,0,29,29H1732.1a34,34,0,0,0,33.83-37.28l-.09-.89C1764.08,1109.92,1748.5,1097.54,1730.37,1097.31Z"/><path class="cls-6" d="M2254.09,1150.18H1984.18V1017.79l105.26,8.21a191.55,191.55,0,0,1,164.65,124.18Z"/><path class="cls-19" d="M776.27,1134.69l503.48-26a190.52,190.52,0,0,1,80.37,13.29h0c87.24,34.78,184.61,29.15,269-12.13,42.27-20.68,88.05-30.24,131.83-27,32.27,2.39,66.26-7.62,95.62-27.62,39-26.59,84.51-40,127.64-37.42h0c13.09,32.53,41.58,56.36,75.43,65.39h0a443.39,443.39,0,0,0,342-48l10.87-6.51v284.87l-342.81,44.09A2141,2141,0,0,1,1021.3,1229.86Z"/><path class="cls-19" d="M1126.87,1121.36a8.46,8.46,0,0,1-5.29,15.05h-659a5.94,5.94,0,0,1-5.92-5.49h0a5.93,5.93,0,0,1,4-6.06l55.26-19.15a38.85,38.85,0,0,1,34.66,4.64h0a38.81,38.81,0,0,0,29,6.15L615,1110a52.31,52.31,0,0,1,30.83,3.69h0a52.26,52.26,0,0,0,30.24,3.81l94.8-16.33a289.3,289.3,0,0,1,57.74-4.07h0a32.18,32.18,0,0,1,22.88,10.55,26.07,26.07,0,0,0,24.16,8.45l63.19-12.1a299.26,299.26,0,0,1,57.45-5.32h0a177.63,177.63,0,0,1,56,9.32,86,86,0,0,0,39.49,3.64h0A45.67,45.67,0,0,1,1126.87,1121.36Z"/><path class="cls-20" d="M1601.56,1145.36a8.46,8.46,0,0,1-5.29,15.05h-659a5.94,5.94,0,0,1-5.92-5.49h0a5.92,5.92,0,0,1,4-6.06l55.26-19.15a38.87,38.87,0,0,1,34.66,4.64h0a38.81,38.81,0,0,0,29,6.15l35.53-6.53a52.2,52.2,0,0,1,30.82,3.7h0a52.34,52.34,0,0,0,30.24,3.8l94.81-16.33a289.25,289.25,0,0,1,57.73-4.07h0a32.16,32.16,0,0,1,22.88,10.55,26.05,26.05,0,0,0,24.17,8.45l63.18-12.1a299.43,299.43,0,0,1,57.46-5.32h0a177.52,177.52,0,0,1,55.94,9.32,85.91,85.91,0,0,0,39.49,3.64h0A45.66,45.66,0,0,1,1601.56,1145.36Z"/><line class="cls-21" x1="2074.75" y1="1129.29" x2="2076.31" y2="1160.85"/><line class="cls-21" x1="2012.52" y1="1129.29" x2="2017.63" y2="1160.85"/><line class="cls-21" x1="1950.29" y1="1129.29" x2="1948.29" y2="1160.85"/><line class="cls-21" x1="1888.06" y1="1129.29" x2="1889.62" y2="1160.85"/><line class="cls-21" x1="1825.83" y1="1129.29" x2="1825.61" y2="1160.85"/><line class="cls-21" x1="1763.6" y1="1129.29" x2="1766.93" y2="1160.85"/><line class="cls-21" x1="1701.37" y1="1129.29" x2="1697.59" y2="1160.85"/><line class="cls-21" x1="1634.69" y1="1129.29" x2="1633.59" y2="1160.85"/><line class="cls-21" x1="1568.02" y1="1129.29" x2="1569.58" y2="1160.85"/><line class="cls-21" x1="1501.34" y1="1129.29" x2="1505.57" y2="1160.85"/><line class="cls-21" x1="1434.67" y1="1129.29" x2="1441.56" y2="1160.85"/><line class="cls-21" x1="1359.99" y1="1129.29" x2="1364.75" y2="1160.85"/><line class="cls-21" x1="1285.32" y1="1129.29" x2="1287.94" y2="1160.85"/><line class="cls-21" x1="1210.64" y1="1129.29" x2="1211.13" y2="1160.85"/><line class="cls-21" x1="1135.97" y1="1129.29" x2="1134.32" y2="1160.85"/><line class="cls-21" x1="1061.29" y1="1129.29" x2="1057.52" y2="1160.85"/><rect class="cls-22" x="1103.16" y="1170.13" width="353.55" height="29.41"/><path class="cls-23" d="M2072.67,1266.33c-83.64,34.45-177.84,36.47-261.57,2.24q-5.31-2.17-10.57-4.5h0a393.31,393.31,0,0,0-159.43-33.76h0a2631.54,2631.54,0,0,1-308.46-18.15A405.62,405.62,0,0,1,1162.87,1152l-21.28-13.5h0a146.89,146.89,0,0,1-113.79,19.32q-45.74-11-91.1-23.57l-26.76-7.44a66.11,66.11,0,0,1-52.34-42.4h0c-140.07,0-241.26-21.31-359.89-53.62a624,624,0,0,0-322.78-1.07l-30.3,8V1759H2412.49V1249.48c-27.39,3.09-57.12-.31-84.86-6.34-83.18-18.1-169.8-11.88-248.51,20.54Z"/><path class="cls-5" d="M1392.82,1517.9a125.64,125.64,0,0,0,113.06-70.85h0a125.63,125.63,0,0,1,113.06-70.85h416.6a277.19,277.19,0,0,0,164.55-54.13h0l24.64,4.9a426.12,426.12,0,0,0,187.76-4.9h0V1517.9Z"/><path class="cls-19" d="M796.82,1419.1h-3.38c-68.91,0-126.51-50.91-136.73-119a261,261,0,0,0-29-85.92,179.58,179.58,0,0,1-10.09-22,223.86,223.86,0,0,0-149.57,19.74c-35.05,18.07-75,24.43-113.44,15.43a288.37,288.37,0,0,0-210,31.37v370.86l.35-.1v-72.15h94.75c43,0,84.84-11.94,122.49-32.67a260.24,260.24,0,0,1,125.5-32.25H704.34a112.78,112.78,0,0,0,100.11-60.8A8.58,8.58,0,0,0,796.82,1419.1Z"/><path class="cls-17" d="M321.47,926.25l15.07-1.85c15.9-2,31.33,4.71,41.76,16.87A50.92,50.92,0,0,0,397.12,955h0a7.12,7.12,0,0,0,9.66-8.41l-2.1-7.8a17.26,17.26,0,0,1,17.94-21.68h0a17.38,17.38,0,0,1,8.32,2.88l29.59,19.85a11.86,11.86,0,0,0,18.15-7.1h0a11.87,11.87,0,0,1,21.85-3.14l28.7,50.15a12,12,0,0,1-11.06,17.93l-10.63-.57a1323.66,1323.66,0,0,0-211,5.34h0a6.49,6.49,0,0,1-5.65-10.64l12.55-15a20.3,20.3,0,0,0,2.64-22.09h0A19.85,19.85,0,0,1,321.47,926.25Z"/><path class="cls-22" d="M1439.33,1170.13h845.54a61.82,61.82,0,0,1,0,123.64H2135.08A471.74,471.74,0,0,0,1748.75,1495a501.18,501.18,0,0,1-410.43,213.85H771.52v-72.23h566.8c153.78,0,298.21-68.92,386.33-184.36,93.61-122.64,247-187.94,410.43-187.94h149.79a32.4,32.4,0,1,0,0-64.8H1439.33Z"/><path class="cls-20" d="M926.65,1468.76,684,1467.54l20.42-34.38a385.66,385.66,0,0,1,139.91-137.7,35.89,35.89,0,0,1,43.5,6h0a35.77,35.77,0,0,0,48.19,2.73l29.29-23.86A41.44,41.44,0,0,1,1004,1273h0a41.48,41.48,0,0,1,19.45,66l-9.64,11.66a64.93,64.93,0,0,0-14.76,45.9c1.74,25.4-10.07,49.78-32.37,62.06h0A82.18,82.18,0,0,1,926.65,1468.76Z"/><path class="cls-6" d="M973.89,1385.84l-3.73-18.1a45.43,45.43,0,0,0-84.59-12.17l-19.82,37.21a46.93,46.93,0,0,1-75.59,10.12l-65.38-69.41a26.14,26.14,0,0,0-31.31-5.16A154,154,0,0,1,583,1341.55a64.64,64.64,0,0,0-74.84,35.79,21.45,21.45,0,0,1-38.11,1.77h0a117.37,117.37,0,0,0-98.57-58.92h0a117.35,117.35,0,0,0-78.41,27.16,106.58,106.58,0,0,1-107.31,17.29L171,1358.82a56.38,56.38,0,0,0-26.33-3.68V1468.6c1.79.17,3.6.27,5.44.27H906.26A69.06,69.06,0,0,0,973.89,1385.84Z"/><path class="cls-19" d="M664.71,1143.5l-20.46-27c-10.12-13.33-10.57-31.14-2.58-45.85a41,41,0,0,0-29-59.92l-30.88-5.35C549.18,999.79,516.69,1012,494,1036a105.13,105.13,0,0,1-40.19,26.44h0c-9.34,9.34-24.91-.19-20.86-12.75l6.45-20c6.27-19.44-4.1-41.16-23.78-46.65a35.65,35.65,0,0,0-28,3.77L325,1024.48c-14.51,8.73-34.13.83-37-15.86-3.81-22.15-32.75-27.9-44.79-9.1L178.9,1100l-.23.37c-9.12,14.78,11.17,30.28,23.65,18.21l24.7-23.9A17,17,0,0,1,247.4,1092a99.28,99.28,0,0,0,70.93,11.92,41.65,41.65,0,0,1,47.12,25.29,13.83,13.83,0,0,0,24.49,2.28,75.68,75.68,0,0,1,120.87-9.07,45.3,45.3,0,0,0,48.76,13h0c20.64-7,43.64-3.55,60.74,10a42.16,42.16,0,0,1,8.1,8,41,41,0,0,0,18.05,14.45,15.64,15.64,0,0,0,16-2.88h0A15.78,15.78,0,0,0,664.71,1143.5Z"/><path class="cls-20" d="M900.82,1438.62a51.33,51.33,0,0,0-45.8,6.14,51.38,51.38,0,0,1-38.28,8.12l-46.94-8.63a69.14,69.14,0,0,0-40.73,4.88,69,69,0,0,1-40,5l-125.26-21.58a383,383,0,0,0-76.29-5.37,42.51,42.51,0,0,0-30.23,13.93c-8.13,9-20,13.45-31.93,11.18l-83.48-16a393.83,393.83,0,0,0-75.91-7h0a234.21,234.21,0,0,0-73.92,12.31,113.6,113.6,0,0,1-47.46,5.33v21.64c1.79.17,3.6.29,5.44.29H906.26a68.44,68.44,0,0,0,41.55-14Z"/><line class="cls-16" x1="1011.52" y1="902.1" x2="977.06" y2="902.1"/><line class="cls-16" x1="1011.52" y1="902.1" x2="985.72" y2="854.83"/><polyline class="cls-24" points="994.76 799.5 994.76 742.16 918.62 755.05"/><path class="cls-25" d="M978.53,742.69l-3.15,13-57.7,17.6a29.8,29.8,0,0,1-1.09-4.08,29,29,0,0,1,1.12-15,28.83,28.83,0,0,1-6.54-13.53,30,30,0,0,1-.48-4.19l60.13-4.8Z"/><polygon class="cls-7" points="984.98 702.92 996.54 721.26 986.05 727.35 972.49 709.34 984.98 702.92"/><polygon class="cls-7" points="1040.15 745.81 1018.31 746.87 1018.28 734.74 1040.84 731.79 1040.15 745.81"/><polygon class="cls-7" points="975.42 772.15 985.24 752.92 995.77 758.96 987.23 779.75 975.42 772.15"/><polygon class="cls-7" points="1027.25 770.21 1009.84 757.09 1017.62 747.78 1036.8 759.91 1027.25 770.21"/><polygon class="cls-7" points="960.74 748.78 980.63 740.47 984.8 751.86 964.89 762.19 960.74 748.78"/><polygon class="cls-7" points="1012.56 701.89 1009.63 723.48 997.68 721.4 998.86 698.78 1012.56 701.89"/><polygon class="cls-7" points="964.51 721.44 985.09 727.97 980.97 739.38 959.07 734.38 964.51 721.44"/><polygon class="cls-7" points="1034.35 718.83 1018.22 733.6 1010.41 724.32 1025.87 707.64 1034.35 718.83"/><polygon class="cls-7" points="1001.69 780.61 996.79 759.48 1008.73 757.35 1015.62 778.86 1001.69 780.61"/><path class="cls-26" d="M1001.93,738.58a2.53,2.53,0,1,0-.29,3.56A2.52,2.52,0,0,0,1001.93,738.58Z"/><line class="cls-27" x1="992.54" y1="722.59" x2="999.99" y2="740.17"/><line class="cls-27" x1="1007.45" y1="757.83" x2="999.99" y2="740.17"/><line class="cls-27" x1="981.01" y1="737.86" x2="999.99" y2="740.17"/><line class="cls-27" x1="1018.98" y1="742.57" x2="999.99" y2="740.17"/><line class="cls-27" x1="988.47" y1="755.48" x2="999.99" y2="740.17"/><line class="cls-27" x1="1011.53" y1="724.95" x2="999.99" y2="740.17"/><path class="cls-27" d="M1015.12,728.42a19.1,19.1,0,1,0-3.32,26.8A19.1,19.1,0,0,0,1015.12,728.42Z"/><path class="cls-28" d="M1507.83,816.38a33.16,33.16,0,0,1,0-32.94,38,38,0,0,0,4.92-18.87v-.13a24,24,0,0,1,47.9,0v.13a37.7,37.7,0,0,0,4.94,18.87,33.16,33.16,0,0,1,0,32.94,37.85,37.85,0,0,0-4.92,18.86v.14a24,24,0,0,1-47.9,0v-.14A37.77,37.77,0,0,0,1507.83,816.38Z"/><path class="cls-29" d="M1522.45,784.45a14.27,14.27,0,0,0,14.27,14.27"/><path class="cls-29" d="M1522.45,823a14.27,14.27,0,0,0,14.27,14.27"/><path class="cls-29" d="M1551,809.32a14.27,14.27,0,0,1-14.27,14.27"/><line class="cls-29" x1="1536.72" y1="777.85" x2="1536.72" y2="882.24"/><path class="cls-28" d="M2195.9,811a36,36,0,0,1,0-35.74,41.07,41.07,0,0,0,5.34-20.47v-.14a26,26,0,1,1,52,0s0,.09,0,.14a40.79,40.79,0,0,0,5.37,20.47,36,36,0,0,1,0,35.74,41,41,0,0,0-5.33,20.47.75.75,0,0,0,0,.15,26,26,0,0,1-52,0v-.15A40.79,40.79,0,0,0,2195.9,811Z"/><path class="cls-29" d="M2211.77,776.33a15.49,15.49,0,0,0,15.49,15.49"/><path class="cls-29" d="M2211.77,818.21a15.48,15.48,0,0,0,15.49,15.48"/><path class="cls-29" d="M2242.74,803.32a15.48,15.48,0,0,1-15.48,15.48"/><line class="cls-29" x1="2227.26" y1="769.18" x2="2227.26" y2="882.45"/><path class="cls-28" d="M1411.4,869.05a31.74,31.74,0,1,0,63.48,0c0-20.64-8.27-39.11-8.27-68.95a23.47,23.47,0,0,0-46.94,0C1419.67,829.94,1411.4,848.41,1411.4,869.05Z"/><line class="cls-30" x1="1443.14" y1="821.97" x2="1431.74" y2="821.97"/><line class="cls-30" x1="1443.14" y1="832.5" x2="1459.8" y2="832.5"/><line class="cls-30" x1="1443.14" y1="848.61" x2="1426.42" y2="848.61"/><line class="cls-30" x1="1443.14" y1="874.76" x2="1456.95" y2="874.76"/><line class="cls-30" x1="1443.14" y1="805.32" x2="1443.14" y2="920.51"/><path class="cls-28" d="M435,818.34a22.16,22.16,0,0,0,44.32,0c0-14.41-5.78-27.3-5.78-48.14a16.39,16.39,0,0,0-32.77,0C440.81,791,435,803.93,435,818.34Z"/><line class="cls-31" x1="457.2" y1="785.47" x2="449.24" y2="785.47"/><line class="cls-31" x1="457.2" y1="792.83" x2="468.82" y2="792.83"/><line class="cls-31" x1="457.2" y1="804.07" x2="445.52" y2="804.07"/><line class="cls-31" x1="457.2" y1="822.32" x2="466.84" y2="822.32"/><line class="cls-31" x1="457.2" y1="773.85" x2="457.2" y2="854.26"/><rect class="cls-32" x="239.02" y="1463.52" width="2267.86" height="901.44" transform="translate(2745.9 3828.47) rotate(180)"/><line class="cls-33" x1="277.59" y1="1488.8" x2="239.02" y2="1488.8"/><line class="cls-34" x1="727.91" y1="1488.8" x2="277.59" y2="1488.8"/><line class="cls-34" x1="911.92" y1="1488.8" x2="757.63" y2="1488.8"/><line class="cls-34" x1="1059.36" y1="1488.8" x2="953.07" y2="1488.8"/><line class="cls-34" x1="1649.11" y1="1488.8" x2="1085.65" y2="1488.8"/><line class="cls-34" x1="1703.97" y1="1488.8" x2="1684.54" y2="1488.8"/><line class="cls-34" x1="1994.28" y1="1488.8" x2="1733.69" y2="1488.8"/><line class="cls-34" x1="2276.58" y1="1488.8" x2="2033.14" y2="1488.8"/><line class="cls-34" x1="2316.58" y1="1488.8" x2="2305.15" y2="1488.8"/><line class="cls-34" x1="2463.66" y1="1488.8" x2="2347.44" y2="1488.8"/><line class="cls-33" x1="2506.87" y1="1488.8" x2="2463.66" y2="1488.8"/><line class="cls-33" x1="277.59" y1="1532.33" x2="239.02" y2="1532.33"/><line class="cls-34" x1="404.46" y1="1532.33" x2="277.59" y2="1532.33"/><line class="cls-34" x1="466.18" y1="1532.33" x2="450.18" y2="1532.33"/><line class="cls-34" x1="1791.98" y1="1532.33" x2="495.9" y2="1532.33"/><line class="cls-34" x1="2114.28" y1="1532.33" x2="1822.84" y2="1532.33"/><line class="cls-34" x1="2176" y1="1532.33" x2="2153.14" y2="1532.33"/><line class="cls-34" x1="2465.38" y1="1532.33" x2="2209.15" y2="1532.33"/><line class="cls-33" x1="2506.87" y1="1532.33" x2="2465.38" y2="1532.33"/><line class="cls-33" x1="277.59" y1="1575.85" x2="239.02" y2="1575.85"/><line class="cls-34" x1="667.33" y1="1575.85" x2="277.59" y2="1575.85"/><line class="cls-34" x1="1093.65" y1="1575.85" x2="705.05" y2="1575.85"/><line class="cls-34" x1="1310.8" y1="1575.85" x2="1131.36" y2="1575.85"/><line class="cls-34" x1="1834.27" y1="1575.85" x2="1348.52" y2="1575.85"/><line class="cls-34" x1="2463.66" y1="1575.85" x2="1876.55" y2="1575.85"/><line class="cls-33" x1="2506.87" y1="1575.85" x2="2463.66" y2="1575.85"/><line class="cls-33" x1="277.59" y1="1619.38" x2="239.02" y2="1619.38"/><line class="cls-34" x1="334.74" y1="1619.38" x2="277.59" y2="1619.38"/><line class="cls-34" x1="514.18" y1="1619.38" x2="369.03" y2="1619.38"/><line class="cls-34" x1="970.21" y1="1619.38" x2="548.47" y2="1619.38"/><line class="cls-34" x1="1661.68" y1="1619.38" x2="999.93" y2="1619.38"/><line class="cls-34" x1="2308.58" y1="1619.38" x2="1695.97" y2="1619.38"/><line class="cls-34" x1="2465.38" y1="1619.38" x2="2346.3" y2="1619.38"/><line class="cls-33" x1="2506.87" y1="1619.38" x2="2465.38" y2="1619.38"/><line class="cls-33" x1="275.88" y1="1662.91" x2="239.02" y2="1662.91"/><line class="cls-34" x1="894.78" y1="1662.91" x2="275.88" y2="1662.91"/><line class="cls-34" x1="1124.51" y1="1662.91" x2="931.35" y2="1662.91"/><line class="cls-34" x1="1870.84" y1="1662.91" x2="1163.37" y2="1662.91"/><line class="cls-34" x1="2065.14" y1="1662.91" x2="1908.56" y2="1662.91"/><line class="cls-34" x1="2465.38" y1="1662.91" x2="2099.43" y2="1662.91"/><line class="cls-33" x1="2506.87" y1="1662.91" x2="2465.38" y2="1662.91"/><line class="cls-33" x1="274.16" y1="1706.43" x2="239.02" y2="1706.43"/><line class="cls-34" x1="683.34" y1="1706.43" x2="274.16" y2="1706.43"/><line class="cls-34" x1="733.66" y1="1706.43" x2="716.52" y2="1706.43"/><line class="cls-34" x1="1274.23" y1="1706.43" x2="778.24" y2="1706.43"/><line class="cls-34" x1="1518.82" y1="1706.43" x2="1305.09" y2="1706.43"/><line class="cls-34" x1="1567.96" y1="1706.43" x2="1548.53" y2="1706.43"/><line class="cls-34" x1="2465.38" y1="1706.43" x2="1604.54" y2="1706.43"/><line class="cls-33" x1="2506.87" y1="1706.43" x2="2465.38" y2="1706.43"/><line class="cls-33" x1="274.16" y1="1749.96" x2="239.02" y2="1749.96"/><line class="cls-34" x1="365.03" y1="1749.96" x2="274.16" y2="1749.96"/><line class="cls-34" x1="1022.79" y1="1749.96" x2="404.47" y2="1749.96"/><line class="cls-34" x1="1162.22" y1="1749.96" x2="1067.36" y2="1749.96"/><line class="cls-34" x1="1734.83" y1="1749.96" x2="1196.51" y2="1749.96"/><line class="cls-34" x1="1978.28" y1="1749.96" x2="1786.26" y2="1749.96"/><line class="cls-34" x1="2244.58" y1="1749.96" x2="2012.56" y2="1749.96"/><line class="cls-34" x1="2467.09" y1="1749.96" x2="2280.01" y2="1749.96"/><line class="cls-33" x1="2506.87" y1="1749.96" x2="2467.09" y2="1749.96"/><line class="cls-33" x1="2468.31" y1="2167.83" x2="2506.87" y2="2167.83"/><line class="cls-34" x1="2017.99" y1="2167.83" x2="2468.31" y2="2167.83"/><line class="cls-34" x1="1833.98" y1="2167.83" x2="1988.27" y2="2167.83"/><line class="cls-34" x1="1686.54" y1="2167.83" x2="1792.83" y2="2167.83"/><line class="cls-34" x1="1096.79" y1="2167.83" x2="1660.25" y2="2167.83"/><line class="cls-34" x1="1041.93" y1="2167.83" x2="1061.36" y2="2167.83"/><line class="cls-34" x1="751.62" y1="2167.83" x2="1012.21" y2="2167.83"/><line class="cls-34" x1="469.32" y1="2167.83" x2="712.76" y2="2167.83"/><line class="cls-34" x1="429.32" y1="2167.83" x2="440.75" y2="2167.83"/><line class="cls-34" x1="282.24" y1="2167.83" x2="398.46" y2="2167.83"/><line class="cls-33" x1="239.02" y1="2167.83" x2="282.24" y2="2167.83"/><line class="cls-33" x1="2468.31" y1="2087.04" x2="2506.87" y2="2087.04"/><line class="cls-34" x1="2341.44" y1="2087.04" x2="2468.31" y2="2087.04"/><line class="cls-34" x1="2279.72" y1="2087.04" x2="2295.72" y2="2087.04"/><line class="cls-34" x1="953.92" y1="2087.04" x2="2250" y2="2087.04"/><line class="cls-34" x1="631.62" y1="2087.04" x2="923.06" y2="2087.04"/><line class="cls-34" x1="569.9" y1="2087.04" x2="592.76" y2="2087.04"/><line class="cls-34" x1="280.52" y1="2087.04" x2="536.75" y2="2087.04"/><line class="cls-33" x1="239.02" y1="2087.04" x2="280.52" y2="2087.04"/><line class="cls-33" x1="2468.31" y1="1998.81" x2="2506.87" y2="1998.81"/><line class="cls-34" x1="2078.57" y1="1998.81" x2="2468.31" y2="1998.81"/><line class="cls-34" x1="1652.25" y1="1998.81" x2="2040.85" y2="1998.81"/><line class="cls-34" x1="1435.1" y1="1998.81" x2="1614.54" y2="1998.81"/><line class="cls-34" x1="911.63" y1="1998.81" x2="1397.38" y2="1998.81"/><line class="cls-34" x1="282.24" y1="1998.81" x2="869.34" y2="1998.81"/><line class="cls-33" x1="239.02" y1="1998.81" x2="282.24" y2="1998.81"/><line class="cls-33" x1="2468.31" y1="1955.28" x2="2506.87" y2="1955.28"/><line class="cls-34" x1="2411.16" y1="1955.28" x2="2468.31" y2="1955.28"/><line class="cls-34" x1="2231.72" y1="1955.28" x2="2376.87" y2="1955.28"/><line class="cls-34" x1="1775.69" y1="1955.28" x2="2197.43" y2="1955.28"/><line class="cls-34" x1="1084.22" y1="1955.28" x2="1745.97" y2="1955.28"/><line class="cls-34" x1="437.32" y1="1955.28" x2="1049.93" y2="1955.28"/><line class="cls-34" x1="280.52" y1="1955.28" x2="399.6" y2="1955.28"/><line class="cls-33" x1="239.02" y1="1955.28" x2="280.52" y2="1955.28"/><line class="cls-33" x1="2470.02" y1="1889.4" x2="2506.87" y2="1889.4"/><line class="cls-34" x1="1851.12" y1="1889.4" x2="2470.02" y2="1889.4"/><line class="cls-34" x1="1621.39" y1="1889.4" x2="1814.55" y2="1889.4"/><line class="cls-34" x1="875.06" y1="1889.4" x2="1582.53" y2="1889.4"/><line class="cls-34" x1="680.76" y1="1889.4" x2="837.34" y2="1889.4"/><line class="cls-34" x1="280.52" y1="1889.4" x2="646.47" y2="1889.4"/><line class="cls-33" x1="239.02" y1="1889.4" x2="280.52" y2="1889.4"/><line class="cls-33" x1="2471.74" y1="1845.87" x2="2506.87" y2="1845.87"/><line class="cls-34" x1="2062.56" y1="1845.87" x2="2471.74" y2="1845.87"/><line class="cls-34" x1="2012.24" y1="1845.87" x2="2029.38" y2="1845.87"/><line class="cls-34" x1="1471.67" y1="1845.87" x2="1967.66" y2="1845.87"/><line class="cls-34" x1="1227.08" y1="1845.87" x2="1440.81" y2="1845.87"/><line class="cls-34" x1="1177.94" y1="1845.87" x2="1197.37" y2="1845.87"/><line class="cls-34" x1="280.52" y1="1845.87" x2="1141.36" y2="1845.87"/><line class="cls-33" x1="239.02" y1="1845.87" x2="280.52" y2="1845.87"/><line class="cls-33" x1="2471.74" y1="1802.34" x2="2506.87" y2="1802.34"/><line class="cls-34" x1="2380.87" y1="1802.34" x2="2471.74" y2="1802.34"/><line class="cls-34" x1="1723.11" y1="1802.34" x2="2341.43" y2="1802.34"/><line class="cls-34" x1="1583.68" y1="1802.34" x2="1678.54" y2="1802.34"/><line class="cls-34" x1="1011.07" y1="1802.34" x2="1549.39" y2="1802.34"/><line class="cls-34" x1="767.62" y1="1802.34" x2="959.64" y2="1802.34"/><line class="cls-34" x1="501.32" y1="1802.34" x2="733.34" y2="1802.34"/><line class="cls-34" x1="278.81" y1="1802.34" x2="465.89" y2="1802.34"/><line class="cls-33" x1="239.02" y1="1802.34" x2="278.81" y2="1802.34"/><line class="cls-33" x1="275.88" y1="2310.41" x2="239.02" y2="2310.41"/><line class="cls-34" x1="894.78" y1="2310.41" x2="275.88" y2="2310.41"/><line class="cls-34" x1="1124.51" y1="2310.41" x2="931.35" y2="2310.41"/><line class="cls-34" x1="1870.84" y1="2310.41" x2="1163.37" y2="2310.41"/><line class="cls-34" x1="2065.14" y1="2310.41" x2="1908.56" y2="2310.41"/><line class="cls-34" x1="2465.38" y1="2310.41" x2="2099.43" y2="2310.41"/><line class="cls-33" x1="2506.87" y1="2310.41" x2="2465.38" y2="2310.41"/><line class="cls-33" x1="274.16" y1="2266.88" x2="239.02" y2="2266.88"/><line class="cls-34" x1="683.34" y1="2266.88" x2="274.16" y2="2266.88"/><line class="cls-34" x1="733.66" y1="2266.88" x2="716.52" y2="2266.88"/><line class="cls-34" x1="1274.23" y1="2266.88" x2="778.24" y2="2266.88"/><line class="cls-34" x1="1518.82" y1="2266.88" x2="1305.09" y2="2266.88"/><line class="cls-34" x1="1567.96" y1="2266.88" x2="1548.53" y2="2266.88"/><line class="cls-34" x1="2465.38" y1="2266.88" x2="1604.54" y2="2266.88"/><line class="cls-33" x1="2506.87" y1="2266.88" x2="2465.38" y2="2266.88"/><line class="cls-33" x1="274.16" y1="2223.36" x2="239.02" y2="2223.36"/><line class="cls-34" x1="365.03" y1="2223.36" x2="274.16" y2="2223.36"/><line class="cls-34" x1="1022.79" y1="2223.36" x2="404.47" y2="2223.36"/><line class="cls-34" x1="1162.22" y1="2223.36" x2="1067.36" y2="2223.36"/><line class="cls-34" x1="1734.83" y1="2223.36" x2="1196.51" y2="2223.36"/><line class="cls-34" x1="1978.28" y1="2223.36" x2="1786.26" y2="2223.36"/><line class="cls-34" x1="2244.58" y1="2223.36" x2="2012.56" y2="2223.36"/><line class="cls-34" x1="2467.09" y1="2223.36" x2="2280.01" y2="2223.36"/><line class="cls-33" x1="2506.87" y1="2223.36" x2="2467.09" y2="2223.36"/><path class="cls-35" d="M1363.7,1825.61H1864a81.17,81.17,0,0,1,42.28,11.87h0a81.22,81.22,0,0,0,42.27,11.86h38.07a16.63,16.63,0,0,1,16.63,16.81h0a16.63,16.63,0,0,1-16.63,16.46H480.58c-15.91,0-23.87-19.23-12.62-30.47h0a17.53,17.53,0,0,1,12.42-5.15h781.69a126.15,126.15,0,0,0,50.82-10.69h0A126.1,126.1,0,0,1,1363.7,1825.61Z"/><path class="cls-9" d="M1645.22,1622.32c-19.39-15.17-42.62-22.25-66.52-18.4-8,1.3-28.32,1-36.38-.15a80.51,80.51,0,0,0-32.13,1.71c-30.47,7.84-56.63,32.76-71.8,68.36-28.06,66-11,150.91,38.12,189.3,16.38,12.84,34.94,19.48,53.77,19.47,1.87,0,3.69-.06,5.47-.18,13.25-.89,38.63-.48,51.9.11,1.18,0,2.36.07,3.54.07a81.37,81.37,0,0,0,20.33-2.59c30.46-7.84,56.63-32.77,71.79-68.4C1711.4,1745.69,1694.31,1660.77,1645.22,1622.32Z"/><path class="cls-36" d="M1479,1625.87c0-1.2.11-2.26.2-3.22.9-11,17.45-9.56,16.55,1.37-.07.76-.12,1.58-.16,2.52C1495.11,1637.5,1478.51,1636.85,1479,1625.87Z"/><path class="cls-36" d="M1522.05,1607.14c.46-1.11.89-2.07,1.31-3,4.68-10,19.69-2.85,15,7.08-.32.68-.66,1.44-1,2.3C1533.11,1623.68,1517.79,1617.27,1522.05,1607.14Z"/><path class="cls-36" d="M1591.41,1873.18c-16.39.06-33-5.56-48.18-17.46h0c-45.94-35.93-61.75-115.9-35.26-178.19,10-23.37,24.47-41,41.14-52Z"/><path class="cls-36" d="M1558.21,1820.5c-31.61-24.77-42.46-79.77-24.23-122.7s58.87-57.58,90.43-32.83,42.47,79.79,24.26,122.65-58.85,57.67-90.46,32.88Zm53-124.42c-19-14.91-43.35-6.09-54.27,19.7s-4.46,58.82,14.49,73.65,43.35,6,54.35-19.72,4.37-58.75-14.57-73.63Z"/><path class="cls-9" d="M1563.38,1808.36c-26.68-20.9-35.84-67.32-20.45-103.55s49.68-48.59,76.32-27.71,35.84,67.34,20.47,103.51-49.67,48.67-76.34,27.75Z"/><g class="cls-37"><path class="cls-38" d="M1551,1715.23c11.19-26.3,36-35.29,55.4-20.14s26,48.85,14.82,75.16-36,35.29-55.38,20.15S1539.76,1741.55,1551,1715.23Z"/></g><path class="cls-9" d="M1608.09,1717.89c9.71,13.16,9.71,34.49,0,47.65s-25.44,13.16-35.14,0-9.71-34.49,0-47.65S1598.39,1704.73,1608.09,1717.89Z"/><path class="cls-36" d="M1512.14,1630.64a487.62,487.62,0,0,1,61.15-16.3c10.77-2.13,14,14.16,3.24,16.3a470.8,470.8,0,0,0-59.07,15.73C1507.07,1649.89,1501.73,1634.15,1512.14,1630.64Z"/><path class="cls-36" d="M1546.07,1881.43c-7.62,0-8.51-7.33-9.13-12.77a82.84,82.84,0,0,1,0-17.39c1-10.92,17.59-9.35,16.53,1.59a60.59,60.59,0,0,0,.75,18.47,8.32,8.32,0,0,1-6.31,9.91A8.63,8.63,0,0,1,1546.07,1881.43Z"/><path class="cls-36" d="M1487.14,1824.81a208.27,208.27,0,0,1,13.72-33c5-9.75,19.79-2.17,14.77,7.6a191.55,191.55,0,0,0-12.64,30.33C1499.73,1840.23,1483.87,1835.29,1487.14,1824.81Z"/><path class="cls-36" d="M1464.16,1760.81a348.26,348.26,0,0,1,28.39-35.82c7.34-8.15,19.69,3,12.33,11.13a331.27,331.27,0,0,0-27,34.11C1471.62,1779.27,1457.93,1769.86,1464.16,1760.81Z"/><path class="cls-36" d="M1468.83,1693.69a434.19,434.19,0,0,1,43.08-33.51c9.06-6.19,18.44,7.52,9.36,13.71a418.19,418.19,0,0,0-41.43,32.24C1471.63,1713.4,1460.61,1701,1468.83,1693.69Z"/><path class="cls-36" d="M1487.45,1860.47q-15.33-6.75-30.92-14.94c-9.7-5.13-2-19.82,7.76-14.69s19.7,10,29.85,14.42a8.31,8.31,0,1,1-6.69,15.21Z"/><path class="cls-36" d="M1447,1804c-8.13-6.26-15.62-12.46-22.8-18.83-8.22-7.27,2.78-19.72,11-12.43,7.37,6.52,14.44,12.34,21.92,18.09C1465.79,1797.48,1455.66,1810.64,1447,1804Z"/><path class="cls-36" d="M1434.18,1737.75c-5.16-6.44-10.06-13-14.7-19.75-6.23-9,7.46-18.45,13.68-9.41,4.45,6.46,9.18,12.78,14,18.77C1454,1735.92,1441.06,1746.32,1434.18,1737.75Z"/><path class="cls-36" d="M1449.07,1674.29a187.55,187.55,0,0,1-6.61-17.87c-3.27-10.47,12.59-15.43,15.85-4.94a172.63,172.63,0,0,0,6,16.3,8.3,8.3,0,0,1-15.28,6.51Z"/><path class="cls-9" d="M1249.56,1565.76c-23.6-18.48-51.89-27.09-81-22.4a96.08,96.08,0,0,1-29.56-.19,98.29,98.29,0,0,0-39.12,2.08c-37.09,9.55-68.94,39.88-87.4,83.22-34.16,80.32-13.35,183.7,46.4,230.44,19.94,15.63,42.54,23.71,65.46,23.7,2.28,0,4.49-.07,6.65-.22,16.14-1.08,32.3-.58,48.46.13,1.43.06,2.87.09,4.3.09a99.34,99.34,0,0,0,24.75-3.15c37.08-9.55,68.94-39.9,87.39-83.27C1330.11,1715.93,1309.32,1612.56,1249.56,1565.76Z"/><path class="cls-39" d="M1134.75,1881.18c-9.27,0-10.36-8.93-11.11-15.55a101.19,101.19,0,0,1,0-21.17c1.28-13.3,21.41-11.38,20.13,1.93a73.73,73.73,0,0,0,.9,22.48,10.1,10.1,0,0,1-7.67,12.06A9.86,9.86,0,0,1,1134.75,1881.18Z"/><path class="cls-39" d="M1063,1812.25a254.18,254.18,0,0,1,16.7-40.16c6.11-11.87,24.1-2.64,18,9.26a233.79,233.79,0,0,0-15.38,36.91C1078.34,1831,1059,1825,1063,1812.25Z"/><path class="cls-39" d="M1035,1734.34a423.53,423.53,0,0,1,34.56-43.6c8.94-9.92,24,3.61,15,13.54a405.77,405.77,0,0,0-32.91,41.52C1044.13,1756.81,1027.46,1745.36,1035,1734.34Z"/><path class="cls-39" d="M1040.73,1652.64a528.14,528.14,0,0,1,52.44-40.8c11-7.53,22.44,9.16,11.4,16.7a507.22,507.22,0,0,0-50.44,39.24C1044.13,1676.63,1030.72,1661.5,1040.73,1652.64Z"/><path class="cls-39" d="M1087,1858.6q-18.66-8.2-37.64-18.19c-11.81-6.23-2.39-24.12,9.44-17.88s24,12.13,36.34,17.56a10.11,10.11,0,0,1-8.14,18.51Z"/><path class="cls-39" d="M1037.67,1789.8c-9.9-7.62-19-15.17-27.76-22.92-10-8.86,3.39-24,13.4-15.14,9,8,17.58,15,26.69,22C1060.59,1781.93,1048.25,1798,1037.67,1789.8Z"/><path class="cls-39" d="M1022.12,1709.22c-6.29-7.85-12.25-15.83-17.91-24-7.57-11,9.09-22.46,16.66-11.45,5.41,7.86,11.17,15.56,17,22.84C1046.25,1707,1030.48,1719.65,1022.12,1709.22Z"/><path class="cls-39" d="M1040.23,1629a228,228,0,0,1-8-21.74c-4-12.75,15.33-18.79,19.3-6a209,209,0,0,0,7.34,19.83,10.11,10.11,0,0,1-18.6,7.92Z"/><path class="cls-36" d="M1242.48,1574.8c-50.48-39.52-113.89-22.08-149.51,37.52l188.27,188.27c1.43-2.89,2.82-5.84,4.12-8.9C1317.65,1715.89,1298.44,1618.62,1242.48,1574.8Z"/><path class="cls-36" d="M1295.24,1756.66a10,10,0,0,0-6.7,2.54c-3.37,3-6.24,5.46-9,7.75s-5.29,4.42-8.1,6.7-5.87,4.7-9.61,7.58a10.11,10.11,0,1,0,12.33,16c3.89-3,7.07-5.52,10-7.88s5.6-4.57,8.43-7,5.83-5,9.34-8.07a10.11,10.11,0,0,0-6.71-17.67Z"/><path class="cls-36" d="M1301,1678.31a10.11,10.11,0,0,0-8.33,4.37c-2.08,3-3.88,5.56-5.6,7.92s-3.37,4.58-5.17,7-3.79,4.92-6.25,8a10.11,10.11,0,1,0,15.77,12.66c2.58-3.22,4.66-5.89,6.56-8.39s3.63-4.82,5.44-7.31,3.71-5.15,5.9-8.34a10.1,10.1,0,0,0-8.32-15.84Z"/><path class="cls-36" d="M1274.57,1599.07a10.12,10.12,0,0,0-9.65,7.11c-1.32,4.23-2.42,7.3-3.32,9.74s-2.1,5.59-4,10.1a10.11,10.11,0,1,0,18.61,7.91c2.08-4.89,3.38-8.31,4.38-11,1.4-3.81,2.5-7,3.65-10.74a10.11,10.11,0,0,0-9.65-13.12Z"/><path class="cls-36" d="M1211.41,1546.22a10.42,10.42,0,0,0-2.59.24,10.11,10.11,0,0,0-7.68,12.06,48.11,48.11,0,0,1,.94,5.85,61.59,61.59,0,0,1,.33,6.56,10.11,10.11,0,1,0,20.22,0,82.56,82.56,0,0,0-.44-8.59,69,69,0,0,0-1.31-8.15A10.12,10.12,0,0,0,1211.41,1546.22Z"/><path class="cls-39" d="M1197.19,1881c.29-.15.58-.32.86-.49a10.11,10.11,0,0,0,3-14,89.31,89.31,0,0,1-4.72-8.25c-1-2-1.85-3.86-2.6-5.78a10.11,10.11,0,0,0-18.81,7.42c1,2.46,2.06,4.89,3.34,7.43a110.09,110.09,0,0,0,5.77,10.09A10.12,10.12,0,0,0,1197.19,1881Z"/><path class="cls-39" d="M1256.61,1830.14a10.06,10.06,0,0,0-4.81.66c-3.67,1.46-6.92,2.7-10,3.84s-5.88,2.17-8.73,3.18-5.72,2-8.86,3.07-6.54,2.18-10.48,3.42a10.11,10.11,0,0,0,6.09,19.29c4.08-1.29,7.6-2.45,10.85-3.55s6.23-2.13,9.18-3.18,5.89-2.12,9-3.3,6.52-2.47,10.32-4a10.11,10.11,0,0,0-2.64-19.45Z"/><path class="cls-39" d="M1073.32,1660.37c-18,70.5,2.71,150.89,52.08,189.5,41.41,32.46,91.5,26.51,127.82-9.6Z"/><path class="cls-36" d="M1253.22,1840.27a147.74,147.74,0,0,0,28-39.68L1093,1612.32a168.84,168.84,0,0,0-10.48,20.64,190.47,190.47,0,0,0-9.17,27.41Z"/><path class="cls-36" d="M1139.17,1817.52c-42.76-33.5-57.44-107.9-32.78-166s79.62-77.88,122.31-44.41,57.44,107.92,32.81,165.9-79.6,78-122.34,44.47Z"/><path class="cls-9" d="M1055.63,1696.06a18.74,18.74,0,0,1-21.58-21.16c11.72-79.92,61.8-136.82,122-147.89a117.77,117.77,0,0,1,29.46-1.69c26.65,1.87,52,13,73.17,32.13,26.42,23.85,44.32,58.22,51.55,97Z"/><path class="cls-9" d="M1210.84,1649.24c25.62,20.12,34.45,64.78,19.7,99.58s-47.82,46.77-73.51,26.68-34.45-64.81-19.6-99.63,47.74-46.81,73.41-26.63Z"/><path class="cls-39" d="M1011.29,1653.43a26.71,26.71,0,0,1-14.83-35.22,2.72,2.72,0,0,1,.11-.25c21.74-51.06,60.15-87,105.37-98.66a126.21,126.21,0,0,1,31.29-4h64.44v0a117.15,117.15,0,0,0-29.27,3.75c-41.09,10.57-75.8,42.82-95.25,88.47a213.52,213.52,0,0,0-15.71,64.15Z"/><path class="cls-36" d="M1057.41,1671.38c7.22-78.67,52.69-137.3,111-152.31a117.15,117.15,0,0,1,29.27-3.75c26.72,0,52.73,9.32,75.24,26.94,28,21.94,48.28,55,58.21,93.17Z"/><path class="cls-13" d="M1247.17,1710.58h169.37c-1.36-70.84-27.93-134-72.91-173.32-29.15-25.48-64.37-39-100.66-39.12h-66.32a40.46,40.46,0,0,0-40.47,40.47h0v63.86a74.86,74.86,0,0,0,36.91,64.53Z"/><path class="cls-36" d="M1646.1,1294.34h0a12.9,12.9,0,0,1,2.56,21.53h0a35.64,35.64,0,0,0-12.9,27.44v21.8h-18v-21.53a55.35,55.35,0,0,1,20.81-43.25Z"/><rect class="cls-9" x="1616.13" y="1364.08" width="22.07" height="156.44" transform="translate(3254.33 2884.6) rotate(180)"/><rect class="cls-36" x="1604.77" y="1353.29" width="44.8" height="138.58" rx="6.96" transform="translate(3254.33 2845.16) rotate(180)"/><rect class="cls-9" x="1604.77" y="1364.08" width="44.8" height="9.11" transform="translate(3254.33 2737.27) rotate(180)"/><rect class="cls-9" x="1604.77" y="1471.97" width="44.8" height="9.11" transform="translate(3254.33 2953.05) rotate(180)"/><path class="cls-13" d="M1542.88,1510.84h48.27A476.81,476.81,0,0,1,1740.9,1535l46.86,15.49a31.8,31.8,0,0,1,21.44,35.08l-20.06,129.25H1544.09l-1-168.55Z"/><path class="cls-14" d="M1532.88,1520.84h48.27A476.81,476.81,0,0,1,1730.9,1545l46.86,15.49a31.8,31.8,0,0,1,21.44,35.08l-20.06,129.25H1534.09l-1-168.55Z"/><path class="cls-9" d="M1809.42,1710.07a19.66,19.66,0,0,1,12.54-4.42v0h55.27v0c8.5,0,16.78,6,21.33,16.66,6.78,15.94,2.74,36.41-9,45.6a19.72,19.72,0,0,1-12.31,4.44v0H1822c-8.58.09-17-5.89-21.56-16.68C1793.61,1739.74,1797.65,1719.29,1809.42,1710.07Z"/><path class="cls-40" d="M1800.87,1734.15H1771a22.06,22.06,0,0,0-21.86,19l-6.33,45.56h-13"/><path class="cls-9" d="M1692.55,1753.52h-113.7a10.06,10.06,0,0,1-10.06-10.07v-37.12a10.06,10.06,0,0,1,10.06-10.06h81.63a24.6,24.6,0,0,1,24.07,19.51Z"/><path class="cls-9" d="M1673.33,1665.83h-113.7a10.06,10.06,0,0,1-10.06-10.07v-37.11a10.06,10.06,0,0,1,10.06-10.07h81.63a24.61,24.61,0,0,1,24.07,19.51Z"/><path class="cls-41" d="M1382.66,1546.21h-194s21.36-215.17,21.44-216h374.37l1.26,375.07H1382.66Z"/><path class="cls-42" d="M1544.33,1330.17h-43.59l-137.59,137.6c-1.8,18.08-3.47,35-4.81,48.39Z"/><path class="cls-42" d="M1365.56,1443.52l113.34-113.35h-21.8L1368,1419.32C1367.16,1427.3,1366.36,1435.43,1365.56,1443.52Z"/><polygon class="cls-42" points="1584.85 1442.26 1584.54 1349.62 1355.36 1578.8 1355.36 1671.75 1584.85 1442.26"/><path class="cls-42" d="M1585,1482.78l-.07-21.72-227.66,227.66a36.58,36.58,0,0,0,15.11,6.69Z"/><polygon class="cls-42" points="1585.53 1641.39 1585.45 1619.66 1499.88 1705.24 1521.67 1705.24 1585.53 1641.39"/><polygon class="cls-42" points="1585.37 1596.18 1585.3 1574.46 1454.52 1705.24 1476.32 1705.24 1585.37 1596.18"/><polygon class="cls-43" points="1339.74 1534.76 1358.49 1516.02 1352.53 1478.39 1317.09 1513.83 1339.74 1534.76"/><polygon class="cls-43" points="1279.45 1529.62 1362.99 1446.08 1354.69 1432.59 1261.92 1525.36 1279.45 1529.62"/><polygon class="cls-43" points="1198 1458.31 1317.73 1338.57 1236.32 1327.04 1207.5 1355.86 1198 1458.31"/><polygon class="cls-43" points="1340.11 1335.07 1191.71 1483.47 1188.92 1508.05 1355.36 1341.61 1340.11 1335.07"/><rect class="cls-41" x="1212.91" y="1337.92" width="374.98" height="15.37" transform="translate(2800.81 2691.21) rotate(180)"/><rect class="cls-9" x="1212.33" y="1330.39" width="375.57" height="15.07"/><line class="cls-44" x1="1373.46" y1="1330.17" x2="1352.65" y2="1515.25"/><line class="cls-45" x1="1210.22" y1="1330.17" x2="1185.41" y2="1550.74"/><path class="cls-9" d="M1568.27,1506h9.31a0,0,0,0,1,0,0v38.71a0,0,0,0,1,0,0h-9.31a8.22,8.22,0,0,1-8.22-8.22v-22.26A8.22,8.22,0,0,1,1568.27,1506Z"/><line class="cls-46" x1="1585.74" y1="1679.34" x2="1584.48" y2="1325.89"/><line class="cls-47" x1="1455.96" y1="1330.39" x2="1455.96" y2="1542.09"/><path class="cls-9" d="M1791.18,1699.53h-16.76l14.43-97.14a19.76,19.76,0,0,1,19.55-16.86h.79Z"/><path class="cls-9" d="M1676.87,1706.38a6.85,6.85,0,1,0-6.85,6.85A6.85,6.85,0,0,0,1676.87,1706.38Z"/><rect class="cls-14" x="1312.02" y="1668.65" width="358.14" height="46.27"/><path class="cls-13" d="M1391.59,1710.58H1561c-1.35-70.84-27.93-134-72.9-173.32-29.16-25.48-64.37-39-100.67-39.12h-67.24c-28.31.63-44.75,32.39-29.4,56.18Z"/><path class="cls-14" d="M1434.61,1710.58H1604c-1.35-70.84-27.92-134-72.9-173.32-29.16-25.48-64.37-39-100.66-39.12h-67.25c-28.3.63-44.75,32.39-29.4,56.18Z"/><rect class="cls-13" x="1180.37" y="1518.06" width="143.09" height="48.07" transform="translate(2503.83 3084.19) rotate(180)"/><path class="cls-13" d="M1584.82,1323.55a38,38,0,0,0-37-29.33H1243.29a38,38,0,0,0-37.82,34.69h380.61Z"/><path class="cls-14" d="M1549.28,1294.22H1409.82a38,38,0,0,0-37.82,34.69h215.52l-1.25-5.36A38,38,0,0,0,1549.28,1294.22Z"/><path class="cls-13" d="M1205.78,1334.88h388.8a5.84,5.84,0,0,0,5.67-7.23l0-.14a5.94,5.94,0,0,0-5.78-4.57H1205.77a5.94,5.94,0,0,0-5.22,3.1h0A6,6,0,0,0,1205.78,1334.88Z"/><path class="cls-48" d="M1584.54,1349.53h61.27a10.46,10.46,0,0,1,10.46,10.46v34.2a10.45,10.45,0,0,1-10.46,10.45h0"/><path class="cls-9" d="M1898.44,1622.32c-19.38-15.17-42.62-22.25-66.51-18.4-8,1.3-28.32,1-36.38-.15a80.51,80.51,0,0,0-32.13,1.71c-30.47,7.84-56.64,32.76-71.8,68.36-28.07,66-11,150.91,38.11,189.3,16.38,12.84,35,19.48,53.78,19.47q2.81,0,5.46-.18c13.26-.89,38.64-.48,51.91.11,1.18,0,2.35.07,3.53.07a81.31,81.31,0,0,0,20.33-2.59c30.47-7.84,56.63-32.77,71.79-68.4C1964.62,1745.69,1947.54,1660.77,1898.44,1622.32Z"/><path class="cls-39" d="M1732.18,1625.87c0-1.2.12-2.26.2-3.22.91-11,17.46-9.56,16.55,1.37-.06.76-.11,1.58-.15,2.52C1748.34,1637.5,1731.74,1636.85,1732.18,1625.87Z"/><path class="cls-39" d="M1775.27,1607.14c.46-1.11.9-2.07,1.31-3,4.69-10,19.7-2.85,15,7.08-.33.68-.66,1.44-1,2.3C1786.34,1623.68,1771,1617.27,1775.27,1607.14Z"/><path class="cls-39" d="M1796.45,1855.72c-45.93-35.93-61.74-115.9-35.25-178.19s85.5-83.73,131.43-47.78,61.75,115.91,35.22,178.17-85.48,83.79-131.4,47.8Z"/><path class="cls-36" d="M1811.44,1820.5c-31.61-24.77-42.47-79.77-24.23-122.7s58.86-57.58,90.43-32.83,42.46,79.79,24.25,122.65-58.85,57.67-90.45,32.88Zm53-124.42c-19-14.91-43.36-6.09-54.28,19.7s-4.46,58.82,14.5,73.65,43.34,6,54.34-19.72,4.38-58.75-14.56-73.63Z"/><path class="cls-49" d="M1816.61,1808.36c-26.68-20.9-35.84-67.32-20.46-103.55s49.68-48.59,76.32-27.71,35.84,67.34,20.47,103.51-49.66,48.67-76.33,27.75Z"/><path class="cls-50" d="M1793.53,1773.34c-7-21.37-6.62-46.77,2.62-68.53,13.18-30.92,40.15-44.42,64.35-34.63Z"/><path class="cls-51" d="M1799.34,1715.23c11.2-26.3,36-35.29,55.41-20.14s26,48.85,14.81,75.16-36,35.29-55.38,20.15S1788.15,1741.55,1799.34,1715.23Z"/><path class="cls-50" d="M1847.57,1726.69c6.12,8.3,6.12,21.75,0,30s-16,8.3-22.16,0-6.13-21.75,0-30S1841.45,1718.39,1847.57,1726.69Z"/><path class="cls-39" d="M1765.37,1630.64a487.93,487.93,0,0,1,61.14-16.3c10.78-2.13,14,14.16,3.24,16.3a471.12,471.12,0,0,0-59.06,15.73C1760.29,1649.89,1755,1634.15,1765.37,1630.64Z"/><path class="cls-39" d="M1799.3,1881.43c-7.62,0-8.52-7.33-9.14-12.77a83.52,83.52,0,0,1,0-17.39c1-10.92,17.58-9.35,16.53,1.59a60.59,60.59,0,0,0,.74,18.47,8.31,8.31,0,0,1-6.3,9.91A8.63,8.63,0,0,1,1799.3,1881.43Z"/><path class="cls-39" d="M1740.36,1824.81a208.27,208.27,0,0,1,13.72-33c5-9.75,19.8-2.17,14.77,7.6a192.45,192.45,0,0,0-12.63,30.33C1753,1840.23,1737.1,1835.29,1740.36,1824.81Z"/><path class="cls-39" d="M1717.38,1760.81a351,351,0,0,1,28.39-35.82c7.35-8.15,19.7,3,12.33,11.13a332.54,332.54,0,0,0-27,34.11C1724.85,1779.27,1711.16,1769.86,1717.38,1760.81Z"/><path class="cls-39" d="M1722.06,1693.69a435.23,435.23,0,0,1,43.07-33.51c9.06-6.19,18.44,7.52,9.37,13.71a417,417,0,0,0-41.43,32.24C1724.85,1713.4,1713.84,1701,1722.06,1693.69Z"/><path class="cls-39" d="M1740.68,1860.47q-15.33-6.75-30.92-14.94c-9.7-5.13-2-19.82,7.76-14.69s19.7,10,29.85,14.42a8.31,8.31,0,0,1-6.69,15.21Z"/><path class="cls-39" d="M1700.18,1804c-8.13-6.26-15.61-12.46-22.8-18.83-8.21-7.27,2.79-19.72,11-12.43,7.38,6.52,14.45,12.34,21.92,18.09C1719,1797.48,1708.88,1810.64,1700.18,1804Z"/><path class="cls-39" d="M1687.41,1737.75c-5.17-6.44-10.06-13-14.71-19.75-6.22-9,7.47-18.45,13.69-9.41,4.44,6.46,9.17,12.78,14,18.77C1707.23,1735.92,1694.28,1746.32,1687.41,1737.75Z"/><path class="cls-39" d="M1702.29,1674.29a190.31,190.31,0,0,1-6.61-17.87c-3.26-10.47,12.6-15.43,15.86-4.94a169.84,169.84,0,0,0,6,16.3,8.3,8.3,0,0,1-15.28,6.51Z"/><path class="cls-39" d="M1855.43,1881.25a7,7,0,0,0,.7-.4,8.3,8.3,0,0,0,2.51-11.47,74.59,74.59,0,0,1-3.88-6.78c-.84-1.66-1.52-3.17-2.14-4.75a8.31,8.31,0,0,0-15.45,6.1c.8,2,1.7,4,2.75,6.1a88.2,88.2,0,0,0,4.74,8.29A8.3,8.3,0,0,0,1855.43,1881.25Z"/><path class="cls-39" d="M1904.24,1839.51a8.22,8.22,0,0,0-4,.54c-3,1.2-5.69,2.22-8.19,3.15s-4.82,1.79-7.16,2.62-4.71,1.65-7.29,2.52-5.37,1.79-8.6,2.81a8.31,8.31,0,0,0,5,15.84c3.35-1.06,6.24-2,8.91-2.91s5.12-1.75,7.54-2.61,4.84-1.74,7.43-2.71,5.35-2,8.48-3.27a8.31,8.31,0,0,0-2.17-16Z"/><path class="cls-39" d="M1936,1779.14a8.28,8.28,0,0,0-5.5,2.09c-2.77,2.45-5.13,4.48-7.37,6.37s-4.34,3.63-6.65,5.5-4.82,3.86-7.9,6.23a8.3,8.3,0,1,0,10.13,13.16c3.2-2.46,5.81-4.53,8.21-6.47s4.6-3.76,6.92-5.73,4.79-4.07,7.67-6.63a8.3,8.3,0,0,0-5.51-14.52Z"/><path class="cls-39" d="M1940.73,1714.78a8.28,8.28,0,0,0-6.84,3.6c-1.71,2.48-3.19,4.56-4.6,6.5s-2.77,3.76-4.25,5.71-3.11,4-5.13,6.56a8.3,8.3,0,1,0,12.95,10.39c2.12-2.64,3.83-4.84,5.39-6.89s3-4,4.47-6,3-4.24,4.84-6.85a8.31,8.31,0,0,0-6.83-13Z"/><path class="cls-39" d="M1919,1649.69a8.29,8.29,0,0,0-7.92,5.84c-1.09,3.47-2,6-2.73,8s-1.73,4.59-3.3,8.3a8.3,8.3,0,0,0,15.28,6.5c1.71-4,2.78-6.83,3.6-9,1.16-3.13,2-5.77,3-8.82a8.3,8.3,0,0,0-5.46-10.4A8.15,8.15,0,0,0,1919,1649.69Z"/><path class="cls-39" d="M1867.11,1606.28a8.16,8.16,0,0,0-2.13.19,8.31,8.31,0,0,0-6.31,9.9,37.89,37.89,0,0,1,.77,4.82,50.25,50.25,0,0,1,.28,5.38,8.3,8.3,0,1,0,16.6,0,64.46,64.46,0,0,0-.36-7,55.79,55.79,0,0,0-1.07-6.7A8.3,8.3,0,0,0,1867.11,1606.28Z"/><path class="cls-39" d="M1806.7,1606.88a8.3,8.3,0,0,0,6.6,11.38,40.71,40.71,0,0,1,4.79.92,52,52,0,0,1,5.15,1.58,8.3,8.3,0,1,0,5.64-15.62,70,70,0,0,0-6.75-2.07,57.28,57.28,0,0,0-6.66-1.28A8.3,8.3,0,0,0,1806.7,1606.88Z"/><path class="cls-52" d="M1470.39,1322.94v-8.53a15.4,15.4,0,0,1,15.4-15.4h8.8v-19.36"/><path class="cls-49" d="M1489.42,1238.52h10.34a9.74,9.74,0,0,1,9.68,8.69l3.9,36h-37.5l3.9-36A9.73,9.73,0,0,1,1489.42,1238.52Z"/><path class="cls-36" d="M1477.37,1276.33h34.44a4.81,4.81,0,0,1,4.81,4.81h0a4.82,4.82,0,0,1-4.81,4.82h-34.44a4.81,4.81,0,0,1-4.81-4.82h0A4.81,4.81,0,0,1,1477.37,1276.33Z"/><path class="cls-36" d="M1653.25,1753.22H1723a6.31,6.31,0,0,0,6.27-6.49c-1.66-51.35,12.4-104.24,51.28-134.69,35.4-27.71,58.34-11.26,58.46-24.44a8.26,8.26,0,0,0-.28-1.88c-1.64-5.44,14.06-4.49-75.77-4.49C1651.48,1581.23,1632.25,1753.22,1653.25,1753.22Z"/><path class="cls-36" d="M1830,1593.8H1715a94.45,94.45,0,0,1,48-12.57c89.83,0,74.13-1,75.77,4.49a8.26,8.26,0,0,1,.28,1.88C1839,1592.49,1835.8,1593.3,1830,1593.8Z"/><path class="cls-39" d="M1734.83,1753.22h.4a6.29,6.29,0,0,0,5.88-6.67c-3.49-54.58,16.64-107.37,51.27-134.5,15.88-12.43,33.8-18.69,52-18.24a6.29,6.29,0,1,0,.34-12.57c-21.08-.59-41.88,6.65-60.1,20.91-37.8,29.61-59.81,86.6-56.07,145.19A6.28,6.28,0,0,0,1734.83,1753.22Z"/><path class="cls-13" d="M1631,1807.53h-22l-28.79-138.28h14.7a23.37,23.37,0,0,1,23.23,20.82Z"/><polygon class="cls-14" points="1552.96 1792.04 1628.83 1792.04 1631.01 1807.53 1552.96 1807.53 1552.96 1792.04"/><polygon class="cls-14" points="1545.7 1745.48 1622.27 1745.48 1624.45 1760.96 1545.7 1760.96 1545.7 1745.48"/><path class="cls-13" d="M1566.33,1807.53h-22l-28.79-138.28h14.7a23.37,23.37,0,0,1,23.23,20.82Z"/><rect class="cls-9" x="1622.61" y="1374.28" width="48.43" height="80.29" rx="14.16" transform="translate(3293.65 2828.86) rotate(180)"/><rect class="cls-53" x="1631.37" y="1382.14" width="30.91" height="63.92" rx="9.04" transform="translate(3293.65 2828.19) rotate(180)"/><rect class="cls-9" x="1154.21" y="1551.67" width="139.36" height="194.53" rx="32.43"/><line class="cls-54" x1="1146.2" y1="1759.61" x2="1089.01" y2="1804.01"/><line class="cls-54" x1="1293.57" y1="1721.97" x2="1236.16" y2="1804.01"/><path class="cls-55" d="M1212.77,1672.17h7.78a17.3,17.3,0,0,1,17.31,17.3v25.3a17.3,17.3,0,0,1-17.31,17.3h-7.78a17.3,17.3,0,0,1-17.31-17.3v-25.3"/><rect class="cls-36" x="1191.71" y="1585.96" width="69.48" height="34.94"/><line class="cls-54" x1="1089.01" y1="1804.01" x2="1175.51" y2="1585.96"/><line class="cls-54" x1="1236.66" y1="1804.01" x2="1261.18" y2="1585.96"/><line class="cls-55" x1="1175.51" y1="1568.99" x2="1272.29" y2="1568.99"/><polyline class="cls-55" points="1212.77 1672.17 1142.05 1606.58 1221.65 1606.58"/><path class="cls-56" d="M1066.52,1510h6.93a14.49,14.49,0,0,1,14.49,14.49v21.41a0,0,0,0,1,0,0H1052a0,0,0,0,1,0,0v-21.41A14.49,14.49,0,0,1,1066.52,1510Z"/><path class="cls-9" d="M1595.84,1681.05h-68.32l-194.35-35.71a204,204,0,0,1,11.79-37.8c19.44-45.65,54.16-77.9,95.24-88.47a117.15,117.15,0,0,1,29.27-3.75c26.72,0,52.74,9.32,75.25,26.94,27,21.13,40.12,53.82,49.17,90.46a121.28,121.28,0,0,1,1.95,48.33Z"/><path class="cls-9" d="M1525.66,1565.75c-23.59-18.47-51.88-27.09-81-22.39a96.39,96.39,0,0,1-29.56-.19,98.27,98.27,0,0,0-39.12,2.08c-37.09,9.55-69,39.88-87.4,83.21-34.17,80.33-13.35,183.71,46.39,230.45,19.94,15.63,42.55,23.71,65.47,23.7q3.4,0,6.65-.22c16.14-1.08,32.3-.58,48.46.13,1.43.06,2.87.09,4.3.09a99.4,99.4,0,0,0,24.75-3.15c37.08-9.55,68.94-39.9,87.39-83.27C1606.22,1715.93,1585.43,1612.56,1525.66,1565.75Z"/><path class="cls-39" d="M1368.43,1560.25c.06-1.46.14-2.74.24-3.92,1.11-13.34,21.25-11.63,20.15,1.67-.08.93-.14,1.93-.19,3.07C1388.09,1574.41,1367.89,1573.62,1368.43,1560.25Z"/><path class="cls-39" d="M1401.51,1849.87c-55.92-43.73-75.17-141.08-42.92-216.91s104.09-101.93,160-58.17,75.17,141.1,42.88,216.9-104.06,102-160,58.18Z"/><path class="cls-36" d="M1415.27,1817.52c-42.75-33.5-57.44-107.9-32.77-166s79.62-77.87,122.31-44.4,57.44,107.92,32.81,165.89-79.6,78-122.35,44.48Zm71.67-168.28c-25.66-20.18-58.64-8.25-73.4,26.63s-6,79.56,19.6,99.63,58.63,8.17,73.51-26.68,5.92-79.46-19.71-99.58Z"/><path class="cls-49" d="M1421,1804c-37.28-29.2-50.08-94.06-28.58-144.68s69.41-67.89,106.63-38.71,50.08,94.08,28.6,144.62-69.39,68-106.65,38.77Z"/><path class="cls-50" d="M1388.77,1755.1c-9.7-29.86-9.24-65.35,3.67-95.75,18.41-43.21,56.1-62.06,89.91-48.38Z"/><path class="cls-51" d="M1396.4,1673.91c15.64-36.75,50.3-49.32,77.41-28.15s36.36,68.26,20.7,105-50.25,49.31-77.38,28.16S1380.76,1710.68,1396.4,1673.91Z"/><path class="cls-50" d="M1414.46,1678.21a10.54,10.54,0,0,1,0,11.76c-2.4,3.25-6.28,3.25-8.67,0a10.5,10.5,0,0,1,0-11.76C1408.18,1675,1412.06,1675,1414.46,1678.21Z"/><path class="cls-50" d="M1454,1731.85a10.52,10.52,0,0,1,0,11.75c-2.4,3.25-6.28,3.25-8.67,0a10.49,10.49,0,0,1,0-11.75C1447.74,1728.6,1451.62,1728.6,1454,1731.85Z"/><path class="cls-50" d="M1439.47,1697.93c5.29,7.17,5.29,18.79,0,26s-13.85,7.17-19.14,0-5.29-18.79,0-26S1434.19,1690.76,1439.47,1697.93Z"/><path class="cls-50" d="M1401.3,1712.7c3.27-1.19,6.63,1.44,7.51,5.87s-1.07,9-4.34,10.18-6.63-1.44-7.51-5.87S1398,1713.88,1401.3,1712.7Z"/><path class="cls-50" d="M1455.33,1693.06c3.27-1.18,6.64,1.45,7.51,5.88s-1.06,9-4.33,10.18-6.63-1.44-7.51-5.88S1452.06,1694.25,1455.33,1693.06Z"/><path class="cls-50" d="M1416.74,1745.39c.88-4.43,4.24-7.07,7.51-5.88s5.21,5.75,4.33,10.18-4.23,7.07-7.5,5.88S1415.86,1749.82,1416.74,1745.39Z"/><path class="cls-50" d="M1431.22,1672.13c.88-4.44,4.24-7.07,7.51-5.88s5.21,5.74,4.33,10.18-4.23,7.06-7.51,5.88S1430.34,1676.56,1431.22,1672.13Z"/><path class="cls-39" d="M1363.66,1575.87A594.37,594.37,0,0,1,1438.1,1556c13.11-2.6,17.05,17.23,3.94,19.83a574.38,574.38,0,0,0-71.9,19.16C1357.49,1599.31,1351,1580.16,1363.66,1575.87Z"/><path class="cls-39" d="M1410.86,1881.18c-9.27,0-10.36-8.93-11.12-15.55a101.2,101.2,0,0,1,0-21.17c1.28-13.3,21.41-11.38,20.12,1.93a73.73,73.73,0,0,0,.91,22.48,10.13,10.13,0,0,1-7.68,12.07A10.36,10.36,0,0,1,1410.86,1881.18Z"/><path class="cls-39" d="M1339.12,1812.25a253.24,253.24,0,0,1,16.7-40.16c6.11-11.87,24.1-2.64,18,9.25a233.35,233.35,0,0,0-15.38,36.92C1354.45,1831,1335.14,1825,1339.12,1812.25Z"/><path class="cls-39" d="M1311.15,1734.34a423.44,423.44,0,0,1,34.55-43.6c8.94-9.93,24,3.61,15,13.54a404.68,404.68,0,0,0-32.91,41.52C1320.23,1756.81,1303.57,1745.36,1311.15,1734.34Z"/><path class="cls-39" d="M1316.84,1652.63a529.18,529.18,0,0,1,52.43-40.8c11-7.53,22.45,9.17,11.4,16.7a509.76,509.76,0,0,0-50.43,39.24C1320.24,1676.63,1306.83,1661.5,1316.84,1652.63Z"/><path class="cls-39" d="M1363.06,1858.6q-18.64-8.2-37.63-18.19c-11.81-6.23-2.39-24.12,9.44-17.88s24,12.13,36.34,17.56a10.11,10.11,0,1,1-8.15,18.51Z"/><path class="cls-39" d="M1313.77,1789.8c-9.9-7.62-19-15.17-27.76-22.92-10-8.86,3.4-24,13.41-15.14,9,8,17.58,15,26.68,22C1336.69,1781.92,1324.36,1798,1313.77,1789.8Z"/><path class="cls-39" d="M1298.22,1709.21c-6.29-7.84-12.25-15.82-17.9-24-7.58-11,9.09-22.46,16.66-11.45,5.41,7.86,11.16,15.56,17,22.84C1322.35,1707,1306.59,1719.65,1298.22,1709.21Z"/><path class="cls-39" d="M1316.34,1629a227.26,227.26,0,0,1-8-21.75c-4-12.75,15.34-18.78,19.31-6a206.43,206.43,0,0,0,7.34,19.84,10.11,10.11,0,0,1-18.6,7.92Z"/><path class="cls-39" d="M1473.3,1881c.29-.15.57-.31.85-.49a10.11,10.11,0,0,0,3.06-14,91.84,91.84,0,0,1-4.73-8.25c-1-2-1.84-3.86-2.6-5.78a10.11,10.11,0,0,0-18.8,7.42c1,2.46,2.06,4.89,3.34,7.43a107.8,107.8,0,0,0,5.77,10.09A10.12,10.12,0,0,0,1473.3,1881Z"/><path class="cls-39" d="M1532.72,1830.14a10.06,10.06,0,0,0-4.81.66c-3.67,1.46-6.93,2.7-10,3.84s-5.88,2.17-8.73,3.18-5.72,2-8.86,3.07-6.54,2.18-10.48,3.43a10.11,10.11,0,0,0,6.09,19.28c4.07-1.29,7.6-2.45,10.85-3.55s6.23-2.13,9.18-3.18,5.89-2.12,9-3.3,6.52-2.47,10.32-4a10.11,10.11,0,0,0-2.64-19.45Z"/><path class="cls-39" d="M1571.35,1756.66a10,10,0,0,0-6.7,2.54c-3.37,3-6.24,5.45-9,7.75s-5.29,4.42-8.1,6.69-5.87,4.7-9.61,7.59a10.11,10.11,0,1,0,12.33,16c3.89-3,7.07-5.52,10-7.88s5.6-4.57,8.43-7,5.83-5,9.34-8.07a10.11,10.11,0,0,0-6.71-17.67Z"/><path class="cls-39" d="M1577.14,1678.31a10.11,10.11,0,0,0-8.33,4.37c-2.08,3-3.88,5.56-5.6,7.92s-3.37,4.58-5.18,7-3.78,4.92-6.24,8a10.11,10.11,0,0,0,15.77,12.66c2.58-3.22,4.66-5.89,6.56-8.39s3.63-4.82,5.44-7.31,3.71-5.15,5.9-8.34a10.1,10.1,0,0,0-8.32-15.84Z"/><path class="cls-39" d="M1550.68,1599.07a10.12,10.12,0,0,0-9.65,7.11c-1.32,4.23-2.42,7.29-3.32,9.73s-2.11,5.6-4,10.11a10.11,10.11,0,0,0,18.61,7.91c2.08-4.9,3.38-8.31,4.38-11,1.4-3.81,2.49-7,3.65-10.73a10.11,10.11,0,0,0-9.65-13.12Z"/><path class="cls-39" d="M1487.52,1546.22a10.41,10.41,0,0,0-2.59.23,10.11,10.11,0,0,0-7.68,12.06,50.28,50.28,0,0,1,.94,5.86,61.43,61.43,0,0,1,.33,6.56,10.11,10.11,0,0,0,20.22,0,82.28,82.28,0,0,0-.44-8.59,68.81,68.81,0,0,0-1.31-8.16A10.11,10.11,0,0,0,1487.52,1546.22Z"/><path class="cls-36" d="M1333.42,1643.94c14.12-64.68,55.48-111.67,106.78-124.87a117.15,117.15,0,0,1,29.27-3.75c26.72,0,52.74,9.32,75.25,26.94,35.49,27.79,58.52,73.38,63.89,124.68a12.81,12.81,0,0,1-12.77,14.11h0c-2.27-50.91-23.26-99.47-59.61-127.94-20.22-15.83-43.26-24-66.76-24a103.53,103.53,0,0,0-25.83,3.31c-36.91,9.5-68.25,38.85-86,80.52a181.27,181.27,0,0,0-6.74,18.65,17.42,17.42,0,0,1-17.48,12.36Z"/><path class="cls-39" d="M1252.88,1671.69a234.4,234.4,0,0,1,15.49-53.73c21.75-51.06,60.15-87,105.37-98.66a126.27,126.27,0,0,1,31.29-4h64.44v0a117.15,117.15,0,0,0-29.27,3.75c-41.08,10.57-75.8,42.82-95.24,88.47a203.3,203.3,0,0,0-11.48,36.41Z"/><path class="cls-57" d="M1328.37,1307.58h6.15a20.91,20.91,0,0,1,20.22,15.55l3.13,11.75H1324l-4.27-16.06A8.94,8.94,0,0,1,1328.37,1307.58Z"/><path class="cls-57" d="M1214.67,1307.58h6.15a20.93,20.93,0,0,1,20.22,15.55l3.12,11.75h-33.87l-4.27-16.06A8.94,8.94,0,0,1,1214.67,1307.58Z"/><path class="cls-56" d="M1357.71,1510h6.93a14.49,14.49,0,0,1,14.49,14.49v21.41a0,0,0,0,1,0,0h-35.9a0,0,0,0,1,0,0v-21.41A14.49,14.49,0,0,1,1357.71,1510Z"/><line class="cls-58" x1="578.69" y1="1757.6" x2="490.88" y2="1823.3"/><path class="cls-59" d="M592.16,1728.8h-.26a9.45,9.45,0,0,0-7,3.12c-.93,1-1.89,2-2.87,3l-15.61,15.61a9.32,9.32,0,0,0-2.73,6.59v6.5a9.34,9.34,0,0,0,2.73,6.6l15.61,15.6c1,1,1.94,2,2.87,3a9.41,9.41,0,0,0,7,3.12h.26a9.33,9.33,0,0,0,9.33-9.33v-44.5A9.33,9.33,0,0,0,592.16,1728.8Z"/><path class="cls-60" d="M1209.41,1723.22l-53.83,26.92a20.06,20.06,0,0,0-11.1,17.94h0a20.08,20.08,0,0,0,20.07,20.07h44.86"/><polyline class="cls-61" points="1210.64 1665.5 1210.64 1760.38 619.57 1760.38"/><path class="cls-62" d="M1045,1654.12l-29.68,6.75a16.74,16.74,0,0,0-13,16.32h0a16.74,16.74,0,0,0,16.74,16.74h65.78Z"/><polygon class="cls-63" points="1084.76 1693.93 1118.53 1693.93 1118.53 1637.4 1044.95 1654.12 1084.76 1693.93"/><path class="cls-62" d="M1045,1866.64l-29.68-6.75a16.73,16.73,0,0,1-13-16.32h0a16.73,16.73,0,0,1,16.74-16.73h65.78Z"/><polygon class="cls-63" points="1084.76 1826.84 1118.53 1826.84 1118.53 1883.36 1044.95 1866.64 1084.76 1826.84"/><path class="cls-62" d="M901.82,1654.12l-29.69,6.75a16.74,16.74,0,0,0-13,16.32h0a16.75,16.75,0,0,0,16.74,16.74h65.78Z"/><polygon class="cls-63" points="941.62 1693.93 975.39 1693.93 975.39 1637.4 901.82 1654.12 941.62 1693.93"/><path class="cls-62" d="M901.82,1866.64l-29.69-6.75a16.73,16.73,0,0,1-13-16.32h0a16.74,16.74,0,0,1,16.74-16.73h65.78Z"/><polygon class="cls-63" points="941.62 1826.84 975.39 1826.84 975.39 1883.36 901.82 1866.64 941.62 1826.84"/><path class="cls-62" d="M758.68,1654.12,729,1660.87a16.73,16.73,0,0,0-13,16.32h0a16.74,16.74,0,0,0,16.73,16.74h65.78Z"/><polygon class="cls-63" points="798.48 1693.93 832.26 1693.93 832.26 1637.4 758.68 1654.12 798.48 1693.93"/><path class="cls-62" d="M758.68,1866.64,729,1859.89a16.72,16.72,0,0,1-13-16.32h0a16.73,16.73,0,0,1,16.73-16.73h65.78Z"/><polygon class="cls-63" points="798.48 1826.84 832.26 1826.84 832.26 1883.36 758.68 1866.64 798.48 1826.84"/><path class="cls-62" d="M615.54,1654.12l-29.69,6.75a16.74,16.74,0,0,0-13,16.32h0a16.74,16.74,0,0,0,16.73,16.74h65.78Z"/><polygon class="cls-63" points="655.34 1693.93 689.12 1693.93 689.12 1637.4 615.54 1654.12 655.34 1693.93"/><path class="cls-62" d="M615.54,1866.64l-29.69-6.75a16.73,16.73,0,0,1-13-16.32h0a16.73,16.73,0,0,1,16.73-16.73h65.78Z"/><polygon class="cls-63" points="655.34 1826.84 689.12 1826.84 689.12 1883.36 615.54 1866.64 655.34 1826.84"/><path class="cls-13" d="M1110.13,1741.55a71.45,71.45,0,0,1-14.3-80.16,8.3,8.3,0,0,0-4.38-11.15,8.47,8.47,0,0,0-10.82,4.45,87.95,87.95,0,0,0,.16,73.43,55.23,55.23,0,0,1,5.2,23.16v18.2a55.23,55.23,0,0,1-5.2,23.16,87.93,87.93,0,0,0,0,73.68,8.29,8.29,0,0,0,7.54,4.83,8.44,8.44,0,0,0,3.48-.76,8.31,8.31,0,0,0,4.06-11A71.5,71.5,0,0,1,1100,1792a8.24,8.24,0,0,0,2-3.12,70.82,70.82,0,0,1,8.06-9.66l13.57-13.57v-10.52Z"/><path class="cls-13" d="M967.26,1741.55a71.45,71.45,0,0,1-14.3-80.16,8.3,8.3,0,0,0-4.37-11.15,8.48,8.48,0,0,0-10.83,4.45,87.95,87.95,0,0,0,.16,73.43,55.24,55.24,0,0,1,5.21,23.16v18.2a55.24,55.24,0,0,1-5.21,23.16,87.93,87.93,0,0,0,0,73.68,8.29,8.29,0,0,0,7.54,4.83,8.44,8.44,0,0,0,3.48-.76,8.31,8.31,0,0,0,4.06-11,71.5,71.5,0,0,1,4.19-67.38,8.24,8.24,0,0,0,2.05-3.12,71.56,71.56,0,0,1,8.06-9.66l13.57-13.57v-10.52Z"/><path class="cls-13" d="M824.39,1741.55a71.45,71.45,0,0,1-14.3-80.16,8.3,8.3,0,0,0-4.37-11.15,8.48,8.48,0,0,0-10.83,4.45,87.95,87.95,0,0,0,.16,73.43,55.09,55.09,0,0,1,5.21,23.16v18.2a55.09,55.09,0,0,1-5.21,23.16,87.93,87.93,0,0,0,0,73.68,8.29,8.29,0,0,0,7.54,4.83,8.44,8.44,0,0,0,3.48-.76,8.31,8.31,0,0,0,4.06-11,71.5,71.5,0,0,1,4.19-67.38,8.24,8.24,0,0,0,2.05-3.12,71.56,71.56,0,0,1,8.06-9.66L838,1765.64v-10.52Z"/><path class="cls-13" d="M681.52,1741.55a71.46,71.46,0,0,1-14.3-80.16,8.3,8.3,0,0,0-4.37-11.15,8.48,8.48,0,0,0-10.83,4.45,87.95,87.95,0,0,0,.16,73.43,55.09,55.09,0,0,1,5.21,23.16v18.2a55.09,55.09,0,0,1-5.21,23.16,87.93,87.93,0,0,0,0,73.68,8.3,8.3,0,0,0,7.54,4.83,8.44,8.44,0,0,0,3.48-.76,8.31,8.31,0,0,0,4.06-11,71.52,71.52,0,0,1,4.19-67.38,8.38,8.38,0,0,0,2.06-3.12,70.75,70.75,0,0,1,8-9.66l13.57-13.57v-10.52Z"/><path class="cls-64" d="M1158.68,1635.8H1050.12a6.1,6.1,0,0,0-6.1,6.1h0a6.11,6.11,0,0,0,4.6,5.92l34.39,8.7a39.67,39.67,0,0,1,28.14,26.57l3.42,10.84h11.07V1674.1a20.42,20.42,0,0,1,10.68-17.95l15.17-8.26a13.76,13.76,0,0,0,7.19-12.09Z"/><path class="cls-64" d="M1158.68,1885H1050.12a6.1,6.1,0,0,1-6.1-6.1h0a6.1,6.1,0,0,1,4.6-5.91l34.39-8.7a39.7,39.7,0,0,0,28.14-26.57l3.42-10.84h11.07v19.82a20.45,20.45,0,0,0,10.68,18l15.17,8.25a13.77,13.77,0,0,1,7.19,12.09Z"/><path class="cls-64" d="M1015.54,1635.8H907a6.11,6.11,0,0,0-6.1,6.1h0a6.11,6.11,0,0,0,4.61,5.92l34.39,8.7A39.7,39.7,0,0,1,968,1683.09l3.41,10.84H982.5V1674.1a20.42,20.42,0,0,1,10.68-17.95l15.18-8.26a13.75,13.75,0,0,0,7.18-12.09Z"/><path class="cls-64" d="M1015.54,1885H907a6.11,6.11,0,0,1-6.1-6.1h0a6.1,6.1,0,0,1,4.61-5.91l34.39-8.7A39.74,39.74,0,0,0,968,1837.68l3.41-10.84H982.5v19.82a20.45,20.45,0,0,0,10.68,18l15.18,8.25a13.76,13.76,0,0,1,7.18,12.09Z"/><path class="cls-64" d="M872.41,1635.8H763.85a6.1,6.1,0,0,0-6.1,6.1h0a6.1,6.1,0,0,0,4.6,5.92l34.39,8.7a39.7,39.7,0,0,1,28.14,26.57l3.41,10.84h11.08V1674.1A20.41,20.41,0,0,1,850,1656.15l15.18-8.26a13.76,13.76,0,0,0,7.19-12.09Z"/><path class="cls-64" d="M872.41,1885H763.85a6.1,6.1,0,0,1-6.1-6.1h0a6.09,6.09,0,0,1,4.6-5.91l34.39-8.7a39.74,39.74,0,0,0,28.14-26.57l3.41-10.84h11.08v19.82a20.44,20.44,0,0,0,10.67,18l15.18,8.25a13.77,13.77,0,0,1,7.19,12.09Z"/><path class="cls-64" d="M729.27,1635.8H620.71a6.1,6.1,0,0,0-6.1,6.1h0a6.11,6.11,0,0,0,4.6,5.92l34.39,8.7a39.7,39.7,0,0,1,28.14,26.57l3.42,10.84h11.07V1674.1a20.42,20.42,0,0,1,10.68-17.95l15.17-8.26a13.76,13.76,0,0,0,7.19-12.09Z"/><path class="cls-64" d="M729.27,1885H620.71a6.1,6.1,0,0,1-6.1-6.1h0a6.1,6.1,0,0,1,4.6-5.91l34.39-8.7a39.74,39.74,0,0,0,28.14-26.57l3.42-10.84h11.07v19.82a20.45,20.45,0,0,0,10.68,18l15.17,8.25a13.77,13.77,0,0,1,7.19,12.09Z"/><line class="cls-46" x1="1203.1" y1="1676.5" x2="1189.7" y2="1756.38"/><path class="cls-62" d="M1230.61,1804.14H1172a22.15,22.15,0,0,1-22.16-22.15h80.8a11.08,11.08,0,0,1,11.08,11.08h0A11.07,11.07,0,0,1,1230.61,1804.14Z"/><circle class="cls-9" cx="1223.96" cy="1768.76" r="23.3" transform="translate(-371.95 326.65) rotate(-13.22)"/><path class="cls-60" d="M1214.79,1723.22l53.83,26.92a20.05,20.05,0,0,1,11.09,17.94h0a20.07,20.07,0,0,1-20.06,20.07h-33.14"/><path class="cls-13" d="M603.44,1792h.26a9.41,9.41,0,0,0,7-3.12c.93-1,1.89-2,2.87-3l15.61-15.6a9.34,9.34,0,0,0,2.73-6.6v-6.5a9.32,9.32,0,0,0-2.73-6.59l-15.61-15.61c-1-1-1.94-2-2.87-3a9.41,9.41,0,0,0-7-3.12h-.26a9.33,9.33,0,0,0-9.33,9.33v44.5A9.33,9.33,0,0,0,603.44,1792Z"/><path class="cls-9" d="M521.77,1882.82H483.41v0a34.79,34.79,0,0,1-21.74-7.84c-20.76-16.24-27.91-52.38-15.93-80.54,8-18.87,22.66-29.39,37.67-29.43v0h38.36Z"/><path class="cls-39" d="M500.45,1875c-20.76-16.24-27.91-52.38-15.94-80.54s38.65-37.85,59.41-21.6,27.91,52.39,15.92,80.54-38.64,37.87-59.39,21.6Z"/><path class="cls-62" d="M508.84,1855.23c-12.74-10-17.12-32.16-9.77-49.46s23.73-23.21,36.45-13.24,17.12,32.17,9.78,49.45-23.72,23.24-36.46,13.25Z"/><path class="cls-63" d="M497.82,1838.5a47.78,47.78,0,0,1,1.25-32.73c6.29-14.77,19.18-21.22,30.74-16.54Z"/><path class="cls-64" d="M505.22,1812.56c4.61-10.83,14.82-14.54,22.81-8.3s10.72,20.12,6.11,31-14.81,14.54-22.81,8.3S500.61,1823.4,505.22,1812.56Z"/><path class="cls-63" d="M516.62,1812.43a3.5,3.5,0,0,1,0,3.94,1.7,1.7,0,0,1-2.91,0,3.53,3.53,0,0,1,0-3.94A1.7,1.7,0,0,1,516.62,1812.43Z"/><path class="cls-63" d="M529.89,1830.42a3.5,3.5,0,0,1,0,3.94,1.69,1.69,0,0,1-2.9,0,3.5,3.5,0,0,1,0-3.94A1.69,1.69,0,0,1,529.89,1830.42Z"/><ellipse class="cls-9" cx="521.8" cy="1823.4" rx="5.57" ry="7.56"/><path class="cls-63" d="M512.21,1824c1.09-.39,2.22.49,2.52,2a3,3,0,0,1-1.46,3.41c-1.1.4-2.22-.48-2.52-2A3,3,0,0,1,512.21,1824Z"/><path class="cls-63" d="M530.34,1817.41c1.09-.4,2.22.48,2.52,2a3,3,0,0,1-1.46,3.42c-1.1.39-2.22-.49-2.52-2A3,3,0,0,1,530.34,1817.41Z"/><path class="cls-63" d="M517.39,1835c.29-1.48,1.42-2.37,2.52-2a3,3,0,0,1,1.45,3.42c-.29,1.49-1.42,2.37-2.52,2A3,3,0,0,1,517.39,1835Z"/><path class="cls-63" d="M522.25,1810.38c.29-1.49,1.42-2.37,2.52-2a3,3,0,0,1,1.45,3.42c-.29,1.48-1.42,2.37-2.52,2A3,3,0,0,1,522.25,1810.38Z"/><path class="cls-12" d="M521.28,1888.22H742.46a92.14,92.14,0,0,0-63.57-87.6h0a118.33,118.33,0,0,0-141,56.58Z"/><path class="cls-35" d="M583.71,1888.22h142A59.18,59.18,0,0,0,684.92,1832h0a76,76,0,0,0-90.52,36.34Z"/><path class="cls-12" d="M657,1888.22H878.21a92.13,92.13,0,0,0-63.57-87.6h0a118.33,118.33,0,0,0-141,56.58Z"/><path class="cls-35" d="M719.47,1888.22h142A59.17,59.17,0,0,0,820.68,1832h0a76,76,0,0,0-90.53,36.34Z"/><path class="cls-12" d="M812.47,1888.22h221.18a92.14,92.14,0,0,0-63.57-87.6h0a118.33,118.33,0,0,0-141,56.58Z"/><path class="cls-35" d="M874.9,1888.22h142A59.18,59.18,0,0,0,976.11,1832h0a76,76,0,0,0-90.53,36.34Z"/><path class="cls-12" d="M951.89,1888.22h221.17a92.13,92.13,0,0,0-63.57-87.6h0a118.33,118.33,0,0,0-141,56.58Z"/><path class="cls-35" d="M1014.32,1888.22h142a59.17,59.17,0,0,0-40.82-56.26h0A76,76,0,0,0,1025,1868.3Z"/><rect class="cls-12" x="239.02" y="1880.54" width="2267.85" height="484.41" transform="translate(2745.9 4245.49) rotate(180)"/><polyline class="cls-65" points="2506.88 1929.79 2289.15 1929.79 2267.15 1946.94 2197.43 1929.79 1822.84 1929.79 1740.57 1970.93 1721.97 1929.79 1416.25 1929.79 1348.52 1946.94 1320.24 1929.79 1144.88 1929.79 1112.01 1912.65 1045.65 1929.79 852.56 1929.79 802.91 1958.37 765.49 1929.79 601.49 1929.79 510.68 1958.37 450.18 1929.79 239.03 1929.79"/><polyline class="cls-65" points="239.03 2015.77 456.75 2015.77 478.75 2032.91 548.47 2015.77 624.32 2015.77 706.58 2056.9 725.18 2015.77 1329.65 2015.77 1397.38 2032.91 1425.66 2015.77 1877.69 2015.77 1910.56 1998.62 1976.91 2015.77 2144.41 2015.77 2235.22 2044.34 2295.72 2015.77 2506.88 2015.77"/><polyline class="cls-65" points="239.03 2104.91 456.75 2104.91 478.75 2122.06 548.47 2104.91 923.06 2104.91 1005.33 2146.05 1023.93 2104.91 1329.65 2104.91 1397.38 2122.06 1425.66 2104.91 1601.03 2104.91 1633.89 2087.77 1700.25 2104.91 1893.34 2104.91 1942.99 2133.49 1980.41 2104.91 2144.41 2104.91 2235.22 2133.49 2295.72 2104.91 2506.88 2104.91"/><polyline class="cls-65" points="2506.88 2196.6 2409.16 2196.6 2387.17 2213.75 2317.45 2196.6 2121.59 2196.6 2039.32 2237.74 2020.72 2196.6 1416.25 2196.6 1348.52 2213.75 1320.24 2196.6 868.21 2196.6 835.35 2179.46 768.98 2196.6 601.49 2196.6 510.68 2225.18 450.18 2196.6 239.03 2196.6"/><polyline class="cls-65" points="2506.88 2288.04 2243.29 2288.04 2221.29 2305.19 2151.57 2288.04 1766.23 2288.04 1665.37 2288.04 1258.64 2288.04 1218.91 2270.9 1162.63 2288.04 868.21 2288.04 819.78 2316.62 768.98 2288.04 239.03 2288.04"/></g></svg>