<svg xmlns="http://www.w3.org/2000/svg" xmlns:xlink="http://www.w3.org/1999/xlink" xml:space="preserve" enable-background="new 0 0 4680 3120" viewBox="0 0 4680 3120">
  <g>
    <g>
      <path fill="#d5eff2" d="M3770.5,1676.5c0,1.5,0,3,0,4.5c0,1.6,0,3.2-0.1,4.8c0,0.6,0,1.3,0,1.9c0,1.9-0.1,3.9-0.1,5.8
			c0,1.3,0,2.6-0.1,3.8c0,1.7-0.1,3.3-0.1,4.9c0,0.9,0,1.9-0.1,2.8c0,1.9-0.1,3.7-0.2,5.6c0,1-0.1,2-0.1,3.1c0,1.4-0.1,2.8-0.2,4.2
			c-0.1,1.6-0.1,3.1-0.2,4.7c-0.1,2.7-0.2,5.5-0.4,8.2c-0.3,5.5-0.6,11-1,16.5c-0.2,2.4-0.3,4.8-0.5,7.2c-0.1,2.2-0.3,4.3-0.5,6.4
			c0,0.4,0,0.8-0.1,1.2c-0.2,2.1-0.3,4.1-0.5,6.2c-0.1,0.9-0.1,1.7-0.2,2.6c-0.1,1.5-0.3,3.1-0.4,4.6c-0.1,1.4-0.2,2.8-0.4,4.3
			c-0.1,1.1-0.2,2.3-0.3,3.4c-0.2,1.9-0.4,3.9-0.6,5.8c-0.1,0.8-0.2,1.6-0.2,2.4c-0.3,2.7-0.6,5.3-0.9,8c-0.3,2.9-0.6,5.8-1,8.6
			c-0.6,5.1-1.2,10.3-1.9,15.4c-0.2,1.7-0.5,3.4-0.7,5.1c-0.2,1.5-0.4,2.9-0.6,4.4c-0.1,0.8-0.2,1.6-0.3,2.4c-0.3,2.4-0.7,4.8-1,7.2
			c0,0.1,0,0.1,0,0.2c-0.4,2.5-0.8,5-1.1,7.5c-0.1,0.6-0.2,1.2-0.3,1.8c-0.3,1.8-0.6,3.7-0.9,5.5c-0.3,2.1-0.7,4.1-1,6.2
			c-0.3,1.8-0.6,3.7-0.9,5.5c-0.4,2.6-0.9,5.1-1.4,7.7c-0.5,2.8-1,5.5-1.5,8.3c-0.1,0.5-0.2,1-0.3,1.5c-0.4,2.3-0.9,4.5-1.3,6.8
			c-0.4,2.1-0.8,4.3-1.3,6.4c-0.3,1.7-0.7,3.4-1.1,5.2c-0.4,1.8-0.7,3.5-1.1,5.3c-0.1,0.5-0.2,0.9-0.3,1.4c-0.4,1.8-0.8,3.6-1.2,5.3
			c-0.3,1.3-0.6,2.6-0.9,3.9c-0.3,1.4-0.6,2.9-1,4.3c-0.3,1.3-0.6,2.6-0.9,3.9c-1.8,7.8-3.6,15.5-5.6,23.3c-0.4,1.4-0.7,2.8-1.1,4.2
			c-0.5,2.2-1.1,4.3-1.7,6.5c-0.6,2.2-1.1,4.3-1.7,6.5c-0.1,0.4-0.2,0.9-0.4,1.3c-0.5,1.9-1.1,3.9-1.6,5.8c-0.3,1.1-0.6,2.2-0.9,3.4
			c-0.4,1.3-0.7,2.7-1.1,4c-0.5,1.7-1,3.4-1.5,5.1c-0.1,0.2-0.1,0.4-0.2,0.6c-0.7,2.3-1.4,4.7-2.1,7c-0.7,2.5-1.5,4.9-2.2,7.4
			c-0.8,2.5-1.5,4.9-2.3,7.4c-0.6,1.9-1.2,3.9-1.8,5.8c-0.4,1.3-0.9,2.7-1.3,4c-0.7,2.3-1.5,4.6-2.2,6.8c-0.7,2.1-1.4,4.2-2.1,6.3
			c-0.4,1.3-0.9,2.6-1.3,4c-0.6,1.8-1.3,3.7-1.9,5.5c-0.2,0.5-0.3,0.9-0.5,1.4c-0.6,1.8-1.3,3.6-1.9,5.4c-0.5,1.3-0.9,2.7-1.4,4
			c-0.2,0.7-0.5,1.3-0.7,2c-0.7,2-1.5,4-2.2,6c-0.9,2.4-1.8,4.8-2.7,7.2c-1.8,4.8-3.7,9.6-5.6,14.4c-0.9,2.4-1.9,4.8-2.9,7.2
			c-0.8,1.9-1.5,3.8-2.3,5.7c-0.3,0.8-0.7,1.6-1,2.4c-0.7,1.7-1.4,3.4-2.1,5.1c-0.2,0.6-0.5,1.2-0.8,1.8c-0.8,2-1.7,3.9-2.5,5.9
			c-0.2,0.5-0.4,1-0.6,1.5c-0.8,1.8-1.6,3.6-2.4,5.4c-0.3,0.7-0.6,1.4-0.9,2.1c-0.8,1.9-1.7,3.8-2.5,5.7c-1.1,2.4-2.1,4.7-3.2,7.1
			c-2.1,4.7-4.3,9.4-6.6,14c-0.6,1.3-1.2,2.6-1.9,3.9c-0.8,1.6-1.5,3.2-2.3,4.7c-0.2,0.4-0.3,0.7-0.5,1.1c-1,2-1.9,4-2.9,5.9
			c-0.5,1.1-1.1,2.1-1.6,3.2c-0.7,1.3-1.3,2.7-2,4c-0.5,1.1-1.1,2.1-1.6,3.2c-0.9,1.7-1.7,3.4-2.6,5.1c-0.3,0.6-0.6,1.2-0.9,1.8
			c-1,1.8-1.9,3.7-2.9,5.5c-3,5.7-6.1,11.4-9.2,17c-0.6,1-1.1,2-1.7,3c-0.3,0.5-0.5,1-0.8,1.5c0,0-0.1,0.1-0.1,0.2
			c-1.3,2.4-2.7,4.8-4,7.1c-1.3,2.2-2.6,4.5-3.9,6.7c-1.6,2.8-3.3,5.5-4.9,8.3c-0.9,1.5-1.8,3-2.6,4.4c-0.9,1.5-1.8,2.9-2.7,4.4
			c-0.9,1.5-1.8,2.9-2.7,4.4c-3.6,5.8-7.2,11.6-11,17.4c-0.8,1.2-1.6,2.5-2.4,3.7c-1.1,1.8-2.3,3.6-3.5,5.4
			c-0.9,1.3-1.7,2.6-2.6,3.9c-0.9,1.4-1.9,2.8-2.8,4.3c-0.9,1.4-1.9,2.8-2.9,4.2c-1,1.4-1.9,2.8-2.9,4.2c-2.9,4.2-5.8,8.4-8.8,12.6
			c-1,1.4-2,2.8-3,4.2c-2,2.8-4,5.5-6,8.3c-2,2.8-4,5.5-6.1,8.2c-1,1.4-2,2.7-3.1,4.1c-5.1,6.8-10.3,13.6-15.6,20.3
			c-24.7,31.3-51,61.1-78.9,89.6c-0.9,0.9-1.8,1.9-2.8,2.8c-7.4,7.5-15,15-22.6,22.3c-1,1-2,1.9-3,2.9c-1.2,1.1-2.4,2.3-3.6,3.4
			c-2,1.9-4,3.7-6,5.6c-2.4,2.2-4.7,4.4-7.1,6.6c-1.7,1.6-3.4,3.1-5.1,4.6c-1.4,1.3-2.8,2.5-4.2,3.8c-0.4,0.3-0.8,0.7-1.1,1
			c-1.3,1.2-2.6,2.3-3.9,3.5c-9.5,8.4-19.1,16.7-28.8,24.8c-1.7,1.4-3.4,2.8-5.1,4.3c-0.4,0.3-0.7,0.6-1,0.9c-2,1.7-4.1,3.3-6.1,5
			c-2.4,1.9-4.8,3.9-7.2,5.8c-1.3,1-2.6,2.1-3.9,3.1c-1.9,1.5-3.9,3.1-5.8,4.6c-2.4,1.9-4.9,3.8-7.3,5.7c-1,0.8-2,1.6-3,2.3
			c-13.2,10.2-26.7,20.1-40.4,29.7c-1.3,0.9-2.6,1.8-3.9,2.7c-1.3,0.9-2.6,1.8-3.9,2.7l0,0c-3,2.1-6,4.2-9,6.2
			c-1.2,0.8-2.4,1.7-3.7,2.5c-4.4,3-8.8,6-13.3,8.9c-1.2,0.8-2.3,1.5-3.5,2.3c-1.1,0.8-2.3,1.5-3.4,2.2c-1.1,0.8-2.3,1.5-3.4,2.2
			c-1.1,0.7-2.2,1.4-3.3,2.1c-1.9,1.3-3.9,2.5-5.8,3.7c-2.4,1.5-4.8,3-7.2,4.5c-2.5,1.6-5,3.1-7.5,4.7c-0.4,0.2-0.7,0.5-1.1,0.7
			c-2.1,1.3-4.2,2.6-6.4,3.9c-9.9,6-19.8,11.9-29.9,17.7c-1,0.6-2,1.2-3.1,1.8c-1.4,0.8-2.8,1.6-4.2,2.4c-1.9,1.1-3.9,2.2-5.8,3.3
			c-7.3,4.1-14.7,8.2-22.2,12.2c-1.3,0.7-2.6,1.4-3.9,2.1c-1.7,0.9-3.4,1.8-5.1,2.7c-3.4,1.8-6.8,3.6-10.2,5.3
			c-1.7,0.9-3.4,1.8-5.1,2.6c-0.1,0.1-0.3,0.1-0.4,0.2c-1.7,0.9-3.4,1.8-5.1,2.6c-3.9,2-7.8,4-11.7,5.9c-1.6,0.8-3.3,1.6-4.9,2.5
			c-1.8,0.9-3.6,1.8-5.4,2.6c-1.4,0.7-2.8,1.4-4.2,2c-1.7,0.8-3.3,1.6-5,2.4c-1.7,0.8-3.4,1.6-5.2,2.5c-2.2,1-4.3,2-6.5,3
			c-3.6,1.7-7.1,3.3-10.7,5c-2.5,1.1-5,2.3-7.5,3.4c-5,2.3-10,4.5-15,6.7c-2.4,1-4.7,2.1-7.1,3.1c-1.5,0.7-3.1,1.3-4.6,2
			c-1.3,0.6-2.6,1.1-3.9,1.7c-1.8,0.7-3.5,1.5-5.3,2.2c-1.7,0.7-3.3,1.4-5,2.1c-1.7,0.7-3.5,1.4-5.2,2.2c-2.3,0.9-4.5,1.9-6.8,2.8
			c-3,1.2-6,2.4-9,3.6c-0.2,0.1-0.3,0.1-0.4,0.2c-3.2,1.3-6.3,2.5-9.5,3.8c-2.2,0.8-4.3,1.7-6.5,2.5c-1.1,0.4-2.3,0.9-3.4,1.3
			c-4.2,1.6-8.3,3.2-12.5,4.7c-1.9,0.7-3.9,1.4-5.8,2.2c-0.4,0.1-0.8,0.3-1.1,0.4c-1.4,0.5-2.7,1-4.1,1.5c-2.1,0.8-4.2,1.5-6.3,2.3
			c-5.9,2.1-11.8,4.2-17.8,6.2c-2.2,0.8-4.4,1.5-6.5,2.2c-2.3,0.8-4.5,1.5-6.8,2.3c-1.8,0.6-3.6,1.2-5.4,1.8
			c-3.8,1.3-7.6,2.5-11.4,3.7c-1.9,0.6-3.8,1.2-5.7,1.8c-3.3,1-6.5,2.1-9.8,3.1c-2.2,0.7-4.4,1.3-6.5,2c-3.2,1-6.4,2-9.7,2.9
			c-2.3,0.7-4.6,1.4-6.9,2c-3.1,0.9-6.2,1.8-9.3,2.7c-2.1,0.6-4.3,1.2-6.4,1.8c-1.9,0.5-3.9,1.1-5.8,1.6l-6.1,1.7
			c-3,0.8-6.1,1.6-9.1,2.4c-1.8,0.5-3.6,1-5.5,1.4c-6.5,1.7-13.1,3.4-19.6,5c-2.2,0.6-4.5,1.1-6.7,1.7c-2.9,0.7-5.8,1.4-8.7,2.1
			c-1.6,0.4-3.2,0.8-4.8,1.1c-2.3,0.5-4.6,1.1-6.9,1.6c-2.2,0.5-4.4,1-6.6,1.5c-2.4,0.5-4.9,1.1-7.3,1.6c-2.5,0.5-5,1.1-7.5,1.6
			c-2.2,0.5-4.5,1-6.7,1.4c-1.4,0.3-2.9,0.6-4.3,0.9c-5.8,1.2-11.6,2.4-17.4,3.5c-2.6,0.5-5.2,1-7.7,1.5c-1.4,0.3-2.9,0.6-4.3,0.8
			c-1.8,0.3-3.6,0.7-5.5,1c-1.8,0.3-3.7,0.7-5.5,1c-1.8,0.3-3.7,0.7-5.5,1c-5.5,1-11,1.9-16.5,2.8c-0.4,0.1-0.8,0.1-1.1,0.2
			c-2.4,0.4-4.8,0.8-7.2,1.2c-1.9,0.3-3.8,0.6-5.8,0.9c-2.7,0.4-5.4,0.8-8.1,1.3c-2.8,0.4-5.7,0.9-8.5,1.3c-0.5,0.1-0.9,0.1-1.4,0.2
			c-0.3,0.1-0.7,0.1-1,0.1c-2.5,0.4-4.9,0.7-7.4,1.1c-0.3,0-0.6,0.1-0.9,0.1c-2.2,0.3-4.4,0.6-6.6,0.9c-9.7,1.3-19.4,2.6-29.1,3.8
			c-2.5,0.3-5.1,0.6-7.6,0.9c-0.2,0-0.5,0.1-0.7,0.1c-1.9,0.2-3.7,0.4-5.6,0.6c-1.7,0.2-3.5,0.4-5.2,0.6c-6.6,0.7-13.3,1.4-19.9,2.1
			h0c-2.2,0.2-4.4,0.4-6.6,0.6c-1.7,0.2-3.4,0.3-5.1,0.5c-2.9,0.3-5.8,0.5-8.7,0.8c-2.3,0.2-4.6,0.4-6.9,0.6c-3,0.3-5.9,0.5-8.9,0.7
			c-1.8,0.1-3.6,0.3-5.3,0.4c-0.4,0-0.8,0.1-1.2,0.1c-1.8,0.1-3.5,0.3-5.3,0.4c-3.2,0.2-6.4,0.5-9.7,0.7c-3.2,0.2-6.5,0.4-9.7,0.6
			c-2.7,0.2-5.4,0.3-8,0.5c-0.1,0-0.1,0-0.2,0c-3,0.2-5.9,0.3-8.9,0.5c-2.2,0.1-4.4,0.2-6.6,0.3c-1.8,0.1-3.5,0.2-5.3,0.3
			c-3.2,0.2-6.5,0.3-9.7,0.4c-2.2,0.1-4.5,0.2-6.7,0.3c-0.6,0-1.2,0.1-1.8,0.1c-0.7,0-1.4,0-2,0.1c-6.2,0.2-12.3,0.4-18.5,0.6
			c-3.2,0.1-6.5,0.2-9.7,0.3c-9.5,0.2-19.1,0.4-28.6,0.5c-2.5,0-5.1,0-7.6,0.1c-1.3,0-2.6,0-3.9,0c-0.4,0-0.8,0-1.2,0
			c-4.6,0-9.2,0-13.9,0c-2.4,0-4.9,0-7.3,0c-4.4,0-8.7-0.1-13.1-0.1c-1.5,0-3.1,0-4.6-0.1c-0.3,0-0.6,0-0.8,0c-1.4,0-2.8,0-4.2-0.1
			c-3.2,0-6.4-0.1-9.7-0.2c-2.5,0-4.9-0.1-7.4-0.2c-0.9,0-1.7,0-2.6-0.1c-2.8-0.1-5.5-0.1-8.3-0.2c-1.9,0-3.7-0.1-5.6-0.2
			c-1.9-0.1-3.7-0.1-5.6-0.2c-8.5-0.3-17.1-0.6-25.6-1.1c-2.7-0.1-5.3-0.2-8-0.4c-1.8-0.1-3.7-0.2-5.5-0.3c-1.6-0.1-3.2-0.2-4.7-0.3
			c-0.3,0-0.6,0-0.9-0.1c-3.3-0.2-6.6-0.4-9.9-0.6c-1.3-0.1-2.6-0.1-4-0.2c-2.9-0.2-5.9-0.4-8.8-0.6c-3.8-0.2-7.6-0.5-11.4-0.8h0
			c-3.8-0.3-7.5-0.5-11.3-0.8c-2.1-0.1-4.1-0.3-6.2-0.5c-3.1-0.2-6.3-0.5-9.4-0.7c-0.1,0-0.3,0-0.4,0c-3.3-0.3-6.6-0.5-9.9-0.8
			c-3.3-0.3-6.6-0.6-9.9-0.9c-0.4,0-0.7-0.1-1.1-0.1c-3.4-0.3-6.8-0.6-10.3-0.9c-0.7-0.1-1.4-0.1-2.1-0.2c-3-0.3-5.9-0.6-8.9-0.9
			c-3.5-0.4-7.1-0.7-10.6-1.1c-4.7-0.5-9.4-1-14.1-1.5c-4.5-0.5-9-1-13.4-1.5c-4.5-0.5-8.9-1-13.4-1.6c-1.4-0.2-2.8-0.3-4.1-0.5
			c-1.8-0.2-3.7-0.4-5.5-0.7c-4.3-0.5-8.7-1.1-13-1.6c-3.5-0.4-7.1-0.9-10.6-1.4c-0.1,0-0.2,0-0.3,0c-3.4-0.4-6.9-0.9-10.3-1.4
			c-3.3-0.4-6.6-0.9-9.8-1.3c-3.8-0.5-7.6-1.1-11.3-1.6c-3.5-0.5-7.1-1-10.6-1.5c-6.5-1-13-1.9-19.6-3c-10.7-1.7-21.4-3.4-32.2-5.2
			c-4.3-0.7-8.6-1.4-12.9-2.2c-2.4-0.4-4.8-0.8-7.1-1.2c-1.3-0.2-2.5-0.4-3.8-0.7c-26.9-4.7-53.7-9.8-80.5-15.2
			c-0.9-0.2-1.9-0.4-2.8-0.6c-2.7-0.5-5.4-1.1-8.2-1.7c-0.8-0.2-1.5-0.3-2.3-0.5c-2.1-0.4-4.2-0.9-6.3-1.3
			c-3.4-0.7-6.8-1.4-10.2-2.1c-3.4-0.7-6.7-1.4-10.1-2.2c-2.5-0.5-5-1.1-7.5-1.6c-2-0.4-4-0.9-5.9-1.3c-1.9-0.4-3.9-0.9-5.8-1.3
			c-3.6-0.8-7.2-1.6-10.8-2.4c-3.4-0.7-6.7-1.5-10.1-2.3c-7.8-1.8-15.6-3.6-23.4-5.4c-2.5-0.6-5-1.2-7.4-1.8
			c-3.1-0.7-6.1-1.4-9.2-2.2c-1.8-0.4-3.7-0.9-5.5-1.3c-4.4-1.1-8.8-2.1-13.2-3.2c-1.6-0.4-3.3-0.8-4.9-1.2
			c-3.5-0.8-6.9-1.7-10.4-2.6c-0.5-0.1-1.1-0.3-1.7-0.4c-0.3-0.1-0.5-0.1-0.8-0.2c-3-0.8-6-1.5-9.1-2.3c-31.8-8-63.5-16.4-95.1-25.2
			c-2-0.5-4-1.1-6-1.7c-5.9-1.6-11.8-3.3-17.7-5c-4.5-1.3-8.9-2.5-13.4-3.8c-4.8-1.4-9.7-2.8-14.5-4.2c-0.2-0.1-0.4-0.1-0.6-0.2
			c-2.6-0.7-5.1-1.5-7.7-2.2c-2.6-0.7-5.1-1.5-7.6-2.2c-5.3-1.6-10.6-3.1-15.9-4.7c-6-1.8-12.1-3.6-18.2-5.5c-3-0.9-6.1-1.8-9.1-2.8
			c-10.3-3.2-20.6-6.4-30.9-9.7c-2.4-0.8-4.8-1.5-7.2-2.3c-6.1-2-12.2-4-18.4-6c-3.4-1.1-6.8-2.2-10.1-3.4c-2.7-0.9-5.4-1.8-8-2.7
			c-0.8-0.3-1.6-0.5-2.4-0.8c-2.8-1-5.7-1.9-8.5-2.9c-4.1-1.4-8.2-2.8-12.3-4.2c-2.9-1-5.8-2-8.7-3.1c-4-1.4-8.1-2.8-12.1-4.3
			c-3.5-1.2-6.9-2.5-10.4-3.7c-3.5-1.3-6.9-2.5-10.4-3.8c-0.2-0.1-0.3-0.1-0.5-0.2c-3.2-1.2-6.5-2.4-9.7-3.6
			c-9.5-3.5-18.9-7.1-28.3-10.7c-4.2-1.6-8.4-3.3-12.5-4.9c-4.4-1.7-8.7-3.5-13-5.2c-2-0.8-4.1-1.7-6.1-2.5c-2-0.8-4.1-1.7-6.1-2.5
			c-2-0.8-3.9-1.6-5.9-2.4c-4-1.7-8-3.4-12.1-5c-1.8-0.7-3.5-1.5-5.2-2.2c-4.3-1.8-8.6-3.7-12.9-5.6c-2.9-1.3-5.9-2.6-8.8-3.8
			c-5.9-2.6-11.8-5.3-17.7-7.9c-2-0.9-4.1-1.8-6.1-2.8c-5.3-2.4-10.5-4.9-15.7-7.3c-0.3-0.1-0.6-0.3-0.9-0.4
			c-1.5-0.7-3.1-1.5-4.6-2.2c-8.6-4.1-17.1-8.2-25.6-12.5c-3-1.5-6-3-9-4.5c-9.3-4.7-18.5-9.5-27.6-14.3c-2-1.1-4-2.1-6-3.2
			c-3.1-1.6-6.1-3.3-9.2-5c-1.2-0.7-2.4-1.3-3.6-2c-6.5-3.6-12.9-7.2-19.4-10.9c-1.3-0.8-2.7-1.5-4-2.3c-0.5-0.3-0.9-0.5-1.4-0.8
			c-1.6-0.9-3.3-1.9-4.9-2.9c-1.6-1-3.3-1.9-4.9-2.9c-1.6-1-3.2-1.9-4.9-2.9c-1.6-1-3.2-1.9-4.9-2.9c-4.8-2.9-9.6-5.9-14.4-8.9
			c-1.2-0.8-2.4-1.5-3.7-2.3c-1.2-0.7-2.3-1.5-3.5-2.2c-2.4-1.5-4.8-3-7.1-4.5c-2.1-1.3-4.1-2.7-6.1-4c-2-1.3-4-2.6-6-3.9
			c-0.5-0.3-1-0.7-1.5-1c-1.6-1.1-3.2-2.1-4.8-3.2c-2.4-1.6-4.7-3.2-7.1-4.8c-1.6-1.1-3.2-2.2-4.9-3.3c-1-0.7-2-1.4-3-2.1
			c-1-0.7-2-1.4-3-2.1c-2-1.4-4-2.8-6-4.2c-4-2.8-7.9-5.6-11.8-8.5c-5.9-4.3-11.7-8.6-17.5-13c-3.8-2.9-7.7-5.9-11.5-8.9
			c-0.1-0.1-0.2-0.1-0.3-0.2c-3.7-2.9-7.4-5.8-11-8.8c-1.9-1.5-3.7-3-5.6-4.6s-3.7-3.1-5.6-4.6c-1.8-1.5-3.7-3.1-5.5-4.6
			c-0.5-0.4-1-0.9-1.6-1.3c-1.2-1-2.4-2-3.6-3.1c-0.1-0.1-0.2-0.2-0.3-0.3c-1.8-1.6-3.6-3.1-5.4-4.7c-0.9-0.7-1.7-1.5-2.6-2.2
			c-0.9-0.8-1.9-1.7-2.8-2.5c-1.8-1.6-3.6-3.2-5.4-4.8c-1.7-1.5-3.3-3-4.9-4.5c-0.3-0.3-0.6-0.6-0.9-0.9c-1.4-1.3-2.8-2.6-4.2-3.9
			c0,0-0.1-0.1-0.1-0.1c-0.2-0.1-0.3-0.3-0.5-0.4c0,0-0.1-0.1-0.1-0.1c-1.7-1.6-3.3-3.1-5-4.7c-1.7-1.6-3.5-3.3-5.2-5
			c-1.7-1.7-3.4-3.3-5.1-5c-1.4-1.3-2.7-2.7-4.1-4c0,0,0,0,0,0c-0.2-0.1-0.3-0.3-0.5-0.5c-0.2-0.2-0.5-0.5-0.7-0.7
			c-0.1-0.1-0.2-0.2-0.3-0.3c-1.5-1.5-3-3.1-4.6-4.6c-1.7-1.7-3.3-3.4-5-5.1c-1.7-1.7-3.3-3.4-5-5.2c-2-2.1-3.9-4.1-5.9-6.2
			c-0.1-0.1-0.2-0.2-0.2-0.2c-0.1-0.1-0.2-0.2-0.3-0.3c0,0,0,0,0,0c-1-1.1-2.1-2.2-3.1-3.3c-1.1-1.1-2.1-2.3-3.1-3.4
			c-1-1.1-2.1-2.3-3.1-3.4c-1-1.1-2.1-2.3-3.1-3.4c-1-1.2-2.1-2.3-3.1-3.5c-1-1.2-2-2.3-3-3.5c-2-2.3-4-4.7-6-7c-1-1.2-2-2.3-3-3.5
			c-1-1.2-2-2.4-3-3.6c-0.5-0.7-1.1-1.3-1.7-2c-1.6-1.9-3.2-3.9-4.7-5.8c-1-1.2-2-2.5-3-3.7c-0.4-0.6-0.9-1.1-1.3-1.7
			c-1.2-1.5-2.4-3-3.6-4.5c-1.2-1.5-2.3-3-3.5-4.5c-0.8-1-1.6-2.1-2.4-3.2c-2.3-3-4.5-5.9-6.7-8.9c-0.6-0.8-1.1-1.5-1.7-2.3
			c-0.2-0.2-0.3-0.4-0.4-0.6c-0.8-1.1-1.5-2.1-2.3-3.2c-0.1-0.1-0.2-0.2-0.2-0.3c-0.7-0.9-1.4-1.9-2-2.8c-0.8-1.1-1.6-2.3-2.4-3.4
			c-1.1-1.6-2.2-3.1-3.3-4.7c-0.7-1-1.4-2.1-2.1-3.1c0-0.1-0.1-0.1-0.1-0.2c-0.4-0.6-0.9-1.3-1.3-1.9c0,0,0,0,0-0.1
			c-1.4-2.1-2.8-4.2-4.2-6.3c-1.3-1.9-2.6-3.9-3.8-5.8c-1.3-2-2.5-3.9-3.8-5.9c-0.1-0.1-0.1-0.1-0.1-0.2c-0.4-0.6-0.8-1.2-1.2-1.9
			c-0.7-1.2-1.5-2.3-2.2-3.5c-0.1-0.2-0.2-0.3-0.3-0.5c-0.2-0.4-0.5-0.8-0.7-1.1c-0.7-1.1-1.4-2.2-2-3.3c-2.1-3.4-4.1-6.7-6.1-10.1
			c-0.7-1.2-1.4-2.4-2.2-3.7c-2.5-4.2-4.9-8.5-7.3-12.8c-0.4-0.8-0.9-1.6-1.3-2.4l0,0c-0.2-0.4-0.4-0.8-0.6-1.2c0,0,0,0,0-0.1
			c-1-1.8-2-3.7-3-5.5c-0.5-0.9-1-1.9-1.5-2.8c-97.4-183.8-107.4-404-68.7-608.5c7.7-40.5,16.6-80.7,26.7-120.6
			c48.2-189.8,124.4-371.5,229.7-533c35.7-54.8,74.7-107.2,117.2-156.9c82.3-96.4,177.3-182.3,285.5-254.5
			c13.5-9,27.2-17.8,41.1-26.4c17.1-10.5,34.4-20.7,51.9-30.5c87.7-49.3,180.6-89.5,276.5-119.8c333.6-105.2,700.2-91.8,1032,18.7
			c372.1,123.8,708.3,375.9,893.9,721.4c26.1,48.5,48.9,98.9,68.3,150.5c2.2,5.9,4.4,11.8,6.5,17.8c42,117.2,66.8,240.9,72.8,364.9
			C3770.2,1631.6,3770.7,1654.1,3770.5,1676.5z"/>
      <path fill="#9edadd" d="M3461.4,2437c-7.4,7.5-15,15-22.6,22.3c-1,1-2,1.9-3,2.9c-1.2,1.1-2.4,2.3-3.6,3.4c-2,1.9-4,3.7-6,5.6
			c-2.4,2.2-4.7,4.4-7.1,6.6c-1.7,1.6-3.4,3.1-5.1,4.6c-1.4,1.3-2.8,2.5-4.2,3.8c-0.4,0.3-0.8,0.7-1.1,1c-1.3,1.2-2.6,2.3-3.9,3.5
			c-9.5,8.4-19.1,16.7-28.8,24.8c-1.7,1.4-3.4,2.8-5.1,4.3c-0.4,0.3-0.7,0.6-1,0.9c-2,1.7-4.1,3.3-6.1,5c-2.4,1.9-4.8,3.9-7.2,5.8
			c-1.3,1-2.6,2.1-3.9,3.1c-1.9,1.5-3.9,3.1-5.8,4.6c-2.4,1.9-4.9,3.8-7.3,5.7c-1,0.8-2,1.6-3,2.3c-13.2,10.2-26.7,20.1-40.4,29.7
			c-1.3,0.9-2.6,1.8-3.9,2.7c-1.3,0.9-2.6,1.8-3.9,2.7l0,0c-3,2.1-6,4.2-9,6.2c-1.2,0.8-2.4,1.7-3.7,2.5c-4.4,3-8.8,6-13.3,8.9
			c-1.2,0.8-2.3,1.5-3.5,2.3c-1.1,0.8-2.3,1.5-3.4,2.2c-1.1,0.8-2.3,1.5-3.4,2.2c-1.1,0.7-2.2,1.4-3.3,2.1c-1.9,1.3-3.9,2.5-5.8,3.7
			c-2.4,1.5-4.8,3-7.2,4.5c-2.5,1.6-5,3.1-7.5,4.7c-0.4,0.2-0.7,0.5-1.1,0.7c-2.1,1.3-4.2,2.6-6.4,3.9c-9.9,6-19.8,11.9-29.9,17.7
			c-1,0.6-2,1.2-3.1,1.8c-1.4,0.8-2.8,1.6-4.2,2.4c-1.9,1.1-3.9,2.2-5.8,3.3c-7.3,4.1-14.7,8.2-22.2,12.2c-1.3,0.7-2.6,1.4-3.9,2.1
			c-1.7,0.9-3.4,1.8-5.1,2.7c-3.4,1.8-6.8,3.6-10.2,5.3c-1.7,0.9-3.4,1.8-5.1,2.6c-0.1,0.1-0.3,0.1-0.4,0.2
			c-1.7,0.9-3.4,1.8-5.1,2.6c-3.9,2-7.8,4-11.7,5.9c-1.6,0.8-3.3,1.6-4.9,2.5c-1.8,0.9-3.6,1.8-5.4,2.6c-1.4,0.7-2.8,1.4-4.2,2
			c-1.7,0.8-3.3,1.6-5,2.4c-1.7,0.8-3.4,1.6-5.2,2.5c-2.2,1-4.3,2-6.5,3c-3.6,1.7-7.1,3.3-10.7,5c-2.5,1.1-5,2.3-7.5,3.4
			c-5,2.3-10,4.5-15,6.7c-2.4,1-4.7,2.1-7.1,3.1c-1.5,0.7-3.1,1.3-4.6,2c-1.3,0.6-2.6,1.1-3.9,1.7c-1.8,0.7-3.5,1.5-5.3,2.2
			c-1.7,0.7-3.3,1.4-5,2.1c-1.7,0.7-3.5,1.4-5.2,2.2c-2.3,0.9-4.5,1.9-6.8,2.8c-3,1.2-6,2.4-9,3.6c-0.2,0.1-0.3,0.1-0.4,0.2
			c-3.2,1.3-6.3,2.5-9.5,3.8c-2.2,0.8-4.3,1.7-6.5,2.5c-1.1,0.4-2.3,0.9-3.4,1.3c-4.2,1.6-8.3,3.2-12.5,4.7
			c-1.9,0.7-3.9,1.4-5.8,2.2c-0.4,0.1-0.8,0.3-1.1,0.4c-1.4,0.5-2.7,1-4.1,1.5c-2.1,0.8-4.2,1.5-6.3,2.3c-5.9,2.1-11.8,4.2-17.8,6.2
			c-2.2,0.8-4.4,1.5-6.5,2.2c-2.3,0.8-4.5,1.5-6.8,2.3c-1.8,0.6-3.6,1.2-5.4,1.8c-3.8,1.3-7.6,2.5-11.4,3.7
			c-1.9,0.6-3.8,1.2-5.7,1.8c-3.3,1-6.5,2.1-9.8,3.1c-2.2,0.7-4.4,1.3-6.5,2c-3.2,1-6.4,2-9.7,2.9c-2.3,0.7-4.6,1.4-6.9,2
			c-3.1,0.9-6.2,1.8-9.3,2.7c-2.1,0.6-4.3,1.2-6.4,1.8c-1.9,0.5-3.9,1.1-5.8,1.6l-6.1,1.7c-3,0.8-6.1,1.6-9.1,2.4
			c-1.8,0.5-3.6,1-5.5,1.4c-6.5,1.7-13.1,3.4-19.6,5c-2.2,0.6-4.5,1.1-6.7,1.7c-2.9,0.7-5.8,1.4-8.7,2.1c-1.6,0.4-3.2,0.8-4.8,1.1
			c-2.3,0.5-4.6,1.1-6.9,1.6c-2.2,0.5-4.4,1-6.6,1.5c-2.4,0.5-4.9,1.1-7.3,1.6c-2.5,0.5-5,1.1-7.5,1.6c-2.2,0.5-4.5,1-6.7,1.4
			c-1.4,0.3-2.9,0.6-4.3,0.9c-5.8,1.2-11.6,2.4-17.4,3.5c-2.6,0.5-5.2,1-7.7,1.5c-1.4,0.3-2.9,0.6-4.3,0.8c-1.8,0.3-3.6,0.7-5.5,1
			c-1.8,0.3-3.7,0.7-5.5,1c-1.8,0.3-3.7,0.7-5.5,1c-5.5,1-11,1.9-16.5,2.8c-0.4,0.1-0.8,0.1-1.1,0.2c-2.4,0.4-4.8,0.8-7.2,1.2
			c-1.9,0.3-3.8,0.6-5.8,0.9c-2.7,0.4-5.4,0.8-8.1,1.3c-2.8,0.4-5.7,0.9-8.5,1.3c-0.5,0.1-0.9,0.1-1.4,0.2c-0.3,0.1-0.7,0.1-1,0.1
			c-2.5,0.4-4.9,0.7-7.4,1.1c-0.3,0-0.6,0.1-0.9,0.1c-2.2,0.3-4.4,0.6-6.6,0.9c-9.7,1.3-19.4,2.6-29.1,3.8c-2.5,0.3-5.1,0.6-7.6,0.9
			c-0.2,0-0.5,0.1-0.7,0.1c-1.9,0.2-3.7,0.4-5.6,0.6c-1.7,0.2-3.5,0.4-5.2,0.6c-6.6,0.7-13.3,1.4-19.9,2.1h0
			c-2.2,0.2-4.4,0.4-6.6,0.6c-1.7,0.2-3.4,0.3-5.1,0.5c-2.9,0.3-5.8,0.5-8.7,0.8c-2.3,0.2-4.6,0.4-6.9,0.6c-3,0.3-5.9,0.5-8.9,0.7
			c-1.8,0.1-3.6,0.3-5.3,0.4c-0.4,0-0.8,0.1-1.2,0.1c-1.8,0.1-3.5,0.3-5.3,0.4c-3.2,0.2-6.4,0.5-9.7,0.7c-3.2,0.2-6.5,0.4-9.7,0.6
			c-2.7,0.2-5.4,0.3-8,0.5c-0.1,0-0.1,0-0.2,0c-3,0.2-5.9,0.3-8.9,0.5c-2.2,0.1-4.4,0.2-6.6,0.3c-1.8,0.1-3.5,0.2-5.3,0.3
			c-3.2,0.2-6.5,0.3-9.7,0.4c-2.2,0.1-4.5,0.2-6.7,0.3c-0.6,0-1.2,0.1-1.8,0.1c-0.7,0-1.4,0-2,0.1c-6.2,0.2-12.3,0.4-18.5,0.6
			c-3.2,0.1-6.5,0.2-9.7,0.3c-9.5,0.2-19.1,0.4-28.6,0.5c-2.5,0-5.1,0-7.6,0.1c-1.3,0-2.6,0-3.9,0c-0.4,0-0.8,0-1.2,0
			c-4.6,0-9.2,0-13.9,0c-2.4,0-4.9,0-7.3,0c-4.4,0-8.7-0.1-13.1-0.1c-1.5,0-3.1,0-4.6-0.1c-0.3,0-0.6,0-0.8,0c-1.4,0-2.8,0-4.2-0.1
			c-3.2,0-6.4-0.1-9.7-0.2c-2.5,0-4.9-0.1-7.4-0.2c-0.9,0-1.7,0-2.6-0.1c-2.8-0.1-5.5-0.1-8.3-0.2c-1.9,0-3.7-0.1-5.6-0.2
			c-1.9-0.1-3.7-0.1-5.6-0.2c-8.5-0.3-17.1-0.6-25.6-1.1c-2.7-0.1-5.3-0.2-8-0.4c-1.8-0.1-3.7-0.2-5.5-0.3c-1.6-0.1-3.2-0.2-4.7-0.3
			c-0.3,0-0.6,0-0.9-0.1c-3.3-0.2-6.6-0.4-9.9-0.6c-1.3-0.1-2.6-0.1-4-0.2c-2.9-0.2-5.9-0.4-8.8-0.6c-3.8-0.2-7.6-0.5-11.4-0.8h0
			c-3.8-0.3-7.5-0.5-11.3-0.8c-2.1-0.1-4.1-0.3-6.2-0.5c-3.1-0.2-6.3-0.5-9.4-0.7c-0.1,0-0.3,0-0.4,0c-3.3-0.3-6.6-0.5-9.9-0.8
			c-3.3-0.3-6.6-0.6-9.9-0.9c-0.4,0-0.7-0.1-1.1-0.1c-3.4-0.3-6.8-0.6-10.3-0.9c-0.7-0.1-1.4-0.1-2.1-0.2c-3-0.3-5.9-0.6-8.9-0.9
			c-3.5-0.4-7.1-0.7-10.6-1.1c-4.7-0.5-9.4-1-14.1-1.5c-4.5-0.5-9-1-13.4-1.5c-4.5-0.5-9-1-13.4-1.6c-1.4-0.2-2.8-0.3-4.1-0.5
			c-1.8-0.2-3.7-0.4-5.5-0.7c-4.3-0.5-8.7-1.1-13-1.6c-3.5-0.4-7.1-0.9-10.6-1.4c-0.1,0-0.2,0-0.3,0c-3.4-0.4-6.9-0.9-10.3-1.4
			c-3.3-0.4-6.6-0.9-9.8-1.3c-3.8-0.5-7.6-1.1-11.3-1.6c-3.5-0.5-7.1-1-10.6-1.5c-6.5-1-13-1.9-19.6-3c-10.7-1.7-21.4-3.4-32.2-5.2
			c-4.3-0.7-8.6-1.4-12.9-2.2c-2.4-0.4-4.8-0.8-7.1-1.2c-1.3-0.2-2.5-0.4-3.8-0.7c-26.9-4.7-53.7-9.8-80.5-15.2
			c-0.9-0.2-1.9-0.4-2.8-0.6c-2.7-0.5-5.4-1.1-8.2-1.7c-0.8-0.2-1.5-0.3-2.3-0.5c-2.1-0.4-4.2-0.9-6.3-1.3
			c-3.4-0.7-6.8-1.4-10.2-2.1c-3.4-0.7-6.7-1.4-10.1-2.2c-2.5-0.5-5-1.1-7.5-1.6c-2-0.4-4-0.9-5.9-1.3c-1.9-0.4-3.9-0.9-5.8-1.3
			c-3.6-0.8-7.2-1.6-10.8-2.4c-3.4-0.7-6.7-1.5-10.1-2.3c-7.8-1.8-15.6-3.6-23.4-5.4c-2.5-0.6-5-1.2-7.4-1.8
			c-3.1-0.7-6.1-1.4-9.2-2.2c-1.8-0.4-3.7-0.9-5.5-1.3c-4.4-1.1-8.8-2.1-13.2-3.2c-1.6-0.4-3.3-0.8-4.9-1.2
			c-3.5-0.8-6.9-1.7-10.4-2.6c-0.5-0.1-1.1-0.3-1.7-0.4c-0.3-0.1-0.5-0.1-0.8-0.2c-3-0.8-6-1.5-9.1-2.3c-31.8-8-63.5-16.4-95.1-25.2
			c-2-0.5-4-1.1-6-1.7c-5.9-1.6-11.8-3.3-17.7-5c-4.5-1.3-8.9-2.5-13.4-3.8c-4.8-1.4-9.7-2.8-14.5-4.2c-0.2-0.1-0.4-0.1-0.6-0.2
			c-2.6-0.7-5.1-1.5-7.7-2.2c-2.6-0.7-5.1-1.5-7.6-2.2c-5.3-1.6-10.6-3.1-15.9-4.7c-6-1.8-12.1-3.6-18.2-5.5c-3-0.9-6.1-1.8-9.1-2.8
			c-10.3-3.2-20.6-6.4-30.9-9.7c-2.4-0.8-4.8-1.5-7.2-2.3c-6.1-2-12.2-4-18.4-6c-3.4-1.1-6.8-2.2-10.1-3.4c-2.7-0.9-5.4-1.8-8-2.7
			c-0.8-0.3-1.6-0.5-2.4-0.8c-2.8-1-5.7-1.9-8.5-2.9c-4.1-1.4-8.2-2.8-12.3-4.2c-2.9-1-5.8-2-8.7-3.1c-4-1.4-8.1-2.8-12.1-4.3
			c-3.5-1.2-6.9-2.5-10.4-3.7c-3.5-1.3-6.9-2.5-10.4-3.8c-0.2-0.1-0.3-0.1-0.5-0.2c-3.2-1.2-6.5-2.4-9.7-3.6
			c-9.5-3.5-18.9-7.1-28.3-10.7c-4.2-1.6-8.4-3.3-12.5-4.9c-4.4-1.7-8.7-3.5-13-5.2c-2-0.8-4.1-1.7-6.1-2.5c-2-0.8-4.1-1.7-6.1-2.5
			c-2-0.8-3.9-1.6-5.9-2.4c-4-1.7-8-3.4-12.1-5c-1.8-0.7-3.5-1.5-5.2-2.2c-4.3-1.8-8.6-3.7-12.9-5.6c-2.9-1.3-5.9-2.6-8.8-3.8
			c-5.9-2.6-11.8-5.3-17.7-7.9c-2-0.9-4.1-1.8-6.1-2.8c-5.3-2.4-10.5-4.9-15.7-7.3c-0.3-0.1-0.6-0.3-0.9-0.4
			c-1.5-0.7-3.1-1.5-4.6-2.2c-8.6-4.1-17.1-8.2-25.6-12.5c-3-1.5-6-3-9-4.5c-9.3-4.7-18.5-9.5-27.6-14.3c-2-1.1-4-2.1-6-3.2
			c-3.1-1.6-6.1-3.3-9.2-5c-1.2-0.7-2.4-1.3-3.6-2c-6.5-3.6-12.9-7.2-19.4-10.9c-1.3-0.8-2.7-1.5-4-2.3c-0.5-0.3-0.9-0.5-1.4-0.8
			c-1.6-0.9-3.3-1.9-4.9-2.9c-1.6-1-3.3-1.9-4.9-2.9c-1.6-1-3.2-1.9-4.9-2.9c-1.6-1-3.2-1.9-4.9-2.9c-4.8-2.9-9.7-5.9-14.4-8.9
			c-1.2-0.8-2.4-1.5-3.7-2.3c-1.2-0.7-2.3-1.5-3.5-2.2c-2.4-1.5-4.8-3-7.1-4.5c-2.1-1.3-4.1-2.7-6.1-4c-2-1.3-4-2.6-6-3.9
			c-0.5-0.3-1-0.7-1.5-1c-1.6-1.1-3.2-2.1-4.8-3.2c-2.4-1.6-4.7-3.2-7.1-4.8c-1.6-1.1-3.2-2.2-4.9-3.3c-1-0.7-2-1.4-3-2.1
			c-1-0.7-2-1.4-3-2.1c-2-1.4-4-2.8-6-4.2c-4-2.8-7.9-5.6-11.8-8.5c-5.9-4.3-11.7-8.6-17.5-13c-3.8-2.9-7.7-5.9-11.5-8.9
			c-0.1-0.1-0.2-0.1-0.3-0.2c-3.7-2.9-7.4-5.8-11-8.8c-1.9-1.5-3.7-3-5.6-4.6s-3.7-3.1-5.6-4.6c-1.8-1.5-3.7-3.1-5.5-4.6
			c-0.5-0.4-1-0.9-1.6-1.3c-1.2-1-2.4-2-3.6-3.1c-0.1-0.1-0.2-0.2-0.3-0.3c-1.8-1.6-3.6-3.1-5.4-4.7c-0.9-0.7-1.7-1.5-2.6-2.2
			c-0.9-0.8-1.9-1.7-2.8-2.5c-1.8-1.6-3.6-3.2-5.4-4.8c-1.7-1.5-3.3-3-4.9-4.5c-0.3-0.3-0.6-0.6-0.9-0.9c-1.4-1.3-2.8-2.6-4.2-3.9
			c0,0-0.1-0.1-0.1-0.1c-0.2-0.1-0.3-0.3-0.5-0.4c0,0-0.1-0.1-0.1-0.1c-1.7-1.6-3.3-3.1-5-4.7c-1.7-1.6-3.5-3.3-5.2-5
			c-1.7-1.7-3.4-3.3-5.1-5c-1.4-1.3-2.7-2.7-4.1-4c0,0,0,0,0,0c-0.2-0.1-0.3-0.3-0.5-0.5c-0.2-0.2-0.5-0.5-0.7-0.7
			c-0.1-0.1-0.2-0.2-0.3-0.3c-1.5-1.5-3-3.1-4.6-4.6c-1.7-1.7-3.3-3.4-5-5.1c-1.7-1.7-3.3-3.4-5-5.2c-2-2.1-3.9-4.1-5.9-6.2
			c-0.1-0.1-0.2-0.2-0.2-0.2c-0.1-0.1-0.2-0.2-0.3-0.3c0,0,0,0,0,0c-1-1.1-2.1-2.2-3.1-3.3c-1.1-1.1-2.1-2.3-3.1-3.4
			c-1-1.1-2.1-2.3-3.1-3.4c-1-1.1-2.1-2.3-3.1-3.4c-1-1.2-2.1-2.3-3.1-3.5c-1-1.2-2-2.3-3-3.5c-2-2.3-4-4.7-6-7c-1-1.2-2-2.3-3-3.5
			c-1-1.2-2-2.4-3-3.6c-0.5-0.7-1.1-1.3-1.7-2c-1.6-1.9-3.2-3.9-4.7-5.8c-1-1.2-2-2.5-3-3.7c-0.4-0.6-0.9-1.1-1.3-1.7
			c-1.2-1.5-2.4-3-3.6-4.5c-1.2-1.5-2.3-3-3.5-4.5c-0.8-1-1.6-2.1-2.4-3.2c-2.3-3-4.5-5.9-6.7-8.9c-0.6-0.8-1.1-1.5-1.7-2.3
			c-0.2-0.2-0.3-0.4-0.4-0.6c-0.8-1.1-1.5-2.1-2.3-3.2c-0.1-0.1-0.2-0.2-0.2-0.3c-0.7-0.9-1.4-1.9-2-2.8c-0.8-1.1-1.6-2.3-2.4-3.4
			c-1.1-1.6-2.2-3.1-3.3-4.7c-0.7-1-1.4-2.1-2.1-3.1c0-0.1-0.1-0.1-0.1-0.2c-0.4-0.6-0.9-1.3-1.3-1.9c0,0,0,0,0-0.1
			c-1.4-2.1-2.8-4.2-4.2-6.3c-1.3-1.9-2.6-3.9-3.8-5.8c-1.3-2-2.5-3.9-3.8-5.9c-0.1-0.1-0.1-0.1-0.1-0.2c-0.4-0.6-0.8-1.2-1.2-1.9
			c-0.7-1.2-1.5-2.3-2.2-3.5c-0.1-0.2-0.2-0.3-0.3-0.5c-0.2-0.4-0.5-0.8-0.7-1.1c-0.7-1.1-1.4-2.2-2-3.3c-2.1-3.4-4.1-6.7-6.1-10.1
			c-0.7-1.2-1.4-2.4-2.2-3.7c-2.5-4.2-4.9-8.5-7.3-12.8c-0.4-0.8-0.9-1.6-1.3-2.4l0,0c-0.2-0.4-0.4-0.8-0.6-1.2c0,0,0,0,0-0.1
			c-1-1.8-2-3.7-3-5.5c-0.5-0.9-1-1.9-1.5-2.8c-97.4-183.8-107.4-404-68.7-608.5c7.7-40.5,16.6-80.7,26.7-120.6
			c262.4-9.4,525.7,16.4,785.6,55.7c391.9,59.2,782.1,150,1143.2,313.5c98.7,44.7,195.3,95.1,288.2,151.2c8.5,5.1,17,10.3,25.4,15.5
			c61.6,38.2,121.6,78.9,179.5,122.3c24.8,18.6,49.3,37.7,73.3,57.2c21.4,17.4,42.4,35.2,63.1,53.3c15.8,13.8,31.4,27.9,46.8,42.2
			C3356.2,2321.2,3410.5,2377.5,3461.4,2437z"/>
      <path fill="#9edadd" d="M3770.5,1676.5c0,1.5,0,3,0,4.5c0,1.6,0,3.2-0.1,4.8c0,0.6,0,1.3,0,1.9c0,1.9-0.1,3.9-0.1,5.8
			c0,1.3,0,2.6-0.1,3.8c0,1.7-0.1,3.3-0.1,4.9c0,0.9,0,1.9-0.1,2.8c0,1.9-0.1,3.7-0.2,5.6c0,1-0.1,2-0.1,3.1c0,1.4-0.1,2.8-0.2,4.2
			c-0.1,1.6-0.1,3.1-0.2,4.7c-0.1,2.7-0.2,5.5-0.4,8.2c-0.3,5.5-0.6,11-1,16.5c-0.2,2.4-0.3,4.8-0.5,7.2c-0.1,2.2-0.3,4.3-0.5,6.4
			c0,0.4,0,0.8-0.1,1.2c-0.2,2.1-0.3,4.1-0.5,6.2c-0.1,0.9-0.1,1.7-0.2,2.6c-0.1,1.5-0.3,3.1-0.4,4.6c-0.1,1.4-0.2,2.8-0.4,4.3
			c-0.1,1.1-0.2,2.3-0.3,3.4c-0.2,1.9-0.4,3.9-0.6,5.8c-0.1,0.8-0.2,1.6-0.2,2.4c-0.3,2.7-0.6,5.3-0.9,8c-0.3,2.9-0.6,5.8-1,8.6
			c-0.6,5.1-1.2,10.3-1.9,15.4c-0.2,1.7-0.5,3.4-0.7,5.1c-0.2,1.5-0.4,2.9-0.6,4.4c-0.1,0.8-0.2,1.6-0.3,2.4c-0.3,2.4-0.7,4.8-1,7.2
			c0,0.1,0,0.1,0,0.2c-0.4,2.5-0.8,5-1.1,7.5c-0.1,0.6-0.2,1.2-0.3,1.8c-0.3,1.8-0.6,3.7-0.9,5.5c-0.3,2.1-0.7,4.1-1,6.2
			c-0.3,1.8-0.6,3.7-0.9,5.5c-0.4,2.6-0.9,5.1-1.4,7.7c-0.5,2.8-1,5.5-1.5,8.3c-0.1,0.5-0.2,1-0.3,1.5c-0.4,2.3-0.9,4.5-1.3,6.8
			c-0.4,2.1-0.8,4.3-1.3,6.4c-0.3,1.7-0.7,3.4-1.1,5.2c-0.4,1.8-0.7,3.5-1.1,5.3c-0.1,0.5-0.2,0.9-0.3,1.4c-0.4,1.8-0.8,3.6-1.2,5.3
			c-0.3,1.3-0.6,2.6-0.9,3.9c-0.3,1.4-0.6,2.9-1,4.3c-0.3,1.3-0.6,2.6-0.9,3.9c-1.8,7.8-3.6,15.5-5.6,23.3c-0.4,1.4-0.7,2.8-1.1,4.2
			c-0.5,2.2-1.1,4.3-1.7,6.5c-0.6,2.2-1.1,4.3-1.7,6.5c-0.1,0.4-0.2,0.9-0.4,1.3c-0.5,1.9-1.1,3.9-1.6,5.8c-0.3,1.1-0.6,2.2-0.9,3.4
			c-0.4,1.3-0.7,2.7-1.1,4c-0.5,1.7-1,3.4-1.5,5.1c-0.1,0.2-0.1,0.4-0.2,0.6c-0.7,2.3-1.4,4.7-2.1,7c-0.7,2.5-1.5,4.9-2.2,7.4
			c-0.8,2.5-1.5,4.9-2.3,7.4c-0.6,1.9-1.2,3.9-1.8,5.8c-0.4,1.3-0.9,2.7-1.3,4c-0.7,2.3-1.5,4.6-2.2,6.8c-0.7,2.1-1.4,4.2-2.1,6.3
			c-0.4,1.3-0.9,2.6-1.3,4c-0.6,1.8-1.3,3.7-1.9,5.5c-0.2,0.5-0.3,0.9-0.5,1.4c-0.6,1.8-1.3,3.6-1.9,5.4c-0.5,1.3-0.9,2.7-1.4,4
			c-0.2,0.7-0.5,1.3-0.7,2c-0.7,2-1.5,4-2.2,6c-0.9,2.4-1.8,4.8-2.7,7.2c-1.8,4.8-3.7,9.6-5.6,14.4c-0.9,2.4-1.9,4.8-2.9,7.2
			c-0.8,1.9-1.5,3.8-2.3,5.7c-0.3,0.8-0.7,1.6-1,2.4c-0.7,1.7-1.4,3.4-2.1,5.1c-0.2,0.6-0.5,1.2-0.8,1.8c-0.8,2-1.7,3.9-2.5,5.9
			c-0.2,0.5-0.4,1-0.6,1.5c-0.8,1.8-1.6,3.6-2.4,5.4c-0.3,0.7-0.6,1.4-0.9,2.1c-0.8,1.9-1.7,3.8-2.5,5.7c-1.1,2.4-2.1,4.7-3.2,7.1
			c-2.1,4.7-4.3,9.4-6.6,14c-0.6,1.3-1.2,2.6-1.9,3.9c-0.8,1.6-1.5,3.2-2.3,4.7c-0.2,0.4-0.3,0.7-0.5,1.1c-1,2-1.9,4-2.9,5.9
			c-0.5,1.1-1.1,2.1-1.6,3.2c-0.7,1.3-1.3,2.7-2,4c-0.5,1.1-1.1,2.1-1.6,3.2c-0.9,1.7-1.7,3.4-2.6,5.1c-0.3,0.6-0.6,1.2-0.9,1.8
			c-1,1.8-1.9,3.7-2.9,5.5c-3,5.7-6.1,11.4-9.2,17c-0.6,1-1.1,2-1.7,3c-0.3,0.5-0.5,1-0.8,1.5c0,0-0.1,0.1-0.1,0.2
			c-1.3,2.4-2.7,4.8-4,7.1c-1.3,2.2-2.6,4.5-3.9,6.7c-1.6,2.8-3.3,5.5-4.9,8.3c-0.9,1.5-1.8,3-2.6,4.4c-0.9,1.5-1.8,2.9-2.7,4.4
			c-0.9,1.5-1.8,2.9-2.7,4.4c-3.6,5.8-7.2,11.6-11,17.4c-0.8,1.2-1.6,2.5-2.4,3.7c-1.1,1.8-2.3,3.6-3.5,5.4
			c-0.9,1.3-1.7,2.6-2.6,3.9c-0.9,1.4-1.9,2.8-2.8,4.3c-0.9,1.4-1.9,2.8-2.9,4.2c-1,1.4-1.9,2.8-2.9,4.2c-2.9,4.2-5.8,8.4-8.8,12.6
			c-1,1.4-2,2.8-3,4.2c-2,2.8-4,5.5-6,8.3c-2,2.8-4,5.5-6.1,8.2c-1,1.4-2,2.7-3.1,4.1c-5.1,6.8-10.3,13.6-15.6,20.3
			c-29.1-31.2-59.2-61.4-90.2-90.7c-12.9-12.2-26-24.2-39.3-36.1c-20.4-18.3-41.2-36.2-62.3-53.6c-15.7-12.9-31.6-25.7-47.6-38.2
			c-52.2-40.6-106.4-78.7-162.3-114.2c-179.2-113.7-375.7-200-581.1-253.5c388.1-121.5,802.2-171.2,1208.9-149.2
			C3770.2,1631.6,3770.7,1654.1,3770.5,1676.5z"/>
      <path fill="#fff" d="M1034.9,2497.6c-2.1-1.3-4.1-2.7-6.1-4c-2-1.3-4-2.6-6-3.9c-0.5-0.3-1-0.7-1.5-1c-1.6-1.1-3.2-2.1-4.8-3.2
			c-2.4-1.6-4.7-3.2-7.1-4.8c-1.6-1.1-3.2-2.2-4.9-3.3c-1-0.7-2-1.4-3-2.1c-1-0.7-2-1.4-3-2.1c-2-1.4-4-2.8-6-4.2
			c-4-2.8-7.9-5.6-11.8-8.5c-5.9-4.3-11.7-8.6-17.5-13c-3.8-2.9-7.7-5.9-11.5-8.9c-0.1-0.1-0.2-0.1-0.3-0.2c-3.7-2.9-7.4-5.8-11-8.8
			c-1.9-1.5-3.7-3-5.6-4.6s-3.7-3.1-5.6-4.6c-1.8-1.5-3.7-3.1-5.5-4.6c-0.5-0.4-1-0.9-1.6-1.3c-1.2-1-2.4-2-3.6-3.1
			c-0.1-0.1-0.2-0.2-0.3-0.3c-1.8-1.6-3.6-3.1-5.4-4.7c-0.9-0.7-1.7-1.5-2.6-2.2c-0.9-0.8-1.9-1.7-2.8-2.5c-1.8-1.6-3.6-3.2-5.4-4.8
			c-1.7-1.5-3.3-3-4.9-4.5c-0.3-0.3-0.6-0.6-0.9-0.9c-1.4-1.3-2.8-2.6-4.2-3.9c0,0-0.1-0.1-0.1-0.1c-0.2-0.1-0.3-0.3-0.5-0.4
			c0,0-0.1-0.1-0.1-0.1c-1.7-1.6-3.3-3.1-5-4.7c-1.7-1.6-3.5-3.3-5.2-5c-1.7-1.7-3.4-3.3-5.1-5c-1.4-1.3-2.7-2.7-4.1-4c0,0,0,0,0,0
			c-0.2-0.1-0.3-0.3-0.5-0.5c-0.2-0.2-0.5-0.5-0.7-0.7c-0.1-0.1-0.2-0.2-0.3-0.3c-1.5-1.5-3-3.1-4.6-4.6c-1.7-1.7-3.3-3.4-5-5.1
			c-1.7-1.7-3.3-3.4-5-5.2l-7-110.3l-3.1-49.6l-3.6-58l101.1-146l91.3,155.5l0.1,55.2l0.1,54.3L1034.9,2497.6z"/>
      <path fill="#fff" d="M1355.1,2651.9c-0.2-0.1-0.3-0.1-0.5-0.2c-3.2-1.2-6.5-2.4-9.7-3.6c-9.5-3.5-18.9-7.1-28.3-10.7
			c-4.2-1.6-8.4-3.3-12.5-4.9c-4.4-1.7-8.7-3.5-13-5.2c-2-0.8-4.1-1.7-6.1-2.5c-2-0.8-4.1-1.7-6.1-2.5c-2-0.8-3.9-1.6-5.9-2.4
			c-4-1.7-8-3.4-12.1-5c-1.8-0.7-3.5-1.5-5.2-2.2c-4.3-1.8-8.6-3.7-12.9-5.6c-2.9-1.3-5.9-2.6-8.8-3.8c-5.9-2.6-11.8-5.3-17.7-7.9
			c-2-0.9-4.1-1.8-6.1-2.8c-5.3-2.4-10.5-4.9-15.7-7.3l-20.5-325.3l-3.5-55.9l-8.3-131.8l101.1-146l91.3,155.5l0.1,129.7l0.1,56.4
			L1355.1,2651.9z"/>
      <path fill="#fff" d="M1710.2,2758.8c-0.3-0.1-0.5-0.1-0.8-0.2c-3-0.8-6-1.5-9.1-2.3c-31.8-8-63.5-16.4-95.1-25.2
			c-2-0.5-4-1.1-6-1.7c-5.9-1.6-11.8-3.3-17.7-5c-4.5-1.3-8.9-2.5-13.4-3.8c-4.8-1.4-9.7-2.8-14.5-4.2l-26.8-441.3l-3.5-57.2
			l-6.3-103.3l101.1-151.3l91.3,161.1l0.1,100.1l0.1,57.7L1710.2,2758.8z"/>
      <path fill="#fff" d="M2022.2,2821.4c-6.5-1-13-1.9-19.6-3c-10.7-1.7-21.4-3.4-32.2-5.2c-4.3-0.7-8.6-1.4-12.9-2.2
			c-2.4-0.4-4.8-0.8-7.1-1.2c-1.3-0.2-2.5-0.4-3.8-0.7c-26.9-4.7-53.7-9.8-80.5-15.2l-30.1-507l-3.5-58.3l-3.4-57l101.1-154.6
			l91.3,164.7l0.1,52.8l0.1,58.8L2022.2,2821.4z"/>
      <path fill="#fff" d="M2346.5,2848.3c-1.5,0-3.1,0-4.6-0.1c-0.3,0-0.6,0-0.8,0c-1.4,0-2.8,0-4.2-0.1c-3.2,0-6.4-0.1-9.7-0.2
			c-2.5,0-4.9-0.1-7.4-0.2c-0.9,0-1.7,0-2.6-0.1c-2.8-0.1-5.5-0.1-8.3-0.2c-1.9,0-3.7-0.1-5.6-0.2c-1.9-0.1-3.7-0.1-5.6-0.2
			c-8.5-0.3-17.1-0.6-25.6-1.1c-2.7-0.1-5.3-0.2-8-0.4c-1.8-0.1-3.7-0.2-5.5-0.3c-1.6-0.1-3.2-0.2-4.7-0.3c-0.3,0-0.6,0-0.9-0.1
			c-3.3-0.2-6.6-0.4-9.9-0.6c-1.3-0.1-2.6-0.1-4-0.2c-2.9-0.2-5.9-0.4-8.8-0.6c-3.8-0.2-7.6-0.5-11.4-0.8h0
			c-3.8-0.3-7.5-0.5-11.3-0.8c-2.1-0.1-4.1-0.3-6.2-0.5c-3.1-0.2-6.3-0.5-9.4-0.7l-32.6-543l-3.6-59.4l-2.3-38.9l101.1-153.1
			l91.3,163.1l0,34l0.1,59.9L2346.5,2848.3z"/>
      <path fill="#fff" d="M2681.8,2824.1c-2.4,0.4-4.8,0.8-7.2,1.2c-1.9,0.3-3.8,0.6-5.8,0.9c-2.7,0.4-5.4,0.8-8.1,1.3
			c-2.8,0.4-5.7,0.9-8.5,1.3c-0.5,0.1-0.9,0.1-1.4,0.2c-0.3,0.1-0.7,0.1-1,0.1c-2.5,0.4-4.9,0.7-7.4,1.1c-0.3,0-0.6,0.1-0.9,0.1
			c-2.2,0.3-4.4,0.6-6.6,0.9c-9.7,1.3-19.4,2.6-29.1,3.8c-2.5,0.3-5.1,0.6-7.6,0.9c-0.2,0-0.5,0.1-0.7,0.1c-1.9,0.2-3.7,0.4-5.6,0.6
			c-1.7,0.2-3.5,0.4-5.2,0.6c-6.6,0.7-13.3,1.4-19.9,2.1h-38.3l-33.4-581.1l-2.9-49.7l-3.6-63.4l101.1-159.7l91.3,170.2l0,42l0,54.2
			L2681.8,2824.1z"/>
      <path fill="#fff" d="M3011.9,2731.4c-3,1.2-6,2.4-9,3.6c-0.2,0.1-0.3,0.1-0.4,0.2c-3.2,1.3-6.3,2.5-9.5,3.8
			c-2.2,0.8-4.3,1.7-6.5,2.5c-1.1,0.4-2.3,0.9-3.4,1.3c-4.2,1.6-8.3,3.2-12.5,4.7c-1.9,0.7-3.9,1.4-5.8,2.2
			c-0.4,0.1-0.8,0.3-1.1,0.4c-1.4,0.5-2.7,1-4.1,1.5c-2.1,0.8-4.2,1.5-6.3,2.3c-5.9,2.1-11.8,4.2-17.8,6.2c-2.2,0.8-4.4,1.5-6.5,2.2
			c-2.3,0.8-4.5,1.5-6.8,2.3c-1.8,0.6-3.6,1.2-5.4,1.8c-3.8,1.3-7.6,2.5-11.4,3.7c-1.9,0.6-3.8,1.2-5.7,1.8c-3.3,1-6.5,2.1-9.8,3.1
			c-2.2,0.7-4.4,1.3-6.5,2c-3.2,1-6.4,2-9.7,2.9c-2.3,0.7-4.6,1.4-6.9,2c-3.1,0.9-6.2,1.8-9.3,2.7l-31.1-539.1h0l-3.2-55.5
			l-3.9-68.1l91.9-144.6l9.2-14.5l16.2,30l75.1,139.5l0,48.6l0.1,55.9L3011.9,2731.4z"/>
      <polygon fill="#fff" points="3113.7 2048.9 3131.7 2684.4 3284.7 2689.7 3305.7 2065.1 3219.8 1906.6"/>
      <path fill="#fff" d="M3634.4,2207v1.4c0,0-0.1,0.1-0.1,0.2c-1.3,2.4-2.7,4.8-4,7.1c-1.3,2.2-2.6,4.5-3.9,6.7
			c-1.6,2.8-3.3,5.5-4.9,8.3c-0.9,1.5-1.8,3-2.6,4.4c-0.9,1.5-1.8,2.9-2.7,4.4c-0.9,1.5-1.8,2.9-2.7,4.4c-3.6,5.8-7.2,11.6-11,17.4
			c-0.8,1.2-1.6,2.5-2.4,3.7c-1.1,1.8-2.3,3.6-3.5,5.4c-0.9,1.3-1.7,2.6-2.6,3.9c-0.9,1.4-1.9,2.8-2.8,4.3c-0.9,1.4-1.9,2.8-2.9,4.2
			c-1,1.4-1.9,2.8-2.9,4.2c-2.9,4.2-5.8,8.4-8.8,12.6c-1,1.4-2,2.8-3,4.2c-2,2.8-4,5.5-6,8.3c-2,2.8-4,5.5-6.1,8.2
			c-1,1.4-2,2.7-3.1,4.1c-5.1,6.8-10.3,13.6-15.6,20.3c-24.7,31.3-51,61.1-78.9,89.6l-11.3-180.2l-2.4-37.9l-3.6-56.6l-5-79.1
			l101.1-146l91.3,155.5l0.1,60.1L3634.4,2207z"/>
      <path fill="#fff" d="M2400.1,2305.1c-18.1-0.5-36.1-1-54.2-1.5c-62.2-1.8-124.4-3.7-186.6-5.6v0c-45.9-1.4-91.8-2.9-137.7-4.5
			c-0.7,0-1.4,0-2.1-0.1c-61.2-2.1-122.4-4.2-183.5-6.4c-42.1-1.5-84.2-3.1-126.3-4.7c-60.9-2.3-121.9-4.7-182.8-7.2
			c-57.4-2.3-114.8-4.8-172.3-7.2c-3.2-0.1-6.4-0.3-9.6-0.4c-57-2.5-114.1-4.9-171.1-7.6c-46.4-2.2-92.8-4.5-139.2-7.2
			c-9.6-0.5-19.3-1.1-28.9-1.7c-52.3-3.2-104.6-6.4-156.8-9.7c-4.5-0.3-8.9-0.6-13.4-0.8c-23.8-1.5-47.5-3.4-71.2-5.4
			c-0.1-0.1-0.1-0.1-0.1-0.2c-0.4-0.6-0.8-1.2-1.2-1.9c-0.7-1.2-1.5-2.3-2.2-3.5c-0.1-0.2-0.2-0.3-0.3-0.5c-0.2-0.4-0.5-0.8-0.7-1.1
			c-0.7-1.1-1.4-2.2-2-3.3c-2.1-3.4-4.1-6.7-6.1-10.1c-0.7-1.2-1.4-2.4-2.2-3.7c-2.5-4.2-4.9-8.5-7.3-12.8c-0.4-0.8-0.9-1.6-1.3-2.4
			l0,0c-0.2-0.4-0.4-0.8-0.6-1.2c0,0,0,0,0-0.1c-1-1.8-2-3.7-3-5.5c2.3,0,4.6,0.1,6.9,0.1c30.8,0.5,61.6,1.3,92.4,2.4
			c3.1,0.1,6.1,0.2,9.2,0.3c60,2.1,120,3.9,179.9,6.4c3,0.1,5.9,0.2,8.9,0.4c45.2,1.9,90.5,3.7,135.7,5.6
			c61.4,2.5,122.8,5,184.2,7.4c56.3,2.2,112.6,4.4,168.9,6.4c58.5,2.2,117.1,4.3,175.6,6.3c3.5,0.1,7.1,0.2,10.6,0.4
			c41,1.4,81.9,2.8,122.9,4.2c63,2.1,126,4,189,5.9c44.7,1.3,89.5,2.7,134.2,3.9c63.4,1.8,126.7,3.5,190.1,5.1
			c10.2,0.3,20.3,0.5,30.5,0.8c3.8,0.1,6.2,4.2,8.2,7.1c4.4,6.4,7.5,13.6,10.3,20.7C2395.8,2274.6,2406.1,2305.3,2400.1,2305.1z"/>
      <path fill="#fff" d="M3665.5,2148.5c-0.6,1.3-1.2,2.6-1.9,3.9c-0.8,1.6-1.5,3.2-2.3,4.7c-0.2,0.4-0.3,0.7-0.5,1.1
			c-1,2-1.9,4-2.9,5.9c-0.5,1.1-1.1,2.1-1.6,3.2c-0.7,1.3-1.3,2.7-2,4c-0.5,1.1-1.1,2.1-1.6,3.2c-0.9,1.7-1.7,3.4-2.6,5.1
			c-0.3,0.6-0.6,1.2-0.9,1.8c-1,1.8-1.9,3.7-2.9,5.5c-3,5.7-6.1,11.4-9.2,17c-0.6,1-1.1,2-1.7,3c-0.3,0-0.6,0-0.8,0
			c-61.3,3.1-122.6,6.1-184,9.1c-6.7,0.3-13.5,0.7-20.2,1c-5.5,0.3-11.1,0.5-16.6,0.8c-37.7,1.8-75.5,3.7-113.2,5.5
			c-16.1,0.8-32.2,1.5-48.3,2.3c-44.4,2.1-88.8,4.2-133.2,6.2c-35.8,1.7-71.7,3.3-107.6,5c-25.1,1.2-50.2,2.3-75.3,3.5
			c-36.7,1.7-73.3,3.5-110,5.2c-46.2,2.2-92.3,4.2-138.5,5.9c-2.1,0.1-4.2,0.1-6.3,0.2c-62,2.2-124,4.9-186,6.5
			c-19.2,0.5-38.3,0.9-57.5,1.1c-2.8,0-4.7-3.2-6.1-5.3c-3.2-4.7-5.6-10.1-7.7-15.5c-0.9-2.1-8.8-24.2-3.9-24.6
			c24.1-2,48.2-3.8,72.4-5.5c62.9-4.3,125.9-7.6,188.8-11c5.3-0.3,10.5-0.6,15.8-0.9c42-2.3,83.9-4.4,125.9-6.5
			c62.8-3.1,125.7-6.1,188.5-9.1c35.3-1.7,70.7-3.4,106-5.1c23.9-1.1,47.7-2.3,71.6-3.5c0.6,0,1.1-0.1,1.7-0.1
			c37.2-1.9,74.4-3.7,111.6-5.6c16.3-0.8,32.6-1.6,49-2.4c31.9-1.6,63.8-3.2,95.6-4.8c62.5-3.1,125-6.2,187.5-9.4
			C3644.7,2149.6,3655.1,2149,3665.5,2148.5z"/>
      <path fill="#fff" d="M3170,774.3c-381,11.9-750.6-135.2-1131.5-150.6c-63.1-2.6-126.4-1.5-189.2-7.4
			c-67.4-6.3-133.8-20.5-199.9-34.6c-107.8-23.1-215.6-46.1-323.3-69.2c13.5-9,27.2-17.8,41.1-26.4c17.1-10.5,34.4-20.7,51.9-30.5
			c68.3,22.6,138.2,40,209.1,52c301.7,51.1,618.7,5.2,910.4,97.4c80.2,25.4,156.9,60.7,236.7,87.4
			C2903,735.1,3036.9,754.8,3170,774.3z"/>
      <path fill="#fff" d="M2481.4,1272.5c-46.6-14.8-93.2-29.6-139.9-44.4c-104.8-33.3-209.9-66.6-317.6-88.8
			c-107.3-22.2-219.7-34.2-315-88.3c-68.1-38.7-129.4-99.2-207.5-104.1c-62-3.9-127.8,28.5-184,2.1c-40.8-19.2-62.4-63.3-91.4-97.7
			c-45.4-53.8-115.2-82.8-185.3-84.3c-42.4,49.7-81.5,102.1-117.2,156.9c117.7,30.8,233.5,74.2,352.5,100.3
			c100.8,22.2,203.9,31.9,305,52.6c95.9,19.6,189.5,49,283.6,76.1c201.6,58.1,405.9,106.1,610.9,150.7
			C2476.9,1293.2,2478.8,1282.8,2481.4,1272.5z"/>
      <path fill="#fff" d="M3689.8,1226.5c2.2,5.9,4.4,11.8,6.5,17.8c-209.6-35.7-420.9-62.8-631.8-89.7c186.7-9.8,371,37.5,556.1,63.3
			C3643.7,1221,3666.7,1223.8,3689.8,1226.5z"/>
    </g>
    <g>
      <g>
        <defs>
          <path id="a" d="M2236.3,1613.8c0,0-366.2,158.1-395.8,185.6s-149,414-149,414l196.4,10.6l103.6-262.7l506.6-207.9
					l102.2,404.9l75.2,381l165.3-15.5c0,0-47.5-740.5-111.5-930l-30.6-236l-84.5-211.9l-327,100.3L2236.3,1613.8z"/>
        </defs>
        <use xlink:href="#a" fill="#049dbf" overflow="visible"/>
        <clipPath id="b">
          <use xlink:href="#a" overflow="visible"/>
        </clipPath>
        <path fill="#fff" d="M2823.2,2498.3c-11.9-113.9-24.1-227.8-37.2-341.5c-13.1-113.1-27.1-226.2-43.4-338.9
				c-9.3-64-19.6-127.9-30.7-191.6c-0.2-0.9-2.6-5.8-2.3-3.4c17.9,112,33.7,224.5,48.1,337c14.3,112.6,26.9,225.4,39.1,338.2
				c6.8,63.6,13.5,127.1,20.2,190.7c0.4,3.5,2,7.6,4.1,10.5C2822.5,2501.4,2823.5,2501.2,2823.2,2498.3z" clip-path="url(#b)"/>
        <path fill="#fff" d="M2459,1726.6c-16.9,3.3-33.5,9.3-50,14.3c-16.3,5-32.7,9.6-49,14.4c-32.8,9.8-65.4,20.9-97.9,31.8
				c-65.3,22-129.9,45.7-194,71.2c-35.9,14.3-71.7,29.1-107.3,44.3c-2,0.9,3,13.2,4.9,12.4c63.1-26.9,126.8-52.3,190.9-76.6
				c64.4-24.4,129.1-48.1,194.4-70c18.2-6.1,36.2-12.6,54.4-18.6c18.4-6.1,37.6-10.7,55.6-18.1
				C2461.8,1731.5,2459.9,1726.4,2459,1726.6z" clip-path="url(#b)"/>
        <path fill="#fff" d="M1961.8,1940.5c-2.1-8.4-3.6-17.1-6.6-25.2c-0.1-0.3-2-4.1-2.1-2.3c-0.1,3.4,1.1,6.9,1.8,10.2
				c0.9,4.3,1.9,8.6,2.9,12.9c0.4,1.8,1.5,6,3.2,6.9C1962.7,1943.9,1962.1,1941.9,1961.8,1940.5z" clip-path="url(#b)"/>
        <path fill="#fff" d="M1942,1966.3c-20.1,71.7-42.7,142.8-67.4,213c-7.1,20.3-14.5,40.5-22.1,60.6c-0.8,2.1,1,5.6,1.9,7.4
				c0.2,0.5,2.6,4.9,3.1,3.4c26.7-70.7,50.8-142.4,70.6-215.4c5.7-21.1,11.2-42.3,16.5-63.5C1944.9,1970.2,1942,1966.1,1942,1966.3z
				" clip-path="url(#b)"/>
      </g>
      <path fill="#2e4559" d="M2498.1,1753.4c-66.4,25.4-132.8,51-199,77c-66.2,26-132.4,52-198.2,78.9c-37,15.1-74.6,29.9-110.6,47.3
			c-1.1,0.5,1.6,7.4,2.8,7c33.7-11.1,66.7-24.8,99.8-37.6c33.2-12.8,66.2-26,99.3-39c66.2-26,132.5-51.8,198.8-77.4
			c37.4-14.4,74.8-28.7,112.3-43C2505.4,1765.9,2500.3,1752.6,2498.1,1753.4z"/>
      <g>
        <defs>
          <path id="c" d="M2993.5,1152.6l-24.2,68.4c-5.2,2.5-11.6,4.3-18.7,5.5c-32.5,5.7-80.6-0.1-105-3.8
					c-9.5-1.4-15.4-2.5-15.4-2.5l-3.5-56.7l24.5-10.2l3.7-53.1l-169.4-23.6l13.5,281.4c-59.1-35.8-92.1-136.7-92.1-136.7
					l-232.2,71.9c-20.9,79.6-47.7,102.1-47.7,102.1l13,156.6l23.1-7.1l7.1,104.1l-19.7,23.1c-26.4,22.3-101.3,30.6-101.3,30.6
					l-48.4-12.6l11.7-40.9l-7.7-36l14.2-17.4c0,0-48.7-411.5-17.8-460.7c30.9-49.2,187.5-93,187.5-93S2618,890.2,2657,897
					c38.9,6.8,332.4,106.8,332,125.8c-0.4,18.9-15.5,126.3-15.5,126.3L2993.5,1152.6z"/>
        </defs>
        <use xlink:href="#c" fill="#f26457" overflow="visible"/>
        <clipPath id="d">
          <use xlink:href="#c" overflow="visible"/>
        </clipPath>
        <path fill="#fff" d="M2737.3,1237.2c-2.2-6.7-5.2-16.2-11.2-20.6c-28-20.4-54.2-43.2-78.3-68.1c-1.1-1.2-2.6-2.6-3.6-0.6
				c-17.1,33.7-31.4,68.7-43,104.6c-31.5-27.3-62.9-54.9-93.5-83.2c-1.1-1-2.4-2.4-3.4-0.6c-22.4,44.1-43.1,88.9-62.1,134.5
				c-29.1-24.8-58.7-48.9-87.8-73.7c-0.8-0.4-1.3-0.2-1.5,0.6c-12.6,26.6-23.7,53.6-32.8,81.5l0.4,1c0.7,1.8,0.5,3.4-0.3,4.6
				c0.4,7.9,1.9,15.7,2.9,23.6c0,0,0.1-0.1,0.1-0.1c13.9-27.9,26.9-56.2,40.7-84.1c30,26.2,59.6,52.9,89.7,78.9
				c0.9,0.5,1.5,0.3,1.8-0.7c19.3-45.2,40.1-89.8,62.3-133.6c31.6,29.3,63.4,58.4,95.9,86.7c1,0.6,1.7,0.3,2-0.8
				c11.5-35.8,25.9-70.5,42.8-104.1c24.4,24.9,50.8,47.9,79,68.5C2741.6,1254.4,2737.6,1237.9,2737.3,1237.2z" clip-path="url(#d)"/>
        <path fill="#fff" d="M2860,987.2c-2.9-7.4-6-14.8-9.2-22.1c-3-6.8-6.1-13.5-9.5-20.2c-2.1-4.1-4.1-8.3-6.3-12.3
				c-1.6-3-4-8.4-7.4-9.8c-4.2-1.8-0.1,12,0.1,12.4c2.8,8.5,6.9,16.3,11.1,24.2c1.3,2.5,2.6,5,3.9,7.5c0.2,0.3,0.6,1.2,0.7,1.4
				c0.8,1.6,1.6,3.3,2.4,4.9c1.2,2.5,2.3,4.9,3.4,7.4c0.9,2,2.6,5.8,3.1,7c-0.1,0.1-0.2,0.1-0.3,0.2c-1-0.1-2.4,0.3-3.5,0.4
				c-25.3,1.5-50.6,2-75.8,3.8c-2.9,0.2,1.6,13.1,1.8,13.8c1.9,5.3,4.2,11.2,8.5,15c11.3,9.8,21.3,20.8,30.5,32.3
				c-2.8,1.2-5.6,2.3-8.3,3.5c-5.4,2.4-10.7,4.8-16,7.3c-10.5,5.1-21.9,11-29.8,19.8c-1.9,2.2,2.9,15.5,5.9,15.1
				c11.4-1.4,22.6-7,33-11.5c5.1-2.2,10.2-4.3,15.4-6.2c5.6-2.2,11.6-4.8,17.5-5.8c4.3-0.7-5.5-20.9-6.7-22.9
				c-6.8-11.3-14.7-21.9-23.3-32c9.3-0.4,18.6-0.9,27.9-1.3l22.1-1c5.4-0.2,14.8,1.5,15.4-5.8
				C2867.7,1003.9,2862.9,994.8,2860,987.2z" clip-path="url(#d)"/>
        <path fill="#fff" d="M2325.1,1373.9c-0.3-3.9-0.6-7.8-0.7-11.7c-3.4-3.6-6.7-7.3-9.5-11.3c-8.8-12.2-15.2-26.5-28.3-34.9
				c-0.8-0.5-1.4-0.2-1.7,0.7c-2.5,21.9-7.6,43.3-15.3,63.9c-19.1-15.6-36.5-33.7-50.8-53.7c-0.6-0.8-2.5-3.9-3.6-2
				c-11.5,20.6-24.1,40.9-34,62.3c-1,2.1,1.2,6.6,2,8.4c0.2,0.5,3.3,6.6,4,5.7c13.6-16.6,24.9-35.4,36.8-53.3
				c15.6,22.7,34,43,55.4,60.6c0.8,0.4,1.3,0.2,1.6-0.6c8-20.2,13.4-41.2,16.1-62.7c10.8,7.9,16,21.4,23.8,31.9
				c1.6,2.2,3.4,4.4,5.2,6.5C2325.6,1380.5,2325.4,1377.2,2325.1,1373.9z" clip-path="url(#d)"/>
      </g>
      <path fill="#049dbf" d="M2586,1222.8c-4.6-10.6-8-21.4-11.3-33.7c-3.2-12.1-6.1-24.3-8.9-36.5c1.3,4.2,2.7,8.4,4.1,12.5
			c6.3,18.9,13.1,37.7,20.3,56.3c2.7-0.9,5.5-1.6,8.3-2.1c-10.7-32.7-21.6-65.4-31.9-98.3c-3.3-10.4-6.4-20.8-9.4-31.3
			c-5.5-23.4-10.2-47-13.5-70.8c-2.9-20.6-4.1-41.7-0.5-62.3c1.3-7.2-2.7-16-5.7-22.4c-1.6-3.3-3.2-7-5.8-9.7
			c-0.7-0.7-3.2-3-3.6-0.6c-3,16.9-3.2,34.1-1.8,51.2c0,0.8,0.1,1.7,0.1,2.5c0.2,31.6,6.3,62.9,12.8,93.7
			c7.5,35.6,15.5,71.4,25,106.6c4.3,16.1,9.4,32.1,15.8,47.5C2581.9,1224.4,2583.9,1223.6,2586,1222.8z"/>
      <path fill="#049dbf" d="M2381.3,1292.2c0.6-0.2,1-0.1,1.5,0.1c0.4-0.3,0.9-0.6,1.3-0.8c-1.5-4-3-8-4.4-12c-0.4-1.2-0.8-2.3-1.3-3.5
			c0,0-0.2-0.7-0.4-1.2c-0.2-0.5-0.4-1.2-0.4-1.2c-0.4-1.2-0.8-2.3-1.2-3.5c-1.4-4.1-2.9-8.2-4.3-12.3
			c-5.6-16.4-10.9-32.9-15.9-49.4c-4.7-15.6-8.9-30.4-13.3-47.5c-4.4-16.7-8.4-33.6-12.2-50.4c-4.1-18.6-7.8-37.3-11.2-56.3
			c-1.5-8.4-4.7-17.3-9.6-24.4c-0.8-1.1-2.9-4.7-4.6-4c-1.6,0.6-1,4.5-0.7,5.8c-0.5-0.2-0.9,0.1-0.9,1.5c1.4,36.2,7.6,72.1,16,107.3
			c9,38,21.5,75.3,36.3,111.4c6.1,14.8,12.6,29.4,19.6,43.8C2377.2,1294.1,2379.1,1292.8,2381.3,1292.2z"/>
      <polygon fill="#ed8a5f" points="2346.4 986.1 2374.2 1052.1 2463.4 1102.1 2485.5 995.8 2417.8 905.1"/>
      <path fill="#2e4559" d="M2386.6,644.8c11.2,2.7,21.1,9.9,27.1,19.7s7.8,22,5,33.1c6.1,4.2,11.2,13,11.6,20.4
			c0.4,7.4-2.9,14.9-8.6,19.7c8.3,2.3,17.8,6.5,20.5,14.7s1.2,17.6-4.1,24.4c8.4,4.3,14.7,15.9,13.4,25.2c-1.2,9.3-8.8,17.5-18,19.4
			c5.6,6.5,6,18.1,2,25.8c-4,7.6-12.8,12.5-21.4,11.7c-22.9-16.2-44.7-33.6-66.3-51.5c-31.5-26.1-60.5-56.1-96.9-74.9
			c37.4-32.1,79.5-57.6,124.8-77.1C2380.2,653.5,2385.4,649.5,2386.6,644.8z"/>
      <path fill="#2e4559" d="M2141.5,796.3c-7.8,9.6-9.5,23.8-4.1,35c5.4,11.2,17.5,18.8,29.9,18.8c-1.1,5,2.1,10.3,6.4,13.2
			c4.3,2.8,9.8,3.3,14.9,2.2s9.6-3.8,13.7-6.9c-12.3-23.4-22.9-48.3-35.3-71.7c-1.6-3-3.4-6.2-6.4-7.7c-3.4-1.7-7.7-0.8-10.9,1.3
			s-5.5,5.3-7.8,8.4L2141.5,796.3z"/>
      <path fill="#ed8a5f" d="M2399.1,799.4c0,0,28.3,64.6,30.7,87.3c2.4,22.8-16.9,92.9-56.1,112.7c-39.2,19.9-118.4-13.2-129.9-27.8
			c-1.9-2.5-4.4-6.8-7-12.3c-4.6-9.4-9.8-22-14.8-34.6c-0.3-0.7-0.5-1.3-0.8-2c-0.9-2.2-1.8-4.5-2.6-6.7
			c-7.7-20.1-13.9-37.7-13.9-37.7l-55.5-76.8l-18.4-29.1l169.3-74.6c-19.4,40.7,32.5,38.3,32.5,38.3c-14,29.1,18.7,20.8,18.7,20.8
			c12.3,21.5,29,23.2,29,23.2s-1.8-48.3,15.1-56.7c16.9-8.4,39.5,9.1,35.7,40.8C2427.3,796.1,2399.1,799.4,2399.1,799.4z"/>
      <path fill="#f29829" d="M2328.1,610.7c0,0-56.7-70-81.3-78c-24.6-8-90.5,46.1-117.6,58.1c-27.1,11.9-76.6-4.9-84.2,26.5
			c-7.6,31.4,38.4,78.7,38.4,78.7s-97.6,95.4-109.6,122.6c-11.9,27.1,7.9,56,104.6,18.2c96.7-37.8,270.2-130.3,339.5-209.8
			c69.3-79.6,96.4-122.1,19.7-97.4c-76.7,24.7-148.6,68.7-148.6,68.7L2328.1,610.7z"/>
      <path fill="#f26457" d="M2294,580.5c-0.8-3.2-2-6.4-3.4-9.4c-0.3-0.6-1.7-3.5-3.2-5.6c-2-4.2-4.4-7.6-5-7.1
			c-12.2,10.5-25.7,19.3-39.2,27.9c-13.5,8.7-27.4,16.7-41.7,24c-28.1,14.4-57.3,28.3-87.5,37.9c-8.6,2.7-17.3,5.2-26.1,7.5
			c-4.7,1.2-9.4,2.1-14.1,3.3c-5,1.3-9.5,2.6-14.7,3.1c-0.7,0.1,1.3,8.2,3.2,8.2c8.8,0.2,17.2,0.2,26-1.3c8.3-1.4,16.4-3.2,24.6-5.2
			c12-2.9,23.9-6,35.7-9.6c-9.1,4.6-18.3,8.9-27.8,12.8c-8.2,3.3-16.4,6.4-24.8,9c-8.9,2.8-18.3,4.5-27.1,7.6
			c-2.6,0.4,4,25.6,9.8,25.1c8.1-0.7,16.2-3.4,24-5.8c7.6-2.3,15.1-4.9,22.5-7.8c4.7-1.8,9.4-3.8,14-5.8c11.5-4,22.8-8.2,34-12.9
			c30.4-12.6,59.8-28.3,85.6-49c14.1-11.4,27.7-24.2,35.7-40.7C2295.3,585.2,2294.3,581.7,2294,580.5z"/>
      <path fill="#ccc" d="M1567.7,2521.2c0.8,0.7,379.5,91.1,379.5,91.1L1708,2847h-497.7L1567.7,2521.2z"/>
      <path fill="#2e4559" d="M1950.1,2610.4c-1.3-3.9-2.8-7.8-4.8-11.4c-1-1.7-2.6-5.5-4.6-6.1c-49.2-14.5-98.8-27.8-148.7-39.7
			c-24.6-5.9-49.3-11.4-74.1-16.6c-24.4-5.1-48.9-10.4-73.5-14.3c-14.1-2.2-28.3-4.4-42.5-6.4c-6.8-0.9-13.5-1.8-20.3-2.7
			c-6.9-0.9-14.7-2.6-21.5-0.9c-2.8,0.7,3.8,16,6.1,17.1c11.8,5.5,25.9,6.9,38.6,9.6c12.6,2.7,25.3,5.3,37.9,8
			c25.3,5.5,50.6,10.5,75.9,15.9c50,10.9,99.8,22.9,149.2,36.1c27.6,7.4,55.1,15.2,82.5,23.4
			C1954.5,2623.6,1950.6,2611.7,1950.1,2610.4z"/>
      <path fill="#2e4559" d="M1788.4,2559.9c-29.1,4.4-58.5,1.7-87-4.4c0.4-0.6,0.9-1.2,1.3-1.8c1.1-1.5-3.1-8-3.3-7.8
			c-20.5,21.9-39.2,45.6-57.5,69.4c-18.1,23.6-35.5,47.8-51.2,73.1c-1,1.5,3.3,11.3,4.5,10.5c65.9-42.5,131.7-85.2,198-127
			C1795,2570.8,1790.6,2559.6,1788.4,2559.9z"/>
      <path fill="#f29829" d="M1686.5,2158.3l225,26.2c0,0-101.4,240.5-101.5,242.3c-0.1,1.8-12.9,105-12.9,105l-335,49
			c0,0,1.2-100.8,27.4-124.1c26.2-23.3,132.6-40.3,132.6-40.3L1686.5,2158.3z"/>
      <path fill="#ed8a5f" d="M2241.3,1664.6l49.1,281.5l-43.9,63.1l16.3,57.2l115.5-101.5l-39.1-320.6
			C2339.2,1644.4,2261.2,1641.5,2241.3,1664.6z"/>
      <path fill="#2e4559" d="M2980.9,1345.5c-0.4-1.1-6.6-14.8-8.6-12.9c-40.8,38.6-79.4,79.5-118.6,119.8c-39.8,40.9-79.3,82.1-119.2,123
			c-79.5,81.5-159.6,162.4-240.3,242.8c-80.4,80.1-161.5,159.6-243.3,238.3c-81.8,78.8-164.2,156.8-247.3,234.2
			c-83.4,77.6-167.4,154.6-252.1,230.8c-5.1,4.5-10.1,9.1-15.2,13.6c-5.6,5.1-35.6,35.1-40.5,40.8c-4.8,5.5,35.1,11.8,38.5,9.5
			c23.6-16,43.9-36.4,65-55.5c20.8-18.8,41.5-37.6,62.1-56.4c42.2-38.5,84.3-77.2,126.2-116.1c83.5-77.5,166.4-155.6,248.6-234.5
			c81.9-78.6,163.2-157.9,243.8-237.8c80.6-80,160.6-160.7,239.6-242.2c79.6-82,158.9-164.4,235.5-249.2
			c9.6-10.6,18.7-21.8,27.9-32.7C2986.2,1357.4,2982.2,1349,2980.9,1345.5z"/>
      <path fill="#ed8a5f" d="M2882.7,1472.5l18.4-19.8v33.3l-91.2,88.7l-27.9-80.3l42.4-59.9c0,0,15.8-155.9,21-211.8
			c24.4,3.7,72.5,9.5,105,3.8l-59.3,187l-16,16.6C2866.7,1447.7,2882.7,1472.5,2882.7,1472.5z"/>
      <path fill="#f29829" d="M2637.8,2468.3l227.8-5.2l-16.1,273.7l4.4,115.4h-323.4c0,0,6.6-61.5,23.1-74.6
			c16.4-13.1,128.9-36.6,128.9-36.6L2637.8,2468.3z"/>
      <polygon fill="#ed8a5f" points="2278.4 2009.5 2301.8 2087.5 2386.5 2008.3 2387 1976.9 2375.6 1986.9 2367.2 1936.6"/>
      <path fill="#2e4559" d="M2847.8,2804.6c-81.8,2.8-163.6,4.1-245.4,4.3c-23,0.1-46.3-0.2-69.3,1.8c-0.6,0.1,1.1,6.4,2.6,6.5
			c41,4.4,82.8,3.4,124,3.3c41,0,82.1-0.3,123.1-1.1c23.4-0.5,46.8-1,70.3-1.7C2853.7,2817.7,2851.2,2804.5,2847.8,2804.6z"/>
      <path fill="#2e4559" d="M2864.8,2484.9c-4.5-2.2-9.7-1.3-14.6-1.2c-4.6,0.1-9.1,0.2-13.7,0.2c-9.1,0.2-18.2,0.3-27.3,0.4
			c-19.2,0.3-38.3,0.7-57.5,0.9c-18.8,0.2-37.7,0.4-56.5,0.7c-18.8,0.3-38.1-0.3-56.8,2.2c-0.9,0.1,1.3,7.4,3,7.6
			c19,2.3,38.3,1.9,57.4,1.9c18.9,0.1,37.8,0,56.7-0.1c18.9-0.1,37.8-0.2,56.7-0.4c9.1-0.1,18.2-0.2,27.3-0.4
			c4.6-0.1,9.1-0.1,13.7-0.2c4.4-0.1,11.6,1.2,15.1-1.7C2870,2493.4,2866.4,2485.7,2864.8,2484.9z"/>
      <path fill="#2e4559" d="M2864.1,2507.7c-38.7,0.4-77.3,0.5-115.9,0.2c-19.1-0.1-38.2-0.4-57.3-0.4c-19.2-0.1-38.6-0.9-57.7,0.2
			c-0.5,0,1,5.9,2.4,6.1c19.6,2.4,39.5,2.8,59.2,3.7c19.2,0.8,38.5,1.3,57.8,1.6c38.7,0.7,77.4,0.7,116.1,0.3
			C2869.3,2519.3,2867.2,2507.6,2864.1,2507.7z"/>
      <path fill="#2e4559" d="M1797.4,2486c-89.3,11.1-178.5,24.1-266.9,40.8c-24.9,4.7-49.9,9.3-74.4,15.9c-0.8,0.2,1.2,6.5,2.5,6.3
			c45.1-5.2,89.8-13.9,134.5-21c44.3-7.1,88.7-13.8,133.2-19.9c25.3-3.5,50.6-6.8,75.9-9.9C1803.3,2498.1,1800.3,2485.6,1797.4,2486
			z"/>
      <path fill="#2e4559" d="M1898.8,2212.4c-4.3-2.4-9.5-2.3-14.4-2.9c-4.5-0.5-9-1.1-13.5-1.6c-9.7-1.2-19.3-2.3-29-3.5
			c-19.3-2.3-38.6-4.5-57.9-6.8c-19.3-2.2-38.6-4.5-57.9-6.7c-18.8-2.2-38.2-5.2-57.1-4.7c-0.7,0,1.2,6.8,2.6,7.2
			c18.7,4.7,38.2,6.7,57.3,9.1c19.4,2.5,38.8,4.9,58.2,7.3c19.4,2.4,38.7,4.9,58.1,7.3c9.7,1.2,19.3,2.4,29,3.5
			c4.5,0.5,9,1.1,13.5,1.6c4.3,0.5,11.1,2.7,15,0.7C1904.6,2222,1900.2,2213.2,1898.8,2212.4z"/>
      <path fill="#2e4559" d="M1893.4,2236c-39-4.4-78-8.9-117-13.8c-19.1-2.4-38.3-4.8-57.4-7.3c-9.5-1.2-19-2.3-28.5-3.4
			c-9.5-1.1-20.2-3.5-29.7-2.1c-0.8,0.1,1.2,5.3,2,5.6c9.4,3.6,19.9,4.7,29.8,6.3c9.6,1.6,19.3,3.2,29,4.6c19.5,2.8,39,5.5,58.6,8
			c39.3,5.1,78.7,9.9,118.1,14.3C1898.4,2248.2,1897,2236.4,1893.4,2236z"/>
      <path fill="#2e4559" d="M1940.5,2617.5c-16.2,12.8-30.5,28.3-45.4,42.6c-15.1,14.5-30.2,29-45.4,43.4c-30.3,28.8-61.1,57.1-92,85.3
			c-17.3,15.8-35.1,31.2-52.2,47.3c-2.5,2.3,4.6,14,5.2,13.4c31.7-27.5,61.9-57,92.2-85.9c30.4-29,60.8-58.1,90.7-87.6
			c16.8-16.5,34.8-32.7,49.7-50.9C1944.6,2623.9,1941.1,2617.1,1940.5,2617.5z"/>
      <path fill="#fff" d="M1790.7,2384.8c-0.4-1.9-1.2-3.9-2.3-5.6c-0.7-1.7-1.6-2.9-2.7-2.9c0,0.1,0.1,0.2,0.1,0.3
			c-2.2-1-5-0.5-7.6-0.6c-4.7-0.2-9.3-0.3-14-0.4c-8.6-0.2-17.4-0.1-26,0.1c-0.9,0,1.5,7,2.7,7.5c7.3,3.2,16.3,3.5,24.2,4
			c8.5,0.5,16.9,0.9,25.4,1.3c0.1,0,0.1-0.3,0-0.7C1791.3,2387.9,1790.8,2385.3,1790.7,2384.8z"/>
      <path fill="#fff" d="M1785.7,2405.4c-3.5-2.8-7.7-2.6-12.1-3c-4-0.4-8.1-0.8-12.1-1.1c-4-0.3-8.1-0.6-12.1-0.7
			c-3.8-0.2-8.6-0.7-12.1,1c-1.4,0.7,1.7,6.8,2.6,7.4c6.7,4,16.7,3.1,24.3,3.9c4.1,0.4,8.1,0.8,12.2,1.3c1.9,0.2,3.7,0.4,5.6,0.7
			c2.7,0.3,5,1.5,6.8-0.7C1790.2,2412.3,1787.1,2406.5,1785.7,2405.4z"/>
      <path fill="#fff" d="M1778.8,2430.7c-3.2-2.2-6.4-2.1-10.1-2.5c-3.7-0.4-7.4-0.9-11.1-1.3c-6.9-0.7-14.6-2-21.5-0.8
			c-1.1,0.2,1.6,7.1,2.7,7.5c6.9,2.6,14.3,3.5,21.5,4.6c3.7,0.6,7.5,1.1,11.2,1.6c3.1,0.4,8.3,2.2,10.7,0.2
			C1783.8,2438.5,1780.2,2431.6,1778.8,2430.7z"/>
      <path fill="#fff" d="M2825.7,2694.7c-17-2.6-34.2,0.5-51,2.2c-0.5,0.1,0.9,6.1,2.4,6c17.6-0.5,35.2,2.6,52.7,2.1
			C2830.6,2705,2828.1,2695.1,2825.7,2694.7z"/>
      <path fill="#fff" d="M2825.6,2718.7c-16.9-1.3-33.2-3.2-49.9,0.3c-0.8,0.2,1.2,7.1,2.7,7c8.4-0.5,17.1,0.6,25.5,1.2
			c8.6,0.7,17.1,1.2,25.7,1.8C2830,2729.1,2828.5,2719,2825.6,2718.7z"/>
      <path fill="#fff" d="M2827.7,2746c-7.2-2.2-16-1.3-23.4-1.7c-8.1-0.4-15.9-0.7-24,0c-0.7,0.1,1.1,5.9,2.2,6.2
			c8,2.1,15.7,3.3,23.9,4c3.8,0.4,7.7,0.7,11.6,0.9c4.1,0.3,9.2,1.3,13.2,0.2C2832.7,2755.2,2829.2,2746.4,2827.7,2746z"/>
      <path fill="#2e4559" d="M1996,1981.5c-3.9-5.8-9.4-10.7-14.2-15.7c-4.7-5-9.4-10.1-14.5-14.6c-1.5-1.4-0.9,1.5-0.7,2.2
			c0.4,2.1,1.5,4.5,2.9,6.2c4.8,5.8,10,11.4,15.1,16.9c2.4,2.6,4.7,5.1,7.1,7.7c2,2.2,4,5.3,6.7,6.6
			C1999.8,1991.5,1996.5,1982.3,1996,1981.5z"/>
      <path fill="#2e4559" d="M1852.5,1795.9c-0.1-0.2-1.4-2.2-2.1-1.8c-0.1,0.1-0.3,0.1-0.4,0.2c-1.7,0.9,1.4,7.6,1.8,8.4
			c1,2.2,2,4.2,3.4,6.1c0.1,0.1,2,3.5,1.8,2.3c0.8,4.5-3.4,9.3-6.9,11.5c-6.8,4.3-17.1-0.5-20.8-7.1c-2.2-3.9-1,1.9-0.3,3.3
			c4.8,9.7,17.9,22.4,28.6,12.9C1868.5,1821.9,1859.3,1805.4,1852.5,1795.9z"/>
      <path fill="#2e4559" d="M2362.5,1641c-27.7-5.8-56.8-3.9-83.9,4c-27.3,8-55,21.4-74.8,42.3c-0.7,0.7,1.3,4.5,1.7,4.2
			c11.6-8.4,23.2-16.6,36-23.1c12.4-6.2,25.5-11.2,39-14.5c28.1-6.9,57.3-7.1,85.7-1.6C2367.5,1652.6,2365.3,1641.6,2362.5,1641z"/>
      <path fill="#2e4559" d="M2334.9,1536.8c-42.6,5.6-88.6,22.9-118.2,55.3c-0.9,0.9,1.7,6.4,2.4,6c18.5-11.6,36.7-23.5,56.8-32.3
			c20.2-8.8,41.6-14.6,63.5-17.3C2340.5,1548.3,2337.7,1536.4,2334.9,1536.8z"/>
      <path fill="#2e4559" d="M2342.9,1539.4c-0.5-5.2-1-10.4-1.5-15.6c-0.9-9.4-1.8-18.9-2.6-28.3c-1.8-19.2-3.5-38.4-5.2-57.5
			c-3.3-38.1-6.6-76.2-9.7-114.3c-0.9-10.9-1.8-21.8-2.8-32.6c-1-11.1-1.5-22.5-3.4-33.5c-0.2-0.9-2.8-6.6-2.9-4.9
			c-0.6,9,0.7,18.4,1.2,27.4c0.6,9.2,1.2,18.4,1.9,27.6c1.4,19,2.8,37.9,4.3,56.9c3,37.7,6.2,75.5,9.5,113.2
			c0.9,10.6,1.9,21.3,2.8,31.9c1,10.8,1,22.3,3.9,32.8c0.3,1,3.6,9.3,4.6,7.6C2344.7,1547.4,2343.2,1542.5,2342.9,1539.4z"/>
      <path fill="#2e4559" d="M2319.7,1244c-0.6-1.4-1.8-5.2-3.6-5.7c0,0,0,0,0,0c-0.1,0-0.1,0-0.2,0c0,0,0,0,0,0l0,0c-0.8-0.2-2,0-2.7,0.2
			c-1.9,0.4-3.8,1.4-5.1,2.8c-1.1,1.1,0.4,4.5,0.9,5.7c0.4,0.9,1.7,5,3.2,4.8c1.4-0.2,2.8-0.7,4.3-0.8c1.5-0.1,2.9-0.1,4.4-0.1
			C2322.1,1250.8,2319.9,1244.5,2319.7,1244z"/>
      <path fill="#2e4559" d="M2375,1292.1c-0.1-0.2-1.5-2.7-1.7-1.9c-5.1,18.9-12.6,36.9-20.3,54.9c-6.9,16-15,32.1-27.7,44.4
			c-2.5,2.4,4.6,12.8,4.9,12.5c12.7-13.2,20-29.6,26.3-46.6c3.4-9.3,6.6-18.6,10-27.9c3.7-10.2,8.1-20.5,9.6-31.3
			C2376.2,1294.8,2375.5,1293.2,2375,1292.1z"/>
      <path fill="#2e4559" d="M2602.6,1213.6c-39.3,11.7-78.5,23.5-117.7,35.3c-19.1,5.7-38.1,11.7-57,18.1c-9.4,3.2-18.8,6.7-28.1,10.2
			c-4.7,1.8-9.3,3.7-13.8,5.8c-4.4,2.1-9.7,4.1-13,7.8c-0.6,0.7,0.8,4.5,1.8,4.6c4.9,0.4,10.1-1.8,14.8-3.2
			c4.8-1.5,9.5-3.1,14.2-4.7c9.4-3.2,18.9-6.3,28.4-9.3c19-6.1,38.1-11.7,57.3-17.4c39.3-11.6,78.6-23.1,117.9-34.8
			C2609.2,1225.5,2605,1212.9,2602.6,1213.6z"/>
      <path fill="#2e4559" d="M2703.4,1354.2c-0.7-2.1-2.3-8-4.8-8.8c-24.9-8.7-42.5-32.1-57.3-52.8c-7.9-11-14.9-22.5-20.5-34.8
			c-5.9-13.1-9.7-27.1-14.7-40.5c-0.9-2.3-2.8-4-1.6-0.3c4.7,15,8.2,30.2,14.5,44.8c6.1,13.9,13.8,27.2,22.6,39.6
			c8.5,12.1,17.7,23.9,27.8,34.7c9.6,10.3,20.6,19.5,34.1,24.3C2705.5,1361,2703.6,1354.8,2703.4,1354.2z"/>
      <path fill="#2e4559" d="M2467,1101.1c-0.3-0.8-2-5.5-3.4-5.1c-0.1,0-0.3,0.1-0.4,0.1h0c-1.9,0-8.6-4.2-10-4.9c-4-2-8-4-12-6
			c-8-4-15.9-8.1-23.9-12.1c-7.9-3.9-15.8-7.9-23.7-11.8c-7.3-3.7-15.2-9-23.2-11c-1.2-0.3,1.4,6.9,2.5,7.7
			c7.4,5.7,16.2,9.9,24.3,14.5c7.7,4.3,15.5,8.6,23.3,12.8c7.7,4.1,15.4,8.2,23.2,12.1c7.5,3.9,15.4,9.1,23.5,11.7
			c0.4,0.2,0.6,0.1,0.8-0.3C2469.3,1106.5,2467.9,1103.5,2467,1101.1z"/>
      <path fill="#2e4559" d="M2485,991.5c-2.9,7.5-4.2,15.9-5.9,23.7c-2,8.8-3.9,17.6-6,26.4c-4.1,17.4-8.7,34.8-13.7,52
			c-0.7,2.5,1.1,6.3,2.2,8.6c0.2,0.5,3.1,5.7,3.6,3.9c5.1-17.7,9.6-35.6,13.6-53.6c4-18.1,8.3-36.8,9-55.3
			C2487.9,996.1,2485.2,990.9,2485,991.5z"/>
      <path fill="#2e4559" d="M2693.3,1086.9c-6-8.5-17.3-13.7-26.4-18.4c-1.3-0.7-0.1,3.6,0,3.9c0.6,1.7,1.4,4.6,3.1,5.7
			c8.4,5.5,16.1,11.9,24.4,17.5c0.1,0,0.3,0.1,0.5,0.1c0.3-0.1,0.6-0.3,0.8-0.4C2697.4,1094.5,2694,1087.8,2693.3,1086.9z"/>
      <path fill="#2e4559" d="M2971.5,1143.7c-19.5,5.1-39.8,5.8-59.8,5.7c-10.1,0-20.1-0.1-30.2-0.2c-5,0-10,0-15-0.1
			c-4.7-0.1-10.7-1.3-15.2,0c-1,0.3,1.3,5.1,2,5.5c8.6,4.5,20.5,3.9,30,4.1c10.4,0.2,20.8,0.3,31.3,0.5c20.6,0.3,41.1,0.7,61.2-4.5
			C2977.2,1154.2,2973.7,1143.1,2971.5,1143.7z"/>
      <path fill="#2e4559" d="M2968.5,1218.2c-21.4,8.3-45.4,6.2-67.8,5c-24.1-1.3-48-5.3-72.1-6c-0.5,0,1.1,6.2,2.3,6.6
			c23.8,7.5,48.8,10,73.6,11.8c22.5,1.6,47.5,4.2,68.9-4.5C2975.5,1230.2,2970.5,1217.4,2968.5,1218.2z"/>
      <path fill="#2e4559" d="M2590,927.1c-1.5-3.3-3.4-6.7-5.9-9.4c-1.4-1.5-1.1,1.2-0.9,1.9c0.5,2.4,1.5,4.7,2.8,6.8c1.9,3,2.7,5.7,4.1,9
			c0.2,0.5,3.8,7.6,3.9,4.3C2593.9,935.5,2591.7,930.8,2590,927.1z"/>
      <path fill="#2e4559" d="M2583.2,943.7c-1.6-5-3.7-9.8-5.8-14.5c-0.2-0.5-1.6-3.8-2.6-3.4c-1,0.4,0.2,3.8,0.4,4.3
			c1.7,4.9,3.4,9.9,5.6,14.6c0.2,0.5,1.7,4,2.8,3.6C2584.7,947.8,2583.4,944.2,2583.2,943.7z"/>
      <path fill="#2e4559" d="M2204.4,1211.1c-6-4.2-16.6-1.3-23.2,0.5c-1.4,0.4,1.9,10.4,4,10.2c3.9-0.2,7.8-0.4,11.6-0.3
			c3.3,0,8.6,1.3,10.8-1.3C2209.2,1218.6,2206,1212.2,2204.4,1211.1z"/>
      <path fill="#fff" d="M2585,1360.1c-4-1.6-7.8,0.6-11.8,1.9c-3.6,1.2-7.3,2.3-10.9,3.4c-7.9,2.5-15.7,4.9-23.6,7.3
			c-15.8,4.8-31.6,9.4-47.5,13.9c-31.6,9.1-63.5,17-94.8,27.2c-0.9,0.3,1.3,6.8,2.6,6.6c32.8-5,64.9-13.5,96.8-22.1
			c15.9-4.3,31.8-8.9,47.6-13.7c7.9-2.4,15.8-4.8,23.7-7.3c3.6-1.1,7.3-2.3,10.9-3.4c1.8-0.6,3.6-1.1,5.4-1.7c2.9-1,3.5-0.9,5-3.5
			C2589.3,1367.2,2586.6,1360.7,2585,1360.1z"/>
      <path fill="#fff" d="M2586.8,1510.2c-0.2-0.5-3.7-8-4.7-7c-21.5,23.5-52.8,37.2-84.6,37.9c-16.3,0.3-33.3-2.6-47.9-10.2
			c-8.1-4.3-14.9-10.2-19.8-18c-4.8-7.6-7.7-16.3-10.7-24.8c-7.7-22.2-13.3-44.9-18.2-67.8c-0.2-1.1-3.7-7.8-3.2-4.2
			c3.1,21.2,8.5,42.2,15.1,62.6c5.9,18.5,12.2,39,25.6,53.6c12.2,13.4,30.5,19.5,48,21.9c17.3,2.4,35.2,0.8,51.8-4.5
			c19-6,36.3-16.8,49.8-31.4C2589.7,1516.8,2587.5,1512,2586.8,1510.2z"/>
      <path fill="#fff" d="M2601.2,1441.1c-0.9-11.7-3-23.2-5.2-34.7c-2.5-12.8-4.8-25.8-8.1-38.4c-0.5-1.9-1.3-5.3-2.9-6.6
			c-1.2-1-1.5-1-1.3,1c2.4,22.7,9.5,44.6,11,67.5c0.7,11.1,0.2,22.2-1.6,33.1c-0.9,5.3-2.1,10.6-3.5,15.8
			c-1.5,5.5-4.3,10.8-4.4,16.5c0,1.7,2.8,12.3,5.3,11.5c2.4-0.7,2.6-3.7,3.3-5.9c1-2.9,1.8-5.7,2.6-8.6c1.5-5.5,2.7-11.1,3.5-16.8
			C2601.6,1464.1,2602.1,1452.6,2601.2,1441.1z"/>
      <path fill="#2e4559" d="M2428.5,908.5c-3.5,10.3-5.7,21-9.5,31.2c-3.9,10.4-9,20.1-15.4,29.2c-11.8,16.9-28.6,29.7-48.9,34.5
			c-1.6,0.4,2.4,13.6,5.1,12.9c44.3-11.2,67.7-60.6,71.3-102.6C2431.3,912.6,2428.7,908,2428.5,908.5z"/>
      <path fill="#2e4559" d="M2324.4,707.3c-28.7,17.6-57.2,35.4-86.6,52c-14.5,8.2-29.1,16.4-43.9,24.2c-7.4,3.9-14.7,7.9-22.1,11.8
			c-7.6,4-15.9,7.5-22.9,12.5c-0.9,0.7,1.4,6.4,2.4,6.1c8.1-2.4,16-7,23.6-10.6c7.2-3.5,14.4-7,21.6-10.7
			c15.1-7.8,30.1-15.7,44.9-23.9c29.3-16.4,58.7-33.2,86.7-51.7C2330,715.8,2325.4,706.7,2324.4,707.3z"/>
      <path fill="#2e4559" d="M2095.8,711.1c-3.3-6.6-8.5-12.3-12.9-18.2c-4.5-6.2-8.8-12.4-13.2-18.7c-4.2-5.9-8.2-11.9-12.3-17.9
			c-5-7.3-10.8-14.5-11.4-23.7c-0.1-0.7-1.6-3.5-1.5-2.8c0.7,16.1,11.3,29.6,19.8,42.6c5.6,8.5,11.1,17,16.9,25.3
			c2.9,4.1,5.8,8.2,8.7,12.3c1.7,2.3,4.6,8.4,7.5,9.1C2099.4,719.5,2096.2,711.8,2095.8,711.1z"/>
      <g>
        <path fill="#2e4559" d="M2322.5,601.9c0,0.1,0.1,0.1,0.1,0.2C2322.6,602,2322.6,602,2322.5,601.9z"/>
        <path fill="#2e4559" d="M2326.6,610.6c-0.5-2-1.2-4.1-2.2-5.9c0.4,0.7,0.5,0.9-0.2-0.3c-0.4-0.8-0.9-1.6-1.5-2.3
				c0.1,0.1,0.1,0.2,0.2,0.3c-0.1-0.2-0.2-0.3-0.4-0.5c-1.6-2.1-3.3-4.1-5-6.2c-3.1-3.8-6.4-7.6-9.7-11.3
				c-6.5-7.4-13.3-14.6-20.3-21.4c-6.4-6.3-13-12.3-19.9-17.9c-6-4.9-13.5-13.3-21.5-13.9c-0.2,0,0.6,3.9,1.5,4.1
				c5,1.4,8.6,5.5,12.3,8.9c3.2,2.9,6.4,5.9,9.5,8.9c6.8,6.6,13.6,13.2,20.2,20c12.7,13,24.6,26.6,35.9,40.7
				C2327.4,616.1,2326.7,611.3,2326.6,610.6z"/>
      </g>
      <path fill="#2e4559" d="M2320.3,609.7c-0.2-0.6-2.5-5.9-3.6-4.4c-19.5,25.9-45.2,47.2-71.5,66c-13.9,9.9-29.3,16.4-45,22.7
			c-15.5,6.3-31.1,12.3-47.3,16.7c-18.4,5-36.8,5.8-55.6,8.1c-0.7,0.1,1.1,5.7,2.1,5.9c16.3,3.4,33.2,1,49.3-2.4
			c16.7-3.5,33-8.6,48.9-14.6c15.9-6,32.3-12.2,46.7-21.5c13.7-8.9,26.6-19.3,39.1-29.9c14-11.8,27.1-24.7,38.3-39.2
			C2323,615.4,2321,611.3,2320.3,609.7z"/>
      <path fill="#2e4559" d="M2144.8,584.1c-0.1-0.2-2.9-4.9-3.1-3.4c-0.1,0.5-0.1,0.9-0.2,1.4c-0.1,0.7,0,1.8,0.3,3
			c-2,4.4-8.5,8.1-12.2,9.6c-5.5,2.3-12.2,2.7-16.6-1.9c-1.3-1.4-0.8,1.5-0.7,2c0.4,1.8,1.3,4.4,2.6,5.7c5.7,5.6,15.5,4.6,22.2,1.2
			c3.4-1.7,6.9-4.5,8.9-7.7C2148.1,590.9,2146.4,587.4,2144.8,584.1z"/>
      <path fill="#2e4559" d="M2032.1,766.5c-0.3-1.8-1-3.7-1.9-5.3c-2.3-4-5.8-7.2-10-9.3c-1-0.5-0.1,2.8,0,3.1c0.4,1.3,1.1,3.6,2.4,4.5
			c1.7,1.1,3.4,2.3,4.8,3.8c1.4,1.4,2.4,3,3.7,4.3C2032.3,768.6,2032.3,767.2,2032.1,766.5z"/>
      <path fill="#2e4559" d="M2020.4,776c-0.5-1.6-1.2-3.2-2.1-4.7c-1.4-2.2-3.6-3.6-5.7-5.2c-0.5-0.4-0.6,0.6-0.6,0.8
			c0,0.8,0.2,1.6,0.4,2.3c0.3,1,0.7,2,1.1,3c0.4,0.8,0.8,1.9,1.5,2.5c0.8,0.8,1.6,1.6,2.5,2.3c0.8,0.7,1.6,1.6,2.5,2.1
			c0.1,0,0.2,0,0.3,0.1c0,0,0.1-0.1,0.1-0.1C2021.2,778.5,2020.6,776.7,2020.4,776z"/>
      <path fill="#2e4559" d="M2081.9,837.8c-0.2-0.3-0.9-1.7-1.5-2.5c-0.1-2.2-1.1-4.5-2.2-6.4c-0.3-0.6-2.1-3.3-2.1-1.1
			c0,3.4,1.1,6.8,2.4,9.9c0.7,1.6,1.5,3.2,2.5,4.7c0.5,0.7,1.5,2.6,2.6,2.4C2085,844.5,2082.2,838.3,2081.9,837.8z"/>
      <path fill="#2e4559" d="M2462.6,587.8c-0.6-1.7-2.2-4.9-3.9-5.5c-1.6-0.5-3.8-0.4-5.4-0.5c-2.2-0.2-4.4-0.5-6.5-1
			c-1.2-0.3-0.1,2.9,0,3.3c0.4,1.3,1.2,4.2,2.6,4.9c4.3,2,8.6,3.6,13.2,4.7c0.3,0.2,0.6,0.1,0.7-0.3
			C2463.6,591.3,2463.4,589.9,2462.6,587.8z"/>
      <path fill="#2e4559" d="M2390.3,545.8c-0.2-2.4-1.1-4.8-2.2-6.9c-0.3-0.6-2.2-3.4-2.2-1.2c0.1,3.8-0.3,7.6-0.3,11.4
			c0,2.2,1.1,4.7,2.1,6.6c0.2,0.3,2.3,3.7,2.5,2.5C2391,554.2,2390.6,549.8,2390.3,545.8z"/>
      <path fill="#2e4559" d="M2380.5,564.6c-0.2-4.1-1-8.2-1.4-12.2c-0.2-1.7-1-3.6-1.9-5c-0.3-0.5-1.5-2.1-1.5-0.6
			c0.1,3.1-0.1,6.2,0.1,9.3c0.2,2.5,1.2,5.1,2.4,7.3C2378.6,564,2380.7,567,2380.5,564.6z"/>
      <path fill="#2e4559" d="M2180.8,568.8c-0.6-2.3-1.5-5.4-3.3-7.2c0,0,0,0,0,0c0,0-0.1-0.1-0.1-0.1c0,0,0,0,0,0
			c-0.1-0.2-0.3-0.3-0.4-0.4c-0.4-0.4-0.7-0.8-1.1-1.2c0,0-0.1-0.1-0.1-0.1c-0.5-1.9-1.3-3.9-2.5-5.3c-1-1.2-1.5-0.6-1.2,0.9
			c1,5.7,3.5,12.1,7.8,16.1C2181.7,573.1,2181,569.6,2180.8,568.8z"/>
      <path fill="#2e4559" d="M2194,563.7c-0.7-2.3-1.6-4.6-3.1-6.5c-0.4-0.6-1.1-1.6-1.7-2.1c0-0.3-0.1-0.6-0.1-0.6c-0.3-1.8-1-3.8-2-5.4
			c-0.3-0.4-1.7-2.3-1.6-0.6c0.2,3.3,1.1,6.5,2.4,9.6c1.3,3.1,3.1,7.3,5.9,9.3C2195.1,568.2,2194.1,563.7,2194,563.7z"/>
      <path fill="#2e4559" d="M2230.8,845.8c-0.7-5.7-3-11.3-6-16.2c-1.6-2.6-7-10.2-10.8-7.3c-2.5,1.9-2.1,6-1,9.8
			c0.4,3.4,1.4,6.6,2.9,9.9c2,4.4,5.4,10.7,10.4,12.3C2231.4,855.8,2231.2,849.2,2230.8,845.8z M2225.9,837.8
			c0.5,0.7,0.6,1.7,0.6,2.6c-0.4-1.2-0.8-2.4-1.2-3.2C2225.5,837.4,2225.8,837.6,2225.9,837.8z"/>
      <path fill="#2e4559" d="M2303.3,801.2c-2.5-6-6.2-12.8-11.7-16.6c-2-1.4-5-2.5-6.9-0.2c-1.6,2-0.9,5.2-0.5,7.5
			c1.2,6,3.9,12.4,8.4,16.8c2.6,3.9,7.7,10.5,12,8.5C2309.4,814.9,2304.5,804.2,2303.3,801.2z M2301.2,805c-0.1-0.1-0.1-0.2-0.2-0.3
			c-0.4-1.1-0.8-2.3-1.2-3.4c0.8,0.9,1.5,2,1.5,3C2301.3,804.6,2301.3,804.8,2301.2,805z"/>
      <path fill="#2e4559" d="M2216,799.8c-4.6-1.8-8.2-3-13.1-1c-2,0.8-4,1.9-5.5,3.5c-1.8,2-1.1,4.8-0.4,7.3c0.5,1.8,1.4,4.8,3,6.1
			c2.8,2.2,4.6-0.8,6.8-2.2c1.9-1.2,3.9-2,6-2.7c1.9-0.7,4.4-1.8,6.3-2C2220.4,808.7,2217.4,800.3,2216,799.8z"/>
      <path fill="#2e4559" d="M2281.8,756.9c-7.1,3.2-12.5,9.4-10.8,17.6c0.2,0.8,2.9,8.7,3.9,7.8c0.7-0.6,0.8-1.7,1.2-2.5
			c0.7-1.5,1.7-2.7,2.8-3.9c2.4-2.4,5.2-4,8.1-5.7C2289.3,768.9,2283.6,756.1,2281.8,756.9z"/>
      <path fill="#2e4559" d="M2281.4,866.2c-2.9-6.6-7.2-12.9-11-19c-3.8-6-7.6-11.9-12-17.4c-0.7-0.9,0.5,3.3,0.8,3.9
			c4,6.5,8.1,12.9,12.1,19.5c3.4,5.6,6.3,12.2,10.5,17.3C2283.1,872,2281.6,866.6,2281.4,866.2z"/>
      <path fill="#2e4559" d="M2294.3,888.5c-6.1,0.4-13,6.4-19.5,6c2.1-7.3,6-14,8.6-21.1c0.4-1.2-2.5-7.6-3-7.1
			c-4.1,4.1-6.4,10.2-8.2,15.5c-1.7,4.9-3.5,9.7-1.8,14.8c1.6,4.5,3.6,6.9,8.7,6.7c6.1-0.2,13.6-4.4,17.6-8.8
			C2297.5,893.6,2295.6,888.4,2294.3,888.5z"/>
      <path fill="#fff" d="M2335.3,891.4c-0.2-0.9-3-8.2-4-6.7c-5.7,8.4-11.9,16.3-18.6,23.9c-6.5,7.3-14.1,14.1-20,21.9
			c-0.1,0.2-0.1,0.6,0,1.2c-0.5,0.3-1,0.6-1.5,0.9c-1.7,1,2.1,9.5,3.6,10.1c13.3,5.1,27.9-0.4,35.5-12.2
			C2337.6,918.9,2338.6,904.4,2335.3,891.4z"/>
      <path fill="#2e4559" d="M2330.1,881.3c-14.1,17.1-29.8,34.1-41,53.2c-0.3,0.6,1.2,3.6,1.4,3.4c2-1.8,4-3.2,5.8-5.4
			c1.6-1.9,3.2-3.8,4.7-5.8c3.6-4.3,7.2-8.7,10.7-13c7-8.4,14-16.8,21.2-25C2334.5,887.1,2330.1,881.3,2330.1,881.3z"/>
      <path fill="#f26457" d="M2398.1,845c-2.1-4.6-4.9-9.8-9.4-12.5c-5.2-3.2-12.5-1.8-17.6,0.7c-2.9,1.4-5.3,3.3-7.3,5.5
			c-0.1,0-0.1,0-0.2,0c-18.2,9-12.3,42.4,3.9,50.5c10.9,5.5,23.2-3.4,29.3-12.1C2403.8,867.3,2402.8,855.6,2398.1,845z M2396,848.9
			c0.2,0.4,0.3,1,0.3,1.7c-0.4-1.1-0.8-2.1-1.4-3.1C2395.3,848,2395.7,848.4,2396,848.9z M2364.1,864.3c0.1-0.5,0.2-0.9,0.4-1.4
			c0.3,2,0.9,4.6,1.9,7.2c-0.1,0-0.3-0.1-0.4-0.1c-0.5-0.2-1.5-1-2.4-1.7C2364,867.2,2363.9,865.1,2364.1,864.3z M2361.1,877.2
			c-4.2-3.2-4.6-8.2-4.6-13.1c0-1.7,0.2-3.3,0.5-4.9c0.1,0.9,0.2,1.8,0.3,2.7c0.8,4.8,3.1,11.9,6.9,17
			C2363.1,878.5,2362.1,878,2361.1,877.2z"/>
      <path fill="#f26457" d="M2254.1,918.5c-3-7.7-8.6-13-17.4-12.1c-6.4,0.7-14.1,4.1-18.1,9.7c0.8,2.2,1.7,4.4,2.6,6.7
			c0.9-0.8,1.8-1.4,2.9-2c0,0.3,0,0.6,0,1c0,0.1-0.1,0.1-0.1,0.2c-0.8,0.8-1.4,1.8-2,2.8c4.9,12.6,10.2,25.2,14.8,34.6
			C2254.4,956.3,2260,933.7,2254.1,918.5z M2251.4,927.2c-0.5-1.5-1.1-3.1-1.9-4.6c-1.4-2.8-3.4-5.4-5.9-7.2
			c3.9,0.2,7.4,1.6,8.1,5.2C2252.1,922.7,2251.9,924.9,2251.4,927.2z"/>
      <path fill="#2e4559" d="M2404,774.1c-0.8-2.3-2.1-5.1-4.4-6.4c-1.9-1.1-4.2-0.8-5.9,0.3c-2.2,1.4-3.3,4.1-3.8,6.5
			c-0.2,0.9,0.3,2,0.7,2.8c0.1,0.2,1,1.8,1.2,1.3c0.7-2.1,2-4.1,4-5.2c1.9-1.1,4.4-1.2,6.2,0.3c0.1,0.1,0.1,0.1,0.2,0.2
			c0,0.5-0.1,0.9-0.2,1.3c-0.3,1.1-0.8,2.2-1.5,3.1c-0.3,0.5-0.6,0.9-1,1.3c-0.2,0.2-0.4,0.5-0.6,0.7c-0.1,0.2-0.4,0.5-0.5,0.6
			c-0.5,0.2-0.1,1.6,0,1.9c0.3,1.2,0.8,2.3,1.3,3.4l0.2,0.3c0.1,0.1,1,1.8,1.4,1.5c0.8-0.7,1.5-1.8,2-2.8c0.6-1,1.1-2,1.4-3.2
			C2405.4,779.5,2404.9,776.8,2404,774.1z"/>
      <path fill="#2e4559" d="M2404.4,741.3c-3.4,1.1-6,4.4-8,7.3c-2.1,3.2-3.6,6.9-4.6,10.6c-0.6,2.5-1.1,5.1-1.4,7.6
			c-0.3,2.7-0.3,5.4-0.5,8.1c0,0.4,0.2,1,0.4,1.3c0,0.1,0.4,0.7,0.5,0.5c0.4-2.1,1.1-4.1,1.6-6.1c0.5-2.1,1-4.3,1.7-6.4
			c1.2-3.9,2.8-7.7,5.2-11c2.2-3,5.6-6.6,9.6-6.4c1.8,0.1,3.6,0.8,5,2c1.5,1.2,1.7,3.1,2,4.9c0.1,0.7,0.4,1.5,0.8,2.2
			c0.1,0.2,0.6,0.9,0.6,0.2C2417.3,750.1,2412.2,738.7,2404.4,741.3z"/>
      <path fill="#2e4559" d="M2858.8,1089.5c-1.6,0.5-3.2,2.1-4.4,3.2c-1.3,1.1-2.5,2.2-3.8,3.3c-2,1.6-2.2,2.1-1.8,4.8
			c0.4,2.7,1.6,5.1,3.5,7c0.2,0.3,0.5,0.5,0.9,0.5c1.9-1.3,3.5-3.1,5.1-4.7c1.6-1.6,3.4-3.5,4.2-5.6
			C2863,1096.9,2860.5,1089,2858.8,1089.5z"/>
      <path fill="#2e4559" d="M1754.6,2054.3c-0.7-2-1.6-4.6-3.4-5.9c-3.6-2.7-9.9-1.7-14-0.7c-1.4,0.3,1.9,10.2,4,10.2
			c2.6,0,5.3,0.3,7.9,0.8c1.9,0.4,4.4,1.8,6.2,1.1C1756.5,2059.2,1754.8,2054.9,1754.6,2054.3z"/>
      <path fill="#2e4559" d="M2777,1738.9c-6.1,2.5-12.2,5.1-18.2,7.9c-3.9,1.8-12.4,3.8-12.5,8.6c0,1.4,4.3,12.2,5.2,11.2
			c4-3.4,9.2-5.9,13.7-8.5c5.2-3.1,10.5-6,15.9-8.9C2782.8,1748.3,2778.5,1738.2,2777,1738.9z"/>
      <path fill="#2e4559" d="M2782.3,1768.5c-3.9,1.7-7.7,3.4-11.6,5.3c-1.9,0.9-3.9,1.8-5.7,2.8c-2.6,1.4-2.9,1.6-3.7,4.5
			c-0.6,2.1,1.7,8.9,3.8,9.8c2.6,1.1,2.8,0.8,5.1-0.8c1.8-1.2,3.6-2.6,5.3-3.9c3.5-2.6,7-5.4,10.4-8.1
			C2787.6,1776.9,2783.6,1767.9,2782.3,1768.5z"/>
      <path fill="#2e4559" d="M2599,1192.4c-2.3-6.3-4.6-12.6-6.9-18.8c-1.1-3.1-3-11.7-7-12.6c-1.9-0.5-4.9,1.5-6.6,2.2
			c-3.3,1.4-6.5,3-9.6,4.7c-5.9,3.3-11.5,6.6-16.4,11.3c-1.1,1,1.8,8.3,3.1,7.8c0.7-0.2,1.3-0.5,2-0.8c1.7,5.5,3.4,11,5.1,16.5
			c1,3.1,3,12.4,7,13c1.8,0.3,5-1.8,6.6-2.6c2.7-1.2,5.3-2.5,7.9-3.9c5.5-2.8,10.8-6,15.9-9.6
			C2601.6,1198.5,2599.3,1193.4,2599,1192.4z M2579.8,1195.2c-2.4,1.2-4.8,2.2-7.3,3.2c-1.3,0.5-4.4,2.1-6.6,2.7
			c-0.3-1-0.6-1.9-0.9-2.9c-1.1-3.6-2.2-7.1-3.3-10.7c-0.2-0.5-0.5-1.5-0.9-2.7c7.8-3.2,15.3-7.1,23.1-10.1c0.8-0.3,2.7-0.6,3.3-1.2
			c1.2-0.1,1.4-0.8,0.5-2.2c-0.5-2.1-0.6-2.5-0.1-1c1.2,2.3,1.9,5.2,2.8,7.7c1.1,3,2.2,6,3.3,9
			C2589.3,1190.1,2584.6,1192.8,2579.8,1195.2z"/>
      <path fill="#2e4559" d="M2388.9,1259.1c-2.8-7-5.8-13.9-8.9-20.7c-1.5-3.4-3.1-6.8-4.8-10.1c-0.7-1.3-1.6-3.8-3.1-4.4
			c-1.7-0.6-6.1,2.2-7.5,2.9c-3,1.5-6.1,3.1-9,4.8c-6.1,3.4-11.5,7.4-16.6,12.2c-0.1,0.1-0.1,0.2-0.2,0.4c-0.1-0.1-0.3-0.1-0.4-0.1
			c-2-0.3-0.2,5.1,0,5.8c3.1,8.6,6.1,17.2,9.2,25.8c0.3,0.8,2.9,8.7,4.8,8.1c13.1-4.7,25.7-10.4,37.7-17.5
			C2391.5,1265.2,2389.2,1259.9,2388.9,1259.1z M2348.8,1269.4c-2-5.6-3.9-11.3-5.9-16.9c-0.2-0.7-0.6-2-1.2-3.5
			c5.3-3,10.8-5.9,16.4-8.5c2.8-1.3,5.7-2.5,8.6-3.4c1.5-0.5,6.4-2.7,8.6-2.3c3.1,6.2,5.8,12.7,8.3,19.2
			C2372.4,1260,2360.8,1265.2,2348.8,1269.4z"/>
      <path fill="#2e4559" d="M2689.2,2101.7c-0.3-0.6-2.7-5.2-3.4-3.7c-4.3,10-12.2,17.5-22.9,20.2c-10.9,2.7-22.8,0.2-31.3-7.2
			c-0.7-0.6-0.1,2.5-0.1,2.4c0.3,1.3,1,3.4,2.1,4.4c9,8,20.7,14,33.1,12c10.8-1.8,21.1-9.5,24.6-20.1
			C2692,2107.4,2690.1,2103.7,2689.2,2101.7z"/>
      <path fill="#2e4559" d="M2817.3,2145c-10,1.5-19.9,3.6-29.7,6.2c-0.9,0.2,1.3,7,2.6,6.7c9.8-2.5,19.8-4.5,29.8-5.9
			C2820.7,2151.9,2818.9,2144.8,2817.3,2145z"/>
      <path fill="#2e4559" d="M2323.3,2051.1c-1.6-5.3-3.3-10.5-4.9-15.8c-3.3-10.5-6.5-21-9.8-31.5c-0.8-2.5-3.6-6.2-2.2-1.3
			c3,10.3,6,20.5,9,30.8c2.7,9.3,4.7,19.5,8.8,28.3c0.1,0.3,2.5,4.3,2.3,2C2326.4,2059.5,2324.5,2055.2,2323.3,2051.1z"/>
      <path fill="#2e4559" d="M2359.3,2040c-1.6-9.2-5.9-18.2-8.9-27c-3.3-9.5-6.4-19.1-9.5-28.7c-0.5-1.6-4.2-7.4-2.8-2.5
			c2.7,9.4,5.5,18.8,8.4,28.2c2.9,9.4,5.4,19.6,9.8,28.4C2357,2039.6,2360,2044.2,2359.3,2040z"/>
      <path fill="#2e4559" d="M2840.3,1547.8c-0.1-2.7-1.8-6.5-3.4-8.6c-4.5-6.1-6.3-13.7-8.6-20.8c-2.6-7.9-5.2-15.7-7.8-23.6
			c-0.3-0.8-1.7-5.5-2.9-5.4c-1.3,0.1-0.2,3,0,3.7c3.2,10.1,6.4,20.3,9.6,30.4c2.7,8.8,5.9,17.5,11.3,25
			C2839.8,1550.5,2840.4,1550,2840.3,1547.8z"/>
      <path fill="#2e4559" d="M2866.9,1527.7c-0.4-4.2-2.5-8.4-3.8-12.4c-1.5-4.4-3-8.8-4.4-13.3c-3.1-9.6-6.2-19.1-8.7-28.9
			c-0.4-1.5-3.8-7.4-2.6-3c2.5,9.7,4.9,19.4,7.7,29c2.7,9.2,5,19.9,9.9,28.2C2865.8,1528.8,2867.2,1530.5,2866.9,1527.7z"/>
      <path fill="#2e4559" d="M1741.6,2539.1c-73.8,10.1-147.7,20.1-221.4,30.7c-20.8,3-41.4,6.7-62.1,10.7c-0.7,0.1,1.1,6.5,2.5,6.3
			c74.5-6.1,148.6-17.4,222.7-27.4c21-2.8,42-5.7,62.9-8.5C1747.4,2550.8,1744.4,2538.7,1741.6,2539.1z"/>
    </g>
    <g>
      <path fill="#f2ba52" d="M3343.9,2602.3c-1.9-5.7-4.3-13.8-8.9-17.9c-22.6-20.3-45.3-40.5-67.9-60.8c-11.1-10-22.2-19.9-33.3-30
			c-9.1-8.3-18.5-18.7-30.6-22.6c-21.4-7-43.6,6.2-55,24c-8.2,12.8-7.9,26.2-3.4,40.4c4.8,15.2,13,28.7,23.9,40.3
			c10.1,10.7,20.9,20.7,32.5,29.8c5.6,4.4,11.6,8.6,17.8,12.2c2.4,1.4,4.9,2.7,7.5,4c1,3.3,1.9,6,2.2,6.6c1.7,4.1,3.5,8.3,6,12
			c1,1.5,2.6,4.3,4.7,4.1c36.9-2.9,72.7-12.2,105.9-28.7C3348.1,2614.3,3344.5,2604,3343.9,2602.3z"/>
      <path fill="#f2ba52" d="M3463.4,2566.9c-3.8-9.7-7.8-19.3-12-28.8c-7.6-17.7-15.7-35.3-24.8-52.4c-7.5-14-16.8-29-30.9-37.2
			c-14.9-8.7-32.9-7.1-48.8-2.3c-8,2.4-15.9,5.5-23.5,9c-6,2.7-11.9,6.2-15.6,11.8c-5.7,8.6-1.9,20,0.7,29
			c2.7,9.2,5.8,18.3,9.1,27.3c7.2,19.7,16.1,38.8,26.4,57.1c7,12.4,14.6,24.5,23.4,35.6c0.2,0.6,0.3,1,0.4,1.1
			c1.7,4.2,3.5,8.4,6.1,12.2c1,1.5,2.7,4.3,4.8,4.1c18-1.5,35.9-5,53.2-10.3c8.5-2.6,17-5.4,25.3-8.8c6.8-2.7,15.6-5.2,15.9-13.8
			C3473.7,2589.2,3467.5,2577.3,3463.4,2566.9z"/>
      <path fill="#f2ba52" d="M3664.4,2485.8c-8-11.9-26.1-17.3-39.5-19.7c-15.3-2.7-31.1-1.1-45.1,5.9c-14.3,7.2-27.2,18-39.2,28.3
			c-13.2,11.3-26,23.7-36.6,37.5c-10.7,13.8-20.8,29.8-26.6,46.4c-1,2.9,1.4,7.6,2.6,10.2c0.4,0.9,3.1,6.6,4.3,4.7
			c1.9-3.1,3.8-6.1,5.8-9.2c1.1,2.9,2.4,5.7,3.9,8.4c1.1,2,3,6.3,5.3,7c8.2,2.5,16.4,4.6,24.3,7.9c7.4,3.1,14.4,7.9,22.3,9.6
			c15.8,3.5,29.3-9.9,40.9-18.6c26.1-19.7,51.6-40.4,72.1-66.2c5-6.3,10.9-13.1,13.5-20.8C3675.7,2507.4,3670,2494,3664.4,2485.8z"/>
      <path fill="#f2ba52" d="M3791.6,2492.3c-6.3-11.1-16.5-16.3-29-17.6c-25.1-2.6-49.2,12-67.2,28.1c-19.3,17.2-33.6,40.1-43,64.1
			c-1.4,0.1-1.7,1.8-1.5,4c-0.3,0.9-0.6,1.7-0.9,2.6c-0.9,2.6,1.3,7,2.4,9.3c0.3,0.6,2.3,4.6,3.4,4.7c0.9,2,1.8,4,2.9,5.9
			c1.1,2,2.9,6.1,5.2,6.9c14.2,4.8,28.9,8.5,43.4,12.7c6.1,1.8,13.3,4.8,19.6,2.3c5.8-2.2,10.2-8.1,14.4-12.4
			c10.3-10.6,20-21.7,29.5-33.1c8.5-10.2,16.7-20.7,23.3-32.2c3.2-5.7,6.1-11.5,6.1-18.2C3800.3,2510.2,3796.1,2500.3,3791.6,2492.3
			z"/>
      <path fill="#f2ba52" d="M3933,2511.3c-3.6-6.6-8.5-11.1-14.7-15.1c-21.9-14-50.3-19.1-73.7-5.5c-12.7,7.4-20.3,19.8-27.7,31.9
			c-9.5,15.5-16.8,32.1-25.5,48.1c-0.9,1.6,1.1,5.6,1.7,7c0.1,0.2,0.6,1.2,1.2,2.2c0.1,1.5,0.3,2.8,0.5,3.2c2,7.6,5,15.4,9.9,21.6
			c7.5,9.5,17.1,17.4,28,22.8c10.7,5.3,25.4,10.5,36.5,3.8c10.7-6.5,20.1-16.9,28.6-26c9.1-9.7,17.4-20.1,24.9-31
			c3.5-5.1,6.9-10.3,10-15.6c3.7-6.3,7.6-12.8,8-20.2C3941.2,2529.2,3937.3,2519.3,3933,2511.3z"/>
      <path fill="#03a65a" d="M3156.2,2490.7c-1.1-4.4-2.9-9.1-5.8-12.7c-7.1-8.7-14.1-17.5-21.2-26.2c-3-5.4-6.1-10.7-8.9-16.1
			c-6.5-12.5-12.7-25.2-19.1-38.8c-12.2-26.2-23.5-53.2-32.4-80.1c-1.7-5.2-3.9-11.1-7.4-15.4c-1.9-2.3-3.7-3.7-4.1,0.3
			c-1.9,18.4,1,36.6,6.1,54.4c5.7,20.1,13.8,39.8,24.3,57.9c9.2,16,20,30.9,31.7,45.1c3.2,3.9,6.5,7.8,9.9,11.6c0.5,1,1.1,2,1.6,3
			c2,3.7,4.1,7.5,6.2,11.2c1.7,3,3.7,8,7.5,8.2c1.3,0.1,0.7-3.8,0-6.8c3.3,3,6.7,6,10.1,9C3157.8,2498,3156.6,2492.1,3156.2,2490.7z
			 M3085.3,2391c-2-3.7-2-3.6-3.9-7.8c-0.6-1.3-1.2-2.5-1.7-3.8c0.2,0.3-1.6-4.1-1.8-4.6c-0.2-0.4-0.3-0.7-0.4-0.9
			c-0.1-0.2-0.2-0.6-0.3-1.1c-0.5-1.5-1-2.9-1.4-4.4c0.1,0.3-0.9-3.4-1.1-3.9c-0.3-1.1-0.9-3.7-1-4c-0.7-3.4-1.2-6.7-1.7-10.1
			c-0.3-2.4-0.5-4.8-0.7-7.2c8.3,21.7,17.1,43.2,26.7,64.4c1.8,4,3.7,8,5.5,12c-4.8-6.5-9.3-13.2-13.5-20.2
			C3088.4,2396.6,3086.8,2393.8,3085.3,2391z"/>
      <path fill="#03a65a" d="M3145.4,2493.9c-1-3.4-2.4-7.7-4.9-10.2c-3.9-4-7.9-7.9-12.2-11.5c-0.6-0.8-1.3-1.4-2.1-1.8
			c-0.1,0-0.1-0.1-0.2-0.1c-4.1-3.3-8.3-6.2-13-8.7c-10.6-5.7-22.1-8.9-33.8-11.6c-11.9-2.7-23.9-4.8-35.9-6.9
			c-12.5-2.2-25-4.9-37.8-4.7c-3.1,0.1,1.8,14.5,2,15.1c1.2,3.4,2.6,6.8,4.4,10c1.1,2,2.7,5.7,4.9,6.5c38.6,14.6,81.8,12.6,119.2,31
			c2.4,1.2,2.1-2.9,1.4-6.7c2.7,1.6,5.2,3.3,7.6,5.3C3146.9,2501.1,3145.4,2493.9,3145.4,2493.9z"/>
      <path fill="#03a65a" d="M3352.3,2433.4c-13.7-37.7-29.2-74.8-45.3-111.5c-7.8-17.8-15.8-35.6-24-53.2c-7.6-16.3-14.4-35.8-29-47.4
			c-1.6-1.3-1.9,1.8-1.8,2.4c4.4,63.4,36.2,121,63.5,177.1c7.9,16.1,16.3,31.9,24.2,48c0.5,1,2.6,6.1,4.1,4.5
			c1.4-1.5-1.9-8.6-2.5-9.8c-8.3-17.9-16.1-36-24.5-53.9c-7.9-16.8-15.8-33.6-23.7-50.4c-7.1-15.2-13.6-29.8-18.5-44.3
			c-4.7-13.9-8.1-28.3-9.5-43.2c1.5,1.5,2.8,3.2,3.8,4.8c-0.2-0.3,1.3,2.5,1.4,2.6c0.9,1.7,1.7,3.5,2.5,5.2c3.8,8,7.5,16,11.1,24
			c7.2,15.7,14.7,32.7,20.8,47.1c14.1,33.4,27.1,67.1,40,100.9c1,2.6,5.9,16.3,10.1,15.2C3358.9,2450.4,3352.7,2434.5,3352.3,2433.4
			z"/>
      <path fill="#03a65a" d="M3399,2289.1c-0.3-0.5-3.6-6.7-5-5.5c-19.2,14.9-28.4,38.3-35.6,60.8c-7.1,22.4-13.5,45.1-15.3,68.5
			c-1.2,2.8-2.4,5.6-3.6,8.4c-0.8,2,0.3,6.1,0.8,7.9c1,4.1,2.5,8.3,4.3,12c0.6,1.3,6.7,13.1,8.4,9.2c10.9-26.2,21.3-52.7,32-79
			c5.3-13,10.6-26,15.8-39.1c2.3-5.7,5.2-11.5,5.6-17.8C3407,2305.7,3403.1,2296.5,3399,2289.1z"/>
      <path fill="#03a65a" d="M3757.1,2311.1c-0.2-1-5.6-14.9-7.2-13.2c-41.3,42.8-74.9,92-100.9,145.4c-0.9,1.9,1.1,5.8,1.9,7.5
			c0.1,0.3,0.6,1.2,1.1,2c-1.9,2.9-3.8,5.7-5.7,8.6c-2,3,2.3,11.5,3.6,14.3c0.6,1.3,4.2,9.2,6,6.6c19.3-28.5,37.9-57.6,56.7-86.5
			c9.3-14.2,18.5-28.4,27.7-42.6c4.4-6.9,9.1-13.6,13.3-20.6C3757.9,2325.4,3759,2319,3757.1,2311.1z"/>
      <path fill="#03a65a" d="M3651.4,2478c-1-5.2-3.2-10.5-6.1-14.9c-6.7-10.1-14.4-19.6-21.3-29.7c-4.6-6.8-9.9-13.6-10.7-21.8
			c4.3,1.8,6.8,5.7,9.5,9.5c3.4,4.8,6.8,9.7,9.8,14.7c2.7,4.5,5.3,9.1,7.7,13.8c0.7,1.3,1.4,2.5,2.1,3.8c-0.1-0.1,0.7,1.5,1,2.1
			c1.3,2.8,2.6,5.5,3.7,8.4c0.2,0.5,2.1,5.3,3.1,4.9c1.2-0.5,0.1-3.5-0.2-4.4c-5.3-15.1-11.1-29.7-19.1-43.6
			c-3.9-6.7-8.1-13.3-12.8-19.5c-3.4-4.6-7.4-11.7-13.9-11.4c-0.6,0.5-0.8,1.2-0.6,1.9c1.1,17.3,7.9,33.5,16.7,48.3
			c4.2,7,8.8,13.9,13.4,20.6c5,7.3,9.8,15.1,15.6,21.7C3652.4,2485.6,3651.7,2479.5,3651.4,2478z"/>
      <path fill="#03a65a" d="M3891.9,2293.6c-0.2-3.6-1.6-7.4-3.1-10.6c-0.3-0.6-3.6-7-4.5-5.9c-24.6,28.7-49.4,57.5-69.7,89.5
			c-9.8,15.4-18.3,31.6-25.2,48.5c-4.1,10.1-8,20.7-10.7,31.6c-1.2,1.7-2.4,3.5-3.6,5.2c-0.8,1.2,0.4,5.5,0.6,6.4
			c0.1,0.5,0.3,0.9,0.4,1.4c-0.4,3-0.8,6-1,9c-0.2,2.7,1.4,6,2.6,8.2c0.2,0.5,2.6,4.7,3.1,3.1c0.6-1.9,1.2-3.9,1.7-5.9
			c1.3,1.8,2.6,2.9,3.5,1.5c21-30.5,41.5-61.4,62.1-92.2c9.8-14.7,20.1-29.1,29.3-44.3C3885.8,2325.3,3892.6,2310.2,3891.9,2293.6z
			 M3837.2,2363.9c-7.6,10.7-15.2,21.4-22.8,32c2.4-4,4.8-8,7.3-11.9c11.6-18.2,24.6-35.3,38.3-51.9
			C3852.5,2342.7,3844.8,2353.2,3837.2,2363.9z"/>
      <path fill="#03a65a" d="M3848.5,2440.9c-3.1-6.1-6.8-8.4-13.5-6.7c-6.5,1.6-12.9,4-18.9,6.8c-8.5,4-16.5,9-23.8,14.8
			c-2.8,0.3-5.5,0.6-8.2,0.9c-1.3,0.1-0.9,3.1-0.2,6.2c-0.5,0.5-1.1,1-1.6,1.5c-2.4,2.3,4.5,13.7,5.2,13.1c0.5-0.4,0.9-0.8,1.4-1.2
			c1.4,2.7,3.1,5.2,4.9,5c13.3-1.8,26-3.9,38.3-9.4c6.2-2.7,12.4-6.3,17.1-11.2C3854.4,2455.1,3851.7,2447.2,3848.5,2440.9z"/>
      <path fill="#2e4559" d="M3924.3,2488.2c-0.1,0,0.2,1.8,0.7,1.8C3925.1,2490,3924.7,2488.2,3924.3,2488.2z"/>
      <path fill="#03a65a" d="M3984.5,2294.7c-0.5-0.9-3.3-6.6-4.5-4.4c-16.8,29.2-31.6,59.5-44.1,90.8c-6.2,15.6-11.9,31.5-17,47.6
			c-5.2,16.4-10.3,33.9-7.2,51.2c0.6,3.2,1.8,6.6,3.5,9.4c0.5,0.8,2.8,4,2.7,1c-0.1-1.3-0.1-2.5-0.1-3.8c0.5,1,0.9,2,1.2,2.6
			c0.5,1.1,4.5,9.1,5.8,6.4c30-58.9,59.7-121.8,63.2-188.9C3988.4,2302.8,3986.2,2298,3984.5,2294.7z M3920.7,2465.1
			c1.9-7.8,4.4-15.4,7-23.2c5.1-15.7,10.8-31.1,17-46.4c8.7-21.3,18.5-42.1,29.3-62.4C3963.8,2379.4,3942.2,2422.6,3920.7,2465.1z"/>
      <path fill="#03a65a" d="M4073.8,2415c-0.7-1.7-3.5-9.2-6.1-8.6c-26.7,5.9-52.3,15.1-76.7,27.6c-12,6.1-23.5,12.9-34.5,20.6
			c-5.6,3.9-11.1,7.8-16.1,12.4c-3.6,3.2-6.9,6.8-10.2,10.3c-3.7,1-7.5,1.9-11.2,2.8c-2.8,0.6,4.2,24.3,9.1,23.2
			c28.2-6.6,55.6-16.1,81.7-28.6c12.9-6.2,25.6-13,37.6-20.7c6-3.9,12-7.9,17.8-12.1c5-3.6,10.7-7.4,11.6-13.9
			C4077.4,2423.6,4075.5,2418.8,4073.8,2415z"/>
      <path fill="#f26457" d="M3813.7,2656.7c10-29,6.8-60.7,11.7-90.9c1-6.3,2.3-12.8,0.2-18.8c-2.2-6-8.6-9.8-14.9-9.2
			c-102.7,10.4-205.3,22.1-307.7,35c-40.4,5.1-80.9,10.4-121.6,11.6c-35.9,1-71.8-1.2-107.7-3.5c-57.2-3.6-115.8-10.2-173-13.8
			c-11,35.1-16.2,71.9-15.3,108.6c108.6,10.2,218.7,19.4,327.3,9.2c43.7-4.1,87.1-10.5,130.8-14.1c35.6-2.9,71.4-4,107.1-5
			C3704.5,2664.2,3759.8,2658.2,3813.7,2656.7z"/>
      <path fill="#f26457" d="M3815.8,2685.3c-0.9,25.3-1.7,50.6-2.6,75.9c-132.9-11.7-265.8,16.2-398.7,28.3c-57,5.2-114.1,7.4-171.2,9.7
			c-50.5,2-96.3,2.2-146.8,4.2c0.4-0.1,0.3,1-0.2,0.9c-0.5-0.1-0.6-0.8-0.7-1.3c-4.7-33.7-8-67.7-9.8-101.8
			c90.9,5.7,186,6.3,276.9,0.7C3513.9,2692.5,3666.4,2656.5,3815.8,2685.3z"/>
      <path fill="#f26457" d="M4012,2846.1c3.3-22.6,5.7-45.3,7-68.1c-70.8-4.8-143.3,0.6-213.6,10c-3.8,0.5,7.6,55.6,8.9,60.6
			c0.1,0.3,0.3,0.5,0.3,0.8c0.1,0.3-0.1,0.7-0.4,0.7s-0.3-0.6,0-0.5l-18.8-5.3c-1.6-16.9-3.3-33.9-4.9-50.8
			c-104-4.4-208.5-8.7-311.7,10.7c-24.2,4.5-48.4,10.4-72.8,12.8c-27.3,2.7-54.6,1.2-82,0.1c-69.8-2.9-143.7-8.3-213.6-6.5
			c1.4,12.6,2.7,25.2,4.1,37.7L4012,2846.1z"/>
      <path fill="#f26457" d="M4026,2696.3c-0.8-0.3,0.1-2,0.9-1.5c0.8,0.5,0.9,1.8,0.9,2.8c-0.3,21.1-1.1,42.1-2.5,63.1
			c-14.6-3.9-29.8-3.6-44.7-3.2c-51.6,1.3-103.1,2.6-154.7,3.8c0.5-26.3,1.1-52.5,1.6-78.8c40.5-0.6,77.2-0.6,117.6,3
			C3972.3,2688.1,3998.8,2692.9,4026,2696.3z"/>
      <path fill="#f26457" d="M4024.2,2583c2.3,0.3,4.6,0.6,6.9,1c-2.2,31.3-2.6,62.4-3,93.7c-24.6-3.2-49.3-6.4-73.9-9.6
			c-42.4-5.5-84.9-11-127.6-12.7c3.2-35.7,6.4-71.5,9.5-107.2c19.6,3.8,41.8,7.2,61.4,10.9c11.2,2.2,22.3,4.3,33.5,6.6
			c10.8,2.3,22.8,3.8,33,7.8c9.5,3.8,21.1,4,31.3,5.4C4005,2580.3,4014.6,2581.6,4024.2,2583z"/>
      <path fill="#2e4559" d="M3806.8,2656.5c-47.2,0.8-94.4,1.7-141.6,2.5c-47.1,0.8-94.4,1.1-141.5,3.2c-23.2,1-46.4,3.1-69.4,6.1
			c-23,3-46,6.6-69.1,8.9c-46.7,4.6-93.7,4.9-140.5,3.1c-52.5-2-104.7-8.1-157.2-10.1c-0.4,0,1,7.4,3,7.7
			c46.8,7.1,94.3,11,141.5,13.8c46.9,2.7,94,3.2,140.8-0.2c46.4-3.4,92.1-12.4,138.5-15.1c47.1-2.8,94.5-2.5,141.7-3.1
			c53.1-0.7,106.1-1.7,159.2-2.6C3813.1,2670.5,3810.5,2656.4,3806.8,2656.5z"/>
      <path fill="#2e4559" d="M3814.6,2765.5c-0.6-1.6-1.9-5.7-4-6c-93.2-13-186.1,10.2-279,14.9c-23.8,1.2-47.7,1.4-71.6,2.3
			c-23.6,0.9-47.2,2.6-70.7,4.7c-47,4.3-93.9,10.1-140.9,14.3c-52,4.6-104.5,6.2-156.7,3.3c-0.3,0,0.8,6.1,2.5,6.4
			c93.7,14.8,189.3-0.9,282.8-10c47.3-4.6,94.6-6.4,142.1-7.7c47.1-1.3,93.7-7.2,140.5-12.4c51.8-5.8,104.2-10,156.1-2.7
			C3816.9,2772.8,3814.8,2766,3814.6,2765.5z"/>
      <path fill="#2e4559" d="M3817.1,2691c0-1.5-0.7-3.5-1.6-4.8c-0.3-0.5-1.4-2.4-1.5-0.8c-1.8,24.4-2.2,48.9-3.3,73.3
			c-0.1,2.7,1.4,6,2.7,8.4c0.4,0.8,2.6,4.1,2.6,1.4C3816.3,2742.7,3817.3,2716.9,3817.1,2691z"/>
      <path fill="#2e4559" d="M3825.1,2548.5c-0.3-3.6-0.8-7.2-2.6-10.4c-0.8-1.4-1.6-2.6-3.1-3.1c-1.9-0.7-3.9,0.6-5.8-0.5
			c-0.3-0.2,0.7,4.4,1.7,5.2c1.1,0.9,2,1.2,3.5,1.4c0.3,0,2.1,0.4,2.9,0.4c0,0.5,0.2,1.4,0.3,1.9c0.3,5.1,0.5,10.1,0.5,15.2
			c0,10.6-0.6,21.2-2.2,31.7c-3.2,21.1-8.2,42-12,63c-0.6,3.1,1.2,6.8,2.4,9.6c0.3,0.5,3.6,6.3,4,4.4c2.8-13.3,4.8-26.8,7-40.2
			c2.1-12.8,4.4-25.6,5-38.5C3827.3,2575.2,3826.2,2561.8,3825.1,2548.5z"/>
      <path fill="#2e4559" d="M3792.3,2794.1c-0.2-1-3.4-7.2-2.9-3.8c2.5,17.5,4.2,35,5.6,52.6c-0.4,2.6,1.5,6.3,2.5,8.3
			c0.2,0.5,3.2,5.3,3.1,2.2C3799.6,2833.5,3796.6,2813.6,3792.3,2794.1z"/>
      <path fill="#2e4559" d="M4022.8,2753.2c-32.1-8.3-65-2.5-97.3,1.1c-16.9,1.9-33.7,2.5-50.7,2.4c-8.3,0-16.5,0-24.8,0
			c-8.4,0-18.1-1.1-26.3,1.1c-0.9,0.2,1.2,5.6,2.1,5.9c8.2,1.9,17.2,1.3,25.6,1.5c8.3,0.2,16.6,0.3,24.9,0.3
			c16.7,0.2,33.3-0.1,49.9-1.9c33-3.4,66.8-9.7,99.5-1.2C4026.7,2762.8,4025.1,2753.8,4022.8,2753.2z"/>
      <path fill="#2e4559" d="M4026.6,2674.1c-33.4-4.8-66.8-9.1-100.3-13.3c-16.6-2.1-33.2-4.1-49.8-6c-16.7-1.9-33.7-4.4-50.5-4.6
			c-0.5,0,1.1,6.9,2.6,7.2c16.6,3.2,33.7,4.6,50.6,6.6c16.6,1.9,33.3,4,49.9,6.1c33.9,4.3,67.8,9.2,101.6,14.2
			C4030.6,2684.3,4029.6,2674.5,4026.6,2674.1z"/>
      <path fill="#2e4559" d="M3328.5,2575.1c-27.9-1-55.8-1.5-83.6-2.5c-26.8-0.9-53.9,0.1-80.5-4.2c-0.1,0,0.6,4.7,1.8,5
			c12.8,3.7,25.9,4.7,39.2,5.5c14,0.8,28,1.7,41.9,2.3c28.4,1.3,56.9,3,85.3,4.3C3333,2585.6,3331.4,2575.2,3328.5,2575.1z"/>
      <path fill="#2e4559" d="M3464.4,2568.7c-9.7,2.6-20.2,3.4-30.2,4.8c-9.8,1.4-19.6,2.7-29.4,3.7c-9.8,1-19.6,1.6-29.5,1.9
			c-5,0.1-10.1,0.1-15.1,0.2c-4.7,0.1-10.1-0.5-14.6,1.1c-1,0.4,1.3,5.7,2.2,6c9,3.2,20.1,2.7,29.5,2.7c10.2,0,20.4-0.5,30.6-1.3
			c10.2-0.8,20.4-1.9,30.5-3.2c10.1-1.3,20.3-3.6,30.5-4.1C3469.9,2580.4,3467.2,2567.9,3464.4,2568.7z"/>
      <path fill="#2e4559" d="M3642.7,2548.2c-26.6,3.7-53.3,7.3-80,10.8c-26.5,3.4-53.5,5.4-79.5,11.4c-0.8,0.2,1.1,6.3,2.5,6.3
			c27.1,0,54.2-4.2,81.1-7.3c26.8-3.1,53.6-6.4,80.3-9.8C3648.1,2559.3,3645.3,2547.8,3642.7,2548.2z"/>
      <path fill="#2e4559" d="M3807.7,2531.9c-25.4,1.9-50.9,3.3-76.3,5.8c-24.8,2.5-49.4,11.3-74.5,8.6c-0.2,0,0.9,7.2,3,7.6
			c25.4,4,50.4-3.5,75.5-6c25.4-2.5,50.9-3.8,76.4-5.7C3812.5,2542.1,3810.3,2531.7,3807.7,2531.9z"/>
      <path fill="#2e4559" d="M3930.9,2556.8c-6.9-2.8-15.8-2.4-23.1-3.4c-8.2-1.2-16.4-2.4-24.6-3.6c-8.1-1.2-16.2-2.2-24.3-3.1
			c-3.7-0.4-7.4-0.8-11.1-1.3c-4-0.5-8.7-1.7-12.5-0.2c-0.7,0.3,0.9,3.5,1.3,3.8c7.4,4.1,17.1,4.7,25.4,6.3
			c7.7,1.5,15.5,2.9,23.3,4.2c8.2,1.3,16.4,2.5,24.6,3.8c4.3,0.6,8.7,1.2,12.9,2c3.7,0.7,8,2.1,11.6,1.4
			C3935.9,2566.4,3932.3,2557.4,3930.9,2556.8z"/>
      <path fill="#2e4559" d="M3837.1,2550.1c-0.1-1.2-0.7-3.2-1.6-4.1c-0.2-0.2-1.3-1.8-1.2-0.5c2.9,33.8-9.3,67-8.9,100.9
			c0,2.6,1.3,5.5,2.6,7.8c0.4,0.6,2.5,3.9,2.4,1.3c-0.7-18.1,2.5-36.1,5.1-53.9C3837.9,2584.4,3839.2,2567.4,3837.1,2550.1z"/>
      <path fill="#2e4559" d="M3943.4,2560c-0.1-0.3-1.9-3.1-2.1-2c-0.3,2.1-0.6,4.3-0.9,6.4c-0.3,2.2,0.9,4.8,1.9,6.7
			c0.3,0.5,2.2,4,2.4,1.7l0.5-7.4C3945.3,2563.8,3944.2,2561.6,3943.4,2560z"/>
      <path fill="#2e4559" d="M3104.5,2608.2c-2.8-3-5.4-3.5-9.4-3.8c-3.6-0.2-7.1,0.3-10.6,1.2c-1.1,0.3,1.6,8.7,3.4,8.6
			c3.5-0.2,7.1-0.1,10.6,0.3c2.9,0.3,6.4,2.3,8.1-0.6C3107.3,2612.8,3105.3,2609.1,3104.5,2608.2z"/>
      <path fill="#2e4559" d="M3098.4,2631.8c-2.9-2.3-5.9-2.3-9.5-2.6c-3.3-0.3-6.6-0.6-10-0.9c-0.2,0,1,7.5,3.1,7.9
			c3.2,0.5,6.4,1.1,9.5,1.6c2.6,0.4,6.9,2,8.8-0.2C3101.4,2636.4,3099.3,2632.5,3098.4,2631.8z"/>
      <path fill="#2e4559" d="M3109.3,2754.6c-4.9-2.9-12.3-1.4-17.8-1.4c-0.6,0,1.4,11,4.3,11.1c2.8,0,5.7,0.1,8.5,0.1
			c2.8,0,5.9,0.8,7.9-1.4C3113.7,2761.6,3110.7,2755.5,3109.3,2754.6z"/>
      <path fill="#2e4559" d="M4015,2724.6c-0.4-1.1-0.9-2.5-1.9-3.2c-0.8-0.6-2.1-1.5-3.1-1.7c-0.6-0.1-1.5,0.1-2.1,0.1
			c-1.6,0.2-3.2,0.4-4.7,1c-1.3,0.5,1.7,7.8,2.9,8.2c1.7,0.5,3.6,0.8,5.4,1c0.7,0.1,2,0.4,2.6,0.2c0.6-0.2,1.3-1.3,1.7-1.9
			C4016.2,2727.5,4015.2,2725.2,4015,2724.6z"/>
      <path fill="#fff" d="M3231.2,2492.4c-16.8,6.3-32.3,14.9-47.5,24.5c-7.3,4.6-14.5,9.3-21.7,14.1c-6.3,4.3-12.1,9-15.8,15.8
			c-0.9,1.6,2.8,7.1,3,6.6c4-7.3,10.6-12.2,17.4-16.8c7-4.7,14.1-9.3,21.2-13.8c7.4-4.7,15-9.2,22.8-13.3
			c-4.4,3.8-8.6,7.7-12.9,11.6c-10.7,9.9-22.1,20-31.4,31.3c-1.7,2,3.6,10.9,4.1,10.4c10.8-10.2,20.5-21.8,31-32.3
			c10.6-10.7,21.5-21,32.3-31.5C3234.7,2498.1,3232.3,2492,3231.2,2492.4z"/>
      <path fill="#fff" d="M3426.5,2490.7c-39.4,2.9-78,10.4-113.5,28.4c-1,0.5,1.4,6.1,2.2,5.7c36.1-15.1,75.1-26.1,114.6-25.7
			C3430.2,2499.1,3428.8,2490.6,3426.5,2490.7z"/>
      <path fill="#fff" d="M3442.7,2525.6c-18.5,2.2-37,5.4-55.1,10.1c-18.3,4.8-35.3,11.4-52.4,19.3c-0.6,0.3,0.8,3.7,1.4,3.5
			c17.9-5.4,36.3-9.9,54.5-14.2c18.2-4.2,36.6-7.7,55.2-9.9C3447,2534.4,3444.9,2525.4,3442.7,2525.6z"/>
      <path fill="#fff" d="M3658.9,2532c-0.6-2.2-1.6-5-3.4-6.5c-25.9-22.2-54.2-39.3-85.5-52.9c-0.2-0.1,0.3,3.2,1.2,3.6
			c31.6,14.8,61.4,35.3,87.1,58.8C3660.1,2536.7,3659.1,2532.7,3658.9,2532z"/>
      <path fill="#fff" d="M3590.3,2540c-5.1-1.6-7.5-6.4-11.3-9.8c-4.4-3.8-10.1-5-14.2-9.3c-8.1-8.5-14.9-16.8-25.8-22
			c-0.4-0.2,0.7,5.1,1.9,5.9c5.5,3.8,10.9,7.9,15.8,12.5c4.4,4.2,7.8,9.7,12.5,13.6c4.2,3.5,9.7,4.8,13.6,8.9
			c3.2,3.3,5.6,7.2,10.2,8.7C3593.8,2548.6,3592.5,2540.6,3590.3,2540z"/>
      <path fill="#fff" d="M3788.8,2514c-13.7-6.2-27.6-11.8-41.4-17.7c-11.9-5.1-24.1-11.8-37.3-12.1c-0.3,0,0.7,5.1,2.1,5.3
			c13.9,1.6,27.1,9.6,39.6,15.5c5.7,2.7,11.5,5.4,17.2,8.1c-9.8-1.4-19.7-3.8-29.2-5.5c-16.6-2.9-33.3-5.9-49.9-8.9
			c0.1,0,0.9,9,3.7,9.5c17.2,3.1,34.4,6.2,51.6,9.3c15.3,2.8,31.6,7.5,47.2,6.3C3793.6,2523.7,3790.2,2514.7,3788.8,2514z"/>
      <path fill="#fff" d="M3925.2,2551.4c-0.5-1.8-1.3-4.2-2.6-5.5c-11-10.7-24.2-19.8-36.5-28.9c-12.6-9.4-25.7-17.8-38.9-26.3
			c0,0,0.3,3.1,1.2,3.7c13.4,9.3,26.5,19.4,39.4,29.4c6.4,4.9,12.7,10,18.9,15.1c6.2,5.1,12,10.9,18.4,15.5
			C3926,2555.3,3925.2,2551.5,3925.2,2551.4z"/>
      <path fill="#fff" d="M3857.6,2541.1c-0.2-1.4-1.1-3.7-2.2-4.8c-11.4-11.2-22.9-22.3-34.2-33.6c-0.7-0.7,0.4,3.6,1.1,4.4
			c10.8,12.5,22.4,24.7,34.8,35.7C3858.2,2543.9,3857.6,2541.7,3857.6,2541.1z"/>
      <path fill="#2e4559" d="M3159.3,2476.5c-5.1-0.3-9.5,6.1-12.2,9.7c-3.1,4.1-6.6,8.4-6.8,13.8c0,1.6,0.8,3.5,1.6,4.8
			c0.3,0.5,1.4,2.4,1.5,0.8c0.4-5.2,5.2-9.6,8.5-13.2c1.5-1.6,2.9-3.3,4.6-4.7c1.8-1.5,4-2.3,5.9-3.6
			C3163.6,2483.4,3160.7,2476.6,3159.3,2476.5z"/>
      <path fill="#2e4559" d="M3388.1,2445.1c-0.5-1.5-1.4-4.6-2.9-5.4c-10.1-5.5-23.7-2.4-34.3,0.1c-12.3,2.8-23.3,6.7-33.2,14.7
			c-0.8,0.6,1.4,5,1.8,4.7c9.8-6,21.8-9,33.1-10.5c11.2-1.4,25-5.5,35.5,0.2C3389.4,2449.5,3388.2,2445.4,3388.1,2445.1z"/>
      <path fill="#2e4559" d="M3397.8,2446.1c-0.3-1.6-0.9-3.3-1.8-4.7c-0.2-0.4-1.5-2-1.4-0.5c0.1,1.5-0.2,2.8-0.9,4.2
			c-1.1,2.3-0.1,5.3,1.3,7.4c0.2,0.3,0.4,0.6,0.7,0.9c0.1,0.1,0.2,0.1,0.3,0c0.3-0.4,0.6-0.1,1,0.9c0.5-0.2,0.7-1.8,0.8-2.3
			C3398.1,2450,3398.1,2448,3397.8,2446.1z"/>
      <path fill="#2e4559" d="M3666.3,2483.3c-6.1-8.3-14.6-14.7-24.1-18.3c-8.9-3.4-22.2-6.2-30.8-0.6c-0.9,0.5,1,4.7,1.9,4.9
			c8.7,1.5,17.4,1.2,26,3.9c8.2,2.5,15.8,6.7,22.2,12.4c3,2.7,7.1,6.3,8.3,10.3c1.5,4.9,0.7,10.8-0.6,15.7
			c-2.3,8.7-7.8,19.4-14.4,25.6c-1.3,1.2,0.8,5.5,1.3,6.7c0.1,0.3,2.6,5.5,3.3,4c2.8-5.9,7.2-11.1,10.1-16.9
			c2.7-5.3,4.7-11,5.4-16.9C3676.3,2503,3672.7,2492,3666.3,2483.3z"/>
      <path fill="#2e4559" d="M3797.8,2499.1c-2.8-10.5-8.3-18.7-17.4-24.7c-11.3-7.5-23.3-5.1-35.7-1.4c-0.5,0.1,0.7,3.9,1.5,3.8
			c8.6-1.4,19.8-2.4,28.1,0.9c3.9,1.6,7.4,4.2,10.6,6.9c2.7,2.3,7.6,6.1,8.5,9.7c0.5,1.9,1.5,6.5,3.4,7.5
			C3798.7,2502.7,3798.2,2500.5,3797.8,2499.1z"/>
      <path fill="#2e4559" d="M3805.6,2512.5c-0.3-1-0.6-2.1-1.1-3.1c-0.2-0.4-1.6-3.3-2.2-2.4c-0.9,1.5-2.3,2.1-3.8,2.8
			c-0.6,0.3-0.1,2.1,0,2.5c0.4,1.6,1,3,1.7,4.4c0.2,0.4,1,2,1.7,1.8c1.9-0.4,3.2-2.4,3.9-4.1C3806,2514,3805.8,2513,3805.6,2512.5z"/>
      <path fill="#2e4559" d="M3945.1,2528.3c-5.6-27.6-28.8-54-59.4-47c-0.8,0.2,1.1,5.9,2.3,6c21.9,0.5,47,12,52.6,35.1
			c0.5,2,1.4,5.6,3.1,7C3944.8,2530.4,3945.5,2530.5,3945.1,2528.3z"/>
      <path fill="#2e4559" d="M3946.8,2543.1c-0.4-2.4-1.3-4.6-2.6-6.6c-0.2-0.3-0.7-1.2-1.3-1.1c-1.4,0.2-2.7,0.8-3.7,1.7
			c-0.6,0.5,0.2,2.5,0.4,3c0.4,1.1,0.9,2.6,1.9,3.3c1.4,1,3.4,1.9,5.1,1.4C3947,2544.6,3946.8,2543.2,3946.8,2543.1z"/>
      <path fill="#2e4559" d="M3074.2,2453.5c-0.2-2.2-1-4.4-2-6.4c-0.4-0.7-0.8-1.6-1.4-2.2c-0.2-0.2-0.9-0.9-1-0.2
			c-0.3,2.3-0.4,4.8-0.3,7.2c0.2,2.6,1.2,5.3,2.5,7.6c0.5,0.8,2.1,3.6,2.4,1.3C3074.7,2458.5,3074.4,2455.9,3074.2,2453.5z"/>
      <path fill="#2e4559" d="M3086.6,2443.4c-0.2-0.3-1.8-3.4-2.2-2.4c-1.8,4.5-2.9,9.5-2.6,14.4c0.2,2.7,1.3,5.7,2.7,7.9
			c1.1,1.7,2.2,2.5,1.9-0.1c-0.5-5.1-0.2-9.9,1.4-14.8C3088.4,2447,3087.3,2444.7,3086.6,2443.4z"/>
      <path fill="#2e4559" d="M3297.3,2325.6c-1.8-1.4-2.6-2.1-5-1.6c-1.2,0.3-2.5,0.8-3.7,1.2c-2.8,1-5.7,1.8-8.3,3.2
			c-1.5,0.8,2,9.9,3.8,9.8c3.1-0.2,6.1-0.7,9.1-1.3c1.2-0.2,2.7-0.3,3.8-0.8c2.2-0.8,2.4-1.4,2.9-3.7
			C3300.4,2330.5,3298.8,2326.9,3297.3,2325.6z"/>
      <path fill="#2e4559" d="M3402.5,2360.5c-0.6-2-1.6-5.2-3.5-6.4c-1.3-1.1-3.2-1.8-4.8-2.5c-2.9-1.1-6-1.7-9-2.1
			c-0.8-0.1,0.5,4.1,0.6,4.2c0.4,1.1,1.3,4.1,2.6,4.5c5.1,1.6,9.6,4.2,14.3,6.7C3404,2365.7,3402.6,2360.8,3402.5,2360.5z"/>
      <path fill="#2e4559" d="M3397.1,2373.9c-0.6-1.7-1.6-5-3.3-5.9c0,0.1,0.1,0.1,0.1,0.1c-0.3-0.2-0.6-0.4-1-0.6c-1.3-0.6-2.7-1-4-1.5
			c-2.5-1-4.8-2.3-7-3.8c-1-0.7-0.1,2.9-0.1,2.9c0.5,1.7,1.2,3.9,2.5,5.2c3.6,3.6,8.5,8.2,13.7,9
			C3398.8,2379.5,3397.2,2374,3397.1,2373.9z"/>
      <path fill="#2e4559" d="M3686.8,2390.8c-0.5-1.4-1.1-3-2-4.3c-0.2-0.2-0.3-0.5-0.5-0.7c-0.5-0.6-1.1-1.2-1.8-1.7
			c-0.9-0.7-1.8-1-2.7-1.6c-1.3-0.8-2.9-2-3.6-3.4c-0.3-0.6-1.4-3.4-2.3-2.5c-0.8,0.8,1.1,4.8,1.4,5.5c1.3,3,3.1,5.9,5.3,8.4
			c1,1.1,5,5.8,6.6,4.1C3687.9,2393.8,3687,2391.6,3686.8,2390.8z"/>
      <path fill="#2e4559" d="M3838.9,2404.1c-0.4-1.1-1.3-3.8-2.6-4.7c-0.2-0.2-0.4-0.3-0.7-0.3c-1.1-0.5-3.1-0.4-4.3-0.4
			c-2.8-0.2-5.4-0.2-8.2,0.3c-1.2,0.2,1.7,7.6,2.9,8c4.5,1.6,9.2,2.4,13.9,3C3840.9,2410.1,3839.1,2404.5,3838.9,2404.1z"/>
      <path fill="#2e4559" d="M3855.3,2378.6c-1.7-0.6-4.2,0.1-6,0.1c-2.2,0-4.3,0-6.5-0.2c-0.6-0.1,1.5,7.4,2.9,8c4.2,2,9.4,4.2,14.1,3.7
			c0.1-0.1,0.2-0.2,0.3-0.3C3860.9,2386.4,3859.2,2379.9,3855.3,2378.6z"/>
      <path fill="#2e4559" d="M4012.6,2436.3c-1.6-4.5-3.2-9.2-5-13.6c-0.4-1-1.5-4.6-2.9-4.9c-1.3-0.3-0.5,2.5-0.4,3c1.4,5,3.2,10,5,14.9
			c0.3,0.9,2.1,5.8,3.6,5.7C4014.3,2441.1,4012.8,2436.9,4012.6,2436.3z"/>
      <path fill="#2e4559" d="M3994.9,2445.1c-1.7-4-2.8-8-3.2-12.3c-0.2-2.4-1.1-4.9-2.3-7c-0.3-0.6-2.2-3.5-2.2-1.2
			c0.2,8.1,2.3,15.8,5.6,23.3c0.4,0.9,2,4.7,3.3,4C3997.4,2451.2,3995.2,2445.6,3994.9,2445.1z"/>
    </g>
    <path fill="#f2ba52" d="M1599.2,2813c0,15.2-7.7,28.6-19.4,36.6H998.5c-1-3-1.7-6.1-2-9.3c-0.2-1.5-0.2-3-0.2-4.6
		c0-24.4,19.8-44.2,44.2-44.2c1.7,0,3.4,0.1,5.1,0.3c0-0.1,0-0.2,0-0.3c0-31.4,25.5-56.9,56.9-56.9c12.5,0,24.1,4.1,33.5,10.9
		c3.4-18.3,19.5-32.2,38.8-32.2c10.3,0,19.7,4,26.8,10.5c5.6-56.8,53.4-101.1,111.7-101.1c51.7,0,95.2,35,108.2,82.6
		c1.3-0.1,2.6-0.1,4-0.1c30,0,54.6,23.3,56.8,52.8c0.4,0,0.8,0,1.2,0c17.5,0,32.3,11.4,37.5,27.1c8.1-9.9,20.4-16.2,34.2-16.2
		C1579.5,2768.8,1599.2,2788.6,1599.2,2813z"/>
    <path fill="#f2ba52" d="M2332.3,2838.1c10.9,0,20.7,4.4,27.9,11.5h-461.3c8.6-20.5,28.9-34.8,52.5-34.8c12.5,0,24.1,4.1,33.5,10.9
		c3.4-18.3,19.5-32.2,38.8-32.2c10.3,0,19.7,4,26.8,10.5c5.6-56.8,53.4-101.1,111.6-101.1c51.7,0,95.2,35,108.2,82.6
		c1.3-0.1,2.6-0.1,4-0.1c30,0,54.6,23.3,56.8,52.8C2331.5,2838.1,2331.9,2838.1,2332.3,2838.1z"/>
    <path fill="#f2ba52" d="M950.2,2849.6H606.5c7.2-23.3,28.8-40.2,54.4-40.2c1.3,0,2.7,0.1,4,0.1c13-47.6,56.5-82.6,108.2-82.6
		c58.2,0,106.1,44.3,111.6,101.1c7-6.5,16.4-10.5,26.8-10.5C930.7,2817.6,946.7,2831.4,950.2,2849.6z"/>
    <path fill="#2e4559" d="M4125.7,2841.5c-466.6,0.1-933.2,0.2-1399.8,0.3c-464.2,0.1-928.4,0.4-1392.6,0.6
		c-261.5,0.1-523.4-4.1-784.8,2.2c-0.5,0,1.1,8.3,3.3,8.4c233.4,5.6,467.4,2.1,700.9,2.2c233.4,0.1,466.7,0.1,700.1,0.2
		c464.3,0.2,928.7,0.4,1393,0.5c261.9,0.1,523.8,0.1,785.7,0.2C4132.3,2856,4129.7,2841.5,4125.7,2841.5z"/>
    <path fill="#f2ba52" d="M950.2,2849.6h0.4c-0.1,0.1-0.2,0.2-0.4,0.3C950.3,2849.8,950.3,2849.7,950.2,2849.6z"/>
    <path fill="#d5eff2" d="M706,684.2c-6.2,36.7-8,79.5,18.7,105.4c22.9,22.2,60.9,23.3,89.1,8.4c28.2-14.8,47.7-42.6,60.3-71.9
		C935.9,581.9,733.1,524,706,684.2z"/>
    <path fill="#d5eff2" d="M3899.3,1454.8c-6.2,36.7-8,79.5,18.7,105.4c22.9,22.2,60.9,23.3,89.1,8.4c28.2-14.8,47.7-42.6,60.3-71.9
		C4129.3,1352.6,3926.4,1294.6,3899.3,1454.8z"/>
    <path fill="#d5eff2" d="M3596.3,631.8c-15.3,90.2-19.6,195.5,46,259.2c56.2,54.6,149.7,57.2,219.1,20.8
		c69.4-36.5,117.3-104.7,148.2-176.8C4161.6,380.4,3662.9,238,3596.3,631.8z"/>
    <path fill="#d5eff2" d="M656,2473.2c2.4,28.7,15.4,57,37.9,74.9c35.3,28.1,91.2,24.4,124-6.6c32.8-31.1,40-85,18.4-124.6
		c-20.4-37.4-74.9-68.8-118.5-61.6C669.3,2363.2,652.6,2432.2,656,2473.2z"/>
    <path fill="#2e4559" d="M2052,2800.6c-0.7-2.6-1.9-5.9-4-7.7c-11.3-9.8-30.3-6.8-42.7-1.1c-13.1,6-24,17.6-22.3,32.8
		c0.1,1,2.7,6.3,2.8,4.7c1.1-13.6,12.8-23.7,24.8-28.4c11.6-4.6,30.8-5.7,40.7,3.2C2053.4,2806.1,2052.2,2801.5,2052,2800.6z"/>
    <path fill="#2e4559" d="M2123.1,2707.5c-2.9,0.4-5.2,0.4-7.9,1.5c-2.2,0.9-4.4,1.9-6.5,3c-4.5,2.2-8.8,4.7-13,7.4
		c-8.5,5.4-15.9,11.8-22.6,19.3c-13.4,15-22.4,33.1-26.3,52.9c-0.5,2.7,1.1,6.1,2.2,8.5c0.2,0.5,3.3,5.5,3.6,3.9
		c3.7-20.5,12.3-40.3,25.4-56.6c6-7.5,13.2-14.4,20.7-20.3c4-3.1,8.3-5.9,12.7-8.4c4.6-2.6,8.8-5,13.1-7.9
		C2125,2710.5,2123.7,2707.4,2123.1,2707.5z"/>
    <path fill="#2e4559" d="M2140.4,2712.3c-0.9-3.9-2.5-7.8-4.5-11.2c-0.3-0.5-1.5-2.5-1.6-0.9c-0.1,1.6,1,3.8,1.7,5.2
		c0.4,0.8,0.4,0.8,0.6,1.9c0.5,2.3,1.3,5.1,2.8,6.9C2141,2716.2,2140.6,2713.4,2140.4,2712.3z"/>
    <path fill="#2e4559" d="M2330.3,2836.2c-1.6-15.1-7.8-31-18.7-41.8c-10.9-10.7-27.6-16-42-9.5c-0.7,0.3,1,4.9,1.9,4.8
		c25.5-3.9,51.7,11.9,54.3,38.8c0.3,2.7,1.2,5.6,2.7,7.8C2329.5,2838,2330.6,2838.9,2330.3,2836.2z"/>
    <path fill="#2e4559" d="M1421.7,2700.3c-5.3-16.7-13.6-32.6-25.3-45.7c-5.3-5.9-11.2-11.3-17.8-15.8c-7-4.8-14.5-7.4-22.3-10.2
		c-0.3-0.1,0.3,3.3,1.2,3.7c13.9,6.7,27.2,17.5,37.7,28.7c9.9,10.6,18,23,22.4,36.9c0.4,1.1,2.6,7.9,4.1,7.6
		C1423.5,2705.3,1422.1,2701.5,1421.7,2700.3z"/>
    <path fill="#2e4559" d="M1475.2,2733c-3.6-6.8-8.2-13.1-13.9-18.2c-11.3-10.2-27.7-16.8-42.7-11.8c-0.8,0.3,1,4.5,1.8,4.7
		c13.4,2.2,26.8,5.6,38.1,13.5c5.3,3.7,9.9,8.4,13.6,13.7c3.6,5.3,5,10.8,7.2,16.8c0.2,0.6,3.6,7.3,3.7,4.1
		C1483.2,2748.3,1478.5,2739.3,1475.2,2733z"/>
    <path fill="#2e4559" d="M1520.2,2780.3c-3-7.5-6.7-15.7-13.3-20.7c-7.7-5.9-17.7-7.3-27.1-6.8c-0.6,0,1.1,6.1,2.5,6.4
		c7.5,1.3,15.5,2.3,22.3,5.9c6.6,3.6,10.4,9.4,13.1,16.2c0.3,0.8,2.1,5.6,3.4,5.1C1522.4,2785.8,1520.4,2780.8,1520.2,2780.3z"/>
    <path fill="#2e4559" d="M1203.4,2721.6c-0.7-2.1-1.6-4.8-3.4-6.2c-11.7-9.5-28-11.2-41.8-5.6c-13.6,5.5-25.1,17.7-23.1,33.1
		c0.1,0.6,1.9,4,2,3.6c2.7-13.6,12.9-24.2,26.1-28.3c14.2-4.4,28.4-0.7,40.2,7.6C1204.7,2726.7,1203.5,2721.8,1203.4,2721.6z"/>
    <path fill="#2e4559" d="M1588.1,2782.4c-0.3-1.2-0.7-2.4-1.3-3.5c-0.2-0.5-1.8-3.8-2.4-2.7c-0.8,1.2-1.6,2.4-2.4,3.6
		c-0.4,0.7-1,1.3-1,2.1c0,1.7,0.7,3.5,1.4,5.1c0.4,0.9,0.8,2.2,1.7,2.6c0.1,0.1,0.2,0,0.2-0.1c0.3-0.4,0.7-0.2,1.2,0.6
		c0.2-0.1,0.4-0.9,0.5-1c0.7-1.5,1.5-2.9,2.2-4.4C1588.6,2784.2,1588.2,2782.8,1588.1,2782.4z"/>
    <path fill="#2e4559" d="M1595.1,2786.7c-0.1-0.3-1.7-3.1-2-2.2c-0.5,1.3-1.1,2.3-1.9,3.4c-0.4,0.5-1,1.1-1.2,1.7
		c-0.2,0.6,0.1,1.4,0.3,2c0.2,0.8,0.4,1.7,0.8,2.5c0.4,0.9,0.9,2.5,1.8,3c0.3,0,0.5,0.1,0.8,0.2c0.4,0.3,0.7,0.2,0.8-0.2
		c0.3-0.2,0.4-0.8,0.6-1.1c0.7-1.4,1.1-3,1.3-4.6C1596.6,2789.9,1595.7,2788,1595.1,2786.7z"/>
    <path fill="#2e4559" d="M1075.4,2760.7c-0.7-2.5-1.8-5.1-3.4-7.2c-1.9-2.3-3.9-4.2-4.9-7.1c-0.4-1.1-1.3-4.5-2.6-4.9
		c-1.3-0.4-0.7,1.3-0.5,2.2c0.9,4.1,2.5,8.1,4.5,11.8c1.7,3.3,3.8,6.8,6.7,9.2C1076.4,2765.8,1075.4,2760.8,1075.4,2760.7z"/>
    <path fill="#2e4559" d="M867.6,2774.1c-5.1-8-11-15.7-17.8-22.3c-7.4-7.2-16.1-9.7-25.8-12.5c-0.2-0.1,0.2,1.7,0.6,1.9
		c8.5,3.9,16.7,8.4,23.5,14.9c6.1,5.8,11.3,12.7,16.2,19.5c9.4,13.2,16.4,27.3,16.8,43.8c0.1,2.8,1.3,5.9,2.7,8.3
		c0.4,0.7,2.7,4.1,2.6,1.4C885.9,2809.4,878.2,2790.4,867.6,2774.1z"/>
    <path fill="#2e4559" d="M944.9,2840.5c-4.5-10.4-12.2-19.4-23-23.4c-12.6-4.7-26.8-0.5-36.9,7.5c-0.8,0.7,1.2,5.9,2.2,5.6
		c11-2.8,22.2-6.5,33.5-3.5c8.5,2.3,18.5,7.8,22.2,16.3c0.2,0.5,2.6,6.4,3.8,5.4C948.2,2847.3,945.4,2841.4,944.9,2840.5z"/>
    <path fill="#2e4559" d="M754.4,2740c-1.4-3.9-3-7.2-3.8-11.3c-0.4-1.8-1.2-4-2.3-5.5c-0.4-0.6-1.5-1.8-1.5-0.2c0,3.4,0.8,6.7,1.9,9.9
		c0.7,2,1.4,4,2.3,5.9c0.8,1.7,1.6,3.9,3,5.2C756.1,2745.8,754.7,2740.6,754.4,2740z"/>
    <path fill="#2e4559" d="M738.4,2753.3c-1.6-5.8-3.4-11.5-5.1-17.2c-0.4-1.2-1.5-5-2.8-5.4c-1.4-0.4-0.8,1.5-0.5,2.5
		c1.5,5.6,2.9,11.2,4.6,16.7c0.4,1.4,1.7,5.8,3.3,6.3C739.4,2756.7,738.8,2754.5,738.4,2753.3z"/>
  </g>
</svg>
