<svg class="animated" id="freepik_stories-newsletter" xmlns="http://www.w3.org/2000/svg" viewBox="0 0 500 500" version="1.1" xmlns:xlink="http://www.w3.org/1999/xlink" xmlns:svgjs="http://svgjs.com/svgjs"><style>svg#freepik_stories-newsletter:not(.animated) .animable {opacity: 0;}svg#freepik_stories-newsletter.animated #freepik--background-complete--inject-519 {animation: 3s Infinite  linear floating;animation-delay: 0s;}svg#freepik_stories-newsletter.animated #freepik--Newsletter--inject-519 {animation: 1.5s Infinite  linear floating;animation-delay: 0s;}            @keyframes floating {                0% {                    opacity: 1;                    transform: translateY(0px);                }                50% {                    transform: translateY(-10px);                }                100% {                    opacity: 1;                    transform: translateY(0px);                }            }        </style><g id="freepik--background-complete--inject-519" class="animable" style="transform-origin: 250px 226.87px;"><rect y="382.4" width="500" height="0.25" style="fill: rgb(235, 235, 235); transform-origin: 250px 382.525px;" id="elxk1f2o20u4" class="animable"></rect><path d="M237,337.8H43.91a5.71,5.71,0,0,1-5.7-5.71V60.66A5.71,5.71,0,0,1,43.91,55H237a5.71,5.71,0,0,1,5.71,5.71V332.09A5.71,5.71,0,0,1,237,337.8ZM43.91,55.2a5.46,5.46,0,0,0-5.45,5.46V332.09a5.46,5.46,0,0,0,5.45,5.46H237a5.47,5.47,0,0,0,5.46-5.46V60.66A5.47,5.47,0,0,0,237,55.2Z" style="fill: rgb(235, 235, 235); transform-origin: 140.46px 196.4px;" id="elb9bg0fg6u" class="animable"></path><path d="M453.31,337.8H260.21a5.72,5.72,0,0,1-5.71-5.71V60.66A5.72,5.72,0,0,1,260.21,55h193.1A5.71,5.71,0,0,1,459,60.66V332.09A5.71,5.71,0,0,1,453.31,337.8ZM260.21,55.2a5.47,5.47,0,0,0-5.46,5.46V332.09a5.47,5.47,0,0,0,5.46,5.46h193.1a5.47,5.47,0,0,0,5.46-5.46V60.66a5.47,5.47,0,0,0-5.46-5.46Z" style="fill: rgb(235, 235, 235); transform-origin: 356.75px 196.4px;" id="elyi2btjdpz6c" class="animable"></path><rect x="52.46" y="398.49" width="33.21" height="0.25" style="fill: rgb(235, 235, 235); transform-origin: 69.065px 398.615px;" id="elubr1xmecbtj" class="animable"></rect><rect x="146.33" y="397.5" width="54.1" height="0.25" style="fill: rgb(235, 235, 235); transform-origin: 173.38px 397.625px;" id="elcx7f3l1pzit" class="animable"></rect><rect x="86.67" y="389.21" width="19.11" height="0.25" style="fill: rgb(235, 235, 235); transform-origin: 96.225px 389.335px;" id="ela0bz9mrssv" class="animable"></rect><rect x="435.12" y="390.89" width="14.78" height="0.25" style="fill: rgb(235, 235, 235); transform-origin: 442.51px 391.015px;" id="elrkah11tfqv" class="animable"></rect><rect x="391.47" y="390.89" width="34.74" height="0.25" style="fill: rgb(235, 235, 235); transform-origin: 408.84px 391.015px;" id="elx6k808phnh" class="animable"></rect><rect x="267.33" y="395.11" width="45.45" height="0.25" style="fill: rgb(235, 235, 235); transform-origin: 290.055px 395.235px;" id="el7n46yrgqwrr" class="animable"></rect><polygon points="363.53 169.91 385.28 169.91 382.71 117.58 363.53 117.58 363.53 169.91" style="fill: rgb(245, 245, 245); transform-origin: 374.405px 143.745px;" id="el69avbh00bmt" class="animable"></polygon><polygon points="416.85 174.99 423 194.17 416.85 194.17 379.12 174.99 416.85 174.99" style="fill: rgb(245, 245, 245); transform-origin: 401.06px 184.58px;" id="elk39pc7ptzbl" class="animable"></polygon><polygon points="423 174.99 423 194.17 385.28 174.99 423 174.99" style="fill: rgb(230, 230, 230); transform-origin: 404.14px 184.58px;" id="el8cx5zgdrghq" class="animable"></polygon><polygon points="319.12 174.99 325.27 194.17 319.12 194.17 281.4 174.99 319.12 174.99" style="fill: rgb(245, 245, 245); transform-origin: 303.335px 184.58px;" id="elajjle1m8n0r" class="animable"></polygon><polygon points="325.27 174.99 325.27 194.17 287.55 174.99 325.27 174.99" style="fill: rgb(230, 230, 230); transform-origin: 306.41px 184.58px;" id="elt1fe2w4zkz" class="animable"></polygon><rect x="409.67" y="170.01" width="24.34" height="5.76" style="fill: rgb(230, 230, 230); transform-origin: 421.84px 172.89px;" id="el4t8fr1xpkbf" class="animable"></rect><g id="elsrdn2g1ul3"><rect x="272.44" y="170.01" width="137.23" height="5.76" style="fill: rgb(245, 245, 245); transform-origin: 341.055px 172.89px; transform: rotate(180deg);" class="animable"></rect></g><polygon points="337.56 169.91 378.26 169.91 384.04 106.49 343.33 106.49 337.56 169.91" style="fill: rgb(230, 230, 230); transform-origin: 360.8px 138.2px;" id="el3pzau1gws5r" class="animable"></polygon><polygon points="335.14 169.91 375.85 169.91 381.62 106.49 340.91 106.49 335.14 169.91" style="fill: rgb(240, 240, 240); transform-origin: 358.38px 138.2px;" id="eldsagl03wyf4" class="animable"></polygon><polygon points="371.93 162.89 377.2 113.51 344.83 113.51 339.55 162.89 371.93 162.89" style="fill: rgb(255, 255, 255); transform-origin: 358.375px 138.2px;" id="el6dg6gj8ntp9" class="animable"></polygon><g id="elha5sgzy8m6i"><rect x="75.31" y="87.05" width="139.7" height="161.83" style="fill: rgb(230, 230, 230); transform-origin: 145.16px 167.965px; transform: rotate(180deg);" class="animable"></rect></g><g id="elq6xbabkgz2j"><rect x="70" y="87.05" width="142.52" height="161.83" style="fill: rgb(240, 240, 240); transform-origin: 141.26px 167.965px; transform: rotate(180deg);" class="animable"></rect></g><g id="eluxy84625zw"><rect x="75.31" y="248.88" width="139.7" height="9.86" style="fill: rgb(230, 230, 230); transform-origin: 145.16px 253.81px; transform: rotate(180deg);" class="animable"></rect></g><g id="elvzruonids4q"><rect x="61.17" y="248.88" width="142.52" height="9.86" style="fill: rgb(240, 240, 240); transform-origin: 132.43px 253.81px; transform: rotate(180deg);" class="animable"></rect></g><g id="el393wyk6ydsl"><rect x="67.78" y="104.13" width="146.97" height="127.67" style="fill: rgb(250, 250, 250); transform-origin: 141.265px 167.965px; transform: rotate(90deg);" class="animable"></rect></g><polygon points="152.05 241.45 140.15 94.48 119.58 94.48 131.47 241.45 152.05 241.45" style="fill: rgb(255, 255, 255); transform-origin: 135.815px 167.965px;" id="eljikavvcm1j" class="animable"></polygon><polygon points="166.85 241.45 154.96 94.48 134.38 94.48 146.27 241.45 166.85 241.45" style="fill: rgb(255, 255, 255); transform-origin: 150.615px 167.965px;" id="ela6i03945o5v" class="animable"></polygon><path d="M201.66,176.12a.57.57,0,0,0,.57-.57V99.31a.57.57,0,0,0-.57-.57.58.58,0,0,0-.57.57v76.24A.58.58,0,0,0,201.66,176.12Z" style="fill: rgb(240, 240, 240); transform-origin: 201.66px 137.43px;" id="el6k2d1qha9y9" class="animable"></path><polygon points="127.05 241.45 115.15 94.48 107.13 94.48 119.03 241.45 127.05 241.45" style="fill: rgb(255, 255, 255); transform-origin: 117.09px 167.965px;" id="el0yjt6eyr52i" class="animable"></polygon><g id="elcbp9o6byr2p"><rect x="4.42" y="167.49" width="146.97" height="0.94" style="fill: rgb(230, 230, 230); transform-origin: 77.905px 167.96px; transform: rotate(90deg);" class="animable"></rect></g><g id="el3ey66bjmxoo"><polygon points="68.25 107.94 207.95 107.94 208.63 97.36 68.93 97.36 68.25 107.94" style="fill: rgb(224, 224, 224); opacity: 0.5; transform-origin: 138.44px 102.65px;" class="animable"></polygon></g><g id="elclrswqfwhjr"><polygon points="68.25 125.34 207.95 125.34 208.63 114.76 68.93 114.76 68.25 125.34" style="fill: rgb(224, 224, 224); opacity: 0.5; transform-origin: 138.44px 120.05px;" class="animable"></polygon></g><g id="el3578qkc9o3k"><polygon points="68.25 142.73 207.95 142.73 208.63 132.15 68.93 132.15 68.25 142.73" style="fill: rgb(224, 224, 224); opacity: 0.5; transform-origin: 138.44px 137.44px;" class="animable"></polygon></g><g id="elyntr4mc9ed8"><polygon points="68.25 160.12 207.95 160.12 208.63 149.54 68.93 149.54 68.25 160.12" style="fill: rgb(224, 224, 224); opacity: 0.5; transform-origin: 138.44px 154.83px;" class="animable"></polygon></g><g id="elbbwxljxrsbr"><polygon points="68.25 177.51 207.95 177.51 208.63 166.93 68.93 166.93 68.25 177.51" style="fill: rgb(224, 224, 224); opacity: 0.5; transform-origin: 138.44px 172.22px;" class="animable"></polygon></g><g id="el98ryt5wd2y"><polygon points="68.25 194.9 207.95 194.9 208.63 184.32 68.93 184.32 68.25 194.9" style="fill: rgb(224, 224, 224); opacity: 0.5; transform-origin: 138.44px 189.61px;" class="animable"></polygon></g><g id="elb9f8gwkjkq"><rect x="408.84" y="245.67" width="29.04" height="129.43" style="fill: rgb(240, 240, 240); transform-origin: 423.36px 310.385px; transform: rotate(180deg);" class="animable"></rect></g><g id="el9kfx5bpjqha"><rect x="289.1" y="375.1" width="143.2" height="7.3" style="fill: rgb(240, 240, 240); transform-origin: 360.7px 378.75px; transform: rotate(180deg);" class="animable"></rect></g><rect x="283.53" y="245.67" width="125.31" height="129.43" style="fill: rgb(245, 245, 245); transform-origin: 346.185px 310.385px;" id="elj7jf5y2f3lh" class="animable"></rect><rect x="294.94" y="292.63" width="102.48" height="30.9" style="fill: rgb(240, 240, 240); transform-origin: 346.18px 308.08px;" id="el3zykslk90xc" class="animable"></rect><rect x="294.94" y="330.42" width="102.48" height="30.9" style="fill: rgb(240, 240, 240); transform-origin: 346.18px 345.87px;" id="elnvlsr9w8oz" class="animable"></rect><g id="eldkghykr7k3m"><rect x="331.85" y="291.59" width="28.67" height="5.18" rx="2.45" style="fill: rgb(245, 245, 245); transform-origin: 346.185px 294.18px; transform: rotate(-180deg);" class="animable"></rect></g><rect x="294.94" y="254.84" width="102.48" height="30.9" style="fill: rgb(240, 240, 240); transform-origin: 346.18px 270.29px;" id="elk0vk6jx5lj" class="animable"></rect><g id="elj4rpo9oo3s"><rect x="331.85" y="253.8" width="28.67" height="5.18" rx="2.45" style="fill: rgb(245, 245, 245); transform-origin: 346.185px 256.39px; transform: rotate(180deg);" class="animable"></rect></g><g id="elygxhhr0ibwl"><rect x="331.85" y="329.38" width="28.67" height="5.18" rx="2.45" style="fill: rgb(245, 245, 245); transform-origin: 346.185px 331.97px; transform: rotate(180deg);" class="animable"></rect></g><g id="elx7tja0dpa8"><rect x="279.66" y="240.83" width="129.18" height="4.83" style="fill: rgb(240, 240, 240); transform-origin: 344.25px 243.245px; transform: rotate(180deg);" class="animable"></rect></g><rect x="408.84" y="240.83" width="33.1" height="4.83" style="fill: rgb(230, 230, 230); transform-origin: 425.39px 243.245px;" id="eld4p6m0xsrhs" class="animable"></rect><rect x="175.14" y="306.4" width="15.4" height="76" style="fill: rgb(240, 240, 240); transform-origin: 182.84px 344.4px;" id="elzpc3o758e" class="animable"></rect><g id="ela1022fh7vod"><rect x="78.21" y="306.4" width="96.94" height="76" style="fill: rgb(245, 245, 245); transform-origin: 126.68px 344.4px; transform: rotate(180deg);" class="animable"></rect></g><g id="elitcj5cgc4eb"><rect x="77.87" y="351.12" width="67.04" height="20.87" style="fill: rgb(250, 250, 250); transform-origin: 111.39px 361.555px; transform: rotate(180deg);" class="animable"></rect></g><g id="elcjld10z19fb"><rect x="77.87" y="323.53" width="67.04" height="20.87" style="fill: rgb(250, 250, 250); transform-origin: 111.39px 333.965px; transform: rotate(180deg);" class="animable"></rect></g><g id="elvzlzsihmsj"><rect x="77.87" y="311.4" width="112.67" height="2.68" style="fill: rgb(230, 230, 230); opacity: 0.7; mix-blend-mode: multiply; transform-origin: 134.205px 312.74px;" class="animable"></rect></g><rect x="175.14" y="304.78" width="17.2" height="7.75" style="fill: rgb(240, 240, 240); transform-origin: 183.74px 308.655px;" id="ely553xf2yvzf" class="animable"></rect><g id="elm4doeg458pg"><rect x="76.41" y="304.78" width="98.73" height="7.75" style="fill: rgb(245, 245, 245); transform-origin: 125.775px 308.655px; transform: rotate(180deg);" class="animable"></rect></g></g><g id="freepik--Shadow--inject-519" class="animable" style="transform-origin: 250px 416.24px;"><ellipse id="freepik--path--inject-519" cx="250" cy="416.24" rx="193.89" ry="11.32" style="fill: rgb(245, 245, 245); transform-origin: 250px 416.24px;" class="animable"></ellipse></g><g id="freepik--Newsletter--inject-519" class="animable" style="transform-origin: 315.195px 221.15px;"><path d="M365.55,221.33a15.05,15.05,0,0,0-15.23-16.93h62.36a15.05,15.05,0,0,1,15.24,16.93Z" style="fill: rgb(21, 180, 67); transform-origin: 389.179px 212.863px;" id="el78vfspy0kzu" class="animable"></path><g id="el1xzlfjuq2d6"><path d="M365.55,221.33a15.05,15.05,0,0,0-15.23-16.93h62.36a15.05,15.05,0,0,1,15.24,16.93Z" style="opacity: 0.2; transform-origin: 389.179px 212.863px;" class="animable"></path></g><path d="M350.32,204.4h62.36a19.14,19.14,0,0,0-18.61,16.93l-5.4,54.08a19.13,19.13,0,0,1-18.61,16.92H341.54a15,15,0,0,1-15.23-16.92l5.39-54.08A19.15,19.15,0,0,1,350.32,204.4Z" style="fill: rgb(21, 180, 67); transform-origin: 369.433px 248.367px;" id="elwxx1ge72zdc" class="animable"></path><path d="M354.83,275.41a15,15,0,0,0,15.23,16.92H307.69a15,15,0,0,1-15.23-16.92Z" style="fill: rgb(21, 180, 67); transform-origin: 331.198px 283.872px;" id="elcp85hlxntd" class="animable"></path><g id="elc03x7drh62"><path d="M354.83,275.41a15,15,0,0,0,15.23,16.92H307.69a15,15,0,0,1-15.23-16.92Z" style="opacity: 0.2; transform-origin: 331.198px 283.872px;" class="animable"></path></g><path d="M339.89,240.33h42.2a1.51,1.51,0,0,0,1.46-1.33l0-.14a1.19,1.19,0,0,0-1.2-1.33H340.16a1.5,1.5,0,0,0-1.45,1.33l0,.14A1.19,1.19,0,0,0,339.89,240.33Z" style="fill: rgb(255, 255, 255); transform-origin: 361.13px 238.93px;" id="elh4645yubekl" class="animable"></path><path d="M339,249.06h42.21a1.51,1.51,0,0,0,1.46-1.33l0-.14a1.19,1.19,0,0,0-1.2-1.33H339.29a1.51,1.51,0,0,0-1.46,1.33v.14A1.18,1.18,0,0,0,339,249.06Z" style="fill: rgb(255, 255, 255); transform-origin: 360.249px 247.66px;" id="elq93vt3sxl6" class="animable"></path><path d="M338.14,257.79h42.21a1.51,1.51,0,0,0,1.46-1.32v-.15a1.18,1.18,0,0,0-1.19-1.33H338.42a1.51,1.51,0,0,0-1.46,1.33v.15A1.18,1.18,0,0,0,338.14,257.79Z" style="fill: rgb(255, 255, 255); transform-origin: 359.386px 256.39px;" id="eld11vcn9u5ul" class="animable"></path><path d="M347,266.52h32.45a1.5,1.5,0,0,0,1.46-1.32v-.15a1.17,1.17,0,0,0-1.19-1.32H347.31a1.5,1.5,0,0,0-1.46,1.32v.15A1.17,1.17,0,0,0,347,266.52Z" style="fill: rgb(255, 255, 255); transform-origin: 363.38px 265.125px;" id="ellkzone0vzv" class="animable"></path><path d="M341.63,222.87h42.21a1.51,1.51,0,0,0,1.46-1.33v-.15a1.18,1.18,0,0,0-1.19-1.32H341.91a1.51,1.51,0,0,0-1.46,1.32l0,.15A1.19,1.19,0,0,0,341.63,222.87Z" style="fill: rgb(255, 255, 255); transform-origin: 362.875px 221.47px;" id="el50ycvwgdmqy" class="animable"></path><path d="M340.76,231.6H383a1.5,1.5,0,0,0,1.45-1.33l0-.14a1.19,1.19,0,0,0-1.19-1.33H341a1.51,1.51,0,0,0-1.46,1.33l0,.14A1.19,1.19,0,0,0,340.76,231.6Z" style="fill: rgb(255, 255, 255); transform-origin: 361.995px 230.2px;" id="elmpdm7fsg17" class="animable"></path><path d="M210.93,206.14l-3.81,38.16A5,5,0,0,0,212.2,250h86.86a6.41,6.41,0,0,0,6.21-5.65l3.81-38.16a5.25,5.25,0,0,0-.21-2.11,5,5,0,0,0-4.88-3.54H217.14a6.43,6.43,0,0,0-5.59,3.53A6,6,0,0,0,210.93,206.14Z" style="fill: rgb(21, 180, 67); transform-origin: 258.089px 225.27px;" id="elvvt222p6df" class="animable"></path><g id="elvtwk4kxvtip"><path d="M211.55,204l40.32,30.18a9.32,9.32,0,0,0,10.66,0L308.87,204a5,5,0,0,0-4.88-3.54H217.14A6.43,6.43,0,0,0,211.55,204Z" style="opacity: 0.3; transform-origin: 260.21px 218.157px;" class="animable"></path></g><path d="M230.62,209.64h46.7a8.52,8.52,0,0,0,8.27-7.52l6.75-67.56a6.71,6.71,0,0,0-6.77-7.52h-46.7a8.52,8.52,0,0,0-8.27,7.52l-6.74,67.56A6.69,6.69,0,0,0,230.62,209.64Z" style="fill: rgb(21, 180, 67); transform-origin: 258.099px 168.34px;" id="el17qhxpy8ps9" class="animable"></path><g id="elysyjpjuuij"><path d="M230.62,209.64h46.7a8.52,8.52,0,0,0,8.27-7.52l6.75-67.56a6.71,6.71,0,0,0-6.77-7.52h-46.7a8.52,8.52,0,0,0-8.27,7.52l-6.74,67.56A6.69,6.69,0,0,0,230.62,209.64Z" style="fill: rgb(255, 255, 255); opacity: 0.5; transform-origin: 258.099px 168.34px;" class="animable"></path></g><path d="M238.62,163.38h39.95a1.91,1.91,0,0,0,1.85-1.69h0A1.5,1.5,0,0,0,278.9,160H239a1.91,1.91,0,0,0-1.86,1.68h0A1.51,1.51,0,0,0,238.62,163.38Z" style="fill: rgb(255, 255, 255); transform-origin: 258.78px 161.69px;" id="ela9wemwsixuq" class="animable"></path><path d="M237.57,173.91h39.95a1.91,1.91,0,0,0,1.85-1.69h0a1.5,1.5,0,0,0-1.52-1.68h-40a1.9,1.9,0,0,0-1.85,1.68h0A1.51,1.51,0,0,0,237.57,173.91Z" style="fill: rgb(255, 255, 255); transform-origin: 257.685px 172.226px;" id="elix0sihpj06o" class="animable"></path><rect x="235" y="181.06" width="43.32" height="3.37" rx="1.69" style="fill: rgb(255, 255, 255); transform-origin: 256.66px 182.745px;" id="elopru2yb4up" class="animable"></rect><path d="M244.89,195h30.52a1.91,1.91,0,0,0,1.86-1.69h0a1.51,1.51,0,0,0-1.52-1.69H245.23a1.91,1.91,0,0,0-1.86,1.69h0A1.51,1.51,0,0,0,244.89,195Z" style="fill: rgb(255, 255, 255); transform-origin: 260.32px 193.31px;" id="elbhaome89d37" class="animable"></path><path d="M240.72,142.32h40a1.91,1.91,0,0,0,1.85-1.69h0A1.5,1.5,0,0,0,281,139H241.06a1.92,1.92,0,0,0-1.86,1.68h0A1.51,1.51,0,0,0,240.72,142.32Z" style="fill: rgb(255, 255, 255); transform-origin: 260.885px 140.659px;" id="el9sngtt1r8v" class="animable"></path><path d="M239.67,152.85h40a1.91,1.91,0,0,0,1.85-1.69h0a1.5,1.5,0,0,0-1.52-1.68H240a1.91,1.91,0,0,0-1.86,1.68h0A1.51,1.51,0,0,0,239.67,152.85Z" style="fill: rgb(255, 255, 255); transform-origin: 259.83px 151.165px;" id="el1tpcv0etuao" class="animable"></path><path d="M267.19,316.92l2.53-25.32a5.27,5.27,0,0,0-5.31-5.9h-53a6.69,6.69,0,0,0-6.49,5.9l-2.53,25.32a5.26,5.26,0,0,0,5.31,5.9h53A6.68,6.68,0,0,0,267.19,316.92Z" style="fill: rgb(21, 180, 67); transform-origin: 236.054px 304.26px;" id="elbjeou2bci0l" class="animable"></path><path d="M235.48,309.85a1.2,1.2,0,0,0,.65-.19l29-17.24a1.25,1.25,0,0,0,.53-1.62,1.12,1.12,0,0,0-1.59-.37l-28.29,16.85-24.93-16.85a1.24,1.24,0,0,0-1.66.37,1.12,1.12,0,0,0,.21,1.62l25.51,17.24A1,1,0,0,0,235.48,309.85Z" style="fill: rgb(255, 255, 255); transform-origin: 237.355px 300.046px;" id="elvrr7ly7n2c7" class="animable"></path><path d="M401.07,159.25,404.29,127a6.71,6.71,0,0,0-6.77-7.52H330a8.54,8.54,0,0,0-8.27,7.52l-3.22,32.26a6.71,6.71,0,0,0,6.77,7.52H392.8A8.54,8.54,0,0,0,401.07,159.25Z" style="fill: rgb(21, 180, 67); transform-origin: 361.4px 143.13px;" id="elevdvyiv3l8l" class="animable"></path><g id="elwa8kynjfwxb"><path d="M401.07,159.25,404.29,127a6.71,6.71,0,0,0-6.77-7.52H330a8.54,8.54,0,0,0-8.27,7.52l-3.22,32.26a6.71,6.71,0,0,0,6.77,7.52H392.8A8.54,8.54,0,0,0,401.07,159.25Z" style="opacity: 0.5; transform-origin: 361.4px 143.13px;" class="animable"></path></g><path d="M360.66,150.24a1.59,1.59,0,0,0,.83-.24l36.9-22a1.59,1.59,0,0,0,.67-2.06,1.43,1.43,0,0,0-2-.47L361,147,329.23,125.5a1.57,1.57,0,0,0-2.11.46,1.43,1.43,0,0,0,.26,2.07l32.5,22A1.38,1.38,0,0,0,360.66,150.24Z" style="fill: rgb(255, 255, 255); transform-origin: 362.999px 137.742px;" id="el285k9lws545" class="animable"></path></g><g id="freepik--Character--inject-519" class="animable" style="transform-origin: 181.418px 260.202px;"><path d="M146.2,158.59c-2.52,4.43-5.06,9-7.5,13.55s-4.81,9.12-6.91,13.7c-.5,1.13-1,2.28-1.49,3.41l-.34.85-.18.42,0,.11v-.11a3.2,3.2,0,0,0,0-1.23,3.78,3.78,0,0,0-1.21-2,2.27,2.27,0,0,0-1-.53c-.13,0-.09,0,0,0a4.27,4.27,0,0,0,1.09.13,27,27,0,0,0,3.31-.21c4.77-.6,9.95-1.75,15-2.81l2.08,5.36a74.55,74.55,0,0,1-15.22,6.45,28.21,28.21,0,0,1-4.51.94,15.29,15.29,0,0,1-2.86.09,10.42,10.42,0,0,1-1.94-.35,7.12,7.12,0,0,1-2.72-1.45,6.65,6.65,0,0,1-2.17-3.7,7.68,7.68,0,0,1,.06-3.19l.14-.55.08-.27,0-.12.16-.51.33-1c.43-1.37.93-2.64,1.4-3.95,2-5.14,4.25-10.05,6.66-14.86s5-9.46,7.8-14.13Z" style="fill: rgb(255, 195, 189); transform-origin: 134.271px 174.685px;" id="elsxiy9cyvfp" class="animable"></path><path d="M175.76,124.43c-.16.6,0,1.17.43,1.27s.83-.31,1-.91,0-1.16-.43-1.26S175.91,123.83,175.76,124.43Z" style="fill: rgb(38, 50, 56); transform-origin: 176.477px 124.615px;" id="elzv4kborn8x8" class="animable"></path><path d="M175.74,125.58a22.39,22.39,0,0,0,1.56,5.85,3.54,3.54,0,0,1-3-.19Z" style="fill: rgb(237, 132, 126); transform-origin: 175.8px 128.628px;" id="eliozdgkhv0n8" class="animable"></path><path d="M174.41,120.55a.35.35,0,0,1-.18-.2.36.36,0,0,1,.2-.47,3.64,3.64,0,0,1,3.31.26.37.37,0,0,1,.08.51.36.36,0,0,1-.5.08h0a2.89,2.89,0,0,0-2.62-.17A.36.36,0,0,1,174.41,120.55Z" style="fill: rgb(38, 50, 56); transform-origin: 176.046px 120.198px;" id="eljwyy0bmecp9" class="animable"></path><path d="M157.33,127.66c-1.57,5.7-.89,13.72-5.55,17.46,0,0,.42,5.69,10.83,5.69,11.46,0,6.6-5.69,6.6-5.69-6-1.49-4.89-6.13-2.94-10.49Z" style="fill: rgb(255, 195, 189); transform-origin: 161.007px 139.235px;" id="elup5pt1wx15s" class="animable"></path><path d="M151.37,146.38c-.83-1.1-1.74-2.35.15-2.74,2.07-.44,13.41-.88,17.32-.07s2.81,3,2.81,3Z" style="fill: rgb(38, 50, 56); transform-origin: 161.099px 144.844px;" id="elk84fhj171uo" class="animable"></path><path d="M118.14,405.05a2.48,2.48,0,0,0,1.91-.1.74.74,0,0,0,.18-.84.84.84,0,0,0-.47-.54c-1-.49-3.41.48-3.51.52a.2.2,0,0,0-.12.16.18.18,0,0,0,.11.17A9.47,9.47,0,0,0,118.14,405.05Zm1.25-1.22.21.07a.48.48,0,0,1,.28.31c.1.33,0,.43-.06.46-.42.35-1.95,0-3-.4A5.88,5.88,0,0,1,119.39,403.83Z" style="fill: rgb(21, 180, 67); transform-origin: 118.21px 404.314px;" id="elt09k5k1x2ig" class="animable"></path><path d="M116.28,404.43h.09c.86-.25,2.72-1.57,2.74-2.44a.6.6,0,0,0-.46-.59,1,1,0,0,0-.81.07c-1,.52-1.67,2.64-1.7,2.73a.17.17,0,0,0,0,.18A.11.11,0,0,0,116.28,404.43Zm2.17-2.71.08,0c.22.07.22.18.22.23,0,.52-1.24,1.55-2.14,2a4.4,4.4,0,0,1,1.4-2.16A.63.63,0,0,1,118.45,401.72Z" style="fill: rgb(21, 180, 67); transform-origin: 117.612px 402.892px;" id="el93hkart7kyt" class="animable"></path><path d="M173.32,408.81c1,0,1.94-.14,2.26-.58a.68.68,0,0,0,0-.79A.9.9,0,0,0,175,407c-1.28-.35-4,1.18-4.07,1.25a.17.17,0,0,0-.09.18.17.17,0,0,0,.14.15A13.19,13.19,0,0,0,173.32,408.81Zm1.22-1.49a1.25,1.25,0,0,1,.35,0,.58.58,0,0,1,.36.26c.12.22.08.33,0,.4-.36.49-2.29.5-3.72.3A8.27,8.27,0,0,1,174.54,407.32Z" style="fill: rgb(21, 180, 67); transform-origin: 173.272px 407.879px;" id="elqppy283udc" class="animable"></path><path d="M171,408.6l.07,0c.93-.42,2.76-2.07,2.62-2.94,0-.2-.18-.46-.68-.51a1.32,1.32,0,0,0-1,.31c-1,.8-1.18,2.87-1.19,3a.17.17,0,0,0,.07.16A.21.21,0,0,0,171,408.6Zm1.87-3.11H173c.32,0,.35.17.35.21.09.52-1.16,1.82-2.1,2.39a4.28,4.28,0,0,1,1-2.37A1,1,0,0,1,172.88,405.49Z" style="fill: rgb(21, 180, 67); transform-origin: 172.258px 406.882px;" id="ely0ttckib7c" class="animable"></path><polygon points="162.58 408.41 170.25 408.41 171.01 390.67 163.35 390.67 162.58 408.41" style="fill: rgb(255, 195, 189); transform-origin: 166.795px 399.54px;" id="eloovmodailsm" class="animable"></polygon><polygon points="107.73 402.4 115.22 404.02 122.75 387.49 115.25 385.87 107.73 402.4" style="fill: rgb(255, 195, 189); transform-origin: 115.24px 394.945px;" id="el6jjxlqfub0m" class="animable"></polygon><path d="M115.94,403.27l-8.41-1.82a.65.65,0,0,0-.75.37l-2.92,6.34a1.13,1.13,0,0,0,.81,1.57c3,.58,4.41.72,8.11,1.52,2.28.49,7.42,1.74,10.56,2.42s4.23-2.33,3-2.89c-5.49-2.52-7.79-4.73-9.28-6.79A1.84,1.84,0,0,0,115.94,403.27Z" style="fill: rgb(38, 50, 56); transform-origin: 115.298px 407.6px;" id="el08tcl3j4d9cj" class="animable"></path><path d="M170.2,407.53h-8.37a.67.67,0,0,0-.66.52l-1.51,6.81a1.11,1.11,0,0,0,1.1,1.36c3-.05,7.38-.22,11.18-.22,4.43,0,8.27.24,13.47.24,3.15,0,4-3.18,2.7-3.47-6-1.31-10.89-1.45-16.07-4.65A3.58,3.58,0,0,0,170.2,407.53Z" style="fill: rgb(38, 50, 56); transform-origin: 174.163px 411.885px;" id="elbl7uk2bbpxb" class="animable"></path><path d="M139.22,146.85c-7.18,1.65-11.54,14.72-11.54,14.72L140,175.33a154.82,154.82,0,0,0,7.78-13.56C152,152.81,146.56,145.17,139.22,146.85Z" style="fill: rgb(21, 180, 67); transform-origin: 138.468px 160.973px;" id="eli01xue6gcg" class="animable"></path><g id="elxpfcy5ah7a"><path d="M142.43,159.13c-2,2.84-3.84,7-1.77,15.08,1.62-2.6,3.21-5.26,4.58-7.67h0C145.61,159.9,144.34,156.84,142.43,159.13Z" style="opacity: 0.3; transform-origin: 142.527px 166.293px;" class="animable"></path></g><path d="M184,151.9c1.84,7,3.68,23.85-1.41,61.58h-41c-.28-6.29,3.67-37-2.4-66.63a106.75,106.75,0,0,1,13.72-1.73,151.16,151.16,0,0,1,17.43,0,69.8,69.8,0,0,1,7.81,1.2A7.63,7.63,0,0,1,184,151.9Z" style="fill: rgb(21, 180, 67); transform-origin: 162.543px 179.174px;" id="elfk6rudj3ta5" class="animable"></path><g id="elfmipu56nj5"><path d="M184.28,153h0c-6.77-6.2-11.77-6.5-13.13.31-2.85,14.27,13.94,29.64,14.43,30.08C186.45,167.26,185.43,158.07,184.28,153Z" style="opacity: 0.3; transform-origin: 178.365px 165.833px;" class="animable"></path></g><path d="M180,149.49c2.2,2.44,4.27,4.92,6.38,7.4s4.15,5,6.16,7.56,4,5.13,6,7.77,3.88,5.31,5.74,8.15L201,178.24c1.65.42,3.31.87,5,1.22s3.43.71,5.17,1,3.51.59,5.29.86,3.59.5,5.3.76l.36,5.74c-2,.45-3.83.7-5.76,1s-3.84.34-5.78.41a67.4,67.4,0,0,1-11.73-.66l-1.82-.27-1.41-1.86c-1.85-2.44-3.88-4.88-5.88-7.33l-6.15-7.31-12.42-14.64Z" style="fill: rgb(255, 195, 189); transform-origin: 196.645px 169.376px;" id="el52b9bk9m0cs" class="animable"></path><path d="M246.38,132.94a21.23,21.23,0,0,0-24.51,13c-3.59,9.67,1.56,19.55,11.5,22.06a21.23,21.23,0,0,0,24.51-13A16.34,16.34,0,0,0,246.38,132.94Zm-12,32.26a13.76,13.76,0,0,1-9.68-18.57,17.88,17.88,0,0,1,20.63-10.92A13.76,13.76,0,0,1,255,154.28,17.89,17.89,0,0,1,234.4,165.2Z" style="fill: rgb(38, 50, 56); transform-origin: 239.901px 150.47px;" id="elmfg08axb7z" class="animable"></path><g id="elveoaf16fr7c"><path d="M234.86,164A12.6,12.6,0,0,1,226,147a16.38,16.38,0,0,1,18.9-10,12.61,12.61,0,0,1,8.88,17A16.38,16.38,0,0,1,234.86,164Z" style="fill: rgb(21, 180, 67); opacity: 0.3; transform-origin: 239.887px 150.502px;" class="animable"></path></g><g id="elko7u7j40tos"><g style="opacity: 0.5; transform-origin: 239.708px 148.445px;" class="animable"><path d="M244.89,136.94l-.26-.06-18.55,9.81L226,147a13.05,13.05,0,0,0-.22,8.83l26.47-14A13,13,0,0,0,244.89,136.94Z" style="fill: rgb(250, 250, 250); transform-origin: 238.683px 146.355px;" id="elkktx9mncd4" class="animable"></path><path d="M253.21,143.32l-26.73,14.14a11.67,11.67,0,0,0,1.75,2.55l26.07-13.8A11.86,11.86,0,0,0,253.21,143.32Z" style="fill: rgb(250, 250, 250); transform-origin: 240.39px 151.665px;" id="elj7r89mykog" class="animable"></path></g></g><path d="M234.38,169.91l-3.16-.8a.8.8,0,0,1-.56-1.07h0a1,1,0,0,1,1.19-.63l3.16.8a.8.8,0,0,1,.56,1.07h0A1,1,0,0,1,234.38,169.91Z" style="fill: rgb(38, 50, 56); transform-origin: 233.115px 168.66px;" id="elf65jm7vhm17" class="animable"></path><path d="M234.47,168.52c-.2,1.39-.49,2.75-.82,4.11s-.7,2.69-1.1,4-.84,2.66-1.3,4-.46,2.76-2.63,3.65a2.4,2.4,0,0,1-2.11-.33,1.38,1.38,0,0,1-.27-.27c-1.2-1.74-.09-2.9.29-4.24s1.05-2.6,1.63-3.89,1.17-2.58,1.82-3.85,1.33-2.54,2.11-3.78a1.43,1.43,0,0,1,1.55-.24C234.18,167.86,234.51,168.21,234.47,168.52Z" style="fill: rgb(38, 50, 56); transform-origin: 230.085px 175.972px;" id="elgpzcunbaf2" class="animable"></path><path d="M220,188l5.64.5-1.14-8.78s-4.33.08-6.49,3.09Z" style="fill: rgb(255, 195, 189); transform-origin: 221.825px 184.11px;" id="el3d3bm1uzwhk" class="animable"></path><polygon points="233.06 186.44 231.17 180.76 224.46 179.71 225.6 188.5 233.06 186.44" style="fill: rgb(255, 195, 189); transform-origin: 228.76px 184.105px;" id="eluh0ga27opc" class="animable"></polygon><path d="M170.23,152.83C167.28,163,182.77,177,182.77,177l13.91-13.62s-4.59-5.72-7.81-9.49C179.84,143.38,172.59,144.74,170.23,152.83Z" style="fill: rgb(21, 180, 67); transform-origin: 183.268px 161.692px;" id="el7ydcl8l2alt" class="animable"></path><g id="eln6q2zsknpk"><polygon points="171.01 390.67 170.62 399.82 162.95 399.82 163.34 390.67 171.01 390.67" style="opacity: 0.2; transform-origin: 166.98px 395.245px;" class="animable"></polygon></g><g id="el7cr4bu9zjs"><polygon points="115.25 385.87 122.74 387.5 118.86 396.01 111.37 394.39 115.25 385.87" style="opacity: 0.2; transform-origin: 117.055px 390.94px;" class="animable"></polygon></g><path d="M156.1,118.09c-1.42,7.47-2.63,11.77.13,16.49,4.14,7.1,14.08,6,17.7-.86,3.26-6.21,5-17.39-1.43-22.14A10.36,10.36,0,0,0,156.1,118.09Z" style="fill: rgb(255, 195, 189); transform-origin: 165.711px 124.467px;" id="elfmz5x2ttag" class="animable"></path><path d="M169,124.61c1.56-.61,11.89-13.78-10.44-13.94-9.72-.07-8.65,19.21-1.77,23S170.65,129.67,169,124.61Z" style="fill: rgb(38, 50, 56); transform-origin: 162.093px 122.672px;" id="el7sq1fbnm6x7" class="animable"></path><path d="M156.31,113c12.62,5.09,25.06,5.83,27.95-1.15,2.28-5.5-4.67-1.49-4.67-1.49s4.07-6-3.12-6.19-3.75,4-3.75,4S151,101.93,156.31,113Z" style="fill: rgb(38, 50, 56); transform-origin: 170.097px 110.558px;" id="elaolfsfc8eud" class="animable"></path><path d="M156.32,110.83s-3.67-.23-4.54,3c1.08-1.25,2.4-2.3,3.31-1.33C156.4,111.49,156.32,110.83,156.32,110.83Z" style="fill: rgb(38, 50, 56); transform-origin: 154.05px 112.328px;" id="eldcu6vrlhz6v" class="animable"></path><path d="M167.71,123.65a7.37,7.37,0,0,0,.43,4.67c.88,1.92,2.58,1.44,3.4-.3.73-1.56,1.17-4.44-.22-5.79S168.19,121.78,167.71,123.65Z" style="fill: rgb(255, 195, 189); transform-origin: 169.87px 125.57px;" id="el8mgo8sm0lh8" class="animable"></path><path d="M168.07,213.48s-8.7,58.57-13.47,80.51C149.37,318,122.73,395,122.73,395l-13.72-3s19.61-72.12,22.6-95.9c3.23-25.82,10-82.69,10-82.69Z" style="fill: rgb(38, 50, 56); transform-origin: 138.54px 304.205px;" id="elrjgx6o3xu5" class="animable"></path><path d="M126,390.46s-2.56,5-2.56,5L108,392.08l1.31-4.64Z" style="fill: rgb(21, 180, 67); transform-origin: 117px 391.45px;" id="eligbccgykgn" class="animable"></path><g id="eli87sd04jald"><path d="M162.57,234.35c-10.06,2-9,39.47-7.78,58.76,2.9-13.63,7.14-39.87,10-58.49A3.43,3.43,0,0,0,162.57,234.35Z" style="opacity: 0.3; transform-origin: 159.409px 263.692px;" class="animable"></path></g><path d="M182.61,213.48s1,57.3.22,80.67c-.87,24.31-9.36,103.9-9.36,103.9h-13s-.48-78.17-1.05-102c-.63-26-3.78-82.53-3.78-82.53Z" style="fill: rgb(38, 50, 56); transform-origin: 169.384px 305.765px;" id="ellzn13429cr" class="animable"></path><path d="M176,392.88c.06,0-.73,5.39-.73,5.39H159.45l-.43-4.81Z" style="fill: rgb(21, 180, 67); transform-origin: 167.512px 395.575px;" id="elfz1jfvj47q4" class="animable"></path></g><defs>     <filter id="active" height="200%">         <feMorphology in="SourceAlpha" result="DILATED" operator="dilate" radius="2"></feMorphology>                <feFlood flood-color="#32DFEC" flood-opacity="1" result="PINK"></feFlood>        <feComposite in="PINK" in2="DILATED" operator="in" result="OUTLINE"></feComposite>        <feMerge>            <feMergeNode in="OUTLINE"></feMergeNode>            <feMergeNode in="SourceGraphic"></feMergeNode>        </feMerge>    </filter>    <filter id="hover" height="200%">        <feMorphology in="SourceAlpha" result="DILATED" operator="dilate" radius="2"></feMorphology>                <feFlood flood-color="#ff0000" flood-opacity="0.5" result="PINK"></feFlood>        <feComposite in="PINK" in2="DILATED" operator="in" result="OUTLINE"></feComposite>        <feMerge>            <feMergeNode in="OUTLINE"></feMergeNode>            <feMergeNode in="SourceGraphic"></feMergeNode>        </feMerge>            <feColorMatrix type="matrix" values="0   0   0   0   0                0   1   0   0   0                0   0   0   0   0                0   0   0   1   0 "></feColorMatrix>    </filter></defs></svg>